<?xml version="1.0" encoding="UTF-8"?>
<svg viewBox="-6 -4 28 22" width="960px" xmlns="http://www.w3.org/2000/svg">
<style>
circle:hover {fill: #cf1338}
circle {fill: black}
line, polyline {stroke: black; stroke-width: 0.1042%}polyline {stroke: #cf1338}line.target {stroke: blue; stroke-dasharray: 1.0417%}
polyline {fill: none}text {font-family: sans-serif; font-size: 1px; text-anchor: middle}
text.target {fill: blue; font-size: 0.7px}
text.tick {font-size: 0.7px}
text.title {fill: #cf1338; font-size: 1.1px}
</style>
<text class="title" x="8.0000" y="-2.0000">Conway's Cantonese Dictionary: Progress</text><line x1="0.0000" y1="14.0000" x2="20.0000" y2="14.0000"/>
<text x="10.0000" y="14.0000" dy="3em">Time</text>
<line x1="1.4392" y1="14.0000" x2="1.4392" y2="14.2000"/>
<text class="tick" x="1.4392" y="14.2000" dy="1.3em">2024</text>
<line x1="4.3019" y1="14.0000" x2="4.3019" y2="14.2000"/>
<text class="tick" x="4.3019" y="14.2000" dy="1.3em">2025</text>
<line x1="7.1568" y1="14.0000" x2="7.1568" y2="14.2000"/>
<text class="tick" x="7.1568" y="14.2000" dy="1.3em">2026</text>
<line x1="10.0117" y1="14.0000" x2="10.0117" y2="14.2000"/>
<text class="tick" x="10.0117" y="14.2000" dy="1.3em">2027</text>
<line x1="12.8666" y1="14.0000" x2="12.8666" y2="14.2000"/>
<text class="tick" x="12.8666" y="14.2000" dy="1.3em">2028</text>
<line x1="15.7294" y1="14.0000" x2="15.7294" y2="14.2000"/>
<text class="tick" x="15.7294" y="14.2000" dy="1.3em">2029</text>
<line x1="18.5843" y1="14.0000" x2="18.5843" y2="14.2000"/>
<text class="tick" x="18.5843" y="14.2000" dy="1.3em">2030</text>
<line x1="0.0000" y1="14.0000" x2="0.0000" y2="0.0000"/>
<text x="0.0000" y="7.0000" dy="-4em" transform="rotate(-90 0.0000 7.0000)">Entry Count</text>
<line x1="0.0000" y1="12.0000" x2="-0.2000" y2="12.0000"/>
<text class="tick" x="-0.2000" y="12.0000" dx="-2em" dy="0.33em">2000</text>
<line x1="0.0000" y1="10.0000" x2="-0.2000" y2="10.0000"/>
<text class="tick" x="-0.2000" y="10.0000" dx="-2em" dy="0.33em">4000</text>
<line x1="0.0000" y1="8.0000" x2="-0.2000" y2="8.0000"/>
<text class="tick" x="-0.2000" y="8.0000" dx="-2em" dy="0.33em">6000</text>
<line x1="0.0000" y1="6.0000" x2="-0.2000" y2="6.0000"/>
<text class="tick" x="-0.2000" y="6.0000" dx="-2em" dy="0.33em">8000</text>
<line x1="0.0000" y1="4.0000" x2="-0.2000" y2="4.0000"/>
<text class="tick" x="-0.2000" y="4.0000" dx="-2em" dy="0.33em">10000</text>
<line x1="0.0000" y1="2.0000" x2="-0.2000" y2="2.0000"/>
<text class="tick" x="-0.2000" y="2.0000" dx="-2em" dy="0.33em">12000</text>
<line class="target" x1="0.0000" y1="1.0000" x2="20.0000" y2="1.0000"/>
<text class="target" x="10.0000" y="1.0000" dy="-0.5em">Approximate Target: 13000 entries</text>
<polyline points="8.2285,11.5860 8.1075,11.6380 7.9143,11.6580 7.8523,11.6640 7.7906,11.6650 7.6492,11.6770 7.3290,11.6800 7.0865,11.6870 6.9690,11.6960 6.8596,11.7200 6.8360,11.7450 6.7738,11.7700 6.7430,11.7900 6.7273,11.7900 6.6955,11.7920 6.6711,11.8000 6.6408,11.8000 6.5834,11.8420 6.5235,11.9000 6.2645,11.9590 6.1984,12.0090 6.1215,12.0800 6.0694,12.1320 5.8892,12.1740 5.7785,12.1870 5.7326,12.1940 5.3388,12.2020 5.0533,12.2060 4.9823,12.2100 4.9118,12.2170 4.8850,12.2200 4.8497,12.2230 4.7790,12.2230 4.7243,12.2230 4.6695,12.2240 4.6191,12.2250 4.5817,12.2300 4.5135,12.2360 4.4509,12.2370 4.4114,12.2390 4.3379,12.2330 4.2854,12.2340 4.2079,12.2290 4.1765,12.2330 4.1376,12.2350 4.0833,12.2370 4.0740,12.2430 4.0273,12.2730 3.9106,12.3030 3.7478,12.3500 3.6442,12.3970 3.6147,12.4100 3.5982,12.4130 3.5478,12.4730 3.4884,12.5300 3.4255,12.5870 3.0812,12.6410 3.0116,12.6920 2.9711,12.7090 2.9153,12.7550 2.8235,12.8090 2.5866,12.8610 2.5324,12.9270 2.4631,12.9840 2.4219,13.0120 2.3537,13.0500 2.2916,13.1190 2.2372,13.1830 2.1820,13.2400 2.0175,13.3010 1.8755,13.3570 1.7641,13.3970 1.7129,13.4550 1.6486,13.5130 1.6108,13.5510 1.5722,13.5940 1.5171,13.6450 1.4765,13.6500 1.4628,13.6720 1.4293,13.7120 1.4076,13.7140 1.3687,13.7700 1.0717,13.8240 0.5945,13.8740 0.3736,13.9010 0.3356,13.9350 0.2969,13.9560 0.2820,13.9620 0.2815,13.9620 0.2812,13.9620 0.2801,13.9620 0.2797,13.9620 0.2793,13.9620 0.2738,13.9620 0.2733,13.9620 0.2582,13.9620 0.2574,13.9620 0.2346,13.9620 0.2190,13.9740 0.1722,13.9740 0.1626,13.9860 0.1561,14.0000 0.1557,14.0000"/>
<circle cx="8.2285" cy="11.5860" r="0.1000"><title>2414 entries @ 2026-05-18 00:10:47 +0800
(commit 27dd1c3db91d4671c1282ccb5bee16cb508eed54)</title></circle>
<circle cx="8.1075" cy="11.6380" r="0.1000"><title>2362 entries @ 2026-05-02 12:59:24 +0800
(commit 360954332167a7bfc90ca0d3c849eff2ab5119cd)</title></circle>
<circle cx="7.9143" cy="11.6580" r="0.1000"><title>2342 entries @ 2026-04-07 20:12:38 +0800
(commit 137701a3990fd5cda6a3fe76f92085777506c797)</title></circle>
<circle cx="7.8523" cy="11.6640" r="0.1000"><title>2336 entries @ 2026-03-30 21:53:02 +0800
(commit 8284463ce591d7993f2fa68ea098264578d55e40)</title></circle>
<circle cx="7.7906" cy="11.6650" r="0.1000"><title>2335 entries @ 2026-03-23 00:49:48 +0800
(commit e8ec259102ece1b843ce0072e4308b0716ce99a6)</title></circle>
<circle cx="7.6492" cy="11.6770" r="0.1000"><title>2323 entries @ 2026-03-04 22:42:39 +0800
(commit cda61d5705a712cff3512ed25072ead0691938a6)</title></circle>
<circle cx="7.3290" cy="11.6800" r="0.1000"><title>2320 entries @ 2026-01-23 00:20:38 +0800
(commit f63baa17c30ebd1faecf50ef9d490660829bfa6d)</title></circle>
<circle cx="7.0865" cy="11.6870" r="0.1000"><title>2313 entries @ 2025-12-23 00:07:49 +0800
(commit a009600a1cbf6df52b0888be2d35b1ae76372873)</title></circle>
<circle cx="6.9690" cy="11.6960" r="0.1000"><title>2304 entries @ 2025-12-07 23:40:41 +0800
(commit 2134fde9362581f52e0087940b7c7f7ffa86bce0)</title></circle>
<circle cx="6.8596" cy="11.7200" r="0.1000"><title>2280 entries @ 2025-11-23 23:57:39 +0800
(commit c12dc749a46da85f681f321630e3525d0a1abb8b)</title></circle>
<circle cx="6.8360" cy="11.7450" r="0.1000"><title>2255 entries @ 2025-11-20 23:34:07 +0800
(commit 223c2ecd04723f4727075e8d47050a7ee0d421fd)</title></circle>
<circle cx="6.7738" cy="11.7700" r="0.1000"><title>2230 entries @ 2025-11-13 00:47:53 +0800
(commit fbbc7625b99fc85e940187f01f322086b945518e)</title></circle>
<circle cx="6.7430" cy="11.7900" r="0.1000"><title>2210 entries @ 2025-11-09 02:13:25 +0800
(commit 8f26e34661eecd6331bf78cef88608ee89128435)</title></circle>
<circle cx="6.7273" cy="11.7900" r="0.1000"><title>2210 entries @ 2025-11-07 02:01:54 +0800
(commit b8c99e98b3b1133c7c1260870adb3d0679467da8)</title></circle>
<circle cx="6.6955" cy="11.7920" r="0.1000"><title>2208 entries @ 2025-11-03 00:32:39 +0800
(commit 48bfac908b4ca0a4f285d5bcd83c3356c5672118)</title></circle>
<circle cx="6.6711" cy="11.8000" r="0.1000"><title>2200 entries @ 2025-10-30 21:42:15 +0800
(commit a9dc75762a5ecb850689912699428a01f1e6ee37)</title></circle>
<circle cx="6.6408" cy="11.8000" r="0.1000"><title>2200 entries @ 2025-10-27 00:45:28 +0800
(commit 6b8d593a89ac23fb641e0d8d13e9cc4c70d43359)</title></circle>
<circle cx="6.5834" cy="11.8420" r="0.1000"><title>2158 entries @ 2025-10-19 16:38:27 +0800
(commit 5a3f0545b4d1fe928b5c25f2c7116eb815826901)</title></circle>
<circle cx="6.5235" cy="11.9000" r="0.1000"><title>2100 entries @ 2025-10-12 00:41:47 +0800
(commit 4205590b680f2859700118261dc080a9ae380811)</title></circle>
<circle cx="6.2645" cy="11.9590" r="0.1000"><title>2041 entries @ 2025-09-08 22:05:06 +0800
(commit c5fd4206b996d55d345d9175fc136a952c68e36c)</title></circle>
<circle cx="6.1984" cy="12.0090" r="0.1000"><title>1991 entries @ 2025-08-31 11:15:57 +0800
(commit a952cbcf44b8645b9793c2bba478372c2c8b71bf)</title></circle>
<circle cx="6.1215" cy="12.0800" r="0.1000"><title>1920 entries @ 2025-08-21 15:04:04 +0800
(commit 1fd83753fcb32532cb40ed939cbb6f3a038c0503)</title></circle>
<circle cx="6.0694" cy="12.1320" r="0.1000"><title>1868 entries @ 2025-08-14 23:19:45 +0800
(commit fd5ed53683453e01be05642c850f0277ab3a1770)</title></circle>
<circle cx="5.8892" cy="12.1740" r="0.1000"><title>1826 entries @ 2025-07-22 22:20:23 +0800
(commit b8c2e04dd4c1c4207e7fadb39ed5ef11b1f41fda)</title></circle>
<circle cx="5.7785" cy="12.1870" r="0.1000"><title>1813 entries @ 2025-07-08 18:40:36 +0800
(commit 920a48757e7d1cec00a7536c39378017d8c6cefb)</title></circle>
<circle cx="5.7326" cy="12.1940" r="0.1000"><title>1806 entries @ 2025-07-02 21:47:04 +0800
(commit 5c37bd51bcd371ac2f0b4054a62dcb6947d3bb83)</title></circle>
<circle cx="5.3388" cy="12.2020" r="0.1000"><title>1798 entries @ 2025-05-13 13:37:59 +0800
(commit 61ac88ba2791a6651c18bf37206b07a307c91b8c)</title></circle>
<circle cx="5.0533" cy="12.2060" r="0.1000"><title>1794 entries @ 2025-04-07 01:41:07 +0800
(commit 6d64b04ca1d17474823e35dc77b551fd6606e427)</title></circle>
<circle cx="4.9823" cy="12.2100" r="0.1000"><title>1790 entries @ 2025-03-28 23:34:10 +0800
(commit 03c1b0dd6d5d920a02b7fec0ffb08e21ba7a7cf3)</title></circle>
<circle cx="4.9118" cy="12.2170" r="0.1000"><title>1783 entries @ 2025-03-19 23:30:43 +0800
(commit 5d39ff107c5cf11ad1c2ae20298895b923896b0c)</title></circle>
<circle cx="4.8850" cy="12.2200" r="0.1000"><title>1780 entries @ 2025-03-16 13:16:42 +0800
(commit 89e83974f0ff70a3597c921fd6a594306c5ef481)</title></circle>
<circle cx="4.8497" cy="12.2230" r="0.1000"><title>1777 entries @ 2025-03-12 00:42:27 +0800
(commit 17323837fa31298e656b16e26ee58a65d47b6842)</title></circle>
<circle cx="4.7790" cy="12.2230" r="0.1000"><title>1777 entries @ 2025-03-03 00:01:10 +0800
(commit 48f8c211d45cf25d926a5525a0222c5d5dbf40fe)</title></circle>
<circle cx="4.7243" cy="12.2230" r="0.1000"><title>1777 entries @ 2025-02-24 00:00:44 +0800
(commit 6f620212547ecaffac7e0b6adfd2eb4f6ddd0489)</title></circle>
<circle cx="4.6695" cy="12.2240" r="0.1000"><title>1776 entries @ 2025-02-16 23:56:24 +0800
(commit 94e6ce086f5cae7c985e121a97f87609237b34ba)</title></circle>
<circle cx="4.6191" cy="12.2250" r="0.1000"><title>1775 entries @ 2025-02-10 13:23:57 +0800
(commit 3dfa92d18231f663eaec4df69cfd07d63d6a946c)</title></circle>
<circle cx="4.5817" cy="12.2300" r="0.1000"><title>1770 entries @ 2025-02-05 18:22:07 +0800
(commit a2e4ce5b7219f291fd994c9b5bfdcdde3bba4d78)</title></circle>
<circle cx="4.5135" cy="12.2360" r="0.1000"><title>1764 entries @ 2025-01-28 01:17:22 +0800
(commit 3729fb9c7f109aeb5606143db2c3cef8a0ecf200)</title></circle>
<circle cx="4.4509" cy="12.2370" r="0.1000"><title>1763 entries @ 2025-01-20 01:15:20 +0800
(commit e66bb9a0744e4693dbee5d3cc9193ef25f8a4f8e)</title></circle>
<circle cx="4.4114" cy="12.2390" r="0.1000"><title>1761 entries @ 2025-01-14 23:52:15 +0800
(commit 2c459a8d79c661c463a1e8ff40f3498fb6c5d949)</title></circle>
<circle cx="4.3379" cy="12.2330" r="0.1000"><title>1767 entries @ 2025-01-05 14:16:05 +0800
(commit f4f47ab2a8ab63ba8f4b32a4cf33cbbe00825b30)</title></circle>
<circle cx="4.2854" cy="12.2340" r="0.1000"><title>1766 entries @ 2024-12-29 21:23:45 +0800
(commit 8c779fd5819bc0bf8f152e699e3744d710bac5c2)</title></circle>
<circle cx="4.2079" cy="12.2290" r="0.1000"><title>1771 entries @ 2024-12-19 23:34:24 +0800
(commit c4791eb17220ea98c6ad7ccdb2f257ce1947e199)</title></circle>
<circle cx="4.1765" cy="12.2330" r="0.1000"><title>1767 entries @ 2024-12-15 23:05:45 +0800
(commit a1a200cfc349eb326c706c49f15365615db5323a)</title></circle>
<circle cx="4.1376" cy="12.2350" r="0.1000"><title>1765 entries @ 2024-12-10 23:51:16 +0800
(commit c34574e9fd3ddce98e1e47259a9cf80aef3bb400)</title></circle>
<circle cx="4.0833" cy="12.2370" r="0.1000"><title>1763 entries @ 2024-12-04 01:09:56 +0800
(commit 57d969d9ee158ccfcd22d0e666e983d8f9eaa757)</title></circle>
<circle cx="4.0740" cy="12.2430" r="0.1000"><title>1757 entries @ 2024-12-02 20:39:50 +0800
(commit 9dc5ba0a6a6a10d701ebb9882d49b29e21694361)</title></circle>
<circle cx="4.0273" cy="12.2730" r="0.1000"><title>1727 entries @ 2024-11-26 21:26:09 +0800
(commit 3d971d356ae1302305994ca783a62846119022c7)</title></circle>
<circle cx="3.9106" cy="12.3030" r="0.1000"><title>1697 entries @ 2024-11-11 23:22:57 +0800
(commit d470bb01797788192af836980ac5ebc28336e740)</title></circle>
<circle cx="3.7478" cy="12.3500" r="0.1000"><title>1650 entries @ 2024-10-22 03:45:04 +0800
(commit d3c8d45961348f123f1d005ffd055526201f71c8)</title></circle>
<circle cx="3.6442" cy="12.3970" r="0.1000"><title>1603 entries @ 2024-10-08 21:54:07 +0800
(commit 4185df9c81aca65b01dd1ec4fd0a4bd028f9083a)</title></circle>
<circle cx="3.6147" cy="12.4100" r="0.1000"><title>1590 entries @ 2024-10-05 03:26:06 +0800
(commit 79e37b9c86c7b4468347ce1c953c51d70c978cef)</title></circle>
<circle cx="3.5982" cy="12.4130" r="0.1000"><title>1587 entries @ 2024-10-03 00:50:17 +0800
(commit 518faa3ac2563e2fd47286715cad9a38adfceb41)</title></circle>
<circle cx="3.5478" cy="12.4730" r="0.1000"><title>1527 entries @ 2024-09-26 13:56:27 +0800
(commit 6cecd10f8cd1864a319601279a8cf8d1fff90089)</title></circle>
<circle cx="3.4884" cy="12.5300" r="0.1000"><title>1470 entries @ 2024-09-18 23:55:33 +0800
(commit f93586655e91739ffb53d4b91c2f07c892bb3c76)</title></circle>
<circle cx="3.4255" cy="12.5870" r="0.1000"><title>1413 entries @ 2024-09-10 22:49:38 +0800
(commit 019de7fcd9b9a9c849a7ef0f5852ab04bda637d6)</title></circle>
<circle cx="3.0812" cy="12.6410" r="0.1000"><title>1359 entries @ 2024-07-28 22:16:50 +0800
(commit 1339ce6879034245fb8c3c8a1babbbe58f051d76)</title></circle>
<circle cx="3.0116" cy="12.6920" r="0.1000"><title>1308 entries @ 2024-07-20 00:43:50 +0800
(commit 2a72f1a4bca06b5ebddee7352a91b87129cc1b2d)</title></circle>
<circle cx="2.9711" cy="12.7090" r="0.1000"><title>1291 entries @ 2024-07-14 20:24:11 +0800
(commit 107e0ea4e373592732525045269112b551fe26ac)</title></circle>
<circle cx="2.9153" cy="12.7550" r="0.1000"><title>1245 entries @ 2024-07-07 17:09:44 +0800
(commit 4dacfe5edb2430f408f44f0cc9f04cc82745584f)</title></circle>
<circle cx="2.8235" cy="12.8090" r="0.1000"><title>1191 entries @ 2024-06-25 23:30:45 +0800
(commit af73cb2df541423e5abc8d7c21146a5c92ed7a78)</title></circle>
<circle cx="2.5866" cy="12.8610" r="0.1000"><title>1139 entries @ 2024-05-26 16:44:55 +0800
(commit fd9f4d6175a8c60c8260c50afc1f17566b24c239)</title></circle>
<circle cx="2.5324" cy="12.9270" r="0.1000"><title>1073 entries @ 2024-05-19 18:17:46 +0800
(commit f64f1281f459caf4a0314ed56383de5d2d8a490b)</title></circle>
<circle cx="2.4631" cy="12.9840" r="0.1000"><title>1016 entries @ 2024-05-10 21:39:41 +0800
(commit c61c6afb398e9de779e837e4579798e10d73445d)</title></circle>
<circle cx="2.4219" cy="13.0120" r="0.1000"><title>988 entries @ 2024-05-05 15:14:03 +0800
(commit 13c315c7551a8e1303d6577c171850cea3ad42fc)</title></circle>
<circle cx="2.3537" cy="13.0500" r="0.1000"><title>950 entries @ 2024-04-26 22:10:32 +0800
(commit bc7b2e9c72c4bfc995fc74d2bd7be7b1d0f35619)</title></circle>
<circle cx="2.2916" cy="13.1190" r="0.1000"><title>881 entries @ 2024-04-18 23:30:18 +0800
(commit ead0d727592f6b1ced3363fe2f768274649fe718)</title></circle>
<circle cx="2.2372" cy="13.1830" r="0.1000"><title>817 entries @ 2024-04-12 00:46:36 +0800
(commit f13190d0cbf87cfabd8273c30c2c0e5efeae0ba7)</title></circle>
<circle cx="2.1820" cy="13.2400" r="0.1000"><title>760 entries @ 2024-04-04 23:22:09 +0800
(commit 914d0c4c4fd80109ea13a233e96d166a1415dcc4)</title></circle>
<circle cx="2.0175" cy="13.3010" r="0.1000"><title>699 entries @ 2024-03-14 22:22:40 +0800
(commit 5ba4e3fd0928caa0d4ba26f1efea195ad165d881)</title></circle>
<circle cx="1.8755" cy="13.3570" r="0.1000"><title>643 entries @ 2024-02-25 18:44:09 +0800
(commit 4cd321cebc6cd580596ec97f73d8b0bf9c09ac9a)</title></circle>
<circle cx="1.7641" cy="13.3970" r="0.1000"><title>603 entries @ 2024-02-11 12:56:23 +0800
(commit cab245fc54e91a28bd382353dfe4ead7752620b2)</title></circle>
<circle cx="1.7129" cy="13.4550" r="0.1000"><title>545 entries @ 2024-02-04 23:55:52 +0800
(commit af005fd56b68b3c98edc4790181a8076e4db9cad)</title></circle>
<circle cx="1.6486" cy="13.5130" r="0.1000"><title>487 entries @ 2024-01-27 18:39:55 +0800
(commit e90a6e27970af52e6464caa2659215088ce66bb0)</title></circle>
<circle cx="1.6108" cy="13.5510" r="0.1000"><title>449 entries @ 2024-01-22 22:33:10 +0800
(commit b896d30f0461e4fc053e2394d5fb922d36e21bb0)</title></circle>
<circle cx="1.5722" cy="13.5940" r="0.1000"><title>406 entries @ 2024-01-18 00:08:01 +0800
(commit fec17e3cf694460375b4f4b36d9704911008c59e)</title></circle>
<circle cx="1.5171" cy="13.6450" r="0.1000"><title>355 entries @ 2024-01-10 23:11:37 +0800
(commit 0af9e21d4a1becf9f4da93b0537f4b1605b91fc0)</title></circle>
<circle cx="1.4765" cy="13.6500" r="0.1000"><title>350 entries @ 2024-01-05 18:32:49 +0800
(commit f6943007d19eacd5b501bdb80ccaa58d4b1dde1c)</title></circle>
<circle cx="1.4628" cy="13.6720" r="0.1000"><title>328 entries @ 2024-01-04 00:19:42 +0800
(commit e02842e69ad24e5a2eef5d5b5f9bf0d5bfbb4dab)</title></circle>
<circle cx="1.4293" cy="13.7120" r="0.1000"><title>288 entries @ 2023-12-30 17:41:15 +0800
(commit 2867d1b6cf31f23522902d83aba5f06adbbd8c90)</title></circle>
<circle cx="1.4076" cy="13.7140" r="0.1000"><title>286 entries @ 2023-12-27 23:05:15 +0800
(commit 5144a61d41b6009b92324cc903be9eca8d477716)</title></circle>
<circle cx="1.3687" cy="13.7700" r="0.1000"><title>230 entries @ 2023-12-22 23:44:39 +0800
(commit 3b1fdeeb98ec1ed1dcbe2bad48f6dbecdd17ec3b)</title></circle>
<circle cx="1.0717" cy="13.8240" r="0.1000"><title>176 entries @ 2023-11-15 00:24:08 +0800
(commit f6f8fa623d4a56e9055420679d967fc40af65502)</title></circle>
<circle cx="0.5945" cy="13.8740" r="0.1000"><title>126 entries @ 2023-09-15 00:13:57 +0800
(commit b221a9d6e2c4dd3d3761cee4707eea7cb5915473)</title></circle>
<circle cx="0.3736" cy="13.9010" r="0.1000"><title>99 entries @ 2023-08-17 18:16:22 +0800
(commit 790469c2264cefc49082ff35aeb56b718fba166c)</title></circle>
<circle cx="0.3356" cy="13.9350" r="0.1000"><title>65 entries @ 2023-08-12 21:42:33 +0800
(commit 71a7cdecfbf1afa4662da15dc9959d36292a78ba)</title></circle>
<circle cx="0.2969" cy="13.9560" r="0.1000"><title>44 entries @ 2023-08-07 23:07:10 +0800
(commit 0c514fe801113d00c888ba6b32287a68a150d5be)</title></circle>
<circle cx="0.2820" cy="13.9620" r="0.1000"><title>38 entries @ 2023-08-06 01:18:22 +0800
(commit cf53fb0208186df3a17efb6c11eb37ae6685c3c2)</title></circle>
<circle cx="0.2815" cy="13.9620" r="0.1000"><title>38 entries @ 2023-08-05 23:53:43 +0800
(commit 08b184b5bbc4bef0608000006b918db038f39b00)</title></circle>
<circle cx="0.2812" cy="13.9620" r="0.1000"><title>38 entries @ 2023-08-05 22:41:45 +0800
(commit 28beb4a0bb84a31b402dee3cbf81145831c8148d)</title></circle>
<circle cx="0.2801" cy="13.9620" r="0.1000"><title>38 entries @ 2023-08-05 19:22:27 +0800
(commit 70740b3f866428401b6d3b934c1945eb3d9a3270)</title></circle>
<circle cx="0.2797" cy="13.9620" r="0.1000"><title>38 entries @ 2023-08-05 18:13:38 +0800
(commit 5c32be3f8c13c147f8be14bc0b486fad90bde3f5)</title></circle>
<circle cx="0.2793" cy="13.9620" r="0.1000"><title>38 entries @ 2023-08-05 16:51:26 +0800
(commit 95ee3f8a6c53a354117a55e92fec51592bb0188b)</title></circle>
<circle cx="0.2738" cy="13.9620" r="0.1000"><title>38 entries @ 2023-08-05 00:10:29 +0800
(commit 637beef8cd257ff4566496e29ea68121874a6e68)</title></circle>
<circle cx="0.2733" cy="13.9620" r="0.1000"><title>38 entries @ 2023-08-04 22:32:11 +0800
(commit b1c2ee44d192e7d4c5488113a5b3357dc5b08268)</title></circle>
<circle cx="0.2582" cy="13.9620" r="0.1000"><title>38 entries @ 2023-08-03 00:11:17 +0800
(commit e19b8139eb63703db99e3ba01ded8648eeea5f3c)</title></circle>
<circle cx="0.2574" cy="13.9620" r="0.1000"><title>38 entries @ 2023-08-02 21:54:13 +0800
(commit d71355e0cc362d4cf0cf2ac08804c1f8baa10212)</title></circle>
<circle cx="0.2346" cy="13.9620" r="0.1000"><title>38 entries @ 2023-07-30 23:42:24 +0800
(commit 29f1366049a670096a824e117eb708f68582e58e)</title></circle>
<circle cx="0.2190" cy="13.9740" r="0.1000"><title>26 entries @ 2023-07-28 23:58:07 +0800
(commit b30bc7773328229dcfd60dbbe4ae8f91a2b77092)</title></circle>
<circle cx="0.1722" cy="13.9740" r="0.1000"><title>26 entries @ 2023-07-23 00:17:01 +0800
(commit 0663791bc10bf1f5a09fe0d1eacee8191dfb2beb)</title></circle>
<circle cx="0.1626" cy="13.9860" r="0.1000"><title>14 entries @ 2023-07-21 18:48:59 +0800
(commit 5501df98609cf8fb65eaf44539b495e5bcc3ec5d)</title></circle>
<circle cx="0.1561" cy="14.0000" r="0.1000"><title>0 entries @ 2023-07-20 22:56:58 +0800
(commit 8617bc94ad64168c3e741f0d324deb7a6d73d804)</title></circle>
<circle cx="0.1557" cy="14.0000" r="0.1000"><title>0 entries @ 2023-07-20 21:39:40 +0800
(commit 263685863f91821c9cefca68e1899910e88be118)</title></circle>
</svg>
