<?xml version="1.0" encoding="UTF-8"?>
<svg viewBox="-6 -4 28 22" width="960px" xmlns="http://www.w3.org/2000/svg">
<style>
circle:hover {fill: #cf1338}
circle {fill: black}
line, polyline {stroke: black; stroke-width: 0.1042%}polyline {stroke: #cf1338}line.target {stroke: blue; stroke-dasharray: 1.0417%}
polyline {fill: none}text {font-family: sans-serif; font-size: 1px; text-anchor: middle}
text.target {fill: blue; font-size: 0.7px}
text.tick {font-size: 0.7px}
text.title {fill: #cf1338; font-size: 1.1px}
</style>
<text class="title" x="8.0000" y="-2.0000">Conway's Cantonese Dictionary: Progress</text><line x1="0.0000" y1="14.0000" x2="20.0000" y2="14.0000"/>
<text x="10.0000" y="14.0000" dy="3em">Time</text>
<line x1="1.4392" y1="14.0000" x2="1.4392" y2="14.2000"/>
<text class="tick" x="1.4392" y="14.2000" dy="1.3em">2024</text>
<line x1="4.3019" y1="14.0000" x2="4.3019" y2="14.2000"/>
<text class="tick" x="4.3019" y="14.2000" dy="1.3em">2025</text>
<line x1="7.1568" y1="14.0000" x2="7.1568" y2="14.2000"/>
<text class="tick" x="7.1568" y="14.2000" dy="1.3em">2026</text>
<line x1="10.0117" y1="14.0000" x2="10.0117" y2="14.2000"/>
<text class="tick" x="10.0117" y="14.2000" dy="1.3em">2027</text>
<line x1="12.8666" y1="14.0000" x2="12.8666" y2="14.2000"/>
<text class="tick" x="12.8666" y="14.2000" dy="1.3em">2028</text>
<line x1="15.7294" y1="14.0000" x2="15.7294" y2="14.2000"/>
<text class="tick" x="15.7294" y="14.2000" dy="1.3em">2029</text>
<line x1="18.5843" y1="14.0000" x2="18.5843" y2="14.2000"/>
<text class="tick" x="18.5843" y="14.2000" dy="1.3em">2030</text>
<line x1="0.0000" y1="14.0000" x2="0.0000" y2="0.0000"/>
<text x="0.0000" y="7.0000" dy="-4em" transform="rotate(-90 0.0000 7.0000)">Entry Count</text>
<line x1="0.0000" y1="12.0000" x2="-0.2000" y2="12.0000"/>
<text class="tick" x="-0.2000" y="12.0000" dx="-2em" dy="0.33em">2000</text>
<line x1="0.0000" y1="10.0000" x2="-0.2000" y2="10.0000"/>
<text class="tick" x="-0.2000" y="10.0000" dx="-2em" dy="0.33em">4000</text>
<line x1="0.0000" y1="8.0000" x2="-0.2000" y2="8.0000"/>
<text class="tick" x="-0.2000" y="8.0000" dx="-2em" dy="0.33em">6000</text>
<line x1="0.0000" y1="6.0000" x2="-0.2000" y2="6.0000"/>
<text class="tick" x="-0.2000" y="6.0000" dx="-2em" dy="0.33em">8000</text>
<line x1="0.0000" y1="4.0000" x2="-0.2000" y2="4.0000"/>
<text class="tick" x="-0.2000" y="4.0000" dx="-2em" dy="0.33em">10000</text>
<line x1="0.0000" y1="2.0000" x2="-0.2000" y2="2.0000"/>
<text class="tick" x="-0.2000" y="2.0000" dx="-2em" dy="0.33em">12000</text>
<line class="target" x1="0.0000" y1="1.0000" x2="20.0000" y2="1.0000"/>
<text class="target" x="10.0000" y="1.0000" dy="-0.5em">Approximate Target: 13000 entries</text>
<polyline points="7.6183,11.6790 7.0388,11.6870 6.8595,11.7200 6.7740,11.7700 6.7345,11.7900 6.6789,11.8000 6.6169,11.8180 6.3630,11.9360 6.1627,12.0390 5.9759,12.1510 5.7642,12.1880 5.1231,12.2020 4.9751,12.2100 4.8859,12.2200 4.7793,12.2230 4.6850,12.2240 4.5915,12.2290 4.4662,12.2370 4.3799,12.2360 4.2306,12.2330 4.1755,12.2330 4.0830,12.2370 4.0201,12.2780 3.7477,12.3500 3.6148,12.4100 3.5509,12.4610 3.4487,12.5730 3.0342,12.6690 2.9332,12.7310 2.6743,12.8340 2.5026,12.9440 2.4216,13.0120 2.2762,13.1300 2.1817,13.2430 1.8768,13.3560 1.7277,13.4500 1.6185,13.5410 1.5478,13.6270 1.4697,13.6540 1.4234,13.7130 1.3290,13.7920 0.5536,13.8910 0.3342,13.9450 0.2819,13.9620 0.2811,13.9620 0.2797,13.9620 0.2739,13.9620 0.2658,13.9620 0.2348,13.9620 0.1950,13.9740 0.1605,13.9900 0.1557,14.0000"/>
<circle cx="7.6183" cy="11.6790" r="0.1000"><title>2321 entries @ 2026-02-28 23:55:11 +0800
(commit 13c47205a17caa7f2cbd7c2f3225f816a82a1579)</title></circle>
<circle cx="7.0388" cy="11.6870" r="0.1000"><title>2313 entries @ 2025-12-16 21:42:57 +0800
(commit 624e2337ac2ac57cf1b47bf14c0f07d3140d154d)</title></circle>
<circle cx="6.8595" cy="11.7200" r="0.1000"><title>2280 entries @ 2025-11-23 23:49:41 +0800
(commit 0c5f9daf461decc1b0903b3addb7dd4853821cdb)</title></circle>
<circle cx="6.7740" cy="11.7700" r="0.1000"><title>2230 entries @ 2025-11-13 01:25:43 +0800
(commit cce24a159281099e8cd61ef2df7d9c84db23ec63)</title></circle>
<circle cx="6.7345" cy="11.7900" r="0.1000"><title>2210 entries @ 2025-11-08 00:10:42 +0800
(commit e910aacd4bebaf424577aa388d4e4c5d860e4f09)</title></circle>
<circle cx="6.6789" cy="11.8000" r="0.1000"><title>2200 entries @ 2025-10-31 21:25:47 +0800
(commit f204cdfd742d847488f29c3e19c9870b3291aec6)</title></circle>
<circle cx="6.6169" cy="11.8180" r="0.1000"><title>2182 entries @ 2025-10-23 23:10:03 +0800
(commit 4eac36f098049ff9947a8470182527c2b2de832a)</title></circle>
<circle cx="6.3630" cy="11.9360" r="0.1000"><title>2064 entries @ 2025-09-21 12:08:57 +0800
(commit 2b6d5cf83319e5841c3b1b18447337b2cb41acb7)</title></circle>
<circle cx="6.1627" cy="12.0390" r="0.1000"><title>1961 entries @ 2025-08-26 21:36:43 +0800
(commit c93a58015806ad80e28bc01e5ff4e2fa3681c786)</title></circle>
<circle cx="5.9759" cy="12.1510" r="0.1000"><title>1849 entries @ 2025-08-03 00:34:18 +0800
(commit 2e005600e7a95aa9576aaf85f2543936344ad70e)</title></circle>
<circle cx="5.7642" cy="12.1880" r="0.1000"><title>1812 entries @ 2025-07-06 23:01:25 +0800
(commit 32e71aba5170591411ccecde5401d8554c7dc0f8)</title></circle>
<circle cx="5.1231" cy="12.2020" r="0.1000"><title>1798 entries @ 2025-04-15 23:35:51 +0800
(commit c3294f0216ffee7a445f6a57a7c853fed9e79e00)</title></circle>
<circle cx="4.9751" cy="12.2100" r="0.1000"><title>1790 entries @ 2025-03-28 01:28:47 +0800
(commit 939d652e91c0293be01412b7afe67affe881162c)</title></circle>
<circle cx="4.8859" cy="12.2200" r="0.1000"><title>1780 entries @ 2025-03-16 16:02:01 +0800
(commit 19fc3f6a7576d8823774d2483f382152c029f30f)</title></circle>
<circle cx="4.7793" cy="12.2230" r="0.1000"><title>1777 entries @ 2025-03-03 00:44:37 +0800
(commit 3dc611abc7eb18885ed84774dd4d899917002876)</title></circle>
<circle cx="4.6850" cy="12.2240" r="0.1000"><title>1776 entries @ 2025-02-18 23:18:05 +0800
(commit ada243d7b759322081b2f19d609cc375ddae546d)</title></circle>
<circle cx="4.5915" cy="12.2290" r="0.1000"><title>1771 entries @ 2025-02-07 00:34:28 +0800
(commit eb1d51b8e7233d6b6331dedc953d679891f7e078)</title></circle>
<circle cx="4.4662" cy="12.2370" r="0.1000"><title>1763 entries @ 2025-01-22 00:11:17 +0800
(commit 152f477c7dc9729cca5b1582705beae3e95d74b7)</title></circle>
<circle cx="4.3799" cy="12.2360" r="0.1000"><title>1764 entries @ 2025-01-10 23:18:02 +0800
(commit 3e8525d95ae763e194c7847b2acc9df461593f22)</title></circle>
<circle cx="4.2306" cy="12.2330" r="0.1000"><title>1767 entries @ 2024-12-22 21:14:13 +0800
(commit fb9df40016b8427b65ef207befbe2c5481ff3809)</title></circle>
<circle cx="4.1755" cy="12.2330" r="0.1000"><title>1767 entries @ 2024-12-15 20:02:54 +0800
(commit ea51e93e1babda0a928c8f215f9b674dcf99edac)</title></circle>
<circle cx="4.0830" cy="12.2370" r="0.1000"><title>1763 entries @ 2024-12-04 00:21:13 +0800
(commit c5b653ed950c8b271ccb4ed4bdcd36b92536c220)</title></circle>
<circle cx="4.0201" cy="12.2780" r="0.1000"><title>1722 entries @ 2024-11-25 23:17:45 +0800
(commit add59128a60bb4952be542844b1fa46c879a2d0c)</title></circle>
<circle cx="3.7477" cy="12.3500" r="0.1000"><title>1650 entries @ 2024-10-22 03:29:33 +0800
(commit 4f6593886a4a0625c9e8bc0c3168a476a405e4dc)</title></circle>
<circle cx="3.6148" cy="12.4100" r="0.1000"><title>1590 entries @ 2024-10-05 03:43:08 +0800
(commit 01afed35ca6c8c950757ae101120b791e446336e)</title></circle>
<circle cx="3.5509" cy="12.4610" r="0.1000"><title>1539 entries @ 2024-09-26 23:43:19 +0800
(commit 2d06779e90451ae001c45c0e6391b45db6d4c4e0)</title></circle>
<circle cx="3.4487" cy="12.5730" r="0.1000"><title>1427 entries @ 2024-09-13 21:57:47 +0800
(commit f05e8b3b4a7cf2d96e001921819456c0e3528793)</title></circle>
<circle cx="3.0342" cy="12.6690" r="0.1000"><title>1331 entries @ 2024-07-22 22:12:38 +0800
(commit 40a5a37fa3f68569ce524cfe60ecc858a70ff6e5)</title></circle>
<circle cx="2.9332" cy="12.7310" r="0.1000"><title>1269 entries @ 2024-07-10 00:13:41 +0800
(commit 2fb629ed42dd88b2844fa837bf0faf07cd9a84b2)</title></circle>
<circle cx="2.6743" cy="12.8340" r="0.1000"><title>1166 entries @ 2024-06-06 21:48:19 +0800
(commit 7aa068edde638f034dbc684f57d8af8bdb594387)</title></circle>
<circle cx="2.5026" cy="12.9440" r="0.1000"><title>1056 entries @ 2024-05-15 23:03:50 +0800
(commit 54fe283a1fb2bdbfdd7df1dc472dea1b14bf0c5f)</title></circle>
<circle cx="2.4216" cy="13.0120" r="0.1000"><title>988 entries @ 2024-05-05 14:23:30 +0800
(commit 034199d2d7f334717a15797c68b7697bd3350287)</title></circle>
<circle cx="2.2762" cy="13.1300" r="0.1000"><title>870 entries @ 2024-04-17 00:22:59 +0800
(commit 2109988cfbcaf9db8df318d45007365599448d06)</title></circle>
<circle cx="2.1817" cy="13.2430" r="0.1000"><title>757 entries @ 2024-04-04 22:12:28 +0800
(commit 95bb318f9edd6092f869a2a8bdf4db7254501413)</title></circle>
<circle cx="1.8768" cy="13.3560" r="0.1000"><title>644 entries @ 2024-02-25 22:40:38 +0800
(commit 75feb1c3e779cab69ff39f4cdc211031c137288c)</title></circle>
<circle cx="1.7277" cy="13.4500" r="0.1000"><title>550 entries @ 2024-02-06 21:12:27 +0800
(commit 3a7b364833bfdfbb8f7995354cc6845ae6d00a12)</title></circle>
<circle cx="1.6185" cy="13.5410" r="0.1000"><title>459 entries @ 2024-01-23 22:03:17 +0800
(commit 17f224208d15fa2a2b8c2a9c39305cd8d22ce045)</title></circle>
<circle cx="1.5478" cy="13.6270" r="0.1000"><title>373 entries @ 2024-01-14 21:15:59 +0800
(commit 0cffed915a3f8a88b0a0c4b86c44fbcb8afc58bc)</title></circle>
<circle cx="1.4697" cy="13.6540" r="0.1000"><title>346 entries @ 2024-01-04 21:31:53 +0800
(commit 0bf697d46fa3e508cde9ead3c9fe00660ae990af)</title></circle>
<circle cx="1.4234" cy="13.7130" r="0.1000"><title>287 entries @ 2023-12-29 23:36:08 +0800
(commit 7dd3a5943377252cea67f4f1dcb436955f07703a)</title></circle>
<circle cx="1.3290" cy="13.7920" r="0.1000"><title>208 entries @ 2023-12-17 21:57:26 +0800
(commit 35b0e9f662654be812d00b812a1c34bd8be96c35)</title></circle>
<circle cx="0.5536" cy="13.8910" r="0.1000"><title>109 entries @ 2023-09-09 18:44:31 +0800
(commit 01d688c3419d765c2babc25c0a8267c600c1e8ea)</title></circle>
<circle cx="0.3342" cy="13.9450" r="0.1000"><title>55 entries @ 2023-08-12 17:20:13 +0800
(commit 178deffc1c05a407a560642e167b62eb621555dc)</title></circle>
<circle cx="0.2819" cy="13.9620" r="0.1000"><title>38 entries @ 2023-08-06 01:05:54 +0800
(commit b6cc93e360e9c1268f576995bf74c08c23c7deac)</title></circle>
<circle cx="0.2811" cy="13.9620" r="0.1000"><title>38 entries @ 2023-08-05 22:40:19 +0800
(commit b0b4f07431fce01b8284a469de8b33f3773a25bf)</title></circle>
<circle cx="0.2797" cy="13.9620" r="0.1000"><title>38 entries @ 2023-08-05 18:18:23 +0800
(commit 2eb883e8175cd742229b1696dc87c56d3f93391d)</title></circle>
<circle cx="0.2739" cy="13.9620" r="0.1000"><title>38 entries @ 2023-08-05 00:29:32 +0800
(commit 3fe8feab025e775433af61f8f5fc7ced99448519)</title></circle>
<circle cx="0.2658" cy="13.9620" r="0.1000"><title>38 entries @ 2023-08-03 23:38:01 +0800
(commit 012342c980019de98551fb4951a2f5aa28522ee4)</title></circle>
<circle cx="0.2348" cy="13.9620" r="0.1000"><title>38 entries @ 2023-07-31 00:25:21 +0800
(commit b8a61f6c326334100d865c84d439b8743180f7c7)</title></circle>
<circle cx="0.1950" cy="13.9740" r="0.1000"><title>26 entries @ 2023-07-25 22:16:37 +0800
(commit 25b1352c03a8131d34f8bceb8a033bfaa79a668c)</title></circle>
<circle cx="0.1605" cy="13.9900" r="0.1000"><title>10 entries @ 2023-07-21 12:36:17 +0800
(commit 07049c29f64d67569a814f8752af21614ebd3b89)</title></circle>
<circle cx="0.1557" cy="14.0000" r="0.1000"><title>0 entries @ 2023-07-20 21:39:40 +0800
(commit 263685863f91821c9cefca68e1899910e88be118)</title></circle>
</svg>
