<?xml version="1.0" encoding="UTF-8"?>
<svg viewBox="-4 -2 26 20" width="1024px" xmlns="http://www.w3.org/2000/svg">
<style>
circle {fill: red}
line, polyline {stroke: black; stroke-width: 0.0977%}polyline {fill: none}text {font-family: sans-serif; font-size: 1px; text-anchor: middle}
</style>
<line x1="0.0000" y1="14.0000" x2="20.0000" y2="14.0000"/>
<text x="10.0000" y="14.0000" dy="3em">Date</text>
<line x1="0.0000" y1="14.0000" x2="0.0000" y2="0.0000"/>
<text x="0.0000" y="7.0000" dy="-2.5em" transform="rotate(-90 0.0000 7.0000)">Entry Count</text>
<circle cx="7.6103" cy="11.5005" r="0.0667"><title>commit f3b77be96d3e09025487de6926fcbd23e2bd4a4d
2026-02-27 23:30:54 +0800
2321 entries</title></circle>
<circle cx="7.0234" cy="11.5102" r="0.0667"><title>commit 05d0ee7ece38f7e03111b5a44e14c30ab823f75c
2025-12-14 22:41:44 +0800
2312 entries</title></circle>
<circle cx="6.8592" cy="11.5446" r="0.0667"><title>commit b8dbf2c1b543f83b62dd70d019fd654cfc2cf706
2025-11-23 22:52:43 +0800
2280 entries</title></circle>
<circle cx="6.7722" cy="11.6071" r="0.0667"><title>commit 68eef5d1e04745448664b73719883d5b941453eb
2025-11-12 19:55:28 +0800
2222 entries</title></circle>
<circle cx="6.7268" cy="11.6200" r="0.0667"><title>commit 2b239cae1aa0da5f2a06bc514d5b8f53a179cd67
2025-11-07 00:27:28 +0800
2210 entries</title></circle>
<circle cx="6.6712" cy="11.6308" r="0.0667"><title>commit abfa512bc8563383aff0fd29e33a37fd6d6ebe6e
2025-10-30 22:01:15 +0800
2200 entries</title></circle>
<circle cx="6.6012" cy="11.6695" r="0.0667"><title>commit 6ebe4e23af38147eec1b7e691a238c7ef5c643f0
2025-10-21 23:13:53 +0800
2164 entries</title></circle>
<circle cx="6.2801" cy="11.7912" r="0.0667"><title>commit f542bd2eb94ff374d8cc25fc4289b8de25594b45
2025-09-10 21:59:41 +0800
2051 entries</title></circle>
<circle cx="6.1476" cy="11.9032" r="0.0667"><title>commit e537c575fc7da278c8b327f4fb35b247b333a252
2025-08-24 23:17:09 +0800
1947 entries</title></circle>
<circle cx="5.9519" cy="12.0163" r="0.0667"><title>commit c45b30a56754b5a43ab0d54b7cdeb6ef735028db
2025-07-30 22:49:07 +0800
1842 entries</title></circle>
<circle cx="5.7608" cy="12.0529" r="0.0667"><title>commit f9cbf42263e2aa1324fcc241d3464ba9416e2a55
2025-07-06 12:23:19 +0800
1808 entries</title></circle>
<circle cx="5.0844" cy="12.0648" r="0.0667"><title>commit 785cc3933a24929291cfc29704e820c0105ae29a
2025-04-11 00:55:44 +0800
1797 entries</title></circle>
<circle cx="4.9436" cy="12.0766" r="0.0667"><title>commit 38f6f8509421fd565efdfda548177530a9134c19
2025-03-24 00:51:03 +0800
1786 entries</title></circle>
<circle cx="4.8728" cy="12.0831" r="0.0667"><title>commit d485db3fd99051a88815c1fe16aa1f8aaaa49821
2025-03-14 23:41:05 +0800
1780 entries</title></circle>
<circle cx="4.7782" cy="12.0863" r="0.0667"><title>commit ce1c0db447c0a7cdad14ed1ec5d785836f2bbeb2
2025-03-02 21:32:26 +0800
1777 entries</title></circle>
<circle cx="4.6691" cy="12.0874" r="0.0667"><title>commit 102067248d99ad9dd56ae42a94eea5da70d2250d
2025-02-16 22:48:31 +0800
1776 entries</title></circle>
<circle cx="4.5837" cy="12.0917" r="0.0667"><title>commit 49bb688c6d14b41b16767e24e3b56df1f4f646ca
2025-02-06 00:33:57 +0800
1772 entries</title></circle>
<circle cx="4.4585" cy="12.1014" r="0.0667"><title>commit b93b8339666c47b176e09fced96a551897f2811d
2025-01-21 00:28:25 +0800
1763 entries</title></circle>
<circle cx="4.3561" cy="12.1003" r="0.0667"><title>commit 5f1f723cea6f60c314ce6cae217fe2f34f619b47
2025-01-07 22:22:53 +0800
1764 entries</title></circle>
<circle cx="4.2279" cy="12.0928" r="0.0667"><title>commit f650bead15562f7349afb7c0678ec3be1b13052d
2024-12-22 12:47:49 +0800
1771 entries</title></circle>
<circle cx="4.1535" cy="12.0971" r="0.0667"><title>commit 141d8323e30f12c8449978e2287c672d3bd3d8dd
2024-12-13 00:42:48 +0800
1767 entries</title></circle>
<circle cx="4.0827" cy="12.1025" r="0.0667"><title>commit 22efc77fb04e78474d3c6ff2a5aed74557fad8d2
2024-12-03 23:13:56 +0800
1762 entries</title></circle>
<circle cx="4.0125" cy="12.1455" r="0.0667"><title>commit 75a28a289d02c52320792e1c18673823ca3374cb
2024-11-25 00:00:37 +0800
1722 entries</title></circle>
<circle cx="3.7009" cy="12.2338" r="0.0667"><title>commit 405801eb7bf29a06abb857b7e82c4cefe9cfc384
2024-10-16 03:48:10 +0800
1640 entries</title></circle>
<circle cx="3.6145" cy="12.2877" r="0.0667"><title>commit e24ef7f11605416bfff7bfee3a8bf35514e5f7c5
2024-10-05 02:44:25 +0800
1590 entries</title></circle>
<circle cx="3.5433" cy="12.3609" r="0.0667"><title>commit d9288e4900c09677389ec52136c5202c94100583
2024-09-26 00:18:48 +0800
1522 entries</title></circle>
<circle cx="3.4255" cy="12.4772" r="0.0667"><title>commit fc4ac9d8394c2d14103cb993c1d467afb54dcf07
2024-09-10 22:55:07 +0800
1414 entries</title></circle>
<circle cx="3.0254" cy="12.5849" r="0.0667"><title>commit f1de174a47dc94e610ba506f600445ae2f2e57bd
2024-07-21 19:05:06 +0800
1314 entries</title></circle>
<circle cx="2.9175" cy="12.6463" r="0.0667"><title>commit 6fd001c83858d0ec15c7f36c6b5192cd09e85f50
2024-07-08 00:10:48 +0800
1257 entries</title></circle>
<circle cx="2.6117" cy="12.7594" r="0.0667"><title>commit a6edc6406781753cbeb33c8936ee2b1a1d790856
2024-05-29 21:47:55 +0800
1152 entries</title></circle>
<circle cx="2.4944" cy="12.8768" r="0.0667"><title>commit c4e5fecc500607d637bacb6e7e5906e30ddf2699
2024-05-14 21:57:34 +0800
1043 entries</title></circle>
<circle cx="2.4088" cy="12.9425" r="0.0667"><title>commit 31f804d6489c86fc3536d401b2d7e9921433ef51
2024-05-03 23:18:16 +0800
982 entries</title></circle>
<circle cx="2.2679" cy="13.0771" r="0.0667"><title>commit 5b082d900de1318904c26cba70616f2e8a680255
2024-04-15 22:44:57 +0800
857 entries</title></circle>
<circle cx="2.1427" cy="13.1955" r="0.0667"><title>commit 15832b2c2a2e1e199c997bafb48cfb3b016e4498
2024-03-30 22:39:22 +0800
747 entries</title></circle>
<circle cx="1.8655" cy="13.3129" r="0.0667"><title>commit df3c129949bf7173cc6b2863e638ca10bac9f32f
2024-02-24 12:05:35 +0800
638 entries</title></circle>
<circle cx="1.7112" cy="13.4206" r="0.0667"><title>commit bc438c649e472ca742833822c65d0bec2a0fd4d9
2024-02-04 18:41:14 +0800
538 entries</title></circle>
<circle cx="1.6107" cy="13.5175" r="0.0667"><title>commit 368b2cbe1448f759b73207c5909f5b633a21badf
2024-01-22 22:19:27 +0800
448 entries</title></circle>
<circle cx="1.5323" cy="13.6155" r="0.0667"><title>commit 78e3c5270f9c918db8903b97bd849437a2cfdaf2
2024-01-12 21:42:31 +0800
357 entries</title></circle>
<circle cx="1.4677" cy="13.6403" r="0.0667"><title>commit f4e9049a20ca844801c132f10bb9257dfb226966
2024-01-04 15:21:09 +0800
334 entries</title></circle>
<circle cx="1.4163" cy="13.6920" r="0.0667"><title>commit 04f1e21501f59c0a6469fb607ecedd0e04ed080f
2023-12-29 01:52:50 +0800
286 entries</title></circle>
<circle cx="1.2979" cy="13.7868" r="0.0667"><title>commit 9bfde660406067d5309a0ccb1adc8d646c75cf15
2023-12-13 22:37:41 +0800
198 entries</title></circle>
<circle cx="0.4220" cy="13.8858" r="0.0667"><title>commit b5f6478eb4ebf2ceee6904c3f36cf0872d9045e7
2023-08-23 22:51:39 +0800
106 entries</title></circle>
<circle cx="0.3208" cy="13.9515" r="0.0667"><title>commit 2c08b706458eda1ca664d1bb6c32ba30ff0b40d1
2023-08-11 00:16:08 +0800
45 entries</title></circle>
<circle cx="0.2818" cy="13.9591" r="0.0667"><title>commit eda6f2cbaea75ddc3a2a7939c33179ba04143c6b
2023-08-06 00:47:32 +0800
38 entries</title></circle>
<circle cx="0.2810" cy="13.9591" r="0.0667"><title>commit 0b2f3bbb8a5ea2207f81a4f5dbdef45fbc8260ec
2023-08-05 22:05:31 +0800
38 entries</title></circle>
<circle cx="0.2796" cy="13.9591" r="0.0667"><title>commit d9c4d18569f8815f253f5fd183514609b120f883
2023-08-05 18:02:00 +0800
38 entries</title></circle>
<circle cx="0.2738" cy="13.9591" r="0.0667"><title>commit 4874c9a51e37d9e7bdd0519f712bbc454cc54daf
2023-08-05 00:05:44 +0800
38 entries</title></circle>
<circle cx="0.2582" cy="13.9591" r="0.0667"><title>commit 40079a0c2a5e9ce6fe576aa3516f85583a315575
2023-08-03 00:15:05 +0800
38 entries</title></circle>
<circle cx="0.2347" cy="13.9591" r="0.0667"><title>commit b722297f1f63b8bde7f02c623762739d5465e7ef
2023-07-31 00:00:03 +0800
38 entries</title></circle>
<circle cx="0.1795" cy="13.9720" r="0.0667"><title>commit 4b45e52807b23e75543460a90baf56e2e3b15c84
2023-07-23 22:42:58 +0800
26 entries</title></circle>
<circle cx="0.1569" cy="13.9892" r="0.0667"><title>commit 1d573b63c668417d22bf99d91a0ea21b2c4d71c3
2023-07-21 01:18:34 +0800
10 entries</title></circle>
<polyline points="7.6103,11.5005 7.0234,11.5102 6.8592,11.5446 6.7722,11.6071 6.7268,11.6200 6.6712,11.6308 6.6012,11.6695 6.2801,11.7912 6.1476,11.9032 5.9519,12.0163 5.7608,12.0529 5.0844,12.0648 4.9436,12.0766 4.8728,12.0831 4.7782,12.0863 4.6691,12.0874 4.5837,12.0917 4.4585,12.1014 4.3561,12.1003 4.2279,12.0928 4.1535,12.0971 4.0827,12.1025 4.0125,12.1455 3.7009,12.2338 3.6145,12.2877 3.5433,12.3609 3.4255,12.4772 3.0254,12.5849 2.9175,12.6463 2.6117,12.7594 2.4944,12.8768 2.4088,12.9425 2.2679,13.0771 2.1427,13.1955 1.8655,13.3129 1.7112,13.4206 1.6107,13.5175 1.5323,13.6155 1.4677,13.6403 1.4163,13.6920 1.2979,13.7868 0.4220,13.8858 0.3208,13.9515 0.2818,13.9591 0.2810,13.9591 0.2796,13.9591 0.2738,13.9591 0.2582,13.9591 0.2347,13.9591 0.1795,13.9720 0.1569,13.9892"/>
</svg>
