<?xml version="1.0" encoding="UTF-8"?>
<svg viewBox="-4 -2 26 20" width="1024px" xmlns="http://www.w3.org/2000/svg">
<style>
circle:hover {fill: red}
circle {fill: black}
line, polyline {stroke: black; stroke-width: 0.0977%}polyline {fill: none}text {font-family: sans-serif; font-size: 1px; text-anchor: middle}
</style>
<line x1="0.0000" y1="14.0000" x2="20.0000" y2="14.0000"/>
<text x="10.0000" y="14.0000" dy="3em">Date</text>
<line x1="0.0000" y1="14.0000" x2="0.0000" y2="0.0000"/>
<text x="0.0000" y="7.0000" dy="-2.5em" transform="rotate(-90 0.0000 7.0000)">Entry Count</text>
<circle cx="7.6104" cy="11.5005" r="0.1000"><title>2321 entries @ 2026-02-27 23:49:00 +0800
commit b49298b4f0b392027357c8f2638038c784359f43</title></circle>
<circle cx="7.0235" cy="11.5102" r="0.1000"><title>2312 entries @ 2025-12-14 22:54:39 +0800
commit 6535ae0e9b26f64561334e99d2ee0c9eec6bcf65</title></circle>
<circle cx="6.8593" cy="11.5446" r="0.1000"><title>2280 entries @ 2025-11-23 23:02:27 +0800
commit 4c2693670c064c000916692ab777066597a114f8</title></circle>
<circle cx="6.7728" cy="11.6049" r="0.1000"><title>2224 entries @ 2025-11-12 21:46:00 +0800
commit 27b9c4e1529c3bcd22b070a35200613b1b3447fd</title></circle>
<circle cx="6.7270" cy="11.6200" r="0.1000"><title>2210 entries @ 2025-11-07 01:05:53 +0800
commit df4c924548efce31443be36dbbf9356c29d5ff02</title></circle>
<circle cx="6.6714" cy="11.6308" r="0.1000"><title>2200 entries @ 2025-10-30 22:26:55 +0800
commit c447a5ea7f53c9cfaf9d8e9f4e7663f99aa589ef</title></circle>
<circle cx="6.6084" cy="11.6674" r="0.1000"><title>2166 entries @ 2025-10-22 21:09:48 +0800
commit f2523c84bce3e0ea3804d3c23d219b218e0d6154</title></circle>
<circle cx="6.2803" cy="11.7891" r="0.1000"><title>2053 entries @ 2025-09-10 22:23:00 +0800
commit 8424a974e60c8ace435f5d4a6b16e80f13c582d6</title></circle>
<circle cx="6.1477" cy="11.9011" r="0.1000"><title>1949 entries @ 2025-08-24 23:37:48 +0800
commit eecb7243ebb5d7c817a63c99a1f569738cf266dd</title></circle>
<circle cx="5.9520" cy="12.0163" r="0.1000"><title>1842 entries @ 2025-07-30 23:09:50 +0800
commit cbf6db5f4e61ae9f195c07711459b50c2c6adc39</title></circle>
<circle cx="5.7609" cy="12.0529" r="0.1000"><title>1808 entries @ 2025-07-06 12:38:50 +0800
commit 74869f69c9ad52d811e3112820ece9fed23b9a21</title></circle>
<circle cx="5.0845" cy="12.0648" r="0.1000"><title>1797 entries @ 2025-04-11 01:17:30 +0800
commit c04e4ca9cdc134e4478e4a3780f5c3d8c9a99457</title></circle>
<circle cx="4.9586" cy="12.0745" r="0.1000"><title>1788 entries @ 2025-03-25 23:05:49 +0800
commit 309ccc6586061c5579def6e77735298c362b7c2f</title></circle>
<circle cx="4.8730" cy="12.0831" r="0.1000"><title>1780 entries @ 2025-03-15 00:11:01 +0800
commit b640172d2bc1a0ccda8f45427e07ff55860e39f5</title></circle>
<circle cx="4.7784" cy="12.0863" r="0.1000"><title>1777 entries @ 2025-03-02 21:57:43 +0800
commit 4c4f061dc7f9b6f1936d9ddca173b31ab83a5d15</title></circle>
<circle cx="4.6695" cy="12.0874" r="0.1000"><title>1776 entries @ 2025-02-16 23:56:24 +0800
commit 94e6ce086f5cae7c985e121a97f87609237b34ba</title></circle>
<circle cx="4.5838" cy="12.0928" r="0.1000"><title>1771 entries @ 2025-02-06 01:04:00 +0800
commit 612bf4691206da0d69c1e34521cfd7555e10eb82</title></circle>
<circle cx="4.4585" cy="12.1014" r="0.1000"><title>1763 entries @ 2025-01-21 00:35:53 +0800
commit 872247dd6d74134adadc4d443446b5da0ca6787a</title></circle>
<circle cx="4.3564" cy="12.1003" r="0.1000"><title>1764 entries @ 2025-01-07 23:08:35 +0800
commit 807e2ce345e89db16b0266a8cd39fe45007d0549</title></circle>
<circle cx="4.2279" cy="12.0928" r="0.1000"><title>1771 entries @ 2024-12-22 12:55:58 +0800
commit 006bfa2e8541f41ac25f6481d428501bbac68689</title></circle>
<circle cx="4.1536" cy="12.0971" r="0.1000"><title>1767 entries @ 2024-12-13 00:50:30 +0800
commit 0f0cae7eef9dbc1f9391a8976d31c220a01f4db7</title></circle>
<circle cx="4.0827" cy="12.1014" r="0.1000"><title>1763 entries @ 2024-12-03 23:21:30 +0800
commit 8278f2b6937d918c3196bccb5de1bcdf9d64164d</title></circle>
<circle cx="4.0131" cy="12.1455" r="0.1000"><title>1722 entries @ 2024-11-25 01:49:04 +0800
commit 0a35a6215b1fdc8d1cfa6d8164290cf4cde76259</title></circle>
<circle cx="3.7017" cy="12.2317" r="0.1000"><title>1642 entries @ 2024-10-16 06:14:46 +0800
commit 070b5637c8a9a4ebb457279d9be80c0f4643477f</title></circle>
<circle cx="3.6146" cy="12.2877" r="0.1000"><title>1590 entries @ 2024-10-05 02:55:41 +0800
commit 516a339fedc76fffb6fd0c2ed64babf8244fecd8</title></circle>
<circle cx="3.5476" cy="12.3588" r="0.1000"><title>1524 entries @ 2024-09-26 13:18:59 +0800
commit dafd359a84899fa093b92920929e22e3f2dfc4cf</title></circle>
<circle cx="3.4256" cy="12.4751" r="0.1000"><title>1416 entries @ 2024-09-10 23:08:10 +0800
commit 0408d0bc652519ee2f7f59c86ecc899253bf4b09</title></circle>
<circle cx="3.0263" cy="12.5828" r="0.1000"><title>1316 entries @ 2024-07-21 21:59:15 +0800
commit 90dc72387c00994e31e67fb633698d898803cb79</title></circle>
<circle cx="2.9177" cy="12.6442" r="0.1000"><title>1259 entries @ 2024-07-08 00:48:44 +0800
commit 1ae027f6ccd05dadbec0a587abf1776a7bedd9ea</title></circle>
<circle cx="2.6120" cy="12.7572" r="0.1000"><title>1154 entries @ 2024-05-29 22:48:28 +0800
commit 761798715e5e074dbff98135ea0c15cd8ec57ec6</title></circle>
<circle cx="2.4945" cy="12.8746" r="0.1000"><title>1045 entries @ 2024-05-14 22:09:53 +0800
commit 7669c59ed996b87daa4f9928d7a21e6f69036d26</title></circle>
<circle cx="2.4090" cy="12.9403" r="0.1000"><title>984 entries @ 2024-05-03 23:41:47 +0800
commit 2574483884099dda6219eb23f9dc03d9a668ed50</title></circle>
<circle cx="2.2680" cy="13.0760" r="0.1000"><title>858 entries @ 2024-04-15 23:06:03 +0800
commit ed9d006f03132badf27ae1e67e8d9f8060021369</title></circle>
<circle cx="2.1427" cy="13.1955" r="0.1000"><title>747 entries @ 2024-03-30 22:43:58 +0800
commit 0efe707f70e33fca0bcaad040cd5dfa7e9827607</title></circle>
<circle cx="1.8660" cy="13.3108" r="0.1000"><title>640 entries @ 2024-02-24 13:33:04 +0800
commit ab51053e5ce2da837498924a9abe7f5dd329bbc3</title></circle>
<circle cx="1.7113" cy="13.4185" r="0.1000"><title>540 entries @ 2024-02-04 18:55:14 +0800
commit 0f4b61dda9660ebadc3b8dae047145aceed64d4f</title></circle>
<circle cx="1.6108" cy="13.5154" r="0.1000"><title>450 entries @ 2024-01-22 22:38:04 +0800
commit df8e38cfceff0f7e4550667f61977e3a47b967fb</title></circle>
<circle cx="1.5325" cy="13.6134" r="0.1000"><title>359 entries @ 2024-01-12 22:12:17 +0800
commit d255747031b5d902d74c49b834d424e04d3d44b7</title></circle>
<circle cx="1.4679" cy="13.6403" r="0.1000"><title>334 entries @ 2024-01-04 16:13:59 +0800
commit 6e0a97f36b81ae9c2c689c426540bb98a3a9603b</title></circle>
<circle cx="1.4166" cy="13.6920" r="0.1000"><title>286 entries @ 2023-12-29 02:43:25 +0800
commit 48a0c033ffe79aba3fbfaa0197f562a8643b6f63</title></circle>
<circle cx="1.2980" cy="13.7868" r="0.1000"><title>198 entries @ 2023-12-13 22:52:39 +0800
commit 262a6111d90b2c0ddbcd390f260cd33ae4fbeabd</title></circle>
<circle cx="0.4221" cy="13.8848" r="0.1000"><title>107 entries @ 2023-08-23 23:11:12 +0800
commit 4434639117721c993368b94ad7c0490548f4810a</title></circle>
<circle cx="0.3209" cy="13.9515" r="0.1000"><title>45 entries @ 2023-08-11 00:29:55 +0800
commit de7ddba742b28068707130362c957bd8c9f700c0</title></circle>
<circle cx="0.2819" cy="13.9591" r="0.1000"><title>38 entries @ 2023-08-06 00:51:07 +0800
commit 7641b0d8d7326b3ac5217fedf273f4db79f34e77</title></circle>
<circle cx="0.2810" cy="13.9591" r="0.1000"><title>38 entries @ 2023-08-05 22:09:02 +0800
commit 2add5e5ba367c0d0fda6c562b7cc569080d79eef</title></circle>
<circle cx="0.2797" cy="13.9591" r="0.1000"><title>38 entries @ 2023-08-05 18:04:49 +0800
commit 05ffe436f8b44e7ba66b2f628ea02068829656a2</title></circle>
<circle cx="0.2738" cy="13.9591" r="0.1000"><title>38 entries @ 2023-08-05 00:07:46 +0800
commit d8c2c6373cc36b9d47b09d4f6cf526fe4bd9a385</title></circle>
<circle cx="0.2582" cy="13.9591" r="0.1000"><title>38 entries @ 2023-08-03 00:17:25 +0800
commit e03730858b8ceb76726941530b5c074f3223bf7f</title></circle>
<circle cx="0.2347" cy="13.9591" r="0.1000"><title>38 entries @ 2023-07-31 00:02:46 +0800
commit 7c8a31e7b1855ba11c992f396fefbd450c9774a5</title></circle>
<circle cx="0.1797" cy="13.9720" r="0.1000"><title>26 entries @ 2023-07-23 23:16:56 +0800
commit 01b6ac99c5dd77d7e47a2827676100a89604b99b</title></circle>
<circle cx="0.1569" cy="13.9892" r="0.1000"><title>10 entries @ 2023-07-21 01:25:17 +0800
commit 674245258a03b5ed542528aee30902700096dbd0</title></circle>
<circle cx="0.1557" cy="14.0000" r="0.1000"><title>0 entries @ 2023-07-20 21:39:40 +0800
commit 263685863f91821c9cefca68e1899910e88be118</title></circle>
<polyline points="7.6104,11.5005 7.0235,11.5102 6.8593,11.5446 6.7728,11.6049 6.7270,11.6200 6.6714,11.6308 6.6084,11.6674 6.2803,11.7891 6.1477,11.9011 5.9520,12.0163 5.7609,12.0529 5.0845,12.0648 4.9586,12.0745 4.8730,12.0831 4.7784,12.0863 4.6695,12.0874 4.5838,12.0928 4.4585,12.1014 4.3564,12.1003 4.2279,12.0928 4.1536,12.0971 4.0827,12.1014 4.0131,12.1455 3.7017,12.2317 3.6146,12.2877 3.5476,12.3588 3.4256,12.4751 3.0263,12.5828 2.9177,12.6442 2.6120,12.7572 2.4945,12.8746 2.4090,12.9403 2.2680,13.0760 2.1427,13.1955 1.8660,13.3108 1.7113,13.4185 1.6108,13.5154 1.5325,13.6134 1.4679,13.6403 1.4166,13.6920 1.2980,13.7868 0.4221,13.8848 0.3209,13.9515 0.2819,13.9591 0.2810,13.9591 0.2797,13.9591 0.2738,13.9591 0.2582,13.9591 0.2347,13.9591 0.1797,13.9720 0.1569,13.9892 0.1557,14.0000"/>
</svg>
