<?xml version="1.0" encoding="UTF-8"?>
<svg viewBox="-6 -4 28 22" width="960px" xmlns="http://www.w3.org/2000/svg">
<style>
circle:hover {fill: #cf1338}
circle {fill: black}
line, polyline {stroke: black; stroke-width: 0.1042%}polyline {stroke: #cf1338}line.target {stroke: blue; stroke-dasharray: 1.0417%}
polyline {fill: none}text {font-family: sans-serif; font-size: 1px; text-anchor: middle}
text.target {fill: blue; font-size: 0.7px}
text.tick {font-size: 0.7px}
text.title {fill: #cf1338; font-size: 1.1px}
</style>
<text class="title" x="8.0000" y="-2.0000">Conway's Cantonese Dictionary: Progress</text><line x1="0.0000" y1="14.0000" x2="20.0000" y2="14.0000"/>
<text x="10.0000" y="14.0000" dy="3em">Time</text>
<line x1="1.4392" y1="14.0000" x2="1.4392" y2="14.2000"/>
<text class="tick" x="1.4392" y="14.2000" dy="1.3em">2024</text>
<line x1="4.3019" y1="14.0000" x2="4.3019" y2="14.2000"/>
<text class="tick" x="4.3019" y="14.2000" dy="1.3em">2025</text>
<line x1="7.1568" y1="14.0000" x2="7.1568" y2="14.2000"/>
<text class="tick" x="7.1568" y="14.2000" dy="1.3em">2026</text>
<line x1="10.0117" y1="14.0000" x2="10.0117" y2="14.2000"/>
<text class="tick" x="10.0117" y="14.2000" dy="1.3em">2027</text>
<line x1="12.8666" y1="14.0000" x2="12.8666" y2="14.2000"/>
<text class="tick" x="12.8666" y="14.2000" dy="1.3em">2028</text>
<line x1="15.7294" y1="14.0000" x2="15.7294" y2="14.2000"/>
<text class="tick" x="15.7294" y="14.2000" dy="1.3em">2029</text>
<line x1="18.5843" y1="14.0000" x2="18.5843" y2="14.2000"/>
<text class="tick" x="18.5843" y="14.2000" dy="1.3em">2030</text>
<line x1="0.0000" y1="14.0000" x2="0.0000" y2="0.0000"/>
<text x="0.0000" y="7.0000" dy="-4em" transform="rotate(-90 0.0000 7.0000)">Entry Count</text>
<line x1="0.0000" y1="12.0000" x2="-0.2000" y2="12.0000"/>
<text class="tick" x="-0.2000" y="12.0000" dx="-2em" dy="0.33em">2000</text>
<line x1="0.0000" y1="10.0000" x2="-0.2000" y2="10.0000"/>
<text class="tick" x="-0.2000" y="10.0000" dx="-2em" dy="0.33em">4000</text>
<line x1="0.0000" y1="8.0000" x2="-0.2000" y2="8.0000"/>
<text class="tick" x="-0.2000" y="8.0000" dx="-2em" dy="0.33em">6000</text>
<line x1="0.0000" y1="6.0000" x2="-0.2000" y2="6.0000"/>
<text class="tick" x="-0.2000" y="6.0000" dx="-2em" dy="0.33em">8000</text>
<line x1="0.0000" y1="4.0000" x2="-0.2000" y2="4.0000"/>
<text class="tick" x="-0.2000" y="4.0000" dx="-2em" dy="0.33em">10000</text>
<line x1="0.0000" y1="2.0000" x2="-0.2000" y2="2.0000"/>
<text class="tick" x="-0.2000" y="2.0000" dx="-2em" dy="0.33em">12000</text>
<line class="target" x1="0.0000" y1="1.0000" x2="20.0000" y2="1.0000"/>
<text class="target" x="10.0000" y="1.0000" dy="-0.5em">Approximate Target: 13000 entries</text>
<polyline points="8.2204,11.5980 8.0712,11.6480 7.8991,11.6610 7.8363,11.6640 7.7666,11.6670 7.6183,11.6790 7.2418,11.6820 7.0316,11.6880 6.9217,11.7030 6.8593,11.7200 6.8127,11.7520 6.7657,11.7780 6.7421,11.7900 6.7193,11.7900 6.6857,11.8000 6.6640,11.8000 6.6404,11.8000 6.5772,11.8560 6.4527,11.9170 6.2551,11.9630 6.1940,12.0210 6.1088,12.0930 5.9841,12.1420 5.8734,12.1790 5.7717,12.1880 5.7007,12.1960 5.1227,12.2020 5.0451,12.2080 4.9592,12.2110 4.8963,12.2180 4.8728,12.2200 4.8486,12.2240 4.7771,12.2230 4.7095,12.2230 4.6671,12.2230 4.6146,12.2260 4.5795,12.2300 4.5110,12.2360 4.4499,12.2370 4.4070,12.2400 4.3227,12.2340 4.2314,12.2330 4.1924,12.2300 4.1759,12.2320 4.1296,12.2350 4.0830,12.2370 4.0674,12.2430 4.0195,12.2780 3.9025,12.3160 3.7018,12.3570 3.6287,12.4050 3.6144,12.4100 3.5946,12.4230 3.5428,12.4850 3.4806,12.5410 3.3162,12.6010 3.0661,12.6490 2.9877,12.7020 2.9571,12.7200 2.8941,12.7630 2.7609,12.8210 2.5653,12.8740 2.5033,12.9390 2.4403,12.9970 2.4216,13.0120 2.3448,13.0660 2.2685,13.1330 2.2215,13.1940 2.1508,13.2500 1.9947,13.3130 1.8537,13.3620 1.7595,13.4110 1.7090,13.4700 1.6344,13.5240 1.6035,13.5570 1.5714,13.6060 1.4862,13.6500 1.4752,13.6500 1.4591,13.6880 1.4244,13.7130 1.4063,13.7240 1.3299,13.7830 1.0548,13.8360 0.5539,13.8860 0.3516,13.9090 0.3341,13.9450 0.2877,13.9580 0.2819,13.9620 0.2814,13.9620 0.2810,13.9620 0.2800,13.9620 0.2796,13.9620 0.2791,13.9620 0.2737,13.9620 0.2732,13.9620 0.2580,13.9620 0.2572,13.9620 0.2342,13.9620 0.2112,13.9740 0.1704,13.9740 0.1617,13.9890 0.1557,14.0000"/>
<circle cx="8.2204" cy="11.5980" r="0.1000"><title>2402 entries @ 2026-05-16 23:36:47 +0800
(commit 2aec16ca51b3326bab941a2ad2c1cd74d4d8ffd5)</title></circle>
<circle cx="8.0712" cy="11.6480" r="0.1000"><title>2352 entries @ 2026-04-27 21:47:21 +0800
(commit a960ba38fc8c6cc4c5e124f2c9e1e16a8117ec6c)</title></circle>
<circle cx="7.8991" cy="11.6610" r="0.1000"><title>2339 entries @ 2026-04-05 21:40:08 +0800
(commit 8e86a08f47966ded708db34456eea1177480a7c4)</title></circle>
<circle cx="7.8363" cy="11.6640" r="0.1000"><title>2336 entries @ 2026-03-28 20:45:59 +0800
(commit bfccc8c9892a3350a2e6e6f30f563a23b427ebb3)</title></circle>
<circle cx="7.7666" cy="11.6670" r="0.1000"><title>2333 entries @ 2026-03-19 23:09:00 +0800
(commit e0a4581fbeb1aafcb6798ea6a3caccc4cf5744b1)</title></circle>
<circle cx="7.6183" cy="11.6790" r="0.1000"><title>2321 entries @ 2026-02-28 23:55:54 +0800
(commit 8e9287ae224fd221f4977f229fae932c08f8aab5)</title></circle>
<circle cx="7.2418" cy="11.6820" r="0.1000"><title>2318 entries @ 2026-01-11 20:41:28 +0800
(commit db0684880ed7f2eb285f726e190d85dd5691adb4)</title></circle>
<circle cx="7.0316" cy="11.6880" r="0.1000"><title>2312 entries @ 2025-12-15 23:51:23 +0800
(commit ff18f0eeca0f5a2b138579eabe647dbfa63aa61d)</title></circle>
<circle cx="6.9217" cy="11.7030" r="0.1000"><title>2297 entries @ 2025-12-01 22:41:31 +0800
(commit 5fc4ce15c3725d26ed172153dc7f684f01b2f07e)</title></circle>
<circle cx="6.8593" cy="11.7200" r="0.1000"><title>2280 entries @ 2025-11-23 23:10:24 +0800
(commit afa51ea1ac6bb85d6c586473032620f90e9ea84c)</title></circle>
<circle cx="6.8127" cy="11.7520" r="0.1000"><title>2248 entries @ 2025-11-17 23:56:59 +0800
(commit 612b3b1bd1b0ec98fefacaf2fea0faba124ba5af)</title></circle>
<circle cx="6.7657" cy="11.7780" r="0.1000"><title>2222 entries @ 2025-11-11 23:59:18 +0800
(commit e8044af2499c17697f2781bf1658c3ff7b4d1f10)</title></circle>
<circle cx="6.7421" cy="11.7900" r="0.1000"><title>2210 entries @ 2025-11-08 23:20:57 +0800
(commit 5a846b78aa7c8110636173fb34601b7d004e90c6)</title></circle>
<circle cx="6.7193" cy="11.7900" r="0.1000"><title>2210 entries @ 2025-11-06 01:34:42 +0800
(commit 751d8f15043d2ddaaa71989e7c5b9996fd3cf570)</title></circle>
<circle cx="6.6857" cy="11.8000" r="0.1000"><title>2200 entries @ 2025-11-01 18:25:18 +0800
(commit 3e442bb0ab6bed81e3761c364e7ad7f6f5a8ffa1)</title></circle>
<circle cx="6.6640" cy="11.8000" r="0.1000"><title>2200 entries @ 2025-10-29 23:56:45 +0800
(commit eb954126f2e2332a11f8270f01e870a49a3fd512)</title></circle>
<circle cx="6.6404" cy="11.8000" r="0.1000"><title>2200 entries @ 2025-10-26 23:20:55 +0800
(commit 6f602b9006047a7b30dfcf7e155f755328a55518)</title></circle>
<circle cx="6.5772" cy="11.8560" r="0.1000"><title>2144 entries @ 2025-10-18 21:29:05 +0800
(commit 5abb313bd00158a56466d30f1b21dbe4fbf03e08)</title></circle>
<circle cx="6.4527" cy="11.9170" r="0.1000"><title>2083 entries @ 2025-10-02 23:23:35 +0800
(commit d2489835a0d4a3cf8ca853167d5dd97b0d8bdf5f)</title></circle>
<circle cx="6.2551" cy="11.9630" r="0.1000"><title>2037 entries @ 2025-09-07 17:15:57 +0800
(commit d05b4a3b2082476ae30c0aa3a695ad4933f24bb6)</title></circle>
<circle cx="6.1940" cy="12.0210" r="0.1000"><title>1979 entries @ 2025-08-30 21:49:20 +0800
(commit 729f55951a9cdb2d2360f1bfc403ee61437a1244)</title></circle>
<circle cx="6.1088" cy="12.0930" r="0.1000"><title>1907 entries @ 2025-08-20 00:19:58 +0800
(commit 7f73fe2a713719369a66de900917fe50a1357836)</title></circle>
<circle cx="5.9841" cy="12.1420" r="0.1000"><title>1858 entries @ 2025-08-04 01:29:23 +0800
(commit b2c8502254f8490246ba0e870a5f45124cdd4c91)</title></circle>
<circle cx="5.8734" cy="12.1790" r="0.1000"><title>1821 entries @ 2025-07-20 21:54:21 +0800
(commit 87d3ce0ad33eaabd05d7ab377069936d6d1fc841)</title></circle>
<circle cx="5.7717" cy="12.1880" r="0.1000"><title>1812 entries @ 2025-07-07 21:50:05 +0800
(commit 340ea61fb298952555f1b6a7ac447808147cd11e)</title></circle>
<circle cx="5.7007" cy="12.1960" r="0.1000"><title>1804 entries @ 2025-06-28 19:53:14 +0800
(commit 358255e73a32def930133710bb8f7db381fb52f4)</title></circle>
<circle cx="5.1227" cy="12.2020" r="0.1000"><title>1798 entries @ 2025-04-15 22:36:47 +0800
(commit d90499cbc25da07c069a6f075165f48707258225)</title></circle>
<circle cx="5.0451" cy="12.2080" r="0.1000"><title>1792 entries @ 2025-04-06 00:18:13 +0800
(commit 608cc8a65c9dc7514ac257364a6690639f63425e)</title></circle>
<circle cx="4.9592" cy="12.2110" r="0.1000"><title>1789 entries @ 2025-03-26 00:43:20 +0800
(commit edd2b1fcd7c26bd4add0a4a25b2a538dd150f617)</title></circle>
<circle cx="4.8963" cy="12.2180" r="0.1000"><title>1782 entries @ 2025-03-17 23:55:32 +0800
(commit 82cb026aa5d8006398a4ac1aac8122b8e9ca5cdd)</title></circle>
<circle cx="4.8728" cy="12.2200" r="0.1000"><title>1780 entries @ 2025-03-14 23:41:05 +0800
(commit d485db3fd99051a88815c1fe16aa1f8aaaa49821)</title></circle>
<circle cx="4.8486" cy="12.2240" r="0.1000"><title>1776 entries @ 2025-03-11 21:27:50 +0800
(commit dc6228cf251af5ee191ee5d2c59ceb104bda09a0)</title></circle>
<circle cx="4.7771" cy="12.2230" r="0.1000"><title>1777 entries @ 2025-03-02 18:05:53 +0800
(commit bdc21df58a097ecc5edc8e17dc0a83d3b76d2cca)</title></circle>
<circle cx="4.7095" cy="12.2230" r="0.1000"><title>1777 entries @ 2025-02-22 02:46:01 +0800
(commit d63d7d6667fdfd6ac72ccd91d039bc164719a422)</title></circle>
<circle cx="4.6671" cy="12.2230" r="0.1000"><title>1777 entries @ 2025-02-16 16:31:04 +0800
(commit 7066c615489f48083fa315b602dac67ee90eca4f)</title></circle>
<circle cx="4.6146" cy="12.2260" r="0.1000"><title>1774 entries @ 2025-02-09 23:17:54 +0800
(commit f71c0c304c47c2d62d6053783c500d0f9294f66a)</title></circle>
<circle cx="4.5795" cy="12.2300" r="0.1000"><title>1770 entries @ 2025-02-05 11:48:31 +0800
(commit 150466411e37eaf118cc4d8c2436ee7ff65a56eb)</title></circle>
<circle cx="4.5110" cy="12.2360" r="0.1000"><title>1764 entries @ 2025-01-27 17:41:09 +0800
(commit 69150ab0f24bfcc4405803c4eb70e438386aad5a)</title></circle>
<circle cx="4.4499" cy="12.2370" r="0.1000"><title>1763 entries @ 2025-01-19 22:05:53 +0800
(commit 3f087e27b93e7461c6d81a111b09eef7367e6a7a)</title></circle>
<circle cx="4.4070" cy="12.2400" r="0.1000"><title>1760 entries @ 2025-01-14 10:34:25 +0800
(commit 96397d9aa3406539fddf49239ffedef02a8c2f78)</title></circle>
<circle cx="4.3227" cy="12.2340" r="0.1000"><title>1766 entries @ 2025-01-03 15:42:31 +0800
(commit cd5fcce2c240c7839e3f11466d6f5f2da5dac4eb)</title></circle>
<circle cx="4.2314" cy="12.2330" r="0.1000"><title>1767 entries @ 2024-12-22 23:31:25 +0800
(commit efa46b83d18ce69192db32a6b4db9d4d27f5cafa)</title></circle>
<circle cx="4.1924" cy="12.2300" r="0.1000"><title>1770 entries @ 2024-12-18 00:03:49 +0800
(commit b3cd7b59d8094ef12decf04ba3268c20aee80c72)</title></circle>
<circle cx="4.1759" cy="12.2320" r="0.1000"><title>1768 entries @ 2024-12-15 21:22:30 +0800
(commit 2fbb290a32ba4f15e3d50ba9c3e77da2d73ced3f)</title></circle>
<circle cx="4.1296" cy="12.2350" r="0.1000"><title>1765 entries @ 2024-12-09 23:09:07 +0800
(commit 77f74974be26c1e4715c5009edd8de6d43d874dc)</title></circle>
<circle cx="4.0830" cy="12.2370" r="0.1000"><title>1763 entries @ 2024-12-04 00:21:13 +0800
(commit c5b653ed950c8b271ccb4ed4bdcd36b92536c220)</title></circle>
<circle cx="4.0674" cy="12.2430" r="0.1000"><title>1757 entries @ 2024-12-02 00:26:58 +0800
(commit 4c64dd84eefffc9622ea136c25388a1776a83ddc)</title></circle>
<circle cx="4.0195" cy="12.2780" r="0.1000"><title>1722 entries @ 2024-11-25 21:30:36 +0800
(commit cdba2be48a2584ec6e0bd86314980f32a90a3966)</title></circle>
<circle cx="3.9025" cy="12.3160" r="0.1000"><title>1684 entries @ 2024-11-10 22:17:51 +0800
(commit 755c383cd017604aa4fd3bc154ba1fa7392089a5)</title></circle>
<circle cx="3.7018" cy="12.3570" r="0.1000"><title>1643 entries @ 2024-10-16 06:39:31 +0800
(commit 0cb8044a71a54e7b2e122aa5957e3fe038ddeff2)</title></circle>
<circle cx="3.6287" cy="12.4050" r="0.1000"><title>1595 entries @ 2024-10-06 22:25:09 +0800
(commit c58eed01a2c10f331a9975191157f233599795fa)</title></circle>
<circle cx="3.6144" cy="12.4100" r="0.1000"><title>1590 entries @ 2024-10-05 02:33:29 +0800
(commit 4f0d397a91f7c722fc43d3d4f87ebc9863c7025d)</title></circle>
<circle cx="3.5946" cy="12.4230" r="0.1000"><title>1577 entries @ 2024-10-02 13:45:16 +0800
(commit eb5cf2fb291bc28875b3e526c88434d3ab8677fe)</title></circle>
<circle cx="3.5428" cy="12.4850" r="0.1000"><title>1515 entries @ 2024-09-25 22:44:48 +0800
(commit 00421d3902ea37b8cf191038eab4e029461b648f)</title></circle>
<circle cx="3.4806" cy="12.5410" r="0.1000"><title>1459 entries @ 2024-09-17 23:59:56 +0800
(commit 5b73d64d72cb52cef1afe7ac64d9dbff63ce21d8)</title></circle>
<circle cx="3.3162" cy="12.6010" r="0.1000"><title>1399 entries @ 2024-08-27 23:29:33 +0800
(commit a5e17384043f2966643068f370872e07a8056f31)</title></circle>
<circle cx="3.0661" cy="12.6490" r="0.1000"><title>1351 entries @ 2024-07-27 00:07:03 +0800
(commit d304a560282230b2ba94416a02c59e033a39010b)</title></circle>
<circle cx="2.9877" cy="12.7020" r="0.1000"><title>1298 entries @ 2024-07-16 23:27:34 +0800
(commit 06e67b7a1214c1b4bebb6f8d1ad479887c6d3b13)</title></circle>
<circle cx="2.9571" cy="12.7200" r="0.1000"><title>1280 entries @ 2024-07-13 01:41:22 +0800
(commit f67e6baa5af67251fe99cb8243403515d2aa8817)</title></circle>
<circle cx="2.8941" cy="12.7630" r="0.1000"><title>1237 entries @ 2024-07-05 00:11:15 +0800
(commit bd13c50ee23cbaac64b13aeb9f655bfa4a59d5f8)</title></circle>
<circle cx="2.7609" cy="12.8210" r="0.1000"><title>1179 entries @ 2024-06-17 23:37:35 +0800
(commit 7335b1a9bde7c10fb8df79493109e6d2923d2794)</title></circle>
<circle cx="2.5653" cy="12.8740" r="0.1000"><title>1126 entries @ 2024-05-23 23:16:13 +0800
(commit fa585e57eef16807353088bdcad997ba95bce0f5)</title></circle>
<circle cx="2.5033" cy="12.9390" r="0.1000"><title>1061 entries @ 2024-05-16 01:03:55 +0800
(commit 4b89d6582179722e06463bcdc5db066f4f1fd02e)</title></circle>
<circle cx="2.4403" cy="12.9970" r="0.1000"><title>1003 entries @ 2024-05-07 23:57:52 +0800
(commit b29926117cd973c745e646f0dc5fa780d09c1da5)</title></circle>
<circle cx="2.4216" cy="13.0120" r="0.1000"><title>988 entries @ 2024-05-05 14:32:18 +0800
(commit f7f9d488d53fe5d2ebeb197d41fd84242b8f0531)</title></circle>
<circle cx="2.3448" cy="13.0660" r="0.1000"><title>934 entries @ 2024-04-25 18:47:34 +0800
(commit 2e49b7149fc1526e319f3f7dfa4cd6acf1bda92e)</title></circle>
<circle cx="2.2685" cy="13.1330" r="0.1000"><title>867 entries @ 2024-04-16 00:34:01 +0800
(commit 2d562853896cc77a29d7d176bd543220cbe4f147)</title></circle>
<circle cx="2.2215" cy="13.1940" r="0.1000"><title>806 entries @ 2024-04-10 00:36:03 +0800
(commit edfbf4b36aeca8ea1c535f5005161c6c4eeaad67)</title></circle>
<circle cx="2.1508" cy="13.2500" r="0.1000"><title>750 entries @ 2024-03-31 23:22:11 +0800
(commit 5b1e5382f8beadf216edb07daed77278846fcbeb)</title></circle>
<circle cx="1.9947" cy="13.3130" r="0.1000"><title>687 entries @ 2024-03-12 00:40:04 +0800
(commit 312426ed3a90984109236bc85c5fb5ee0a77c9ad)</title></circle>
<circle cx="1.8537" cy="13.3620" r="0.1000"><title>638 entries @ 2024-02-22 23:57:58 +0800
(commit 10640b71cd6ac984545aa7f8a56812b0557f5e7f)</title></circle>
<circle cx="1.7595" cy="13.4110" r="0.1000"><title>589 entries @ 2024-02-10 22:58:36 +0800
(commit bc11a90df556e50558c0b6b617e902c4980f3bbd)</title></circle>
<circle cx="1.7090" cy="13.4700" r="0.1000"><title>530 entries @ 2024-02-04 11:57:27 +0800
(commit 22255f914bb73ace580b2b94185f650f251df797)</title></circle>
<circle cx="1.6344" cy="13.5240" r="0.1000"><title>476 entries @ 2024-01-25 23:03:57 +0800
(commit 8f9f52d79784c59e67fd40f22f8e1584b0e1a3f8)</title></circle>
<circle cx="1.6035" cy="13.5570" r="0.1000"><title>443 entries @ 2024-01-22 00:11:39 +0800
(commit 42b70b7344d1859c37a86ac4f8a8bcc96ceba8b7)</title></circle>
<circle cx="1.5714" cy="13.6060" r="0.1000"><title>394 entries @ 2024-01-17 21:41:48 +0800
(commit 87bcd006b466c2072cb23282b3a38d11a42a02fb)</title></circle>
<circle cx="1.4862" cy="13.6500" r="0.1000"><title>350 entries @ 2024-01-07 00:14:16 +0800
(commit 4192086d8444962beb1ed5c55e544a928559a9bb)</title></circle>
<circle cx="1.4752" cy="13.6500" r="0.1000"><title>350 entries @ 2024-01-05 14:28:33 +0800
(commit 487a16c59b4d95f5232640af1770fb107d0db321)</title></circle>
<circle cx="1.4591" cy="13.6880" r="0.1000"><title>312 entries @ 2024-01-03 13:13:24 +0800
(commit b8624e7595899256f7b0ca4c2ea3c80b2fdfddd3)</title></circle>
<circle cx="1.4244" cy="13.7130" r="0.1000"><title>287 entries @ 2023-12-30 02:46:35 +0800
(commit 4b257f0cc15d24f59124e92ee8c655d1bab6c812)</title></circle>
<circle cx="1.4063" cy="13.7240" r="0.1000"><title>276 entries @ 2023-12-27 19:02:30 +0800
(commit 0b659c9fb1515a9bf5d6df2f9f368705c146a6d9)</title></circle>
<circle cx="1.3299" cy="13.7830" r="0.1000"><title>217 entries @ 2023-12-18 00:33:46 +0800
(commit 68df546fd4f9cd3e23ddeb5eb0de408c886c79c7)</title></circle>
<circle cx="1.0548" cy="13.8360" r="0.1000"><title>164 entries @ 2023-11-12 20:38:52 +0800
(commit 42a0c11272d49a1d39e1f4f6aac8afdafc6de140)</title></circle>
<circle cx="0.5539" cy="13.8860" r="0.1000"><title>114 entries @ 2023-09-09 19:41:58 +0800
(commit 936255572cf81b771836fcf5825942b42b8fcf2f)</title></circle>
<circle cx="0.3516" cy="13.9090" r="0.1000"><title>91 entries @ 2023-08-14 22:47:15 +0800
(commit ec70b6a54eabb405c01cd788330272cb62c79c34)</title></circle>
<circle cx="0.3341" cy="13.9450" r="0.1000"><title>55 entries @ 2023-08-12 17:14:59 +0800
(commit c4cd496897f99a0c2081388e7fae102427dd7df5)</title></circle>
<circle cx="0.2877" cy="13.9580" r="0.1000"><title>42 entries @ 2023-08-06 18:43:25 +0800
(commit 2cb79ef39f5cb6328b1d1ce7ea7eaa700b85e70e)</title></circle>
<circle cx="0.2819" cy="13.9620" r="0.1000"><title>38 entries @ 2023-08-06 00:58:52 +0800
(commit 58235f9e3734d3f1c5025fcf4b94cfe973621813)</title></circle>
<circle cx="0.2814" cy="13.9620" r="0.1000"><title>38 entries @ 2023-08-05 23:33:01 +0800
(commit 1eb374f3d91750d36dc26ba20f1551d8927409a6)</title></circle>
<circle cx="0.2810" cy="13.9620" r="0.1000"><title>38 entries @ 2023-08-05 22:09:02 +0800
(commit 2add5e5ba367c0d0fda6c562b7cc569080d79eef)</title></circle>
<circle cx="0.2800" cy="13.9620" r="0.1000"><title>38 entries @ 2023-08-05 19:09:23 +0800
(commit 8a9b2e095b34512d21771c8402d2c0ee8bf3c05f)</title></circle>
<circle cx="0.2796" cy="13.9620" r="0.1000"><title>38 entries @ 2023-08-05 17:58:04 +0800
(commit 969095e49b61832b36fcf32fdcbfb06e510c38b7)</title></circle>
<circle cx="0.2791" cy="13.9620" r="0.1000"><title>38 entries @ 2023-08-05 16:26:44 +0800
(commit 5ddc0a15ae75f5500332758cc486aa27768dae9c)</title></circle>
<circle cx="0.2737" cy="13.9620" r="0.1000"><title>38 entries @ 2023-08-04 23:53:06 +0800
(commit b9c0f3fb93bd87f2f8d77fc37c820724dc7ec6fc)</title></circle>
<circle cx="0.2732" cy="13.9620" r="0.1000"><title>38 entries @ 2023-08-04 22:15:41 +0800
(commit 80b8c2bdcead3c4b1c12ac4faac87ca701dc7bd7)</title></circle>
<circle cx="0.2580" cy="13.9620" r="0.1000"><title>38 entries @ 2023-08-02 23:46:21 +0800
(commit 89b020edeb668836fa6844ac34889e6ed7250a9c)</title></circle>
<circle cx="0.2572" cy="13.9620" r="0.1000"><title>38 entries @ 2023-08-02 21:19:38 +0800
(commit a1466f17e7aa754398a58afe0ce5bed7b9ba7246)</title></circle>
<circle cx="0.2342" cy="13.9620" r="0.1000"><title>38 entries @ 2023-07-30 22:41:25 +0800
(commit f2fa338db3b5b75acd41d870c1c7c4869020dffe)</title></circle>
<circle cx="0.2112" cy="13.9740" r="0.1000"><title>26 entries @ 2023-07-28 00:10:04 +0800
(commit 3622cfe7d1ba8c1c4b8be8913941f325cf032e25)</title></circle>
<circle cx="0.1704" cy="13.9740" r="0.1000"><title>26 entries @ 2023-07-22 18:54:06 +0800
(commit 66e71d5ed67323d8a3e5e67583f3f0e5de6e6d68)</title></circle>
<circle cx="0.1617" cy="13.9890" r="0.1000"><title>11 entries @ 2023-07-21 16:13:15 +0800
(commit 5d85f8025c13f0d58f5ba476bf9e3b320b85b140)</title></circle>
<circle cx="0.1557" cy="14.0000" r="0.1000"><title>0 entries @ 2023-07-20 21:39:40 +0800
(commit 263685863f91821c9cefca68e1899910e88be118)</title></circle>
</svg>
