<?xml version="1.0" encoding="UTF-8"?>
<svg viewBox="-6 -4 28 22" width="960px" xmlns="http://www.w3.org/2000/svg">
<style>
circle:hover {fill: #cf1338}
circle {fill: black}
line, polyline {stroke: black; stroke-width: 0.1042%}polyline {stroke: #cf1338}line.target {stroke: blue; stroke-dasharray: 1.0417%}
polyline {fill: none}text {font-family: sans-serif; font-size: 1px; text-anchor: middle}
text.target {fill: blue; font-size: 0.7px}
text.tick {font-size: 0.7px}
text.title {fill: #cf1338; font-size: 1.1px}
</style>
<text class="title" x="8.0000" y="-2.0000">Conway's Cantonese Dictionary: Progress</text><line x1="0.0000" y1="14.0000" x2="20.0000" y2="14.0000"/>
<text x="10.0000" y="14.0000" dy="3em">Time</text>
<line x1="1.4392" y1="14.0000" x2="1.4392" y2="14.2000"/>
<text class="tick" x="1.4392" y="14.2000" dy="1.3em">2024</text>
<line x1="4.3019" y1="14.0000" x2="4.3019" y2="14.2000"/>
<text class="tick" x="4.3019" y="14.2000" dy="1.3em">2025</text>
<line x1="7.1568" y1="14.0000" x2="7.1568" y2="14.2000"/>
<text class="tick" x="7.1568" y="14.2000" dy="1.3em">2026</text>
<line x1="10.0117" y1="14.0000" x2="10.0117" y2="14.2000"/>
<text class="tick" x="10.0117" y="14.2000" dy="1.3em">2027</text>
<line x1="12.8666" y1="14.0000" x2="12.8666" y2="14.2000"/>
<text class="tick" x="12.8666" y="14.2000" dy="1.3em">2028</text>
<line x1="15.7294" y1="14.0000" x2="15.7294" y2="14.2000"/>
<text class="tick" x="15.7294" y="14.2000" dy="1.3em">2029</text>
<line x1="18.5843" y1="14.0000" x2="18.5843" y2="14.2000"/>
<text class="tick" x="18.5843" y="14.2000" dy="1.3em">2030</text>
<line x1="0.0000" y1="14.0000" x2="0.0000" y2="0.0000"/>
<text x="0.0000" y="7.0000" dy="-4em" transform="rotate(-90 0.0000 7.0000)">Entry Count</text>
<line x1="0.0000" y1="12.0000" x2="-0.2000" y2="12.0000"/>
<text class="tick" x="-0.2000" y="12.0000" dx="-2em" dy="0.33em">2000</text>
<line x1="0.0000" y1="10.0000" x2="-0.2000" y2="10.0000"/>
<text class="tick" x="-0.2000" y="10.0000" dx="-2em" dy="0.33em">4000</text>
<line x1="0.0000" y1="8.0000" x2="-0.2000" y2="8.0000"/>
<text class="tick" x="-0.2000" y="8.0000" dx="-2em" dy="0.33em">6000</text>
<line x1="0.0000" y1="6.0000" x2="-0.2000" y2="6.0000"/>
<text class="tick" x="-0.2000" y="6.0000" dx="-2em" dy="0.33em">8000</text>
<line x1="0.0000" y1="4.0000" x2="-0.2000" y2="4.0000"/>
<text class="tick" x="-0.2000" y="4.0000" dx="-2em" dy="0.33em">10000</text>
<line x1="0.0000" y1="2.0000" x2="-0.2000" y2="2.0000"/>
<text class="tick" x="-0.2000" y="2.0000" dx="-2em" dy="0.33em">12000</text>
<line class="target" x1="0.0000" y1="1.0000" x2="20.0000" y2="1.0000"/>
<text class="target" x="10.0000" y="1.0000" dy="-0.5em">Approximate Target: 13000 entries</text>
<polyline points="8.2049,11.6120 8.0022,11.6510 7.8899,11.6620 7.8286,11.6640 7.7183,11.6700 7.6030,11.6790 7.1791,11.6830 7.0221,11.6880 6.8674,11.7110 6.8577,11.7260 6.8014,11.7580 6.7501,11.7890 6.7397,11.7900 6.7176,11.7900 6.6799,11.8000 6.6563,11.8000 6.6249,11.8110 6.5621,11.8700 6.3630,11.9330 6.2467,11.9820 6.1614,12.0420 6.0927,12.1050 5.9740,12.1570 5.8705,12.1820 5.7608,12.1920 5.6675,12.1980 5.0841,12.2030 5.0181,12.2090 4.9427,12.2150 4.8887,12.2190 4.8649,12.2200 4.8420,12.2240 4.7482,12.2230 4.7085,12.2230 4.6538,12.2230 4.5993,12.2270 4.5448,12.2320 4.4739,12.2360 4.4482,12.2370 4.3799,12.2360 4.3162,12.2340 4.2283,12.2330 4.1844,12.2320 4.1536,12.2330 4.1065,12.2360 4.0824,12.2400 4.0666,12.2450 4.0119,12.2780 3.8794,12.3310 3.6803,12.3730 3.6174,12.4100 3.6140,12.4100 3.5591,12.4420 3.5349,12.5020 3.4644,12.5590 3.2439,12.6140 3.0407,12.6620 2.9721,12.7090 2.9334,12.7280 2.8626,12.7800 2.6409,12.8370 2.5501,12.8930 2.4948,12.9510 2.4231,13.0090 2.4088,13.0190 2.3307,13.0870 2.2604,13.1490 2.2057,13.2120 2.1274,13.2660 1.9706,13.3330 1.8219,13.3720 1.7518,13.4280 1.6971,13.4910 1.6251,13.5330 1.5880,13.5720 1.5559,13.6160 1.4781,13.6500 1.4699,13.6540 1.4369,13.7100 1.4234,13.7130 1.3992,13.7430 1.3139,13.7960 0.7500,13.8550 0.4221,13.8930 0.3422,13.9210 0.3205,13.9550 0.2866,13.9620 0.2818,13.9620 0.2813,13.9620 0.2808,13.9620 0.2799,13.9620 0.2795,13.9620 0.2741,13.9620 0.2736,13.9620 0.2659,13.9620 0.2578,13.9620 0.2505,13.9620 0.2271,13.9690 0.1952,13.9740 0.1695,13.9780 0.1571,13.9900 0.1557,14.0000"/>
<circle cx="8.2049" cy="11.6120" r="0.1000"><title>2388 entries @ 2026-05-15 00:03:08 +0800
(commit 62d12f3d2ab8df85608bad188a69de7892fc6870)</title></circle>
<circle cx="8.0022" cy="11.6510" r="0.1000"><title>2349 entries @ 2026-04-19 02:00:11 +0800
(commit dc3159ddf54bf3543ecb5108be18adf464194350)</title></circle>
<circle cx="7.8899" cy="11.6620" r="0.1000"><title>2338 entries @ 2026-04-04 17:19:42 +0800
(commit a90c5b2e36e1be979e5f7c7b28b922107a1990e2)</title></circle>
<circle cx="7.8286" cy="11.6640" r="0.1000"><title>2336 entries @ 2026-03-27 21:20:16 +0800
(commit 7021eacbef7b83469a0136898a35c02ee6804ed6)</title></circle>
<circle cx="7.7183" cy="11.6700" r="0.1000"><title>2330 entries @ 2026-03-13 18:49:54 +0800
(commit 48e4fcb6b3d882cccd6c128dc20021bb3d8bcb8f)</title></circle>
<circle cx="7.6030" cy="11.6790" r="0.1000"><title>2321 entries @ 2026-02-27 00:57:34 +0800
(commit 0f9323a8858bb1bd98b786c19773c5df6b519b4f)</title></circle>
<circle cx="7.1791" cy="11.6830" r="0.1000"><title>2317 entries @ 2026-01-03 20:15:05 +0800
(commit a1d998d563006cb433142955e3f0c2d8be221668)</title></circle>
<circle cx="7.0221" cy="11.6880" r="0.1000"><title>2312 entries @ 2025-12-14 18:41:48 +0800
(commit 6879dcbe0ce49fa19ef005f9aa70de0f28f22421)</title></circle>
<circle cx="6.8674" cy="11.7110" r="0.1000"><title>2289 entries @ 2025-11-25 00:00:20 +0800
(commit 635e23b8d172e4eead87046d77875af5f595b7a9)</title></circle>
<circle cx="6.8577" cy="11.7260" r="0.1000"><title>2274 entries @ 2025-11-23 18:01:24 +0800
(commit e9f6800ffde19729490449137266ebba94bf138d)</title></circle>
<circle cx="6.8014" cy="11.7580" r="0.1000"><title>2242 entries @ 2025-11-16 13:28:29 +0800
(commit 3e776ddf3bcd5f4418126686cdb37e445b268190)</title></circle>
<circle cx="6.7501" cy="11.7890" r="0.1000"><title>2211 entries @ 2025-11-09 23:56:55 +0800
(commit 961785f0bf7fc6aff229f38e5b4d772f343f195b)</title></circle>
<circle cx="6.7397" cy="11.7900" r="0.1000"><title>2210 entries @ 2025-11-08 16:02:03 +0800
(commit 91941a5f2d0f66f4b075f60ddea30533073ff0bd)</title></circle>
<circle cx="6.7176" cy="11.7900" r="0.1000"><title>2210 entries @ 2025-11-05 20:15:32 +0800
(commit 5b60e03ed3740d2f5b91a3e2d8a6ffa41fefb47b)</title></circle>
<circle cx="6.6799" cy="11.8000" r="0.1000"><title>2200 entries @ 2025-11-01 00:34:28 +0800
(commit 40cdde7b7f8dfc189b4fff6a8de8682e7529835d)</title></circle>
<circle cx="6.6563" cy="11.8000" r="0.1000"><title>2200 entries @ 2025-10-29 00:07:51 +0800
(commit ccd9a37e5ec60a9a607fc65c39edda4848144cb4)</title></circle>
<circle cx="6.6249" cy="11.8110" r="0.1000"><title>2189 entries @ 2025-10-24 23:53:38 +0800
(commit 37a6c790b19baa2dbeaeb3968a1b1dedf5969fad)</title></circle>
<circle cx="6.5621" cy="11.8700" r="0.1000"><title>2130 entries @ 2025-10-16 23:07:06 +0800
(commit c43eaf018d073c2cb499ede39965d7a6cf5cf467)</title></circle>
<circle cx="6.3630" cy="11.9330" r="0.1000"><title>2067 entries @ 2025-09-21 12:17:41 +0800
(commit 2ac63ca447ff3e616abf2141fa30f3c68ca7373f)</title></circle>
<circle cx="6.2467" cy="11.9820" r="0.1000"><title>2018 entries @ 2025-09-06 15:30:56 +0800
(commit ecec1f55b8e777c81a346a64c7503d926e08c8a7)</title></circle>
<circle cx="6.1614" cy="12.0420" r="0.1000"><title>1958 entries @ 2025-08-26 17:47:32 +0800
(commit 50c1a5d9f03c0ebd977b8aebcafbbb83f6bb5ef7)</title></circle>
<circle cx="6.0927" cy="12.1050" r="0.1000"><title>1895 entries @ 2025-08-17 22:50:06 +0800
(commit f6953ea0553865fb4123c1cff57da2a93f726567)</title></circle>
<circle cx="5.9740" cy="12.1570" r="0.1000"><title>1843 entries @ 2025-08-02 18:42:01 +0800
(commit 4bc30a335574278a21dd1841007cfc62fcc189cc)</title></circle>
<circle cx="5.8705" cy="12.1820" r="0.1000"><title>1818 entries @ 2025-07-20 13:07:02 +0800
(commit fff4e0f4d7f3bdffd29e71c793cfe4092e21251f)</title></circle>
<circle cx="5.7608" cy="12.1920" r="0.1000"><title>1808 entries @ 2025-07-06 12:23:19 +0800
(commit f9cbf42263e2aa1324fcc241d3464ba9416e2a55)</title></circle>
<circle cx="5.6675" cy="12.1980" r="0.1000"><title>1802 entries @ 2025-06-24 14:00:30 +0800
(commit f2de7740a3f183c13e4807ecf6dd2b84ac272e25)</title></circle>
<circle cx="5.0841" cy="12.2030" r="0.1000"><title>1797 entries @ 2025-04-11 00:04:15 +0800
(commit 167619a1e3c922adf531aeb92d4ebbe4a1053f93)</title></circle>
<circle cx="5.0181" cy="12.2090" r="0.1000"><title>1791 entries @ 2025-04-02 13:40:44 +0800
(commit 53e8db05420ce592fcff3feec4412db82ae43740)</title></circle>
<circle cx="4.9427" cy="12.2150" r="0.1000"><title>1785 entries @ 2025-03-23 22:16:56 +0800
(commit 891bda2223212659f0c3a2bb3685ecd481ba4126)</title></circle>
<circle cx="4.8887" cy="12.2190" r="0.1000"><title>1781 entries @ 2025-03-17 00:30:10 +0800
(commit 68e736b696c9802585f521b5fa9c0091712a0e30)</title></circle>
<circle cx="4.8649" cy="12.2200" r="0.1000"><title>1780 entries @ 2025-03-13 23:30:37 +0800
(commit a0be0919813ca6517b7cd0acc28fd98d1c89fcb7)</title></circle>
<circle cx="4.8420" cy="12.2240" r="0.1000"><title>1776 entries @ 2025-03-11 01:10:39 +0800
(commit f040f2100057e77bcdba0ce1547d5b9f86e501c4)</title></circle>
<circle cx="4.7482" cy="12.2230" r="0.1000"><title>1777 entries @ 2025-02-27 01:20:45 +0800
(commit 4edea34583869b85f36f08f057874e4822583cd5)</title></circle>
<circle cx="4.7085" cy="12.2230" r="0.1000"><title>1777 entries @ 2025-02-21 23:28:59 +0800
(commit 7a7170b970494817d90efcb23da6826ef5885c48)</title></circle>
<circle cx="4.6538" cy="12.2230" r="0.1000"><title>1777 entries @ 2025-02-14 23:49:31 +0800
(commit 536a09863dea705ce1f3bbb030c0827ebc73ee78)</title></circle>
<circle cx="4.5993" cy="12.2270" r="0.1000"><title>1773 entries @ 2025-02-08 00:33:24 +0800
(commit a9295294238be8341e46c7696a6213a46471adf3)</title></circle>
<circle cx="4.5448" cy="12.2320" r="0.1000"><title>1768 entries @ 2025-02-01 01:18:05 +0800
(commit a86780829da524475ead09532142243f3647451f)</title></circle>
<circle cx="4.4739" cy="12.2360" r="0.1000"><title>1764 entries @ 2025-01-22 23:39:38 +0800
(commit 79a309a771c3eb9c10b3e239b136230c00060ebf)</title></circle>
<circle cx="4.4482" cy="12.2370" r="0.1000"><title>1763 entries @ 2025-01-19 16:46:59 +0800
(commit d0582bc2f249a6928f37f6badbfc757b4924772d)</title></circle>
<circle cx="4.3799" cy="12.2360" r="0.1000"><title>1764 entries @ 2025-01-10 23:18:02 +0800
(commit 3e8525d95ae763e194c7847b2acc9df461593f22)</title></circle>
<circle cx="4.3162" cy="12.2340" r="0.1000"><title>1766 entries @ 2025-01-02 19:45:31 +0800
(commit fde7322cbb592b70bcdbd68f0731a05d9a2012be)</title></circle>
<circle cx="4.2283" cy="12.2330" r="0.1000"><title>1767 entries @ 2024-12-22 13:58:39 +0800
(commit d09ed0250498e5ff77bfbef151ca2d8a9ba59934)</title></circle>
<circle cx="4.1844" cy="12.2320" r="0.1000"><title>1768 entries @ 2024-12-16 23:32:51 +0800
(commit 37536fbb9afad76a6a9a8cc0cfd94fe510d974ec)</title></circle>
<circle cx="4.1536" cy="12.2330" r="0.1000"><title>1767 entries @ 2024-12-13 00:51:44 +0800
(commit ff216c91250beeeadbb7594346c41ff488f1e4ef)</title></circle>
<circle cx="4.1065" cy="12.2360" r="0.1000"><title>1764 entries @ 2024-12-07 00:15:28 +0800
(commit 4ba1ad87e4e3760e79fd28fde2122491238328db)</title></circle>
<circle cx="4.0824" cy="12.2400" r="0.1000"><title>1760 entries @ 2024-12-03 22:29:46 +0800
(commit 9613003c35b1ac91a4dcf7f4e70192a318fc61bb)</title></circle>
<circle cx="4.0666" cy="12.2450" r="0.1000"><title>1755 entries @ 2024-12-01 21:51:28 +0800
(commit 10a43e1c4f37bd5178db8b3868c0746e8841f6b5)</title></circle>
<circle cx="4.0119" cy="12.2780" r="0.1000"><title>1722 entries @ 2024-11-24 22:07:52 +0800
(commit ee2c355cb62f2baf9b36e66f76d9817b01a3f457)</title></circle>
<circle cx="3.8794" cy="12.3310" r="0.1000"><title>1669 entries @ 2024-11-07 23:25:10 +0800
(commit e8a7015b512fff659849922de221b24c882ef3a6)</title></circle>
<circle cx="3.6803" cy="12.3730" r="0.1000"><title>1627 entries @ 2024-10-13 12:40:25 +0800
(commit e5db87d9a5c25ebca533ce289adbf00ad1c08885)</title></circle>
<circle cx="3.6174" cy="12.4100" r="0.1000"><title>1590 entries @ 2024-10-05 11:45:28 +0800
(commit b0b9cedb104fdba1b47d97f6202b7ba06e518197)</title></circle>
<circle cx="3.6140" cy="12.4100" r="0.1000"><title>1590 entries @ 2024-10-05 01:03:41 +0800
(commit 8252fab0c20f002c6a5da3314ffa9dd6372f1948)</title></circle>
<circle cx="3.5591" cy="12.4420" r="0.1000"><title>1558 entries @ 2024-09-28 00:38:08 +0800
(commit f60984c60f2f8a6991d9181ca5c93cd5176f56f2)</title></circle>
<circle cx="3.5349" cy="12.5020" r="0.1000"><title>1498 entries @ 2024-09-24 22:23:11 +0800
(commit 237063799d195f9a0010d02f3761fa5130d34f9e)</title></circle>
<circle cx="3.4644" cy="12.5590" r="0.1000"><title>1441 entries @ 2024-09-15 22:08:19 +0800
(commit cb2540247f7109c4bda22ccbcb21d9a440357cd0)</title></circle>
<circle cx="3.2439" cy="12.6140" r="0.1000"><title>1386 entries @ 2024-08-18 17:26:31 +0800
(commit 775ccd06af1f455e86965463e06148c17c399414)</title></circle>
<circle cx="3.0407" cy="12.6620" r="0.1000"><title>1338 entries @ 2024-07-23 18:11:06 +0800
(commit 67727e2f7c11691552e2c1d7e14aa17d025e5208)</title></circle>
<circle cx="2.9721" cy="12.7090" r="0.1000"><title>1291 entries @ 2024-07-14 23:31:09 +0800
(commit a4eb40b718bd6440cc93737fe00e5b95c0e9e355)</title></circle>
<circle cx="2.9334" cy="12.7280" r="0.1000"><title>1272 entries @ 2024-07-10 00:57:32 +0800
(commit 85e6ccdcf7788e474e60cf12e300ac9c4e800eb6)</title></circle>
<circle cx="2.8626" cy="12.7800" r="0.1000"><title>1220 entries @ 2024-06-30 23:33:56 +0800
(commit ebdd6cdc0589aff69faf44a8c8a1eb8cb9810645)</title></circle>
<circle cx="2.6409" cy="12.8370" r="0.1000"><title>1163 entries @ 2024-06-02 15:17:28 +0800
(commit 27557bb86ba6158c2823d1802de43e41d69ba034)</title></circle>
<circle cx="2.5501" cy="12.8930" r="0.1000"><title>1107 entries @ 2024-05-22 00:50:58 +0800
(commit 770501cf96237fc4166cf012b2c91f84d164ea04)</title></circle>
<circle cx="2.4948" cy="12.9510" r="0.1000"><title>1049 entries @ 2024-05-14 23:09:49 +0800
(commit 01711aa8f11606409663828709e53c7562d0e28f)</title></circle>
<circle cx="2.4231" cy="13.0090" r="0.1000"><title>991 entries @ 2024-05-05 18:58:47 +0800
(commit b58deff99c1b6ef6c7492b629eccf088736273df)</title></circle>
<circle cx="2.4088" cy="13.0190" r="0.1000"><title>981 entries @ 2024-05-03 23:13:02 +0800
(commit 4cf4123b493ef90c2b69c778b29a31d41cc7914d)</title></circle>
<circle cx="2.3307" cy="13.0870" r="0.1000"><title>913 entries @ 2024-04-23 23:34:33 +0800
(commit c26e7d3bafd2e692cf9e739e9995bb86822b1981)</title></circle>
<circle cx="2.2604" cy="13.1490" r="0.1000"><title>851 entries @ 2024-04-14 23:45:47 +0800
(commit b20e7a4ea2b99a8795c037c5025467cba6e693da)</title></circle>
<circle cx="2.2057" cy="13.2120" r="0.1000"><title>788 entries @ 2024-04-07 23:52:14 +0800
(commit 11d028e68c42f626985253792ea70e59be0d4c7c)</title></circle>
<circle cx="2.1274" cy="13.2660" r="0.1000"><title>734 entries @ 2024-03-28 23:37:06 +0800
(commit 74b5f0829d7fbd21d15e2e97c45b29a8cb0b9878)</title></circle>
<circle cx="1.9706" cy="13.3330" r="0.1000"><title>667 entries @ 2024-03-08 22:38:25 +0800
(commit b75fb62cae1ef33d2fff996f3db5cc1f5185a3fb)</title></circle>
<circle cx="1.8219" cy="13.3720" r="0.1000"><title>628 entries @ 2024-02-18 22:14:40 +0800
(commit 44e3c6c1057a917ef2bc10ce0aefdbbc1f98f65b)</title></circle>
<circle cx="1.7518" cy="13.4280" r="0.1000"><title>572 entries @ 2024-02-09 23:04:55 +0800
(commit a4e0613f2a3ac01dd1728c30c94cc48a7062f01e)</title></circle>
<circle cx="1.6971" cy="13.4910" r="0.1000"><title>509 entries @ 2024-02-02 23:15:13 +0800
(commit afcb9ff9220bccb09b66c6a73f120a8bda2b1a40)</title></circle>
<circle cx="1.6251" cy="13.5330" r="0.1000"><title>467 entries @ 2024-01-24 18:30:19 +0800
(commit 65cc1e157bdb4161aed262e6e6a6e166603dc653)</title></circle>
<circle cx="1.5880" cy="13.5720" r="0.1000"><title>428 entries @ 2024-01-20 00:40:24 +0800
(commit ac9de03afb26b22b1ec2957561f3ad5bca9b82c0)</title></circle>
<circle cx="1.5559" cy="13.6160" r="0.1000"><title>384 entries @ 2024-01-15 22:00:46 +0800
(commit eac998bfb39cbd19e6e77b09fb456edbed4ffe36)</title></circle>
<circle cx="1.4781" cy="13.6500" r="0.1000"><title>350 entries @ 2024-01-05 23:20:42 +0800
(commit 2eafed7b889f0c567783640b4d11442882de8ec7)</title></circle>
<circle cx="1.4699" cy="13.6540" r="0.1000"><title>346 entries @ 2024-01-04 22:20:46 +0800
(commit ce0a41fb9a1e08981526165904358f07d9dcb498)</title></circle>
<circle cx="1.4369" cy="13.7100" r="0.1000"><title>290 entries @ 2023-12-31 17:01:25 +0800
(commit aa62ea0f9e07b4b85fef6255f82ca7256aa627ba)</title></circle>
<circle cx="1.4234" cy="13.7130" r="0.1000"><title>287 entries @ 2023-12-29 23:29:43 +0800
(commit 8353655f141f404575439f3306c671f9ca7574ca)</title></circle>
<circle cx="1.3992" cy="13.7430" r="0.1000"><title>257 entries @ 2023-12-26 21:23:58 +0800
(commit 1cd93a8171b2847eefb98ae6d3627b9ba2054d84)</title></circle>
<circle cx="1.3139" cy="13.7960" r="0.1000"><title>204 entries @ 2023-12-15 23:40:46 +0800
(commit 68240ca30b14135023d3003c51d4b1bdde917bdc)</title></circle>
<circle cx="0.7500" cy="13.8550" r="0.1000"><title>145 entries @ 2023-10-04 21:19:38 +0800
(commit a75573b60c2aba9212e896b7979f9cb2109c4e8a)</title></circle>
<circle cx="0.4221" cy="13.8930" r="0.1000"><title>107 entries @ 2023-08-23 23:11:12 +0800
(commit 4434639117721c993368b94ad7c0490548f4810a)</title></circle>
<circle cx="0.3422" cy="13.9210" r="0.1000"><title>79 entries @ 2023-08-13 18:01:20 +0800
(commit 5deb5b3ddf21260f9c64166a50a3aa02932f7fc1)</title></circle>
<circle cx="0.3205" cy="13.9550" r="0.1000"><title>45 entries @ 2023-08-10 23:29:53 +0800
(commit 879df4e04d8c9906801784a0d1539aa412f6da66)</title></circle>
<circle cx="0.2866" cy="13.9620" r="0.1000"><title>38 entries @ 2023-08-06 15:25:21 +0800
(commit 87c01e824fb264221df1787ee109dc0838748960)</title></circle>
<circle cx="0.2818" cy="13.9620" r="0.1000"><title>38 entries @ 2023-08-06 00:36:16 +0800
(commit 85c2f5d40686c4a0b660dcad4be23fdc491eef73)</title></circle>
<circle cx="0.2813" cy="13.9620" r="0.1000"><title>38 entries @ 2023-08-05 23:15:39 +0800
(commit 9a79987ed062c710ffb02ab4ed93e695aacb83df)</title></circle>
<circle cx="0.2808" cy="13.9620" r="0.1000"><title>38 entries @ 2023-08-05 21:32:18 +0800
(commit 8762c8eac233c36760d70e42abb949e243e3ac18)</title></circle>
<circle cx="0.2799" cy="13.9620" r="0.1000"><title>38 entries @ 2023-08-05 18:49:18 +0800
(commit fdecd3e504deb6692a771c609ab832fdcef0e0ee)</title></circle>
<circle cx="0.2795" cy="13.9620" r="0.1000"><title>38 entries @ 2023-08-05 17:38:13 +0800
(commit cb5b4b078cb3634a18d598746dce415f06f35ad8)</title></circle>
<circle cx="0.2741" cy="13.9620" r="0.1000"><title>38 entries @ 2023-08-05 00:55:54 +0800
(commit af6162b24df179352a9c73db2eb909c46c7f1957)</title></circle>
<circle cx="0.2736" cy="13.9620" r="0.1000"><title>38 entries @ 2023-08-04 23:29:13 +0800
(commit 41f79f9d70bcb317c2fe732a78500ac8e26618e4)</title></circle>
<circle cx="0.2659" cy="13.9620" r="0.1000"><title>38 entries @ 2023-08-04 00:00:43 +0800
(commit d5110e749ba487b49924f116ac206a883fb9c4a7)</title></circle>
<circle cx="0.2578" cy="13.9620" r="0.1000"><title>38 entries @ 2023-08-02 22:58:02 +0800
(commit 400b886157a67d99ed8a61f6b52b1c97c26c2148)</title></circle>
<circle cx="0.2505" cy="13.9620" r="0.1000"><title>38 entries @ 2023-08-02 00:32:01 +0800
(commit 78593cd989f816647a35a5dcddf26a04a087381a)</title></circle>
<circle cx="0.2271" cy="13.9690" r="0.1000"><title>31 entries @ 2023-07-30 00:45:02 +0800
(commit a9d872ec6153e6b97bc9f668005ea3adf2fac715)</title></circle>
<circle cx="0.1952" cy="13.9740" r="0.1000"><title>26 entries @ 2023-07-25 23:00:59 +0800
(commit cdbdef089e884bc7f01d1487be3cb4fb32a71df3)</title></circle>
<circle cx="0.1695" cy="13.9780" r="0.1000"><title>22 entries @ 2023-07-22 16:00:56 +0800
(commit 973bb402d8bd433ce70d8223cbe615ec21f53683)</title></circle>
<circle cx="0.1571" cy="13.9900" r="0.1000"><title>10 entries @ 2023-07-21 01:54:48 +0800
(commit 4ab938ee0bb81ca7e750fc334618d0e3ebf687bd)</title></circle>
<circle cx="0.1557" cy="14.0000" r="0.1000"><title>0 entries @ 2023-07-20 21:39:40 +0800
(commit 263685863f91821c9cefca68e1899910e88be118)</title></circle>
</svg>
