<?xml version="1.0" encoding="UTF-8"?>
<svg viewBox="-6 -4 28 22" width="960px" xmlns="http://www.w3.org/2000/svg">
<style>
circle:hover {fill: #cf1338}
circle {fill: black}
line, polyline {stroke: black; stroke-width: 0.1042%}polyline {stroke: #cf1338}line.projected {stroke: blue; stroke-dasharray: 1.0417%}
polyline {fill: none}text {font-family: sans-serif; font-size: 1px; text-anchor: middle}
text.projected {fill: blue; font-size: 0.7px}
text.tick {font-size: 0.7px}
text.title {fill: #cf1338; font-size: 1.1px}
</style>
<text class="title" x="8.0000" y="-2.0000">Conway's Cantonese Dictionary: Progress</text><line x1="0.0000" y1="14.0000" x2="20.0000" y2="14.0000"/>
<text x="10.0000" y="14.0000" dy="3em">Time</text>
<line x1="1.4392" y1="14.0000" x2="1.4392" y2="14.2000"/>
<text class="tick" x="1.4392" y="14.2000" dy="1.3em">2024</text>
<line x1="4.3019" y1="14.0000" x2="4.3019" y2="14.2000"/>
<text class="tick" x="4.3019" y="14.2000" dy="1.3em">2025</text>
<line x1="7.1568" y1="14.0000" x2="7.1568" y2="14.2000"/>
<text class="tick" x="7.1568" y="14.2000" dy="1.3em">2026</text>
<line x1="10.0117" y1="14.0000" x2="10.0117" y2="14.2000"/>
<text class="tick" x="10.0117" y="14.2000" dy="1.3em">2027</text>
<line x1="12.8666" y1="14.0000" x2="12.8666" y2="14.2000"/>
<text class="tick" x="12.8666" y="14.2000" dy="1.3em">2028</text>
<line x1="15.7294" y1="14.0000" x2="15.7294" y2="14.2000"/>
<text class="tick" x="15.7294" y="14.2000" dy="1.3em">2029</text>
<line x1="18.5843" y1="14.0000" x2="18.5843" y2="14.2000"/>
<text class="tick" x="18.5843" y="14.2000" dy="1.3em">2030</text>
<line x1="0.0000" y1="14.0000" x2="0.0000" y2="0.0000"/>
<text x="0.0000" y="7.0000" dy="-4em" transform="rotate(-90 0.0000 7.0000)">Entry Count</text>
<line x1="0.0000" y1="12.0000" x2="-0.2000" y2="12.0000"/>
<text class="tick" x="-0.2000" y="12.0000" dx="-2em" dy="0.33em">2000</text>
<line x1="0.0000" y1="10.0000" x2="-0.2000" y2="10.0000"/>
<text class="tick" x="-0.2000" y="10.0000" dx="-2em" dy="0.33em">4000</text>
<line x1="0.0000" y1="8.0000" x2="-0.2000" y2="8.0000"/>
<text class="tick" x="-0.2000" y="8.0000" dx="-2em" dy="0.33em">6000</text>
<line x1="0.0000" y1="6.0000" x2="-0.2000" y2="6.0000"/>
<text class="tick" x="-0.2000" y="6.0000" dx="-2em" dy="0.33em">8000</text>
<line x1="0.0000" y1="4.0000" x2="-0.2000" y2="4.0000"/>
<text class="tick" x="-0.2000" y="4.0000" dx="-2em" dy="0.33em">10000</text>
<line x1="0.0000" y1="2.0000" x2="-0.2000" y2="2.0000"/>
<text class="tick" x="-0.2000" y="2.0000" dx="-2em" dy="0.33em">12000</text>
<line class="projected" x1="0.0000" y1="1.1283" x2="20.0000" y2="1.1283"/>
<text class="projected" x="10.0000" y="1.1283" dy="-0.5em">Projected Total: 12871.7 entries</text>
<polyline points="8.5461,11.5100 8.4229,11.5560 8.2049,11.6120 8.0013,11.6510 7.8898,11.6630 7.8133,11.6640 7.7120,11.6700 7.5791,11.6790 7.1620,11.6860 7.0217,11.6880 6.8671,11.7150 6.8558,11.7290 6.7968,11.7590 6.7482,11.7900 6.7386,11.7900 6.7105,11.7900 6.6791,11.8000 6.6485,11.8000 6.6095,11.8230 6.5389,11.8850 6.2805,11.9460 6.2335,11.9950 6.1394,12.0600 6.0849,12.1170 5.9203,12.1640 5.8548,12.1850 5.7488,12.1930 5.5110,12.2020 5.0687,12.2050 4.9980,12.2100 4.9160,12.2170 4.8863,12.2200 4.8499,12.2220 4.7791,12.2230 4.7245,12.2230 4.6697,12.2240 4.6193,12.2260 4.5819,12.2300 4.5135,12.2360 4.4509,12.2370 4.4113,12.2390 4.3377,12.2330 4.2851,12.2330 4.2076,12.2290 4.1763,12.2330 4.1298,12.2350 4.0832,12.2370 4.0676,12.2430 4.0200,12.2780 3.9028,12.3100 3.7036,12.3550 3.6291,12.4040 3.6145,12.4100 3.5947,12.4220 3.5428,12.4850 3.4806,12.5420 3.3160,12.6030 3.0660,12.6520 2.9808,12.7060 2.9564,12.7210 2.8786,12.7670 2.6824,12.8270 2.5577,12.8820 2.5027,12.9430 2.4251,13.0010 2.4097,13.0120 2.3428,13.0790 2.2679,13.1430 2.2130,13.2050 2.1346,13.2620 1.9754,13.3290 1.8221,13.3690 1.7519,13.4260 1.6971,13.4890 1.6251,13.5320 1.5880,13.5720 1.5557,13.6170 1.4781,13.6500 1.4698,13.6540 1.4367,13.7120 1.4231,13.7130 1.3925,13.7480 1.2980,13.8020 0.7156,13.8620 0.4215,13.8940 0.3415,13.9290 0.3128,13.9560 0.2858,13.9620 0.2817,13.9620 0.2813,13.9620 0.2807,13.9620 0.2798,13.9620 0.2794,13.9620 0.2740,13.9620 0.2734,13.9620 0.2657,13.9620 0.2576,13.9620 0.2347,13.9620 0.2234,13.9740 0.1782,13.9740 0.1639,13.9860 0.1563,14.0000 0.1557,14.0000"/>
<circle cx="8.5461" cy="11.5100" r="0.1000"><title>2490 entries @ 2026-06-27 14:42:20 +0800
(commit 4dec468b34fbea6636e6b6fda32cdc93eb5ec25c)</title></circle>
<circle cx="8.4229" cy="11.5560" r="0.1000"><title>2444 entries @ 2026-06-11 20:49:38 +0800
(commit a95007c422b848e2e0e14a46203274cd9bca5e7f)</title></circle>
<circle cx="8.2049" cy="11.6120" r="0.1000"><title>2388 entries @ 2026-05-15 00:03:08 +0800
(commit 62d12f3d2ab8df85608bad188a69de7892fc6870)</title></circle>
<circle cx="8.0013" cy="11.6510" r="0.1000"><title>2349 entries @ 2026-04-18 23:19:36 +0800
(commit 4b91d695b78c5f608e757e0dd815e0045a7493e6)</title></circle>
<circle cx="7.8898" cy="11.6630" r="0.1000"><title>2337 entries @ 2026-04-04 16:56:55 +0800
(commit 72075cba6662632b34633ba4ae36dd785970ab67)</title></circle>
<circle cx="7.8133" cy="11.6640" r="0.1000"><title>2336 entries @ 2026-03-25 22:27:02 +0800
(commit 25c35ac9abdbcc8904b60fe7e48807de08e5919f)</title></circle>
<circle cx="7.7120" cy="11.6700" r="0.1000"><title>2330 entries @ 2026-03-12 23:23:50 +0800
(commit f8d4078ac3a3bfa1e34c603b1c4554d2a6930927)</title></circle>
<circle cx="7.5791" cy="11.6790" r="0.1000"><title>2321 entries @ 2026-02-23 23:35:17 +0800
(commit b972b7ea7c964e05afad81242b2b2ff2daf09091)</title></circle>
<circle cx="7.1620" cy="11.6860" r="0.1000"><title>2314 entries @ 2026-01-01 15:52:10 +0800
(commit 29f7aa893c8280d8608bf76607b86c3253602770)</title></circle>
<circle cx="7.0217" cy="11.6880" r="0.1000"><title>2312 entries @ 2025-12-14 17:16:46 +0800
(commit 93bf10586765273854786c401cb3626d866514af)</title></circle>
<circle cx="6.8671" cy="11.7150" r="0.1000"><title>2285 entries @ 2025-11-24 23:07:40 +0800
(commit 2f08b5ffedc7f5cc4f1bed589e1d3b7f3d4d1b35)</title></circle>
<circle cx="6.8558" cy="11.7290" r="0.1000"><title>2271 entries @ 2025-11-23 12:22:15 +0800
(commit 0cb6d6c7ae1b5e2550e229846d9124f57ca8b7e1)</title></circle>
<circle cx="6.7968" cy="11.7590" r="0.1000"><title>2241 entries @ 2025-11-15 23:22:38 +0800
(commit 302bbcf9ba90e43a248165e6d3518e2166a9a7c7)</title></circle>
<circle cx="6.7482" cy="11.7900" r="0.1000"><title>2210 entries @ 2025-11-09 18:13:18 +0800
(commit 15a4b4961f25eac254c7fd0c028e1645987fadb2)</title></circle>
<circle cx="6.7386" cy="11.7900" r="0.1000"><title>2210 entries @ 2025-11-08 12:46:38 +0800
(commit eb9b3eb226c8723dbdb35aee2dc5babc0aa4d1e0)</title></circle>
<circle cx="6.7105" cy="11.7900" r="0.1000"><title>2210 entries @ 2025-11-04 22:28:42 +0800
(commit eb494304c47d61afadf1d6adba23a631f6be10ff)</title></circle>
<circle cx="6.6791" cy="11.8000" r="0.1000"><title>2200 entries @ 2025-10-31 22:12:36 +0800
(commit 2719d9093d3ab3774665c4461bfc89b6ca956f51)</title></circle>
<circle cx="6.6485" cy="11.8000" r="0.1000"><title>2200 entries @ 2025-10-28 00:10:22 +0800
(commit ca6efea3fe56ce82104d428b9995868a21dd5fa0)</title></circle>
<circle cx="6.6095" cy="11.8230" r="0.1000"><title>2177 entries @ 2025-10-23 00:26:11 +0800
(commit d54bc63b2d8f334432b3820560fe441ab15a29cf)</title></circle>
<circle cx="6.5389" cy="11.8850" r="0.1000"><title>2115 entries @ 2025-10-13 23:56:11 +0800
(commit cbf07954cee115524999361f7a6f65ce0d0f0e81)</title></circle>
<circle cx="6.2805" cy="11.9460" r="0.1000"><title>2054 entries @ 2025-09-10 23:06:26 +0800
(commit f532d5a0e57972304fbeb7383a8958300355767b)</title></circle>
<circle cx="6.2335" cy="11.9950" r="0.1000"><title>2005 entries @ 2025-09-04 22:50:21 +0800
(commit 94cf742b5c30ee303e27f0f89330ec44bb2fc368)</title></circle>
<circle cx="6.1394" cy="12.0600" r="0.1000"><title>1940 entries @ 2025-08-23 22:10:34 +0800
(commit 96aa013a2c46989cdcb120e9378c8d064f631adf)</title></circle>
<circle cx="6.0849" cy="12.1170" r="0.1000"><title>1883 entries @ 2025-08-16 22:59:51 +0800
(commit 3cdea5476c43da4a339b8a4083fdfddf9cfc8620)</title></circle>
<circle cx="5.9203" cy="12.1640" r="0.1000"><title>1836 entries @ 2025-07-26 21:50:35 +0800
(commit 2251448679519fd5cd226ee250da4cd6f5c711ce)</title></circle>
<circle cx="5.8548" cy="12.1850" r="0.1000"><title>1815 entries @ 2025-07-18 12:53:50 +0800
(commit 714850766a5dca7bcef5ba2823a8ba3515066556)</title></circle>
<circle cx="5.7488" cy="12.1930" r="0.1000"><title>1807 entries @ 2025-07-04 23:38:05 +0800
(commit ec8110c97d364786f1bdd3e3e22480b7bafe949f)</title></circle>
<circle cx="5.5110" cy="12.2020" r="0.1000"><title>1798 entries @ 2025-06-04 14:04:19 +0800
(commit b92a9196cb31cd019d1892e041ed05270d4412cb)</title></circle>
<circle cx="5.0687" cy="12.2050" r="0.1000"><title>1795 entries @ 2025-04-09 00:40:32 +0800
(commit ec6c136a87a97adc9ff167347a70c9f4df9af844)</title></circle>
<circle cx="4.9980" cy="12.2100" r="0.1000"><title>1790 entries @ 2025-03-31 00:00:51 +0800
(commit 242e1d4b933d1ce7e3b21fb6316f987db51c3451)</title></circle>
<circle cx="4.9160" cy="12.2170" r="0.1000"><title>1783 entries @ 2025-03-20 12:24:20 +0800
(commit 125fa8334a661e3ab886d7af607906289ba0b67c)</title></circle>
<circle cx="4.8863" cy="12.2200" r="0.1000"><title>1780 entries @ 2025-03-16 17:12:27 +0800
(commit 338ed46ea7990d426a66e621cde9aff68affde43)</title></circle>
<circle cx="4.8499" cy="12.2220" r="0.1000"><title>1778 entries @ 2025-03-12 01:25:02 +0800
(commit 087e2dae11af58e9f7bd0d14836aa5b775df7d12)</title></circle>
<circle cx="4.7791" cy="12.2230" r="0.1000"><title>1777 entries @ 2025-03-03 00:17:22 +0800
(commit 6ef4b37399ec0c40d262aad085fa4335b7893a0b)</title></circle>
<circle cx="4.7245" cy="12.2230" r="0.1000"><title>1777 entries @ 2025-02-24 00:42:32 +0800
(commit 4d821b521f8d0a32334ae381b85fbd805a92ce56)</title></circle>
<circle cx="4.6697" cy="12.2240" r="0.1000"><title>1776 entries @ 2025-02-17 00:31:38 +0800
(commit 2a855c87eaa9fdb440947df1804d1240d3fd2fff)</title></circle>
<circle cx="4.6193" cy="12.2260" r="0.1000"><title>1774 entries @ 2025-02-10 13:45:01 +0800
(commit c4964d11524d92406be08f444101d87c73f43a3e)</title></circle>
<circle cx="4.5819" cy="12.2300" r="0.1000"><title>1770 entries @ 2025-02-05 19:06:59 +0800
(commit 354d5422965d46a8e712c8cb6d9ead22ec135e06)</title></circle>
<circle cx="4.5135" cy="12.2360" r="0.1000"><title>1764 entries @ 2025-01-28 01:17:22 +0800
(commit 3729fb9c7f109aeb5606143db2c3cef8a0ecf200)</title></circle>
<circle cx="4.4509" cy="12.2370" r="0.1000"><title>1763 entries @ 2025-01-20 01:07:26 +0800
(commit 792c5427131f08833f1fcaad96163b09667dcf77)</title></circle>
<circle cx="4.4113" cy="12.2390" r="0.1000"><title>1761 entries @ 2025-01-14 23:40:04 +0800
(commit 100fc0546e8ef15fd44fb9cc4e72343f08e459da)</title></circle>
<circle cx="4.3377" cy="12.2330" r="0.1000"><title>1767 entries @ 2025-01-05 13:55:41 +0800
(commit ce787072fb9889915e76c974abd7856ac9554252)</title></circle>
<circle cx="4.2851" cy="12.2330" r="0.1000"><title>1767 entries @ 2024-12-29 20:32:41 +0800
(commit 55b66b479e546c5a24b64ec60e4a011a3d1dd644)</title></circle>
<circle cx="4.2076" cy="12.2290" r="0.1000"><title>1771 entries @ 2024-12-19 22:27:11 +0800
(commit a7c195ab555919b6e997bc0ad2726b381e5afcd8)</title></circle>
<circle cx="4.1763" cy="12.2330" r="0.1000"><title>1767 entries @ 2024-12-15 22:39:19 +0800
(commit 47980e181531a21daf1b4945a13a4cdff4b2ff91)</title></circle>
<circle cx="4.1298" cy="12.2350" r="0.1000"><title>1765 entries @ 2024-12-09 23:56:21 +0800
(commit 1255d503c13a6cde6391080e86017db76bd6867d)</title></circle>
<circle cx="4.0832" cy="12.2370" r="0.1000"><title>1763 entries @ 2024-12-04 00:46:30 +0800
(commit 5110882d06b87d84a70a737e585d6178ac32193d)</title></circle>
<circle cx="4.0676" cy="12.2430" r="0.1000"><title>1757 entries @ 2024-12-02 00:54:23 +0800
(commit ae1532ddfe4d8d2843fc8b861f7d8a43517ac98f)</title></circle>
<circle cx="4.0200" cy="12.2780" r="0.1000"><title>1722 entries @ 2024-11-25 23:00:17 +0800
(commit dba73489099d39980c24c201d0bacff648967aed)</title></circle>
<circle cx="3.9028" cy="12.3100" r="0.1000"><title>1690 entries @ 2024-11-10 23:20:14 +0800
(commit 3ae16a5888b94594beda7e272ab7d3a2fd0883b2)</title></circle>
<circle cx="3.7036" cy="12.3550" r="0.1000"><title>1645 entries @ 2024-10-16 12:11:26 +0800
(commit 9323edd146ced2795b640aad690cb04966fc1c87)</title></circle>
<circle cx="3.6291" cy="12.4040" r="0.1000"><title>1596 entries @ 2024-10-06 23:33:48 +0800
(commit 74c07576ad970790764f4ceb25d6506437db1f9e)</title></circle>
<circle cx="3.6145" cy="12.4100" r="0.1000"><title>1590 entries @ 2024-10-05 02:35:05 +0800
(commit 94810ba7419586cb4cf8d7b07cce55006f1532c5)</title></circle>
<circle cx="3.5947" cy="12.4220" r="0.1000"><title>1578 entries @ 2024-10-02 14:05:15 +0800
(commit 00ed2c5d394283ef2ff969421f61b788a21894fc)</title></circle>
<circle cx="3.5428" cy="12.4850" r="0.1000"><title>1515 entries @ 2024-09-25 22:44:48 +0800
(commit 00421d3902ea37b8cf191038eab4e029461b648f)</title></circle>
<circle cx="3.4806" cy="12.5420" r="0.1000"><title>1458 entries @ 2024-09-17 23:53:06 +0800
(commit 419fcc926765f254a812e884b61c37b4fb4ce988)</title></circle>
<circle cx="3.3160" cy="12.6030" r="0.1000"><title>1397 entries @ 2024-08-27 22:50:42 +0800
(commit 5f6ae961cd2e69d33f91381b513bd03a5e5be072)</title></circle>
<circle cx="3.0660" cy="12.6520" r="0.1000"><title>1348 entries @ 2024-07-26 23:35:15 +0800
(commit a158170557272cbe5c8be651ff3f9dfc979a8012)</title></circle>
<circle cx="2.9808" cy="12.7060" r="0.1000"><title>1294 entries @ 2024-07-16 02:24:29 +0800
(commit cba72fab18f21fc5261a80f5f6fa6b42303be60c)</title></circle>
<circle cx="2.9564" cy="12.7210" r="0.1000"><title>1279 entries @ 2024-07-12 23:25:58 +0800
(commit 42964029667b2abf23602ed2a24fc51a006ba739)</title></circle>
<circle cx="2.8786" cy="12.7670" r="0.1000"><title>1233 entries @ 2024-07-03 00:42:29 +0800
(commit d0696e0d633cc6785b7bb93efee492f499c53ece)</title></circle>
<circle cx="2.6824" cy="12.8270" r="0.1000"><title>1173 entries @ 2024-06-07 22:41:07 +0800
(commit 3b44303b7ac38131d1bca2aae4eb7a95e1356347)</title></circle>
<circle cx="2.5577" cy="12.8820" r="0.1000"><title>1118 entries @ 2024-05-23 00:05:20 +0800
(commit f0433d895ddaf31d8ad68196769b847397024607)</title></circle>
<circle cx="2.5027" cy="12.9430" r="0.1000"><title>1057 entries @ 2024-05-15 23:18:27 +0800
(commit f95b94cc8daa595e4caa41db7d5f626685043b01)</title></circle>
<circle cx="2.4251" cy="13.0010" r="0.1000"><title>999 entries @ 2024-05-06 01:08:44 +0800
(commit 689c9308e123f0797983065880150f5de12b7da4)</title></circle>
<circle cx="2.4097" cy="13.0120" r="0.1000"><title>988 entries @ 2024-05-04 01:57:34 +0800
(commit d8d3361273b7ee14ac62554e5433a1166a4efbb5)</title></circle>
<circle cx="2.3428" cy="13.0790" r="0.1000"><title>921 entries @ 2024-04-25 12:46:31 +0800
(commit 2a64a886d70865873854f055e362319890c020fe)</title></circle>
<circle cx="2.2679" cy="13.1430" r="0.1000"><title>857 entries @ 2024-04-15 22:44:57 +0800
(commit 5b082d900de1318904c26cba70616f2e8a680255)</title></circle>
<circle cx="2.2130" cy="13.2050" r="0.1000"><title>795 entries @ 2024-04-08 22:20:06 +0800
(commit 0a001207882ca9fe9bc410cd1502e8e662a1b58a)</title></circle>
<circle cx="2.1346" cy="13.2620" r="0.1000"><title>738 entries @ 2024-03-29 21:46:25 +0800
(commit c00f320e97dc138c726e0f1877a645cfff8c8f0c)</title></circle>
<circle cx="1.9754" cy="13.3290" r="0.1000"><title>671 entries @ 2024-03-09 13:10:15 +0800
(commit e3e9c069a6b4a5d8c215c57c655abcea1ed82182)</title></circle>
<circle cx="1.8221" cy="13.3690" r="0.1000"><title>631 entries @ 2024-02-18 22:59:47 +0800
(commit 58a5996e7996623a2fd9b4277c219fdebf778c89)</title></circle>
<circle cx="1.7519" cy="13.4260" r="0.1000"><title>574 entries @ 2024-02-09 23:24:51 +0800
(commit 0681d4a91b1b40e6dcc8930defe3e1d5e7f3ff73)</title></circle>
<circle cx="1.6971" cy="13.4890" r="0.1000"><title>511 entries @ 2024-02-02 23:24:58 +0800
(commit 01d71cddf84d152d0f702c324c38ca606d146b0d)</title></circle>
<circle cx="1.6251" cy="13.5320" r="0.1000"><title>468 entries @ 2024-01-24 18:36:27 +0800
(commit f912368d9860e7f6a1c2ddb2766e168349f714f6)</title></circle>
<circle cx="1.5880" cy="13.5720" r="0.1000"><title>428 entries @ 2024-01-20 00:40:24 +0800
(commit ac9de03afb26b22b1ec2957561f3ad5bca9b82c0)</title></circle>
<circle cx="1.5557" cy="13.6170" r="0.1000"><title>383 entries @ 2024-01-15 21:31:58 +0800
(commit e4b32c671f7e498386b909ce61b92401d7200fcd)</title></circle>
<circle cx="1.4781" cy="13.6500" r="0.1000"><title>350 entries @ 2024-01-05 23:18:46 +0800
(commit 6d2d8f79cbd65d7c2db5a45faef0a8fee5c6189b)</title></circle>
<circle cx="1.4698" cy="13.6540" r="0.1000"><title>346 entries @ 2024-01-04 22:02:48 +0800
(commit 51787b84af5ee512b453ba62f526c2cd80060e07)</title></circle>
<circle cx="1.4367" cy="13.7120" r="0.1000"><title>288 entries @ 2023-12-31 16:21:45 +0800
(commit 9eca28847271509f4e7e985e7c5f874c2363c6f0)</title></circle>
<circle cx="1.4231" cy="13.7130" r="0.1000"><title>287 entries @ 2023-12-29 22:39:06 +0800
(commit 5ecf507e202d0a6501634fa43901eb5ff385bdc0)</title></circle>
<circle cx="1.3925" cy="13.7480" r="0.1000"><title>252 entries @ 2023-12-26 00:37:18 +0800
(commit 5ac306b9c12756e1c154beadf254dad512cdd297)</title></circle>
<circle cx="1.2980" cy="13.8020" r="0.1000"><title>198 entries @ 2023-12-13 22:52:39 +0800
(commit 262a6111d90b2c0ddbcd390f260cd33ae4fbeabd)</title></circle>
<circle cx="0.7156" cy="13.8620" r="0.1000"><title>138 entries @ 2023-09-30 11:39:32 +0800
(commit 7265ea895ac7693e87e26747b4836464837a9d05)</title></circle>
<circle cx="0.4215" cy="13.8940" r="0.1000"><title>106 entries @ 2023-08-23 21:21:39 +0800
(commit 2089afd2d277ca4b611dae564a705b809fe79bbe)</title></circle>
<circle cx="0.3415" cy="13.9290" r="0.1000"><title>71 entries @ 2023-08-13 15:43:08 +0800
(commit 30429955fe8f902e38d63d1c4853f47692ecced2)</title></circle>
<circle cx="0.3128" cy="13.9560" r="0.1000"><title>44 entries @ 2023-08-09 23:54:22 +0800
(commit 0ad8e6b7b54936b74fe930d80f3a658c4f845b10)</title></circle>
<circle cx="0.2858" cy="13.9620" r="0.1000"><title>38 entries @ 2023-08-06 13:03:39 +0800
(commit 97ca56b8c72f0ffef03204ad48a929a0ec221c49)</title></circle>
<circle cx="0.2817" cy="13.9620" r="0.1000"><title>38 entries @ 2023-08-06 00:21:40 +0800
(commit 57a44a5bef910d88d7311c398f6373c4eb0d7954)</title></circle>
<circle cx="0.2813" cy="13.9620" r="0.1000"><title>38 entries @ 2023-08-05 23:03:06 +0800
(commit 28f74895257dc201c1e5c3a7c3a91aba3f602e0d)</title></circle>
<circle cx="0.2807" cy="13.9620" r="0.1000"><title>38 entries @ 2023-08-05 21:13:33 +0800
(commit de8c874895bef091576c7e92920729eab2898946)</title></circle>
<circle cx="0.2798" cy="13.9620" r="0.1000"><title>38 entries @ 2023-08-05 18:33:51 +0800
(commit 2983eda32507acb37690fcacaf628d0fea49de7c)</title></circle>
<circle cx="0.2794" cy="13.9620" r="0.1000"><title>38 entries @ 2023-08-05 17:23:09 +0800
(commit dc746c9bed6f621841f0c22f13ad493cc6aada18)</title></circle>
<circle cx="0.2740" cy="13.9620" r="0.1000"><title>38 entries @ 2023-08-05 00:35:18 +0800
(commit bb0b788cb753982625cbc7992a68219677851553)</title></circle>
<circle cx="0.2734" cy="13.9620" r="0.1000"><title>38 entries @ 2023-08-04 23:00:31 +0800
(commit 36e9045b770c279470f3e0cd0e826f504e35aa74)</title></circle>
<circle cx="0.2657" cy="13.9620" r="0.1000"><title>38 entries @ 2023-08-03 23:20:26 +0800
(commit 01d6b8ac5bda13ede82491d535d5632bf0431e18)</title></circle>
<circle cx="0.2576" cy="13.9620" r="0.1000"><title>38 entries @ 2023-08-02 22:18:44 +0800
(commit e2949b984de404ea23d8bfe4d196c16a8ccac205)</title></circle>
<circle cx="0.2347" cy="13.9620" r="0.1000"><title>38 entries @ 2023-07-31 00:05:23 +0800
(commit b1eaa9bda226dff0dd602f626dc132118e7b95d3)</title></circle>
<circle cx="0.2234" cy="13.9740" r="0.1000"><title>26 entries @ 2023-07-29 13:31:10 +0800
(commit 740de04d81e7d1841d0af37ef178bce88f570df3)</title></circle>
<circle cx="0.1782" cy="13.9740" r="0.1000"><title>26 entries @ 2023-07-23 18:42:47 +0800
(commit 092e13c4501cd3e3762b47d16cf0cd6e4a5a06f9)</title></circle>
<circle cx="0.1639" cy="13.9860" r="0.1000"><title>14 entries @ 2023-07-21 22:58:22 +0800
(commit 548f4b79470e279a53ae210fada3de360729d5e3)</title></circle>
<circle cx="0.1563" cy="14.0000" r="0.1000"><title>0 entries @ 2023-07-20 23:42:39 +0800
(commit 0d239a25709082c9917f72527549f24eb0bce2b9)</title></circle>
<circle cx="0.1557" cy="14.0000" r="0.1000"><title>0 entries @ 2023-07-20 21:39:40 +0800
(commit 263685863f91821c9cefca68e1899910e88be118)</title></circle>
</svg>
