<?xml version="1.0" encoding="UTF-8"?>
<svg viewBox="-6 -4 28 22" width="960px" xmlns="http://www.w3.org/2000/svg">
<style>
circle:hover {fill: #cf1338}
circle {fill: black}
line, polyline {stroke: black; stroke-width: 0.1042%}polyline {stroke: #cf1338}line.target {stroke: blue; stroke-dasharray: 1.0417%}
polyline {fill: none}text {font-family: sans-serif; font-size: 1px; text-anchor: middle}
text.target {fill: blue; font-size: 0.7px}
text.tick {font-size: 0.7px}
text.title {fill: #cf1338; font-size: 1.1px}
</style>
<text class="title" x="8.0000" y="-2.0000">Conway's Cantonese Dictionary: Progress</text><line x1="0.0000" y1="14.0000" x2="20.0000" y2="14.0000"/>
<text x="10.0000" y="14.0000" dy="3em">Time</text>
<line x1="1.4392" y1="14.0000" x2="1.4392" y2="14.2000"/>
<text class="tick" x="1.4392" y="14.2000" dy="1.3em">2024</text>
<line x1="4.3019" y1="14.0000" x2="4.3019" y2="14.2000"/>
<text class="tick" x="4.3019" y="14.2000" dy="1.3em">2025</text>
<line x1="7.1568" y1="14.0000" x2="7.1568" y2="14.2000"/>
<text class="tick" x="7.1568" y="14.2000" dy="1.3em">2026</text>
<line x1="10.0117" y1="14.0000" x2="10.0117" y2="14.2000"/>
<text class="tick" x="10.0117" y="14.2000" dy="1.3em">2027</text>
<line x1="12.8666" y1="14.0000" x2="12.8666" y2="14.2000"/>
<text class="tick" x="12.8666" y="14.2000" dy="1.3em">2028</text>
<line x1="15.7294" y1="14.0000" x2="15.7294" y2="14.2000"/>
<text class="tick" x="15.7294" y="14.2000" dy="1.3em">2029</text>
<line x1="18.5843" y1="14.0000" x2="18.5843" y2="14.2000"/>
<text class="tick" x="18.5843" y="14.2000" dy="1.3em">2030</text>
<line x1="0.0000" y1="14.0000" x2="0.0000" y2="0.0000"/>
<text x="0.0000" y="7.0000" dy="-4em" transform="rotate(-90 0.0000 7.0000)">Entry Count</text>
<line x1="0.0000" y1="12.0000" x2="-0.2000" y2="12.0000"/>
<text class="tick" x="-0.2000" y="12.0000" dx="-2em" dy="0.33em">2000</text>
<line x1="0.0000" y1="10.0000" x2="-0.2000" y2="10.0000"/>
<text class="tick" x="-0.2000" y="10.0000" dx="-2em" dy="0.33em">4000</text>
<line x1="0.0000" y1="8.0000" x2="-0.2000" y2="8.0000"/>
<text class="tick" x="-0.2000" y="8.0000" dx="-2em" dy="0.33em">6000</text>
<line x1="0.0000" y1="6.0000" x2="-0.2000" y2="6.0000"/>
<text class="tick" x="-0.2000" y="6.0000" dx="-2em" dy="0.33em">8000</text>
<line x1="0.0000" y1="4.0000" x2="-0.2000" y2="4.0000"/>
<text class="tick" x="-0.2000" y="4.0000" dx="-2em" dy="0.33em">10000</text>
<line x1="0.0000" y1="2.0000" x2="-0.2000" y2="2.0000"/>
<text class="tick" x="-0.2000" y="2.0000" dx="-2em" dy="0.33em">12000</text>
<line class="target" x1="0.0000" y1="1.0000" x2="20.0000" y2="1.0000"/>
<text class="target" x="10.0000" y="1.0000" dy="-0.5em">Approximate Target: 13000 entries</text>
<polyline points="8.0405,11.6510 7.8923,11.6610 7.8339,11.6640 7.7357,11.6690 7.6143,11.6790 7.2355,11.6820 7.0240,11.6880 6.8835,11.7050 6.8593,11.7200 6.8124,11.7540 6.7657,11.7780 6.7421,11.7900 6.7258,11.7900 6.6913,11.8000 6.6642,11.8000 6.6405,11.8000 6.5777,11.8530 6.4760,11.9110 6.2572,11.9610 6.1981,12.0140 6.1202,12.0840 6.0547,12.1330 5.8741,12.1760 5.7783,12.1870 5.7324,12.1940 5.3387,12.2020 5.0533,12.2060 4.9824,12.2100 4.9120,12.2170 4.8861,12.2200 4.8498,12.2220 4.7791,12.2230 4.7246,12.2230 4.6698,12.2240 4.6232,12.2250 4.5839,12.2290 4.5252,12.2380 4.4585,12.2370 4.4350,12.2400 4.3489,12.2340 4.2859,12.2340 4.2083,12.2290 4.1771,12.2320 4.1531,12.2330 4.0994,12.2360 4.0746,12.2410 4.0518,12.2570 3.9186,12.2840 3.8719,12.3380 3.6603,12.3810 3.6151,12.4100 3.6136,12.4100 3.5587,12.4500 3.5264,12.5110 3.4497,12.5640 3.1032,12.6200 3.0349,12.6660 2.9720,12.7090 2.9331,12.7320 2.8624,12.7830 2.6204,12.8390 2.5501,12.8940 2.4948,12.9510 2.4231,13.0080 2.4089,13.0170 2.3310,13.0840 2.2606,13.1470 2.2129,13.2060 2.1346,13.2620 1.9755,13.3270 1.8296,13.3670 1.7523,13.4220 1.7050,13.4810 1.6266,13.5310 1.6027,13.5600 1.5642,13.6060 1.4788,13.6500 1.4744,13.6500 1.4471,13.6920 1.4243,13.7130 1.4060,13.7270 1.3297,13.7830 0.7805,13.8380 0.5539,13.8860 0.3519,13.9070 0.3343,13.9440 0.2887,13.9560 0.2819,13.9620 0.2815,13.9620 0.2810,13.9620 0.2800,13.9620 0.2797,13.9620 0.2792,13.9620 0.2738,13.9620 0.2733,13.9620 0.2581,13.9620 0.2574,13.9620 0.2345,13.9620 0.2189,13.9740 0.1722,13.9740 0.1627,13.9860 0.1561,14.0000 0.1557,14.0000"/>
<circle cx="8.0405" cy="11.6510" r="0.1000"><title>2349 entries @ 2026-04-23 23:28:07 +0800
(commit e6ec19b6609c4d948f93f7ce21d98885421016ba)</title></circle>
<circle cx="7.8923" cy="11.6610" r="0.1000"><title>2339 entries @ 2026-04-05 00:46:29 +0800
(commit aed37c1dcc1793fbe627cf2697aa048e3571ee2e)</title></circle>
<circle cx="7.8339" cy="11.6640" r="0.1000"><title>2336 entries @ 2026-03-28 13:23:21 +0800
(commit 7c9d7671973362b57554f10fb1c48207b1d697ee)</title></circle>
<circle cx="7.7357" cy="11.6690" r="0.1000"><title>2331 entries @ 2026-03-16 00:09:54 +0800
(commit 7023b5df8b75884241cf1e5f9c48a1eda86247c3)</title></circle>
<circle cx="7.6143" cy="11.6790" r="0.1000"><title>2321 entries @ 2026-02-28 11:38:41 +0800
(commit 56362078a2960dfe37826566c4d4322189085fef)</title></circle>
<circle cx="7.2355" cy="11.6820" r="0.1000"><title>2318 entries @ 2026-01-11 01:24:00 +0800
(commit 6380f82b96b489d0666b1583a01721c81b08390b)</title></circle>
<circle cx="7.0240" cy="11.6880" r="0.1000"><title>2312 entries @ 2025-12-15 00:25:49 +0800
(commit 46263c48b899368aac25f38abd315083ffa95ac7)</title></circle>
<circle cx="6.8835" cy="11.7050" r="0.1000"><title>2295 entries @ 2025-11-27 01:14:08 +0800
(commit ef2cd9a2473793caf0c3f3594af45bb4d1587968)</title></circle>
<circle cx="6.8593" cy="11.7200" r="0.1000"><title>2280 entries @ 2025-11-23 23:02:27 +0800
(commit 4c2693670c064c000916692ab777066597a114f8)</title></circle>
<circle cx="6.8124" cy="11.7540" r="0.1000"><title>2246 entries @ 2025-11-17 23:07:07 +0800
(commit a591af777208b2d62cdd5a007ebdac71105439cf)</title></circle>
<circle cx="6.7657" cy="11.7780" r="0.1000"><title>2222 entries @ 2025-11-11 23:59:18 +0800
(commit e8044af2499c17697f2781bf1658c3ff7b4d1f10)</title></circle>
<circle cx="6.7421" cy="11.7900" r="0.1000"><title>2210 entries @ 2025-11-08 23:33:44 +0800
(commit 264fff8f0df84b08898997b4eada53c64bac5fea)</title></circle>
<circle cx="6.7258" cy="11.7900" r="0.1000"><title>2210 entries @ 2025-11-06 21:32:49 +0800
(commit 0f3d1586a17ac003063d0e5067172d93505fdefa)</title></circle>
<circle cx="6.6913" cy="11.8000" r="0.1000"><title>2200 entries @ 2025-11-02 11:30:57 +0800
(commit 8a845d492442abc3119d24a1dbb9b042b027cb71)</title></circle>
<circle cx="6.6642" cy="11.8000" r="0.1000"><title>2200 entries @ 2025-10-30 00:17:33 +0800
(commit 3de6c927d90753543ee971d0d3fa969ca2cb66c2)</title></circle>
<circle cx="6.6405" cy="11.8000" r="0.1000"><title>2200 entries @ 2025-10-26 23:46:23 +0800
(commit 835dea36a30cc7ffd053801d1a55a2231a20c681)</title></circle>
<circle cx="6.5777" cy="11.8530" r="0.1000"><title>2147 entries @ 2025-10-18 23:01:34 +0800
(commit 9a08444bea7f8850ee2731bbc85090b765a02495)</title></circle>
<circle cx="6.4760" cy="11.9110" r="0.1000"><title>2089 entries @ 2025-10-05 22:59:43 +0800
(commit 811ae1643c0d0ef4cdcbea2f98d45140851a6779)</title></circle>
<circle cx="6.2572" cy="11.9610" r="0.1000"><title>2039 entries @ 2025-09-07 23:38:30 +0800
(commit 27f05d6280b03f4d5059c43d5d442602b886e702)</title></circle>
<circle cx="6.1981" cy="12.0140" r="0.1000"><title>1986 entries @ 2025-08-31 10:06:38 +0800
(commit c365d26cc1b868413f67bb42f2ae62355ac348d4)</title></circle>
<circle cx="6.1202" cy="12.0840" r="0.1000"><title>1916 entries @ 2025-08-21 11:04:47 +0800
(commit 54726557b8f1727778d8a0c8c704a81aa2bee016)</title></circle>
<circle cx="6.0547" cy="12.1330" r="0.1000"><title>1867 entries @ 2025-08-13 02:10:43 +0800
(commit 39dcb01f9b798715e28ee706c3248eaeda8a4cd3)</title></circle>
<circle cx="5.8741" cy="12.1760" r="0.1000"><title>1824 entries @ 2025-07-20 23:57:19 +0800
(commit 25936b04ca7503a3fa54592d9c4e430b479bf134)</title></circle>
<circle cx="5.7783" cy="12.1870" r="0.1000"><title>1813 entries @ 2025-07-08 18:08:06 +0800
(commit 127e6053e73f9453d237846afbb1fbbe40076112)</title></circle>
<circle cx="5.7324" cy="12.1940" r="0.1000"><title>1806 entries @ 2025-07-02 21:15:41 +0800
(commit 460c119e64698f7fe3df4baac3f106fc264a0c39)</title></circle>
<circle cx="5.3387" cy="12.2020" r="0.1000"><title>1798 entries @ 2025-05-13 13:19:55 +0800
(commit 32f3071e57d4f2a35a03e5c6a2ffcf994fde2a92)</title></circle>
<circle cx="5.0533" cy="12.2060" r="0.1000"><title>1794 entries @ 2025-04-07 01:41:07 +0800
(commit 6d64b04ca1d17474823e35dc77b551fd6606e427)</title></circle>
<circle cx="4.9824" cy="12.2100" r="0.1000"><title>1790 entries @ 2025-03-28 23:59:28 +0800
(commit 9bac0355cc8e582da201672f423fe2a14d30fcb1)</title></circle>
<circle cx="4.9120" cy="12.2170" r="0.1000"><title>1783 entries @ 2025-03-20 00:07:12 +0800
(commit a6388f98c75d028cd229d3d8a0711353fa33e4ca)</title></circle>
<circle cx="4.8861" cy="12.2200" r="0.1000"><title>1780 entries @ 2025-03-16 16:33:17 +0800
(commit f8e1877c59530764ceb4de1b21d51fabc1ba28a5)</title></circle>
<circle cx="4.8498" cy="12.2220" r="0.1000"><title>1778 entries @ 2025-03-12 01:11:38 +0800
(commit 60592838c0bfc6206e0e22540885b9337ec4da07)</title></circle>
<circle cx="4.7791" cy="12.2230" r="0.1000"><title>1777 entries @ 2025-03-03 00:17:22 +0800
(commit 6ef4b37399ec0c40d262aad085fa4335b7893a0b)</title></circle>
<circle cx="4.7246" cy="12.2230" r="0.1000"><title>1777 entries @ 2025-02-24 00:51:43 +0800
(commit 41cb3b6f5386b14ff31a8759b1319633e0492202)</title></circle>
<circle cx="4.6698" cy="12.2240" r="0.1000"><title>1776 entries @ 2025-02-17 00:44:26 +0800
(commit 402ee8f6ba0e48b3a18005b4c31c5fc5f3e99a35)</title></circle>
<circle cx="4.6232" cy="12.2250" r="0.1000"><title>1775 entries @ 2025-02-11 01:57:01 +0800
(commit 1f1df79ff0f2e4aece55780bab197ea7fe1ad4f7)</title></circle>
<circle cx="4.5839" cy="12.2290" r="0.1000"><title>1771 entries @ 2025-02-06 01:08:04 +0800
(commit 1031fc3b0346fc21d3190bb9998f88da0167e421)</title></circle>
<circle cx="4.5252" cy="12.2380" r="0.1000"><title>1762 entries @ 2025-01-29 13:01:26 +0800
(commit ed7067a07536d95faff92c865773d09a8541dff6)</title></circle>
<circle cx="4.4585" cy="12.2370" r="0.1000"><title>1763 entries @ 2025-01-21 00:24:17 +0800
(commit 3fa8f887aa98da146122c2f1f05019818542af56)</title></circle>
<circle cx="4.4350" cy="12.2400" r="0.1000"><title>1760 entries @ 2025-01-18 00:20:06 +0800
(commit 1aadfddd08f712b7b976821bc9c97635dd4ece1c)</title></circle>
<circle cx="4.3489" cy="12.2340" r="0.1000"><title>1766 entries @ 2025-01-07 00:18:44 +0800
(commit 1b05859b7abe961f9a3cd08b5e511e4332d8d6bd)</title></circle>
<circle cx="4.2859" cy="12.2340" r="0.1000"><title>1766 entries @ 2024-12-29 22:55:54 +0800
(commit 3b3bfee66737f82cba4371f78c4d0e8ff5f86547)</title></circle>
<circle cx="4.2083" cy="12.2290" r="0.1000"><title>1771 entries @ 2024-12-20 00:52:17 +0800
(commit 4b5ac09e9829842cbdcaf8870c85008738b6cf28)</title></circle>
<circle cx="4.1771" cy="12.2320" r="0.1000"><title>1768 entries @ 2024-12-16 00:55:36 +0800
(commit aa442f8f77847e8cd73b62db81c05a77f3af9313)</title></circle>
<circle cx="4.1531" cy="12.2330" r="0.1000"><title>1767 entries @ 2024-12-12 23:22:55 +0800
(commit 1e59ea81a7234badc819a83665fabec8d07f9bd4)</title></circle>
<circle cx="4.0994" cy="12.2360" r="0.1000"><title>1764 entries @ 2024-12-06 02:33:24 +0800
(commit 6f010297e5385d4548be7bf0859741515536b5ad)</title></circle>
<circle cx="4.0746" cy="12.2410" r="0.1000"><title>1759 entries @ 2024-12-02 22:38:50 +0800
(commit 01213cf406e949ac16fa493d6ad52d263ff8c3d5)</title></circle>
<circle cx="4.0518" cy="12.2570" r="0.1000"><title>1743 entries @ 2024-11-30 00:31:56 +0800
(commit c539363659bb58384c2901ddbb60ff4c9cb6bc93)</title></circle>
<circle cx="3.9186" cy="12.2840" r="0.1000"><title>1716 entries @ 2024-11-12 23:45:01 +0800
(commit 43e7da9a002e19f925dbda08b31e7e55d575b2aa)</title></circle>
<circle cx="3.8719" cy="12.3380" r="0.1000"><title>1662 entries @ 2024-11-07 00:25:36 +0800
(commit 6b551244b210b0ebca16ddb503931acd829a0f31)</title></circle>
<circle cx="3.6603" cy="12.3810" r="0.1000"><title>1619 entries @ 2024-10-10 23:12:01 +0800
(commit 7659b7bd8249a498b4d33b2e92417aae8aaa2d5b)</title></circle>
<circle cx="3.6151" cy="12.4100" r="0.1000"><title>1590 entries @ 2024-10-05 04:41:27 +0800
(commit 226e54bd6d2fdb8ca0ebde94cfae97e5d6abbdee)</title></circle>
<circle cx="3.6136" cy="12.4100" r="0.1000"><title>1590 entries @ 2024-10-04 23:50:39 +0800
(commit cc44473728d9b2c46d3b89699ed082c9cb405b10)</title></circle>
<circle cx="3.5587" cy="12.4500" r="0.1000"><title>1550 entries @ 2024-09-27 23:32:37 +0800
(commit 648e8217b8d11fdc5b6d83c66a08319195b42284)</title></circle>
<circle cx="3.5264" cy="12.5110" r="0.1000"><title>1489 entries @ 2024-09-23 20:20:48 +0800
(commit 1fb7d85c89c68ec21486a5c0252292a935ee0344)</title></circle>
<circle cx="3.4497" cy="12.5640" r="0.1000"><title>1436 entries @ 2024-09-14 01:04:19 +0800
(commit f87e02c5626bd65fd6d1aac9bd2cab6c96e061fe)</title></circle>
<circle cx="3.1032" cy="12.6200" r="0.1000"><title>1380 entries @ 2024-07-31 17:44:17 +0800
(commit fe8cee60c9d27cef2f483799c9135a7af9f1b23a)</title></circle>
<circle cx="3.0349" cy="12.6660" r="0.1000"><title>1334 entries @ 2024-07-23 00:25:26 +0800
(commit 73f62f11eea1cc4ceea1b98b12dde7954dc52374)</title></circle>
<circle cx="2.9720" cy="12.7090" r="0.1000"><title>1291 entries @ 2024-07-14 23:14:38 +0800
(commit 9d4921c0bbca8668f1eb0c2558f2b16e5834a364)</title></circle>
<circle cx="2.9331" cy="12.7320" r="0.1000"><title>1268 entries @ 2024-07-09 23:59:02 +0800
(commit 50a5cc91c5f0c6efbdf0dee944a83a1da29583cc)</title></circle>
<circle cx="2.8624" cy="12.7830" r="0.1000"><title>1217 entries @ 2024-06-30 23:07:41 +0800
(commit 134f276bb392d9e0139ce7ac409e09c3551bff10)</title></circle>
<circle cx="2.6204" cy="12.8390" r="0.1000"><title>1161 entries @ 2024-05-31 00:34:57 +0800
(commit c8f4267c8a0e3b79494a669f6ef39797ba7a10b4)</title></circle>
<circle cx="2.5501" cy="12.8940" r="0.1000"><title>1106 entries @ 2024-05-22 00:46:46 +0800
(commit b5b4ed288e6a97e3621c43b21543a1da04d322f8)</title></circle>
<circle cx="2.4948" cy="12.9510" r="0.1000"><title>1049 entries @ 2024-05-14 23:09:49 +0800
(commit 01711aa8f11606409663828709e53c7562d0e28f)</title></circle>
<circle cx="2.4231" cy="13.0080" r="0.1000"><title>992 entries @ 2024-05-05 19:04:08 +0800
(commit a3a8733665513674717d75ca2682213ee62a0f86)</title></circle>
<circle cx="2.4089" cy="13.0170" r="0.1000"><title>983 entries @ 2024-05-03 23:22:37 +0800
(commit 1f573623ea6d96af5523b2c2a7e36cc320567f3b)</title></circle>
<circle cx="2.3310" cy="13.0840" r="0.1000"><title>916 entries @ 2024-04-24 00:33:06 +0800
(commit b73530e7a5df3c87d4d154b14b560a650b6ac703)</title></circle>
<circle cx="2.2606" cy="13.1470" r="0.1000"><title>853 entries @ 2024-04-15 00:30:43 +0800
(commit 9f9a646dce93321094a36524437748939323c5e7)</title></circle>
<circle cx="2.2129" cy="13.2060" r="0.1000"><title>794 entries @ 2024-04-08 22:10:40 +0800
(commit eaa95e2b9cc8e1e7f43f5c47a8705e7ec3a9cb26)</title></circle>
<circle cx="2.1346" cy="13.2620" r="0.1000"><title>738 entries @ 2024-03-29 21:46:25 +0800
(commit c00f320e97dc138c726e0f1877a645cfff8c8f0c)</title></circle>
<circle cx="1.9755" cy="13.3270" r="0.1000"><title>673 entries @ 2024-03-09 13:31:59 +0800
(commit a74078acd5e861ec1c16f8eedfac001f61392e35)</title></circle>
<circle cx="1.8296" cy="13.3670" r="0.1000"><title>633 entries @ 2024-02-19 21:51:29 +0800
(commit 852df3ec7924d8b3bc5271b4f806c7a81946cb60)</title></circle>
<circle cx="1.7523" cy="13.4220" r="0.1000"><title>578 entries @ 2024-02-10 00:47:34 +0800
(commit 05a37547b6a5501eeee864142964e33231ee1f2d)</title></circle>
<circle cx="1.7050" cy="13.4810" r="0.1000"><title>519 entries @ 2024-02-03 23:35:35 +0800
(commit 00ed8250dd4b69d184451850edbe89d0b0dfb648)</title></circle>
<circle cx="1.6266" cy="13.5310" r="0.1000"><title>469 entries @ 2024-01-24 23:01:47 +0800
(commit 5a46186a56d767e5cbc5851d0b574a87a9a8da4d)</title></circle>
<circle cx="1.6027" cy="13.5600" r="0.1000"><title>440 entries @ 2024-01-21 21:44:59 +0800
(commit e4495805707badeca2d0f445fbad79ca21791aac)</title></circle>
<circle cx="1.5642" cy="13.6060" r="0.1000"><title>394 entries @ 2024-01-16 23:34:14 +0800
(commit 2e514e7c0fed5bee1de9d65952f43f8c37a7b756)</title></circle>
<circle cx="1.4788" cy="13.6500" r="0.1000"><title>350 entries @ 2024-01-06 01:38:09 +0800
(commit 53dd4059e5176a4a1503a9a4ffce798075c80d2c)</title></circle>
<circle cx="1.4744" cy="13.6500" r="0.1000"><title>350 entries @ 2024-01-05 12:11:37 +0800
(commit 080ca924152154057405774b2f117b45c3272dec)</title></circle>
<circle cx="1.4471" cy="13.6920" r="0.1000"><title>308 entries @ 2024-01-02 00:17:31 +0800
(commit 69a8f0e4e95bfd68c1dce9b723c8a179e2f58f35)</title></circle>
<circle cx="1.4243" cy="13.7130" r="0.1000"><title>287 entries @ 2023-12-30 02:21:25 +0800
(commit 2d39187abb6ac1ad77b51e584c5376f7d3ca6949)</title></circle>
<circle cx="1.4060" cy="13.7270" r="0.1000"><title>273 entries @ 2023-12-27 18:02:29 +0800
(commit fc63d2aadea6ad04b9dbd7d396039887c9cf3ed9)</title></circle>
<circle cx="1.3297" cy="13.7830" r="0.1000"><title>217 entries @ 2023-12-18 00:04:13 +0800
(commit 9dd5f8479cb1ced14e751b56355be619737dc23b)</title></circle>
<circle cx="0.7805" cy="13.8380" r="0.1000"><title>162 entries @ 2023-10-08 18:47:48 +0800
(commit e9b68a97f879271d8bf9536c412a20f6ad96a5ff)</title></circle>
<circle cx="0.5539" cy="13.8860" r="0.1000"><title>114 entries @ 2023-09-09 19:41:58 +0800
(commit 936255572cf81b771836fcf5825942b42b8fcf2f)</title></circle>
<circle cx="0.3519" cy="13.9070" r="0.1000"><title>93 entries @ 2023-08-14 23:38:14 +0800
(commit f2cc79462b2ab3b72bb1de7755281dab96f723fc)</title></circle>
<circle cx="0.3343" cy="13.9440" r="0.1000"><title>56 entries @ 2023-08-12 17:38:48 +0800
(commit e5f93cf8d428ecfb2c89579d24b4664c860f4eb5)</title></circle>
<circle cx="0.2887" cy="13.9560" r="0.1000"><title>44 entries @ 2023-08-06 21:41:45 +0800
(commit 285b11fcd81a99a55f25b4b55a7b74a0b18c430a)</title></circle>
<circle cx="0.2819" cy="13.9620" r="0.1000"><title>38 entries @ 2023-08-06 01:02:18 +0800
(commit 2f5afa4a4388c7bc78c5f079d60deaead13c0807)</title></circle>
<circle cx="0.2815" cy="13.9620" r="0.1000"><title>38 entries @ 2023-08-05 23:38:10 +0800
(commit b30ebef9377cbe06dbe017dcd057c70285a39bdf)</title></circle>
<circle cx="0.2810" cy="13.9620" r="0.1000"><title>38 entries @ 2023-08-05 22:21:42 +0800
(commit e7e5bb93b86118ed237961e575b80f01617b4dce)</title></circle>
<circle cx="0.2800" cy="13.9620" r="0.1000"><title>38 entries @ 2023-08-05 19:13:38 +0800
(commit 6505a24294a8260c80c6f611da8d7ef163bc2f8a)</title></circle>
<circle cx="0.2797" cy="13.9620" r="0.1000"><title>38 entries @ 2023-08-05 18:05:37 +0800
(commit eaae44b30c467da19f7eba58df99561441f820cb)</title></circle>
<circle cx="0.2792" cy="13.9620" r="0.1000"><title>38 entries @ 2023-08-05 16:39:25 +0800
(commit f72c54acf0982d2cb884e322dad259d8d3df8da3)</title></circle>
<circle cx="0.2738" cy="13.9620" r="0.1000"><title>38 entries @ 2023-08-05 00:03:20 +0800
(commit 41730f75c82724eaa05a5c336dbc3f35d3b3c807)</title></circle>
<circle cx="0.2733" cy="13.9620" r="0.1000"><title>38 entries @ 2023-08-04 22:27:17 +0800
(commit e42a3cec8c34fb0ec26e5c922c0b7d35a04bbad0)</title></circle>
<circle cx="0.2581" cy="13.9620" r="0.1000"><title>38 entries @ 2023-08-03 00:06:13 +0800
(commit 046dfbbd3818840ceb3f6cc4f25030ff1af9d6a1)</title></circle>
<circle cx="0.2574" cy="13.9620" r="0.1000"><title>38 entries @ 2023-08-02 21:50:10 +0800
(commit 9a06ecec3569655fd557af19923884c69276b57f)</title></circle>
<circle cx="0.2345" cy="13.9620" r="0.1000"><title>38 entries @ 2023-07-30 23:37:33 +0800
(commit 5dee154ce484a8abd253b522d20252297b30986e)</title></circle>
<circle cx="0.2189" cy="13.9740" r="0.1000"><title>26 entries @ 2023-07-28 23:47:50 +0800
(commit 98c32d7062fe516df30203c19fdc31963b534dd2)</title></circle>
<circle cx="0.1722" cy="13.9740" r="0.1000"><title>26 entries @ 2023-07-23 00:17:01 +0800
(commit 0663791bc10bf1f5a09fe0d1eacee8191dfb2beb)</title></circle>
<circle cx="0.1627" cy="13.9860" r="0.1000"><title>14 entries @ 2023-07-21 19:08:11 +0800
(commit 2272653a8cdc67ac71620e7931c11e5a769ae3e9)</title></circle>
<circle cx="0.1561" cy="14.0000" r="0.1000"><title>0 entries @ 2023-07-20 23:05:47 +0800
(commit ced3050debd3d37e048da28bc6ea5129f4b40fd7)</title></circle>
<circle cx="0.1557" cy="14.0000" r="0.1000"><title>0 entries @ 2023-07-20 21:39:40 +0800
(commit 263685863f91821c9cefca68e1899910e88be118)</title></circle>
</svg>
