<?xml version="1.0" encoding="UTF-8"?>
<svg viewBox="-6 -4 28 22" width="960px" xmlns="http://www.w3.org/2000/svg">
<style>
circle:hover {fill: #cf1338}
circle {fill: black}
line, polyline {stroke: black; stroke-width: 0.1042%}polyline {stroke: #cf1338}line.target {stroke: blue; stroke-dasharray: 1.0417%}
polyline {fill: none}text {font-family: sans-serif; font-size: 1px; text-anchor: middle}
text.target {fill: blue; font-size: 0.7px}
text.tick {font-size: 0.7px}
text.title {fill: #cf1338; font-size: 1.1px}
</style>
<text class="title" x="8.0000" y="-2.0000">Conway's Cantonese Dictionary: Progress</text><line x1="0.0000" y1="14.0000" x2="20.0000" y2="14.0000"/>
<text x="10.0000" y="14.0000" dy="3em">Time</text>
<line x1="1.4392" y1="14.0000" x2="1.4392" y2="14.2000"/>
<text class="tick" x="1.4392" y="14.2000" dy="1.3em">2024</text>
<line x1="4.3019" y1="14.0000" x2="4.3019" y2="14.2000"/>
<text class="tick" x="4.3019" y="14.2000" dy="1.3em">2025</text>
<line x1="7.1568" y1="14.0000" x2="7.1568" y2="14.2000"/>
<text class="tick" x="7.1568" y="14.2000" dy="1.3em">2026</text>
<line x1="10.0117" y1="14.0000" x2="10.0117" y2="14.2000"/>
<text class="tick" x="10.0117" y="14.2000" dy="1.3em">2027</text>
<line x1="12.8666" y1="14.0000" x2="12.8666" y2="14.2000"/>
<text class="tick" x="12.8666" y="14.2000" dy="1.3em">2028</text>
<line x1="15.7294" y1="14.0000" x2="15.7294" y2="14.2000"/>
<text class="tick" x="15.7294" y="14.2000" dy="1.3em">2029</text>
<line x1="18.5843" y1="14.0000" x2="18.5843" y2="14.2000"/>
<text class="tick" x="18.5843" y="14.2000" dy="1.3em">2030</text>
<line x1="0.0000" y1="14.0000" x2="0.0000" y2="0.0000"/>
<text x="0.0000" y="7.0000" dy="-4em" transform="rotate(-90 0.0000 7.0000)">Entry Count</text>
<line x1="0.0000" y1="12.0000" x2="-0.2000" y2="12.0000"/>
<text class="tick" x="-0.2000" y="12.0000" dx="-2em" dy="0.33em">2000</text>
<line x1="0.0000" y1="10.0000" x2="-0.2000" y2="10.0000"/>
<text class="tick" x="-0.2000" y="10.0000" dx="-2em" dy="0.33em">4000</text>
<line x1="0.0000" y1="8.0000" x2="-0.2000" y2="8.0000"/>
<text class="tick" x="-0.2000" y="8.0000" dx="-2em" dy="0.33em">6000</text>
<line x1="0.0000" y1="6.0000" x2="-0.2000" y2="6.0000"/>
<text class="tick" x="-0.2000" y="6.0000" dx="-2em" dy="0.33em">8000</text>
<line x1="0.0000" y1="4.0000" x2="-0.2000" y2="4.0000"/>
<text class="tick" x="-0.2000" y="4.0000" dx="-2em" dy="0.33em">10000</text>
<line x1="0.0000" y1="2.0000" x2="-0.2000" y2="2.0000"/>
<text class="tick" x="-0.2000" y="2.0000" dx="-2em" dy="0.33em">12000</text>
<line class="target" x1="0.0000" y1="1.0000" x2="20.0000" y2="1.0000"/>
<text class="target" x="10.0000" y="1.0000" dy="-0.5em">Approximate Target: 13000 entries</text>
<polyline points="8.0482,11.6500 7.8928,11.6610 7.8351,11.6640 7.7359,11.6670 7.6145,11.6790 7.2393,11.6820 7.0315,11.6880 6.8982,11.7040 6.8593,11.7200 6.8128,11.7520 6.7660,11.7780 6.7422,11.7900 6.7260,11.7900 6.6916,11.7980 6.6642,11.8000 6.6406,11.8000 6.5778,11.8510 6.4833,11.9090 6.2572,11.9610 6.1981,12.0130 6.1203,12.0820 6.0547,12.1320 5.8742,12.1750 5.7785,12.1870 5.7326,12.1940 5.3389,12.2020 5.0651,12.2060 4.9827,12.2100 4.9121,12.2170 4.8862,12.2200 4.8499,12.2220 4.7793,12.2230 4.7246,12.2230 4.6698,12.2240 4.6280,12.2250 4.5839,12.2290 4.5252,12.2380 4.4585,12.2370 4.4351,12.2410 4.3491,12.2340 4.2860,12.2340 4.2084,12.2290 4.1771,12.2320 4.1531,12.2330 4.1054,12.2360 4.0747,12.2410 4.0637,12.2560 3.9265,12.2830 3.8719,12.3380 3.6603,12.3790 3.6152,12.4100 3.6137,12.4100 3.5589,12.4480 3.5267,12.5090 3.4625,12.5640 3.1033,12.6180 3.0351,12.6650 2.9720,12.7090 2.9333,12.7300 2.8625,12.7810 2.6409,12.8370 2.5502,12.8920 2.4950,12.9500 2.4232,13.0070 2.4090,13.0150 2.3311,13.0840 2.2607,13.1450 2.2130,13.2050 2.1403,13.2600 1.9758,13.3250 1.8297,13.3660 1.7577,13.4200 1.7051,13.4790 1.6267,13.5310 1.6028,13.5600 1.5643,13.6060 1.4857,13.6500 1.4745,13.6500 1.4589,13.6910 1.4244,13.7130 1.4060,13.7250 1.3299,13.7830 1.0549,13.8350 0.5553,13.8850 0.3520,13.9070 0.3344,13.9430 0.2887,13.9560 0.2819,13.9620 0.2815,13.9620 0.2811,13.9620 0.2800,13.9620 0.2797,13.9620 0.2792,13.9620 0.2738,13.9620 0.2733,13.9620 0.2582,13.9620 0.2574,13.9620 0.2346,13.9620 0.2191,13.9740 0.1724,13.9740 0.1627,13.9860 0.1562,14.0000 0.1557,14.0000"/>
<circle cx="8.0482" cy="11.6500" r="0.1000"><title>2350 entries @ 2026-04-24 23:11:07 +0800
(commit 65b0d0fc0e69618e0ce28af1d8c08b26dbc404e7)</title></circle>
<circle cx="7.8928" cy="11.6610" r="0.1000"><title>2339 entries @ 2026-04-05 02:22:30 +0800
(commit af43ef8e23a6ac72298aaed63a511bdf3f2154a4)</title></circle>
<circle cx="7.8351" cy="11.6640" r="0.1000"><title>2336 entries @ 2026-03-28 17:21:38 +0800
(commit 7b78b9c9112883c958b8a02b787529d4b07d0879)</title></circle>
<circle cx="7.7359" cy="11.6670" r="0.1000"><title>2333 entries @ 2026-03-16 00:44:23 +0800
(commit 8693e112a7b48600cddbf45e898f2cbac6015943)</title></circle>
<circle cx="7.6145" cy="11.6790" r="0.1000"><title>2321 entries @ 2026-02-28 12:15:06 +0800
(commit ae3cd22206f973f5784efca7c0d500a8580870c6)</title></circle>
<circle cx="7.2393" cy="11.6820" r="0.1000"><title>2318 entries @ 2026-01-11 12:56:17 +0800
(commit 7ab49384985e82f01b662213a9c9662e33c8e0eb)</title></circle>
<circle cx="7.0315" cy="11.6880" r="0.1000"><title>2312 entries @ 2025-12-15 23:25:29 +0800
(commit 37129185980bc76810f6ac658d7c67e714f5bba4)</title></circle>
<circle cx="6.8982" cy="11.7040" r="0.1000"><title>2296 entries @ 2025-11-28 22:31:56 +0800
(commit 35a18d7d1764ef64103baf26370df9602b0fcdc4)</title></circle>
<circle cx="6.8593" cy="11.7200" r="0.1000"><title>2280 entries @ 2025-11-23 23:10:24 +0800
(commit afa51ea1ac6bb85d6c586473032620f90e9ea84c)</title></circle>
<circle cx="6.8128" cy="11.7520" r="0.1000"><title>2248 entries @ 2025-11-18 00:22:28 +0800
(commit 29f40e0a14d40866163e4ce335401456db86a741)</title></circle>
<circle cx="6.7660" cy="11.7780" r="0.1000"><title>2222 entries @ 2025-11-12 00:48:21 +0800
(commit b5b2dc56c6630f7e4342511f98dfc4e5b2d999c4)</title></circle>
<circle cx="6.7422" cy="11.7900" r="0.1000"><title>2210 entries @ 2025-11-08 23:49:43 +0800
(commit 834122cd4f8d3b22b41152a678bc0d12732d12ba)</title></circle>
<circle cx="6.7260" cy="11.7900" r="0.1000"><title>2210 entries @ 2025-11-06 22:09:27 +0800
(commit a79aaa28d4358f0de6693b1fd85bf5a524af9d95)</title></circle>
<circle cx="6.6916" cy="11.7980" r="0.1000"><title>2202 entries @ 2025-11-02 12:33:26 +0800
(commit 4492ebb331619d0e60454adc80b7b1bb6d0490e6)</title></circle>
<circle cx="6.6642" cy="11.8000" r="0.1000"><title>2200 entries @ 2025-10-30 00:31:57 +0800
(commit fa4d1de1298ff912de9a4a8f492da2af477b5533)</title></circle>
<circle cx="6.6406" cy="11.8000" r="0.1000"><title>2200 entries @ 2025-10-26 23:59:44 +0800
(commit b48768b877c5bf5c6e89177c95a6ec988fcf3099)</title></circle>
<circle cx="6.5778" cy="11.8510" r="0.1000"><title>2149 entries @ 2025-10-18 23:23:09 +0800
(commit 4c989a4410cec94993d3227ae5bd82ee371fdb25)</title></circle>
<circle cx="6.4833" cy="11.9090" r="0.1000"><title>2091 entries @ 2025-10-06 21:20:16 +0800
(commit 8ac697aa017570e81148f1fc7e8e1e4e00b17bc6)</title></circle>
<circle cx="6.2572" cy="11.9610" r="0.1000"><title>2039 entries @ 2025-09-07 23:43:33 +0800
(commit 64f9a16fe4302c883946bcba31a3ba5c788df942)</title></circle>
<circle cx="6.1981" cy="12.0130" r="0.1000"><title>1987 entries @ 2025-08-31 10:21:02 +0800
(commit 026b0445f6a684742d837e146671b620c0cbb918)</title></circle>
<circle cx="6.1203" cy="12.0820" r="0.1000"><title>1918 entries @ 2025-08-21 11:31:57 +0800
(commit cf36d8f22542dc8408318467b93adc24adf08d15)</title></circle>
<circle cx="6.0547" cy="12.1320" r="0.1000"><title>1868 entries @ 2025-08-13 02:17:32 +0800
(commit 172d76262a5e7c53be1beea44e5c69c8ce52415a)</title></circle>
<circle cx="5.8742" cy="12.1750" r="0.1000"><title>1825 entries @ 2025-07-21 00:16:43 +0800
(commit a0272d8785cdfd8e4dba67092e162a4b8851cb01)</title></circle>
<circle cx="5.7785" cy="12.1870" r="0.1000"><title>1813 entries @ 2025-07-08 18:36:17 +0800
(commit c5329eb3d20fc49f3aafde9000ed3feceb390e8e)</title></circle>
<circle cx="5.7326" cy="12.1940" r="0.1000"><title>1806 entries @ 2025-07-02 21:47:04 +0800
(commit 5c37bd51bcd371ac2f0b4054a62dcb6947d3bb83)</title></circle>
<circle cx="5.3389" cy="12.2020" r="0.1000"><title>1798 entries @ 2025-05-13 13:58:54 +0800
(commit e8d177bf0308bb37e0f45514f68b04937fe35944)</title></circle>
<circle cx="5.0651" cy="12.2060" r="0.1000"><title>1794 entries @ 2025-04-08 13:36:08 +0800
(commit e63df8deda5a9a9e8bbc9af8957a4af1bbd90843)</title></circle>
<circle cx="4.9827" cy="12.2100" r="0.1000"><title>1790 entries @ 2025-03-29 00:55:03 +0800
(commit 33d4b62fffc49cbddc94b713784c19bd2d7971b4)</title></circle>
<circle cx="4.9121" cy="12.2170" r="0.1000"><title>1783 entries @ 2025-03-20 00:21:16 +0800
(commit c50fa8fdbe43c89c05591ed6ef32ba4c0c3f8416)</title></circle>
<circle cx="4.8862" cy="12.2200" r="0.1000"><title>1780 entries @ 2025-03-16 16:42:58 +0800
(commit 248295833359bfd2ba5ffafe54591802946ef4bc)</title></circle>
<circle cx="4.8499" cy="12.2220" r="0.1000"><title>1778 entries @ 2025-03-12 01:25:02 +0800
(commit 087e2dae11af58e9f7bd0d14836aa5b775df7d12)</title></circle>
<circle cx="4.7793" cy="12.2230" r="0.1000"><title>1777 entries @ 2025-03-03 00:39:59 +0800
(commit 3c969060bcf55c1a2cea0298ec974828b30700af)</title></circle>
<circle cx="4.7246" cy="12.2230" r="0.1000"><title>1777 entries @ 2025-02-24 00:57:27 +0800
(commit 1def14c519d4ee006a7b2325dc1391d0c915bd71)</title></circle>
<circle cx="4.6698" cy="12.2240" r="0.1000"><title>1776 entries @ 2025-02-17 00:54:04 +0800
(commit ea64c0c47b119c5ae17cc355b6e4ae5f5df3f6c2)</title></circle>
<circle cx="4.6280" cy="12.2250" r="0.1000"><title>1775 entries @ 2025-02-11 16:42:14 +0800
(commit 65762730084a2e7d3d62b769eedfff020f86aa77)</title></circle>
<circle cx="4.5839" cy="12.2290" r="0.1000"><title>1771 entries @ 2025-02-06 01:15:15 +0800
(commit e9a9a92a50b731c7b3febbd4760e9df49d6f6728)</title></circle>
<circle cx="4.5252" cy="12.2380" r="0.1000"><title>1762 entries @ 2025-01-29 13:10:26 +0800
(commit 65d1eafd00c6faa452c276a56b6a6d78089501d1)</title></circle>
<circle cx="4.4585" cy="12.2370" r="0.1000"><title>1763 entries @ 2025-01-21 00:32:03 +0800
(commit 7cacb3c66318cfdd8d11c9f01c347711a699b8c0)</title></circle>
<circle cx="4.4351" cy="12.2410" r="0.1000"><title>1759 entries @ 2025-01-18 00:36:52 +0800
(commit 8efea80e28e5e97c01c17a47d7e28eda9c89b13b)</title></circle>
<circle cx="4.3491" cy="12.2340" r="0.1000"><title>1766 entries @ 2025-01-07 00:49:30 +0800
(commit 9fb90d8cdafed13cfb356559cb0306dd784b0433)</title></circle>
<circle cx="4.2860" cy="12.2340" r="0.1000"><title>1766 entries @ 2024-12-29 23:07:48 +0800
(commit 4d5f2ce2ae1f64cbb90670bd7e1e0ae3030cf6a2)</title></circle>
<circle cx="4.2084" cy="12.2290" r="0.1000"><title>1771 entries @ 2024-12-20 01:01:56 +0800
(commit e8fffcaad251b26594e29735b9f6255f693db60a)</title></circle>
<circle cx="4.1771" cy="12.2320" r="0.1000"><title>1768 entries @ 2024-12-16 01:06:32 +0800
(commit 9e0c058c1cdc75be92f084f8c12ab274ef417385)</title></circle>
<circle cx="4.1531" cy="12.2330" r="0.1000"><title>1767 entries @ 2024-12-12 23:30:43 +0800
(commit 00c617dfb6af03d4fbb93619829e8c5805d5dc0f)</title></circle>
<circle cx="4.1054" cy="12.2360" r="0.1000"><title>1764 entries @ 2024-12-06 21:08:57 +0800
(commit f2cc2bb2514ca2f16457dc8c8617f26eb93d2deb)</title></circle>
<circle cx="4.0747" cy="12.2410" r="0.1000"><title>1759 entries @ 2024-12-02 22:43:36 +0800
(commit 6f8a8a30a8bfde762112b53c09d0b8a8947ca4dc)</title></circle>
<circle cx="4.0637" cy="12.2560" r="0.1000"><title>1744 entries @ 2024-12-01 12:57:30 +0800
(commit b3e978c043c4d88001c1cb77a9dbacb26cc36672)</title></circle>
<circle cx="3.9265" cy="12.2830" r="0.1000"><title>1717 entries @ 2024-11-14 00:10:34 +0800
(commit d25456d0fe02fd9d92873a41334abfc903c3a564)</title></circle>
<circle cx="3.8719" cy="12.3380" r="0.1000"><title>1662 entries @ 2024-11-07 00:28:40 +0800
(commit 8631d08ddabb0ec0a496271aafaf73f5663cc76c)</title></circle>
<circle cx="3.6603" cy="12.3790" r="0.1000"><title>1621 entries @ 2024-10-10 23:22:29 +0800
(commit bd94d462cd4330781d5d6ca11f8dfa3e7eba93fe)</title></circle>
<circle cx="3.6152" cy="12.4100" r="0.1000"><title>1590 entries @ 2024-10-05 04:46:43 +0800
(commit 88f7e82f2137075b824cae58f2d79ba8e730a20e)</title></circle>
<circle cx="3.6137" cy="12.4100" r="0.1000"><title>1590 entries @ 2024-10-05 00:12:29 +0800
(commit 41849bf26658e53ece935f9b9e138848f2e6f037)</title></circle>
<circle cx="3.5589" cy="12.4480" r="0.1000"><title>1552 entries @ 2024-09-28 00:00:26 +0800
(commit 6681f3d4be8b3e14a0347facfb046b9ae414441c)</title></circle>
<circle cx="3.5267" cy="12.5090" r="0.1000"><title>1491 entries @ 2024-09-23 21:16:55 +0800
(commit c25812afcdba2f9988f738ac10d391f7acb0d4d3)</title></circle>
<circle cx="3.4625" cy="12.5640" r="0.1000"><title>1436 entries @ 2024-09-15 16:24:10 +0800
(commit b68c44d1587a81645ae26359d77f8b5263fa5ed1)</title></circle>
<circle cx="3.1033" cy="12.6180" r="0.1000"><title>1382 entries @ 2024-07-31 18:12:42 +0800
(commit bf47104bb8df2b52aea8088a8bb2c9020588b097)</title></circle>
<circle cx="3.0351" cy="12.6650" r="0.1000"><title>1335 entries @ 2024-07-23 01:02:58 +0800
(commit b32a46cdc8f380a455e1990435c8df4d4b2bf5b9)</title></circle>
<circle cx="2.9720" cy="12.7090" r="0.1000"><title>1291 entries @ 2024-07-14 23:22:35 +0800
(commit f6b8b4d692c609cdd787a99faf7b1048a2e81992)</title></circle>
<circle cx="2.9333" cy="12.7300" r="0.1000"><title>1270 entries @ 2024-07-10 00:41:19 +0800
(commit 4f806fc8117cbb7d9498f70f39718d28b79b5fc4)</title></circle>
<circle cx="2.8625" cy="12.7810" r="0.1000"><title>1219 entries @ 2024-06-30 23:22:08 +0800
(commit db761f8ba718d40805951bee0eb8f131ccea65eb)</title></circle>
<circle cx="2.6409" cy="12.8370" r="0.1000"><title>1163 entries @ 2024-06-02 15:17:28 +0800
(commit 27557bb86ba6158c2823d1802de43e41d69ba034)</title></circle>
<circle cx="2.5502" cy="12.8920" r="0.1000"><title>1108 entries @ 2024-05-22 00:58:46 +0800
(commit 348cc02f62fc27c3d80cfd9c91b11c459b1db0ad)</title></circle>
<circle cx="2.4950" cy="12.9500" r="0.1000"><title>1050 entries @ 2024-05-14 23:32:32 +0800
(commit a47a9b9843313fcc3d3a1872f0c0fbb60b4f7a47)</title></circle>
<circle cx="2.4232" cy="13.0070" r="0.1000"><title>993 entries @ 2024-05-05 19:16:30 +0800
(commit 82992c9a6d11721cb54fcb9bdf61ebd2674830c1)</title></circle>
<circle cx="2.4090" cy="13.0150" r="0.1000"><title>985 entries @ 2024-05-03 23:46:12 +0800
(commit 58f444c211a8e1e5db16ff0afb7b0bc53f920e0e)</title></circle>
<circle cx="2.3311" cy="13.0840" r="0.1000"><title>916 entries @ 2024-04-24 00:49:09 +0800
(commit 64f53239acd733e68a1c5949a87203c2d887c27d)</title></circle>
<circle cx="2.2607" cy="13.1450" r="0.1000"><title>855 entries @ 2024-04-15 00:46:31 +0800
(commit e8690be69006d9112e13658977adb7e4710a5ccc)</title></circle>
<circle cx="2.2130" cy="13.2050" r="0.1000"><title>795 entries @ 2024-04-08 22:20:06 +0800
(commit 0a001207882ca9fe9bc410cd1502e8e662a1b58a)</title></circle>
<circle cx="2.1403" cy="13.2600" r="0.1000"><title>740 entries @ 2024-03-30 15:15:08 +0800
(commit 768309b015217e82d54f901d9bffbea90ec3a2ee)</title></circle>
<circle cx="1.9758" cy="13.3250" r="0.1000"><title>675 entries @ 2024-03-09 14:34:16 +0800
(commit b27bcd2af057034c9d7a9419fe8afc44509ce1d5)</title></circle>
<circle cx="1.8297" cy="13.3660" r="0.1000"><title>634 entries @ 2024-02-19 22:10:49 +0800
(commit 6f0b82c725a9842ece2d0980cae167fe9ce7195e)</title></circle>
<circle cx="1.7577" cy="13.4200" r="0.1000"><title>580 entries @ 2024-02-10 17:26:40 +0800
(commit 756da38fb5c7478c10600cc0722a7d511d98276a)</title></circle>
<circle cx="1.7051" cy="13.4790" r="0.1000"><title>521 entries @ 2024-02-03 23:52:21 +0800
(commit 304c17ee09fec59bf8e7c8abc18bb852d8310d54)</title></circle>
<circle cx="1.6267" cy="13.5310" r="0.1000"><title>469 entries @ 2024-01-24 23:17:30 +0800
(commit ab40c462130d9dcabd262b7ed1aba3f64e93b692)</title></circle>
<circle cx="1.6028" cy="13.5600" r="0.1000"><title>440 entries @ 2024-01-21 22:06:59 +0800
(commit 3ef95b15eb5f81ad7323603beaaaf44fccffec50)</title></circle>
<circle cx="1.5643" cy="13.6060" r="0.1000"><title>394 entries @ 2024-01-16 23:49:02 +0800
(commit 2604567fc16771126fca08b75e820c0fd1150ee4)</title></circle>
<circle cx="1.4857" cy="13.6500" r="0.1000"><title>350 entries @ 2024-01-06 22:49:47 +0800
(commit ea4c7d5f44de5cd870f6be76f2ce6c80aa3676eb)</title></circle>
<circle cx="1.4745" cy="13.6500" r="0.1000"><title>350 entries @ 2024-01-05 12:16:47 +0800
(commit f2189bc23f9dc4080f6c83780e9281be70731ddc)</title></circle>
<circle cx="1.4589" cy="13.6910" r="0.1000"><title>309 entries @ 2024-01-03 12:32:59 +0800
(commit b77928c58f797ed3243192273c15e132ad3210ab)</title></circle>
<circle cx="1.4244" cy="13.7130" r="0.1000"><title>287 entries @ 2023-12-30 02:29:16 +0800
(commit d0283f4c7df12b63f3cec2542d398d091eb3ebe0)</title></circle>
<circle cx="1.4060" cy="13.7250" r="0.1000"><title>275 entries @ 2023-12-27 18:10:25 +0800
(commit a607433d5c80c9f531d1ef33c82cd462bce84e7a)</title></circle>
<circle cx="1.3299" cy="13.7830" r="0.1000"><title>217 entries @ 2023-12-18 00:33:46 +0800
(commit 68df546fd4f9cd3e23ddeb5eb0de408c886c79c7)</title></circle>
<circle cx="1.0549" cy="13.8350" r="0.1000"><title>165 entries @ 2023-11-12 20:58:31 +0800
(commit 23c97fe4b73a738382128018e52befc1d3dfc42b)</title></circle>
<circle cx="0.5553" cy="13.8850" r="0.1000"><title>115 entries @ 2023-09-09 23:45:35 +0800
(commit f319d0d6251188bb796f1f5da6079dceb246884b)</title></circle>
<circle cx="0.3520" cy="13.9070" r="0.1000"><title>93 entries @ 2023-08-14 23:56:32 +0800
(commit 45b326a67913b7c99653270fe19c16f4f0892f2f)</title></circle>
<circle cx="0.3344" cy="13.9430" r="0.1000"><title>57 entries @ 2023-08-12 17:58:59 +0800
(commit b0ddaa3c642c1c82d5ae6e0f27c426453b636a98)</title></circle>
<circle cx="0.2887" cy="13.9560" r="0.1000"><title>44 entries @ 2023-08-06 21:57:01 +0800
(commit 9c01c928615a7b1989c058f6aebd785877479bbc)</title></circle>
<circle cx="0.2819" cy="13.9620" r="0.1000"><title>38 entries @ 2023-08-06 01:03:53 +0800
(commit 43b8835ed88ff51b78623cca302cb6ea10cbee00)</title></circle>
<circle cx="0.2815" cy="13.9620" r="0.1000"><title>38 entries @ 2023-08-05 23:42:54 +0800
(commit d0f7249b94a34ed18f64522f4251cdf7a2323e6c)</title></circle>
<circle cx="0.2811" cy="13.9620" r="0.1000"><title>38 entries @ 2023-08-05 22:23:53 +0800
(commit f58d6fe24627bcca1a219510ff054aaa895cb96b)</title></circle>
<circle cx="0.2800" cy="13.9620" r="0.1000"><title>38 entries @ 2023-08-05 19:15:36 +0800
(commit b052bdd27d9ca9227fa9f760ea2f4ca50593db53)</title></circle>
<circle cx="0.2797" cy="13.9620" r="0.1000"><title>38 entries @ 2023-08-05 18:08:33 +0800
(commit 68a30692dcb8a1ff30a3b9cad174f5e9c8429997)</title></circle>
<circle cx="0.2792" cy="13.9620" r="0.1000"><title>38 entries @ 2023-08-05 16:41:59 +0800
(commit 2a567884c75e6e429a22f1ac9b592f64adb5f5e4)</title></circle>
<circle cx="0.2738" cy="13.9620" r="0.1000"><title>38 entries @ 2023-08-05 00:05:44 +0800
(commit 4874c9a51e37d9e7bdd0519f712bbc454cc54daf)</title></circle>
<circle cx="0.2733" cy="13.9620" r="0.1000"><title>38 entries @ 2023-08-04 22:28:57 +0800
(commit 5064e2997703fb6178e04246d89f3af6f7baa982)</title></circle>
<circle cx="0.2582" cy="13.9620" r="0.1000"><title>38 entries @ 2023-08-03 00:08:56 +0800
(commit fc8b76069e74ed3bcb3d980252c3d0c7359ad3b3)</title></circle>
<circle cx="0.2574" cy="13.9620" r="0.1000"><title>38 entries @ 2023-08-02 21:51:45 +0800
(commit b8e9b1c510e4af4055e4ec52a77b58dc19fd88f8)</title></circle>
<circle cx="0.2346" cy="13.9620" r="0.1000"><title>38 entries @ 2023-07-30 23:42:24 +0800
(commit 29f1366049a670096a824e117eb708f68582e58e)</title></circle>
<circle cx="0.2191" cy="13.9740" r="0.1000"><title>26 entries @ 2023-07-29 00:23:45 +0800
(commit deb73002e736f37ddfa0da238b0de41d82df201b)</title></circle>
<circle cx="0.1724" cy="13.9740" r="0.1000"><title>26 entries @ 2023-07-23 01:03:11 +0800
(commit 99fd3855c168a820c55a33eeaebc398161a7df57)</title></circle>
<circle cx="0.1627" cy="13.9860" r="0.1000"><title>14 entries @ 2023-07-21 19:12:38 +0800
(commit 028d91381eec619838b4e4d05a3a67d9328a4d87)</title></circle>
<circle cx="0.1562" cy="14.0000" r="0.1000"><title>0 entries @ 2023-07-20 23:13:20 +0800
(commit a2e4e34cbe4059b59046b842bbdfb4791d0bdc18)</title></circle>
<circle cx="0.1557" cy="14.0000" r="0.1000"><title>0 entries @ 2023-07-20 21:39:40 +0800
(commit 263685863f91821c9cefca68e1899910e88be118)</title></circle>
</svg>
