<?xml version="1.0" encoding="UTF-8"?>
<svg viewBox="-6 -4 28 22" width="960px" xmlns="http://www.w3.org/2000/svg">
<style>
circle:hover {fill: #cf1338}
circle {fill: black}
line, polyline {stroke: black; stroke-width: 0.1042%}polyline {stroke: #cf1338}line.target {stroke: blue; stroke-dasharray: 1.0417%}
polyline {fill: none}text {font-family: sans-serif; font-size: 1px; text-anchor: middle}
text.target {fill: blue; font-size: 0.7px}
text.tick {font-size: 0.7px}
text.title {fill: #cf1338; font-size: 1.1px}
</style>
<text class="title" x="8.0000" y="-2.0000">Conway's Cantonese Dictionary: Progress</text><line x1="0.0000" y1="14.0000" x2="20.0000" y2="14.0000"/>
<text x="10.0000" y="14.0000" dy="3em">Time</text>
<line x1="1.4392" y1="14.0000" x2="1.4392" y2="14.2000"/>
<text class="tick" x="1.4392" y="14.2000" dy="1.3em">2024</text>
<line x1="4.3019" y1="14.0000" x2="4.3019" y2="14.2000"/>
<text class="tick" x="4.3019" y="14.2000" dy="1.3em">2025</text>
<line x1="7.1568" y1="14.0000" x2="7.1568" y2="14.2000"/>
<text class="tick" x="7.1568" y="14.2000" dy="1.3em">2026</text>
<line x1="10.0117" y1="14.0000" x2="10.0117" y2="14.2000"/>
<text class="tick" x="10.0117" y="14.2000" dy="1.3em">2027</text>
<line x1="12.8666" y1="14.0000" x2="12.8666" y2="14.2000"/>
<text class="tick" x="12.8666" y="14.2000" dy="1.3em">2028</text>
<line x1="15.7294" y1="14.0000" x2="15.7294" y2="14.2000"/>
<text class="tick" x="15.7294" y="14.2000" dy="1.3em">2029</text>
<line x1="18.5843" y1="14.0000" x2="18.5843" y2="14.2000"/>
<text class="tick" x="18.5843" y="14.2000" dy="1.3em">2030</text>
<line x1="0.0000" y1="14.0000" x2="0.0000" y2="0.0000"/>
<text x="0.0000" y="7.0000" dy="-4em" transform="rotate(-90 0.0000 7.0000)">Entry Count</text>
<line x1="0.0000" y1="12.0000" x2="-0.2000" y2="12.0000"/>
<text class="tick" x="-0.2000" y="12.0000" dx="-2em" dy="0.33em">2000</text>
<line x1="0.0000" y1="10.0000" x2="-0.2000" y2="10.0000"/>
<text class="tick" x="-0.2000" y="10.0000" dx="-2em" dy="0.33em">4000</text>
<line x1="0.0000" y1="8.0000" x2="-0.2000" y2="8.0000"/>
<text class="tick" x="-0.2000" y="8.0000" dx="-2em" dy="0.33em">6000</text>
<line x1="0.0000" y1="6.0000" x2="-0.2000" y2="6.0000"/>
<text class="tick" x="-0.2000" y="6.0000" dx="-2em" dy="0.33em">8000</text>
<line x1="0.0000" y1="4.0000" x2="-0.2000" y2="4.0000"/>
<text class="tick" x="-0.2000" y="4.0000" dx="-2em" dy="0.33em">10000</text>
<line x1="0.0000" y1="2.0000" x2="-0.2000" y2="2.0000"/>
<text class="tick" x="-0.2000" y="2.0000" dx="-2em" dy="0.33em">12000</text>
<line class="target" x1="0.0000" y1="1.0000" x2="20.0000" y2="1.0000"/>
<text class="target" x="10.0000" y="1.0000" dy="-0.5em">Approximate Target: 13000 entries</text>
<polyline points="8.0876,11.6440 7.9048,11.6590 7.8418,11.6640 7.7807,11.6660 7.6263,11.6770 7.3131,11.6810 7.0552,11.6870 6.9689,11.6960 6.8596,11.7200 6.8360,11.7450 6.7738,11.7700 6.7464,11.7900 6.7341,11.7900 6.7021,11.7900 6.6717,11.8000 6.6410,11.8000 6.6010,11.8370 6.5305,11.8940 6.2725,11.9540 6.2105,11.9990 6.1390,12.0650 6.0844,12.1210 5.9202,12.1650 5.8549,12.1850 5.7489,12.1930 5.5579,12.2020 5.0730,12.2040 4.9988,12.2100 4.9276,12.2160 4.8878,12.2190 4.8575,12.2200 4.8413,12.2240 4.7398,12.2230 4.6856,12.2240 4.6388,12.2230 4.5917,12.2290 4.5443,12.2360 4.4662,12.2370 4.4480,12.2380 4.3612,12.2360 4.2945,12.2340 4.2281,12.2290 4.1844,12.2320 4.1536,12.2330 4.1063,12.2360 4.0824,12.2400 4.0667,12.2450 4.0121,12.2780 3.8795,12.3280 3.6865,12.3710 3.6269,12.4100 3.6141,12.4100 3.5660,12.4370 3.5354,12.4940 3.4728,12.5510 3.3004,12.6070 3.0499,12.6580 2.9798,12.7060 2.9490,12.7210 2.8782,12.7680 2.6825,12.8260 2.5578,12.8790 2.5032,12.9380 2.4403,12.9970 2.4216,13.0120 2.3447,13.0670 2.2685,13.1330 2.2216,13.1940 2.1508,13.2490 2.0096,13.3120 1.8735,13.3590 1.7602,13.4060 1.7093,13.4640 1.6482,13.5200 1.6092,13.5560 1.5719,13.6010 1.5091,13.6480 1.4764,13.6500 1.4625,13.6770 1.4256,13.7130 1.4075,13.7140 1.3687,13.7700 1.0717,13.8240 0.5947,13.8730 0.3744,13.9000 0.3363,13.9330 0.2974,13.9560 0.2821,13.9620 0.2816,13.9620 0.2812,13.9620 0.2801,13.9620 0.2797,13.9620 0.2793,13.9620 0.2739,13.9620 0.2734,13.9620 0.2653,13.9620 0.2576,13.9620 0.2347,13.9620 0.2236,13.9740 0.1795,13.9740 0.1642,13.9850 0.1568,13.9900 0.1557,14.0000"/>
<circle cx="8.0876" cy="11.6440" r="0.1000"><title>2356 entries @ 2026-04-29 23:55:26 +0800
(commit 9f607db18dad660d20e2ad7858df436eebff1b26)</title></circle>
<circle cx="7.9048" cy="11.6590" r="0.1000"><title>2341 entries @ 2026-04-06 14:59:57 +0800
(commit 287c373cef26e397fd5d9ab91f941f541087334e)</title></circle>
<circle cx="7.8418" cy="11.6640" r="0.1000"><title>2336 entries @ 2026-03-29 13:41:03 +0800
(commit c391a91cfbf0ac11291898f1e771a80061138146)</title></circle>
<circle cx="7.7807" cy="11.6660" r="0.1000"><title>2334 entries @ 2026-03-21 18:25:14 +0800
(commit 5a52580a5f370912838b8877f991d279239e8f15)</title></circle>
<circle cx="7.6263" cy="11.6770" r="0.1000"><title>2323 entries @ 2026-03-02 00:35:46 +0800
(commit 1d9cbf6ec09dbfca3cfb0cf79232540b186839c2)</title></circle>
<circle cx="7.3131" cy="11.6810" r="0.1000"><title>2319 entries @ 2026-01-20 23:32:22 +0800
(commit c4b25a6936de33bcea96b58b9cdee89e9ecfb3e6)</title></circle>
<circle cx="7.0552" cy="11.6870" r="0.1000"><title>2313 entries @ 2025-12-19 00:02:57 +0800
(commit c8e1ad81e1d8c8392791faebec3fb92554847795)</title></circle>
<circle cx="6.9689" cy="11.6960" r="0.1000"><title>2304 entries @ 2025-12-07 23:21:29 +0800
(commit 75ee2583b183460991c2a7633a11d09fd2e16ab7)</title></circle>
<circle cx="6.8596" cy="11.7200" r="0.1000"><title>2280 entries @ 2025-11-23 23:55:40 +0800
(commit 06b27c2cc4698e462073cb63d1e11e45c982c97d)</title></circle>
<circle cx="6.8360" cy="11.7450" r="0.1000"><title>2255 entries @ 2025-11-20 23:34:07 +0800
(commit 223c2ecd04723f4727075e8d47050a7ee0d421fd)</title></circle>
<circle cx="6.7738" cy="11.7700" r="0.1000"><title>2230 entries @ 2025-11-13 00:52:18 +0800
(commit 2b3c0544077dcb11fb56b4dfb2653596356c55d9)</title></circle>
<circle cx="6.7464" cy="11.7900" r="0.1000"><title>2210 entries @ 2025-11-09 12:37:01 +0800
(commit c534011084321c18986b997f7d40eb3d4b54bb13)</title></circle>
<circle cx="6.7341" cy="11.7900" r="0.1000"><title>2210 entries @ 2025-11-07 22:48:54 +0800
(commit 9af3c7c4a7f6f171e8168419ad687e2ea22dc851)</title></circle>
<circle cx="6.7021" cy="11.7900" r="0.1000"><title>2210 entries @ 2025-11-03 20:42:06 +0800
(commit 3c9ace112681f08ede2f5a75a603c9b78df1b799)</title></circle>
<circle cx="6.6717" cy="11.8000" r="0.1000"><title>2200 entries @ 2025-10-30 23:25:49 +0800
(commit b7e45d78b3aa6d38cb0cb99ca6761dd7725e0b02)</title></circle>
<circle cx="6.6410" cy="11.8000" r="0.1000"><title>2200 entries @ 2025-10-27 01:18:04 +0800
(commit b2eded5f03ef4eaa430f88775a065e8a2013fcca)</title></circle>
<circle cx="6.6010" cy="11.8370" r="0.1000"><title>2163 entries @ 2025-10-21 22:36:22 +0800
(commit b8de8976ad33e1840d8578c4e8aaa1b3333c5b9a)</title></circle>
<circle cx="6.5305" cy="11.8940" r="0.1000"><title>2106 entries @ 2025-10-12 22:10:21 +0800
(commit d924b4f32a1fd2f03d272330a3be1462ea542bee)</title></circle>
<circle cx="6.2725" cy="11.9540" r="0.1000"><title>2046 entries @ 2025-09-09 22:40:17 +0800
(commit e378719b16d00535c3b91f1922fafdef5f634e26)</title></circle>
<circle cx="6.2105" cy="11.9990" r="0.1000"><title>2001 entries @ 2025-09-02 00:13:15 +0800
(commit ee8c70015f2f81f130416ec6238aebfc770c893c)</title></circle>
<circle cx="6.1390" cy="12.0650" r="0.1000"><title>1935 entries @ 2025-08-23 21:01:45 +0800
(commit f84b2239bc09489e3794ffcd47d916ccdd0a7897)</title></circle>
<circle cx="6.0844" cy="12.1210" r="0.1000"><title>1879 entries @ 2025-08-16 21:28:57 +0800
(commit 97d9a9986796b1d07c75716d7b9c12c6244bb56b)</title></circle>
<circle cx="5.9202" cy="12.1650" r="0.1000"><title>1835 entries @ 2025-07-26 21:32:14 +0800
(commit 623fd99214c19d61e222a2dc9f4ca62e57ee493f)</title></circle>
<circle cx="5.8549" cy="12.1850" r="0.1000"><title>1815 entries @ 2025-07-18 13:11:15 +0800
(commit fd73baba8b6b07823eeaad17ed169ea18207aa96)</title></circle>
<circle cx="5.7489" cy="12.1930" r="0.1000"><title>1807 entries @ 2025-07-05 00:02:08 +0800
(commit 5802414c8b1c24a6c113dd435d09e3bda31aba21)</title></circle>
<circle cx="5.5579" cy="12.2020" r="0.1000"><title>1798 entries @ 2025-06-10 13:42:37 +0800
(commit 86e39ec76416d93bd2c42d9253599fd9f66045ec)</title></circle>
<circle cx="5.0730" cy="12.2040" r="0.1000"><title>1796 entries @ 2025-04-09 13:51:47 +0800
(commit 488f6b8edcfae4aeb69979525beebdbf45582996)</title></circle>
<circle cx="4.9988" cy="12.2100" r="0.1000"><title>1790 entries @ 2025-03-31 02:11:15 +0800
(commit ae7ecf95565840b5a91610fd2ce46fcf5f264b1d)</title></circle>
<circle cx="4.9276" cy="12.2160" r="0.1000"><title>1784 entries @ 2025-03-21 23:46:15 +0800
(commit 52940ff31c15ae5e3a90a37474997ec64de24fa0)</title></circle>
<circle cx="4.8878" cy="12.2190" r="0.1000"><title>1781 entries @ 2025-03-16 21:46:29 +0800
(commit b71cdae28122b9c6b1e6f54f497ee8e0895e72e6)</title></circle>
<circle cx="4.8575" cy="12.2200" r="0.1000"><title>1780 entries @ 2025-03-13 00:53:42 +0800
(commit 5fe0d7d58d6dc69defc6a0401a16939a4187243e)</title></circle>
<circle cx="4.8413" cy="12.2240" r="0.1000"><title>1776 entries @ 2025-03-10 22:53:58 +0800
(commit 4333164f63cf34e473ecf2e570165987cd35492f)</title></circle>
<circle cx="4.7398" cy="12.2230" r="0.1000"><title>1777 entries @ 2025-02-25 23:41:31 +0800
(commit fc8bf355c1d3bdaa4713dc72583c5900629f8339)</title></circle>
<circle cx="4.6856" cy="12.2240" r="0.1000"><title>1776 entries @ 2025-02-19 01:12:41 +0800
(commit ebb18795e2c84cd05fd2e3c90a70e301f2b33333)</title></circle>
<circle cx="4.6388" cy="12.2230" r="0.1000"><title>1777 entries @ 2025-02-13 01:35:16 +0800
(commit 5c80ccfe58042a4b45c22611ee9332bf7b1a5efa)</title></circle>
<circle cx="4.5917" cy="12.2290" r="0.1000"><title>1771 entries @ 2025-02-07 01:04:24 +0800
(commit 9ec76988faadcf4d6375b4bb2134b224aa437563)</title></circle>
<circle cx="4.5443" cy="12.2360" r="0.1000"><title>1764 entries @ 2025-01-31 23:42:25 +0800
(commit 52940a177245454541bb36c54e4801b7e11ffc94)</title></circle>
<circle cx="4.4662" cy="12.2370" r="0.1000"><title>1763 entries @ 2025-01-22 00:07:04 +0800
(commit b2be096ef292f0aa5c40c96a3c6c65d8e92f9c47)</title></circle>
<circle cx="4.4480" cy="12.2380" r="0.1000"><title>1762 entries @ 2025-01-19 16:18:04 +0800
(commit 114ca47945755f75a0b580c6ba63e1816bdfb9f6)</title></circle>
<circle cx="4.3612" cy="12.2360" r="0.1000"><title>1764 entries @ 2025-01-08 13:59:55 +0800
(commit 4ea1de4e158531a576c4e90e58da52daa61ca770)</title></circle>
<circle cx="4.2945" cy="12.2340" r="0.1000"><title>1766 entries @ 2024-12-31 01:22:40 +0800
(commit 90322901f74b035533b866fd9fde76ee36ac8a5b)</title></circle>
<circle cx="4.2281" cy="12.2290" r="0.1000"><title>1771 entries @ 2024-12-22 13:22:05 +0800
(commit e05d0439866d54f3a803d4aa82d607d36bdd8e43)</title></circle>
<circle cx="4.1844" cy="12.2320" r="0.1000"><title>1768 entries @ 2024-12-16 23:16:40 +0800
(commit ca2dff827b63f48f922f9f2f1b532582d0f7b365)</title></circle>
<circle cx="4.1536" cy="12.2330" r="0.1000"><title>1767 entries @ 2024-12-13 00:47:56 +0800
(commit 6074d28b4cb97e50aed6bd8c412f947c0b0f551a)</title></circle>
<circle cx="4.1063" cy="12.2360" r="0.1000"><title>1764 entries @ 2024-12-06 23:45:58 +0800
(commit d5c02889d681603688bfc9e64a30049904d91ac0)</title></circle>
<circle cx="4.0824" cy="12.2400" r="0.1000"><title>1760 entries @ 2024-12-03 22:29:46 +0800
(commit 9613003c35b1ac91a4dcf7f4e70192a318fc61bb)</title></circle>
<circle cx="4.0667" cy="12.2450" r="0.1000"><title>1755 entries @ 2024-12-01 22:07:43 +0800
(commit 06567b5a681f8e8736ae81e875cc9e228fc5540a)</title></circle>
<circle cx="4.0121" cy="12.2780" r="0.1000"><title>1722 entries @ 2024-11-24 22:44:46 +0800
(commit 272f5227fd735b53dd81c228350f563362cee2c4)</title></circle>
<circle cx="3.8795" cy="12.3280" r="0.1000"><title>1672 entries @ 2024-11-07 23:49:26 +0800
(commit d5de53103b93242624bc2176f9fa569ed46d1c2a)</title></circle>
<circle cx="3.6865" cy="12.3710" r="0.1000"><title>1629 entries @ 2024-10-14 07:45:02 +0800
(commit 57fba6ec38d0c0bc37463246793a0a6967892d8f)</title></circle>
<circle cx="3.6269" cy="12.4100" r="0.1000"><title>1590 entries @ 2024-10-06 16:40:28 +0800
(commit c0fadc4c1549ffb692e7fb0df68ca83f18dd241b)</title></circle>
<circle cx="3.6141" cy="12.4100" r="0.1000"><title>1590 entries @ 2024-10-05 01:21:46 +0800
(commit 062ab4fcc100b7c05e454f3024dcd17ab48bfff1)</title></circle>
<circle cx="3.5660" cy="12.4370" r="0.1000"><title>1563 entries @ 2024-09-28 22:01:02 +0800
(commit 8467fd3953c1d9e1c0a6dff5c55393f7a9f2ebb2)</title></circle>
<circle cx="3.5354" cy="12.4940" r="0.1000"><title>1506 entries @ 2024-09-25 00:09:30 +0800
(commit 82e289a71ee40843995054d6e942315caad8ba78)</title></circle>
<circle cx="3.4728" cy="12.5510" r="0.1000"><title>1449 entries @ 2024-09-17 00:01:55 +0800
(commit 9949bf77cc200984cce8d12a037eff89f5aa7dd0)</title></circle>
<circle cx="3.3004" cy="12.6070" r="0.1000"><title>1393 entries @ 2024-08-25 22:54:55 +0800
(commit 76f09552ef4e3dc8da24406022f821ded81b2ba9)</title></circle>
<circle cx="3.0499" cy="12.6580" r="0.1000"><title>1342 entries @ 2024-07-24 22:22:19 +0800
(commit 99e278d0ed9ad176a142cec50e01b6e56da4e98d)</title></circle>
<circle cx="2.9798" cy="12.7060" r="0.1000"><title>1294 entries @ 2024-07-15 23:04:28 +0800
(commit f2ce2ec731a93461833d02789e40f1303b54b718)</title></circle>
<circle cx="2.9490" cy="12.7210" r="0.1000"><title>1279 entries @ 2024-07-12 00:49:48 +0800
(commit 099b5ad309c2a5a6d96ad27d88d509bdb91fef02)</title></circle>
<circle cx="2.8782" cy="12.7680" r="0.1000"><title>1232 entries @ 2024-07-02 23:36:23 +0800
(commit 45cf7af692d5940091052cc9d6877fcf4a16d82b)</title></circle>
<circle cx="2.6825" cy="12.8260" r="0.1000"><title>1174 entries @ 2024-06-07 23:03:32 +0800
(commit 1b0dd08504d2486db91c252de8e041a7324d6d17)</title></circle>
<circle cx="2.5578" cy="12.8790" r="0.1000"><title>1121 entries @ 2024-05-23 00:23:25 +0800
(commit c773d77f21b3be7eddbdc58342d53311b6e1a417)</title></circle>
<circle cx="2.5032" cy="12.9380" r="0.1000"><title>1062 entries @ 2024-05-16 00:49:47 +0800
(commit 8adb9e30cb7f1b3a0784f86a53a6c5c74f0ca43a)</title></circle>
<circle cx="2.4403" cy="12.9970" r="0.1000"><title>1003 entries @ 2024-05-07 23:41:01 +0800
(commit 2ebb144613d7d9fe28ce4ec4c8a1bde825cbd830)</title></circle>
<circle cx="2.4216" cy="13.0120" r="0.1000"><title>988 entries @ 2024-05-05 14:26:43 +0800
(commit d11026745f7a46d20d2c61772ffd06dc9500bd77)</title></circle>
<circle cx="2.3447" cy="13.0670" r="0.1000"><title>933 entries @ 2024-04-25 18:32:11 +0800
(commit ac000cb78339ffb8e26b90da007b5f41933cad86)</title></circle>
<circle cx="2.2685" cy="13.1330" r="0.1000"><title>867 entries @ 2024-04-16 00:34:01 +0800
(commit 2d562853896cc77a29d7d176bd543220cbe4f147)</title></circle>
<circle cx="2.2216" cy="13.1940" r="0.1000"><title>806 entries @ 2024-04-10 00:37:11 +0800
(commit c78118d4421d2a15520272804844e24012476562)</title></circle>
<circle cx="2.1508" cy="13.2490" r="0.1000"><title>751 entries @ 2024-03-31 23:33:05 +0800
(commit 88e2a2021b704855dd913880ee8afc6ea6e87041)</title></circle>
<circle cx="2.0096" cy="13.3120" r="0.1000"><title>688 entries @ 2024-03-13 22:11:31 +0800
(commit 9eac2d7245f4f0102ac4648e8c9a81ab070803e3)</title></circle>
<circle cx="1.8735" cy="13.3590" r="0.1000"><title>641 entries @ 2024-02-25 12:40:01 +0800
(commit 6d2fddd2fa165884ac7737cb96df04fd92953a8a)</title></circle>
<circle cx="1.7602" cy="13.4060" r="0.1000"><title>594 entries @ 2024-02-11 01:07:43 +0800
(commit a065d7648c91a2bb8623b31f1c66a30a4e413194)</title></circle>
<circle cx="1.7093" cy="13.4640" r="0.1000"><title>536 entries @ 2024-02-04 12:52:56 +0800
(commit 1fd62dceb38c5ddb347fe2c2e8cbcce9362e609d)</title></circle>
<circle cx="1.6482" cy="13.5200" r="0.1000"><title>480 entries @ 2024-01-27 17:26:40 +0800
(commit 3d8671d3241170ac06d8fcac3be69af1e5e67484)</title></circle>
<circle cx="1.6092" cy="13.5560" r="0.1000"><title>444 entries @ 2024-01-22 17:47:04 +0800
(commit 05589822a4d326e5b1d6a464ad8a32f1d9902511)</title></circle>
<circle cx="1.5719" cy="13.6010" r="0.1000"><title>399 entries @ 2024-01-17 23:08:53 +0800
(commit 59cfb7caa7e8982fc029ab39347e59c9a48dfcba)</title></circle>
<circle cx="1.5091" cy="13.6480" r="0.1000"><title>352 entries @ 2024-01-09 22:30:07 +0800
(commit 84659488951bd0e50b9e713674484d1199dcd239)</title></circle>
<circle cx="1.4764" cy="13.6500" r="0.1000"><title>350 entries @ 2024-01-05 18:03:03 +0800
(commit a34fa3a2c6cb62063228356dcb80b748d65cb4fb)</title></circle>
<circle cx="1.4625" cy="13.6770" r="0.1000"><title>323 entries @ 2024-01-03 23:30:53 +0800
(commit c4957300a441929c81b05d100edaaf77c3e2ce77)</title></circle>
<circle cx="1.4256" cy="13.7130" r="0.1000"><title>287 entries @ 2023-12-30 06:25:55 +0800
(commit 50ec0d33ad89033782bb9c3d2b3a233882464512)</title></circle>
<circle cx="1.4075" cy="13.7140" r="0.1000"><title>286 entries @ 2023-12-27 22:51:32 +0800
(commit c33545aa7608f7971ddc8accc815471f316ef305)</title></circle>
<circle cx="1.3687" cy="13.7700" r="0.1000"><title>230 entries @ 2023-12-22 23:34:43 +0800
(commit 32c3c73999df2a42539d9ff026f5fc030eedfd68)</title></circle>
<circle cx="1.0717" cy="13.8240" r="0.1000"><title>176 entries @ 2023-11-15 00:24:08 +0800
(commit f6f8fa623d4a56e9055420679d967fc40af65502)</title></circle>
<circle cx="0.5947" cy="13.8730" r="0.1000"><title>127 entries @ 2023-09-15 00:55:17 +0800
(commit f1765f216361a8cb1a50d7057b927c61b717dbcc)</title></circle>
<circle cx="0.3744" cy="13.9000" r="0.1000"><title>100 entries @ 2023-08-17 20:56:04 +0800
(commit 7ba4ba153d5c1aaeccaddc19ca5a5036dc67d2a1)</title></circle>
<circle cx="0.3363" cy="13.9330" r="0.1000"><title>67 entries @ 2023-08-12 23:49:56 +0800
(commit b2d371d348f6b127c9fd21020f20bc6b31fe51d1)</title></circle>
<circle cx="0.2974" cy="13.9560" r="0.1000"><title>44 entries @ 2023-08-08 00:32:48 +0800
(commit baf75b68ee533527d3ce8e4be8e7acc9dd14e7c9)</title></circle>
<circle cx="0.2821" cy="13.9620" r="0.1000"><title>38 entries @ 2023-08-06 01:30:27 +0800
(commit 0c978ce0907d84a4769fc7f6126a5bd1b94312eb)</title></circle>
<circle cx="0.2816" cy="13.9620" r="0.1000"><title>38 entries @ 2023-08-06 00:05:38 +0800
(commit 666452c1c1100d8932b786ee6e142259b6c0d0b8)</title></circle>
<circle cx="0.2812" cy="13.9620" r="0.1000"><title>38 entries @ 2023-08-05 22:49:52 +0800
(commit 362b690a00cdf2ffc4142b8fa29fdb5da243c930)</title></circle>
<circle cx="0.2801" cy="13.9620" r="0.1000"><title>38 entries @ 2023-08-05 19:29:06 +0800
(commit 49811de6ad611e4d5cb146292493984e1cfa2cad)</title></circle>
<circle cx="0.2797" cy="13.9620" r="0.1000"><title>38 entries @ 2023-08-05 18:23:01 +0800
(commit 64f67ca485c0985c804c2e47844f9620c9900afb)</title></circle>
<circle cx="0.2793" cy="13.9620" r="0.1000"><title>38 entries @ 2023-08-05 17:09:20 +0800
(commit eb4a1254bce3e5760e2e7ca656fdb65f7a9e85ff)</title></circle>
<circle cx="0.2739" cy="13.9620" r="0.1000"><title>38 entries @ 2023-08-05 00:27:01 +0800
(commit 03b9af9b4f968cfe3879f49b11abd32aa23393ee)</title></circle>
<circle cx="0.2734" cy="13.9620" r="0.1000"><title>38 entries @ 2023-08-04 22:49:51 +0800
(commit b9653074790a6be6f52ed0fe973c38c31053c71e)</title></circle>
<circle cx="0.2653" cy="13.9620" r="0.1000"><title>38 entries @ 2023-08-03 22:05:06 +0800
(commit c545c5c5e486ac093a0053516dfb2444da133829)</title></circle>
<circle cx="0.2576" cy="13.9620" r="0.1000"><title>38 entries @ 2023-08-02 22:17:56 +0800
(commit c05b35939f018f633fe25187e6bc79391354969f)</title></circle>
<circle cx="0.2347" cy="13.9620" r="0.1000"><title>38 entries @ 2023-07-31 00:08:03 +0800
(commit 526ce07de3433a854f8abad188785ebd1ce84040)</title></circle>
<circle cx="0.2236" cy="13.9740" r="0.1000"><title>26 entries @ 2023-07-29 14:08:17 +0800
(commit 9312fff0576bcf86bdc589255bb58e83cda1e5d8)</title></circle>
<circle cx="0.1795" cy="13.9740" r="0.1000"><title>26 entries @ 2023-07-23 22:42:58 +0800
(commit 4b45e52807b23e75543460a90baf56e2e3b15c84)</title></circle>
<circle cx="0.1642" cy="13.9850" r="0.1000"><title>15 entries @ 2023-07-21 23:46:38 +0800
(commit 84b7dafbedda4ea3ce7b4a56b76977bb6ffc3e2c)</title></circle>
<circle cx="0.1568" cy="13.9900" r="0.1000"><title>10 entries @ 2023-07-21 01:08:32 +0800
(commit 938a0780b52a4fdaa7c2168b968da95b3211a450)</title></circle>
<circle cx="0.1557" cy="14.0000" r="0.1000"><title>0 entries @ 2023-07-20 21:39:40 +0800
(commit 263685863f91821c9cefca68e1899910e88be118)</title></circle>
</svg>
