<?xml version="1.0" encoding="UTF-8"?>
<svg viewBox="-6 -4 28 22" width="960px" xmlns="http://www.w3.org/2000/svg">
<style>
circle:hover {fill: #cf1338}
circle {fill: black}
line, polyline {stroke: black; stroke-width: 0.1042%}polyline {stroke: #cf1338}line.projected {stroke: blue; stroke-dasharray: 1.0417%}
polyline {fill: none}text {font-family: sans-serif; font-size: 1px; text-anchor: middle}
text.projected {fill: blue; font-size: 0.7px}
text.tick {font-size: 0.7px}
text.title {fill: #cf1338; font-size: 1.1px}
</style>
<text class="title" x="8.0000" y="-2.0000">Conway's Cantonese Dictionary: Progress</text><line x1="0.0000" y1="14.0000" x2="20.0000" y2="14.0000"/>
<text x="10.0000" y="14.0000" dy="3em">Time</text>
<line x1="1.4392" y1="14.0000" x2="1.4392" y2="14.2000"/>
<text class="tick" x="1.4392" y="14.2000" dy="1.3em">2024</text>
<line x1="4.3019" y1="14.0000" x2="4.3019" y2="14.2000"/>
<text class="tick" x="4.3019" y="14.2000" dy="1.3em">2025</text>
<line x1="7.1568" y1="14.0000" x2="7.1568" y2="14.2000"/>
<text class="tick" x="7.1568" y="14.2000" dy="1.3em">2026</text>
<line x1="10.0117" y1="14.0000" x2="10.0117" y2="14.2000"/>
<text class="tick" x="10.0117" y="14.2000" dy="1.3em">2027</text>
<line x1="12.8666" y1="14.0000" x2="12.8666" y2="14.2000"/>
<text class="tick" x="12.8666" y="14.2000" dy="1.3em">2028</text>
<line x1="15.7294" y1="14.0000" x2="15.7294" y2="14.2000"/>
<text class="tick" x="15.7294" y="14.2000" dy="1.3em">2029</text>
<line x1="18.5843" y1="14.0000" x2="18.5843" y2="14.2000"/>
<text class="tick" x="18.5843" y="14.2000" dy="1.3em">2030</text>
<line x1="0.0000" y1="14.0000" x2="0.0000" y2="0.0000"/>
<text x="0.0000" y="7.0000" dy="-4em" transform="rotate(-90 0.0000 7.0000)">Entry Count</text>
<line x1="0.0000" y1="12.0000" x2="-0.2000" y2="12.0000"/>
<text class="tick" x="-0.2000" y="12.0000" dx="-2em" dy="0.33em">2000</text>
<line x1="0.0000" y1="10.0000" x2="-0.2000" y2="10.0000"/>
<text class="tick" x="-0.2000" y="10.0000" dx="-2em" dy="0.33em">4000</text>
<line x1="0.0000" y1="8.0000" x2="-0.2000" y2="8.0000"/>
<text class="tick" x="-0.2000" y="8.0000" dx="-2em" dy="0.33em">6000</text>
<line x1="0.0000" y1="6.0000" x2="-0.2000" y2="6.0000"/>
<text class="tick" x="-0.2000" y="6.0000" dx="-2em" dy="0.33em">8000</text>
<line x1="0.0000" y1="4.0000" x2="-0.2000" y2="4.0000"/>
<text class="tick" x="-0.2000" y="4.0000" dx="-2em" dy="0.33em">10000</text>
<line x1="0.0000" y1="2.0000" x2="-0.2000" y2="2.0000"/>
<text class="tick" x="-0.2000" y="2.0000" dx="-2em" dy="0.33em">12000</text>
<line class="projected" x1="0.0000" y1="1.1699" x2="20.0000" y2="1.1699"/>
<text class="projected" x="10.0000" y="1.1699" dy="-0.5em">Projected Total: 12830.1 entries</text>
<polyline points="8.6897,11.4580 8.6429,11.4720 8.5333,11.5120 8.3922,11.5570 8.1970,11.6160 7.9928,11.6530 7.8894,11.6630 7.8064,11.6640 7.6708,11.6720 7.5399,11.6800 7.1386,11.6870 6.9920,11.6880 6.8597,11.7190 6.8421,11.7420 6.7738,11.7700 6.7428,11.7900 6.7268,11.7900 6.6918,11.7960 6.6642,11.8000 6.6404,11.8000 6.5760,11.8570 6.4522,11.9220 6.2536,11.9710 6.1672,12.0320 6.0990,12.1010 5.9757,12.1540 5.8706,12.1820 5.7563,12.1920 5.6360,12.1990 5.0836,12.2030 5.0064,12.2090 4.9279,12.2150 4.8877,12.2200 4.8553,12.2200 4.8407,12.2240 4.7248,12.2230 4.6698,12.2240 4.6219,12.2260 4.5819,12.2300 4.5135,12.2360 4.4507,12.2370 4.4111,12.2390 4.3236,12.2330 4.2316,12.2330 4.1924,12.2300 4.1756,12.2330 4.1214,12.2360 4.0828,12.2370 4.0669,12.2450 4.0123,12.2780 3.8794,12.3290 3.6758,12.3730 3.6174,12.4100 3.6137,12.4100 3.5587,12.4500 3.5254,12.5140 3.4487,12.5720 3.0896,12.6290 3.0264,12.6810 2.9717,12.7090 2.9167,12.7470 2.8311,12.8070 2.5870,12.8610 2.5319,12.9280 2.4561,12.9870 2.4218,13.0120 2.3461,13.0600 2.2760,13.1310 2.2215,13.1940 2.1429,13.2520 1.9942,13.3200 1.8299,13.3640 1.7523,13.4220 1.6973,13.4850 1.6254,13.5320 1.5880,13.5720 1.5555,13.6190 1.4780,13.6500 1.4693,13.6560 1.4365,13.7120 1.4164,13.7140 1.3769,13.7570 1.1725,13.8130 0.6256,13.8680 0.3751,13.8970 0.3364,13.9320 0.2973,13.9560 0.2820,13.9620 0.2815,13.9620 0.2811,13.9620 0.2800,13.9620 0.2796,13.9620 0.2791,13.9620 0.2737,13.9620 0.2731,13.9620 0.2579,13.9620 0.2508,13.9620 0.2318,13.9630 0.1953,13.9740 0.1695,13.9780 0.1570,13.9900 0.1557,14.0000"/>
<circle cx="8.6897" cy="11.4580" r="0.1000"><title>2542 entries @ 2026-07-15 23:29:29 +0800
(commit f1ccc264715efbfc7ed48c5a8b66ef21446c6491)</title></circle>
<circle cx="8.6429" cy="11.4720" r="0.1000"><title>2528 entries @ 2026-07-09 23:47:57 +0800
(commit 063b6e8e73b967b64e6679540db486df996e58f0)</title></circle>
<circle cx="8.5333" cy="11.5120" r="0.1000"><title>2488 entries @ 2026-06-25 23:37:53 +0800
(commit 454e95ee73cb8c15ab631278ffa74410ff5922b3)</title></circle>
<circle cx="8.3922" cy="11.5570" r="0.1000"><title>2443 entries @ 2026-06-07 22:41:28 +0800
(commit 514efa26834261f068f004a5d5e6083f556d101d)</title></circle>
<circle cx="8.1970" cy="11.6160" r="0.1000"><title>2384 entries @ 2026-05-13 23:35:04 +0800
(commit 976621e9fc55b2089fdefd4d616a044db060330a)</title></circle>
<circle cx="7.9928" cy="11.6530" r="0.1000"><title>2347 entries @ 2026-04-17 21:10:56 +0800
(commit 8799ee95b90bded6e902242ef30586310a587c1a)</title></circle>
<circle cx="7.8894" cy="11.6630" r="0.1000"><title>2337 entries @ 2026-04-04 15:55:21 +0800
(commit 455a9df0f3854491b2e11075f7f6b4e5b2768555)</title></circle>
<circle cx="7.8064" cy="11.6640" r="0.1000"><title>2336 entries @ 2026-03-25 01:08:54 +0800
(commit 593635814fc9fd7b1e5c9b97f75abaa24d597dc9)</title></circle>
<circle cx="7.6708" cy="11.6720" r="0.1000"><title>2328 entries @ 2026-03-07 17:05:10 +0800
(commit 152ef68f87707f62a5088c74a30dd99f3c76fc68)</title></circle>
<circle cx="7.5399" cy="11.6800" r="0.1000"><title>2320 entries @ 2026-02-18 23:23:58 +0800
(commit 6b26dd8b766ca10277a6f064762cbe21e0c3ec8d)</title></circle>
<circle cx="7.1386" cy="11.6870" r="0.1000"><title>2313 entries @ 2025-12-29 15:59:41 +0800
(commit 4cf98828272d085a5bb9c5e8e3f9a3da2c417810)</title></circle>
<circle cx="6.9920" cy="11.6880" r="0.1000"><title>2312 entries @ 2025-12-10 22:21:18 +0800
(commit 2429a1519e64e3435d8accaa8bf18ec08565c1b2)</title></circle>
<circle cx="6.8597" cy="11.7190" r="0.1000"><title>2281 entries @ 2025-11-24 00:22:04 +0800
(commit 12a33064a18bf8c0ed56167afea216657f2c198f)</title></circle>
<circle cx="6.8421" cy="11.7420" r="0.1000"><title>2258 entries @ 2025-11-21 18:19:03 +0800
(commit 5de87325f0881fc9f18788436d2fcc2ce1be40cb)</title></circle>
<circle cx="6.7738" cy="11.7700" r="0.1000"><title>2230 entries @ 2025-11-13 00:47:53 +0800
(commit fbbc7625b99fc85e940187f01f322086b945518e)</title></circle>
<circle cx="6.7428" cy="11.7900" r="0.1000"><title>2210 entries @ 2025-11-09 01:28:43 +0800
(commit 35264ee16c72da02cafd9a30676945199916e13d)</title></circle>
<circle cx="6.7268" cy="11.7900" r="0.1000"><title>2210 entries @ 2025-11-07 00:27:28 +0800
(commit 2b239cae1aa0da5f2a06bc514d5b8f53a179cd67)</title></circle>
<circle cx="6.6918" cy="11.7960" r="0.1000"><title>2204 entries @ 2025-11-02 13:00:30 +0800
(commit d5792bf40095dbfe70edea17985f9de1bc85670e)</title></circle>
<circle cx="6.6642" cy="11.8000" r="0.1000"><title>2200 entries @ 2025-10-30 00:17:33 +0800
(commit 3de6c927d90753543ee971d0d3fa969ca2cb66c2)</title></circle>
<circle cx="6.6404" cy="11.8000" r="0.1000"><title>2200 entries @ 2025-10-26 23:24:12 +0800
(commit c7ae7dfbc8927dc90739210e262218f810f4e01f)</title></circle>
<circle cx="6.5760" cy="11.8570" r="0.1000"><title>2143 entries @ 2025-10-18 17:53:56 +0800
(commit ec65fe435d6326d8e9f568df125d576c5c9bc15e)</title></circle>
<circle cx="6.4522" cy="11.9220" r="0.1000"><title>2078 entries @ 2025-10-02 22:01:12 +0800
(commit d256e81393005ac7e6e5f573b1cbe55b97fd8570)</title></circle>
<circle cx="6.2536" cy="11.9710" r="0.1000"><title>2029 entries @ 2025-09-07 12:23:36 +0800
(commit 99791003bcce85565c2c90eb7a1f32246376c32d)</title></circle>
<circle cx="6.1672" cy="12.0320" r="0.1000"><title>1968 entries @ 2025-08-27 11:23:09 +0800
(commit e1b47fab0c7051ef22f702065a557ff7579586d1)</title></circle>
<circle cx="6.0990" cy="12.1010" r="0.1000"><title>1899 entries @ 2025-08-18 18:02:13 +0800
(commit b838ba2583786ec1eb17a3ea443aa58c0f5a9edb)</title></circle>
<circle cx="5.9757" cy="12.1540" r="0.1000"><title>1846 entries @ 2025-08-02 23:41:54 +0800
(commit 952e0304b59a4716015976a1a1280b1b1d93e0fb)</title></circle>
<circle cx="5.8706" cy="12.1820" r="0.1000"><title>1818 entries @ 2025-07-20 13:14:58 +0800
(commit 58b56e8d19ac2800202265c6dc7456c54911300b)</title></circle>
<circle cx="5.7563" cy="12.1920" r="0.1000"><title>1808 entries @ 2025-07-05 22:44:15 +0800
(commit c9a569165a1f2bdc8ee265e2dde74620111b963a)</title></circle>
<circle cx="5.6360" cy="12.1990" r="0.1000"><title>1801 entries @ 2025-06-20 13:39:11 +0800
(commit bdc37c2481ae779780bc7fb9d22f750ab037f0b4)</title></circle>
<circle cx="5.0836" cy="12.2030" r="0.1000"><title>1797 entries @ 2025-04-10 22:26:34 +0800
(commit 4ca9adb8242ee0090abb111fc23d5309c58c6682)</title></circle>
<circle cx="5.0064" cy="12.2090" r="0.1000"><title>1791 entries @ 2025-04-01 01:41:21 +0800
(commit f63917ea09235935f6902dcf46ff3b2f6d8f0838)</title></circle>
<circle cx="4.9279" cy="12.2150" r="0.1000"><title>1785 entries @ 2025-03-22 00:45:55 +0800
(commit cd870ebaf9de2837ce15ee4b2ad301dd3234439a)</title></circle>
<circle cx="4.8877" cy="12.2200" r="0.1000"><title>1780 entries @ 2025-03-16 21:32:04 +0800
(commit 9d6bd9b8d69621bd847b1452d51c6d290865aa68)</title></circle>
<circle cx="4.8553" cy="12.2200" r="0.1000"><title>1780 entries @ 2025-03-12 17:51:14 +0800
(commit 8655a355c215a592c44372610ab9da38d0695cf8)</title></circle>
<circle cx="4.8407" cy="12.2240" r="0.1000"><title>1776 entries @ 2025-03-10 21:06:56 +0800
(commit 52b907f31a97283f8ba26930714d9b8eca2ce9b6)</title></circle>
<circle cx="4.7248" cy="12.2230" r="0.1000"><title>1777 entries @ 2025-02-24 01:29:50 +0800
(commit 962b00a7b9f508b8a4eda084493ad6fd52351ae1)</title></circle>
<circle cx="4.6698" cy="12.2240" r="0.1000"><title>1776 entries @ 2025-02-17 00:44:26 +0800
(commit 402ee8f6ba0e48b3a18005b4c31c5fc5f3e99a35)</title></circle>
<circle cx="4.6219" cy="12.2260" r="0.1000"><title>1774 entries @ 2025-02-10 21:50:23 +0800
(commit 964fed8b66ba00f879a6bcc7f9ee675bcac75d0f)</title></circle>
<circle cx="4.5819" cy="12.2300" r="0.1000"><title>1770 entries @ 2025-02-05 19:06:59 +0800
(commit 354d5422965d46a8e712c8cb6d9ead22ec135e06)</title></circle>
<circle cx="4.5135" cy="12.2360" r="0.1000"><title>1764 entries @ 2025-01-28 01:09:32 +0800
(commit b25e7ea363f15981069c7a351e00198e7145e7a4)</title></circle>
<circle cx="4.4507" cy="12.2370" r="0.1000"><title>1763 entries @ 2025-01-20 00:32:26 +0800
(commit fdb7ffa2d6ba66f10ee2952c00adc8df1d179815)</title></circle>
<circle cx="4.4111" cy="12.2390" r="0.1000"><title>1761 entries @ 2025-01-14 23:07:19 +0800
(commit 738c8213412f078e3109eba54ac85ec2f207ce18)</title></circle>
<circle cx="4.3236" cy="12.2330" r="0.1000"><title>1767 entries @ 2025-01-03 18:29:05 +0800
(commit 497895f41440d59e67fc6baf64d7ec5a49b11794)</title></circle>
<circle cx="4.2316" cy="12.2330" r="0.1000"><title>1767 entries @ 2024-12-23 00:09:52 +0800
(commit c5c8cb71e0af96463a64f41019a7e4be657f82c4)</title></circle>
<circle cx="4.1924" cy="12.2300" r="0.1000"><title>1770 entries @ 2024-12-17 23:57:34 +0800
(commit 069ce807926f0e075eb06abd3ae73889dbfe136d)</title></circle>
<circle cx="4.1756" cy="12.2330" r="0.1000"><title>1767 entries @ 2024-12-15 20:16:58 +0800
(commit 5516eeca810af8eae20e68368ffa2b9ce8ab1faf)</title></circle>
<circle cx="4.1214" cy="12.2360" r="0.1000"><title>1764 entries @ 2024-12-08 22:04:17 +0800
(commit dd69023525dac60c19450758592dc77c0553e83d)</title></circle>
<circle cx="4.0828" cy="12.2370" r="0.1000"><title>1763 entries @ 2024-12-03 23:43:14 +0800
(commit 7c5a87f877ad5ef596fb8bed2d86b788c2526c69)</title></circle>
<circle cx="4.0669" cy="12.2450" r="0.1000"><title>1755 entries @ 2024-12-01 22:59:41 +0800
(commit 553782099e8ddca22fb82ce1c13177539c79dcef)</title></circle>
<circle cx="4.0123" cy="12.2780" r="0.1000"><title>1722 entries @ 2024-11-24 23:16:08 +0800
(commit 30203f65ee28484c81be15b7d4cd29382f1d4c4d)</title></circle>
<circle cx="3.8794" cy="12.3290" r="0.1000"><title>1671 entries @ 2024-11-07 23:40:49 +0800
(commit 15eb4d058d6ccc498a065e3850e2e9fcadf0138d)</title></circle>
<circle cx="3.6758" cy="12.3730" r="0.1000"><title>1627 entries @ 2024-10-12 22:51:42 +0800
(commit a50bd9244b974c48e8a912233ea13493efb593e2)</title></circle>
<circle cx="3.6174" cy="12.4100" r="0.1000"><title>1590 entries @ 2024-10-05 11:37:50 +0800
(commit 7a1508030847c7954aaa5d95086c21adcc28ebff)</title></circle>
<circle cx="3.6137" cy="12.4100" r="0.1000"><title>1590 entries @ 2024-10-05 00:17:39 +0800
(commit 429cc3a83e46680961a260b113d06533ca9f8bb2)</title></circle>
<circle cx="3.5587" cy="12.4500" r="0.1000"><title>1550 entries @ 2024-09-27 23:32:37 +0800
(commit 648e8217b8d11fdc5b6d83c66a08319195b42284)</title></circle>
<circle cx="3.5254" cy="12.5140" r="0.1000"><title>1486 entries @ 2024-09-23 17:17:58 +0800
(commit ba8fdf0910e20ddb18656d56c41f5a07ccf4aa0d)</title></circle>
<circle cx="3.4487" cy="12.5720" r="0.1000"><title>1428 entries @ 2024-09-13 21:59:02 +0800
(commit b6143922da54f2c5bde8b7466122337e44f53cdb)</title></circle>
<circle cx="3.0896" cy="12.6290" r="0.1000"><title>1371 entries @ 2024-07-30 00:09:02 +0800
(commit 792142e5a5706e1727200bd595aa07c5f36975af)</title></circle>
<circle cx="3.0264" cy="12.6810" r="0.1000"><title>1319 entries @ 2024-07-21 22:20:27 +0800
(commit 69b812072f29cc6f64d0b3d09430ea8225398d89)</title></circle>
<circle cx="2.9717" cy="12.7090" r="0.1000"><title>1291 entries @ 2024-07-14 22:26:48 +0800
(commit 835e6b453b02ff79497cef13513ac86bc92379be)</title></circle>
<circle cx="2.9167" cy="12.7470" r="0.1000"><title>1253 entries @ 2024-07-07 21:35:07 +0800
(commit 22e772caf1d72699c346a788b88b38c68648a7b8)</title></circle>
<circle cx="2.8311" cy="12.8070" r="0.1000"><title>1193 entries @ 2024-06-26 23:04:37 +0800
(commit 8762997918da8cd63af7492782adb88c4e282846)</title></circle>
<circle cx="2.5870" cy="12.8610" r="0.1000"><title>1139 entries @ 2024-05-26 17:48:25 +0800
(commit c4a46c7b7c2391ccac79ad65c2012e7ea9521883)</title></circle>
<circle cx="2.5319" cy="12.9280" r="0.1000"><title>1072 entries @ 2024-05-19 17:00:10 +0800
(commit 4b695720915652aa8f94bc0fcd567c94600c104c)</title></circle>
<circle cx="2.4561" cy="12.9870" r="0.1000"><title>1013 entries @ 2024-05-10 00:19:15 +0800
(commit ecbe6f7ae943a069ce44772f267ddf1114fc5cc4)</title></circle>
<circle cx="2.4218" cy="13.0120" r="0.1000"><title>988 entries @ 2024-05-05 15:03:51 +0800
(commit 725dae7f25f173cf6fee48479bf481f1b5a706fe)</title></circle>
<circle cx="2.3461" cy="13.0600" r="0.1000"><title>940 entries @ 2024-04-25 22:52:04 +0800
(commit 8399d1188b2f720c6c05c69212c3d0daed21da87)</title></circle>
<circle cx="2.2760" cy="13.1310" r="0.1000"><title>869 entries @ 2024-04-16 23:33:49 +0800
(commit 0c2f21ee4537b58c74340e3d2dfbbbe06e6e73d2)</title></circle>
<circle cx="2.2215" cy="13.1940" r="0.1000"><title>806 entries @ 2024-04-10 00:36:03 +0800
(commit edfbf4b36aeca8ea1c535f5005161c6c4eeaad67)</title></circle>
<circle cx="2.1429" cy="13.2520" r="0.1000"><title>748 entries @ 2024-03-30 23:08:37 +0800
(commit 5e1bceae72b0317c9d6e6ce9b85cf6eb50b7634b)</title></circle>
<circle cx="1.9942" cy="13.3200" r="0.1000"><title>680 entries @ 2024-03-11 23:01:49 +0800
(commit cc61f1d7b1bcc9852c807a9d5e56991c99913a5e)</title></circle>
<circle cx="1.8299" cy="13.3640" r="0.1000"><title>636 entries @ 2024-02-19 22:53:53 +0800
(commit fbc0d5e60f150f54227636296dd41070ade7970a)</title></circle>
<circle cx="1.7523" cy="13.4220" r="0.1000"><title>578 entries @ 2024-02-10 00:47:34 +0800
(commit 05a37547b6a5501eeee864142964e33231ee1f2d)</title></circle>
<circle cx="1.6973" cy="13.4850" r="0.1000"><title>515 entries @ 2024-02-02 23:55:51 +0800
(commit a81d7f7b64de0cfc87d6d45d75a892055badf671)</title></circle>
<circle cx="1.6254" cy="13.5320" r="0.1000"><title>468 entries @ 2024-01-24 19:13:54 +0800
(commit 7806932b99f560f6d45de2bf573d29bc84cb6fca)</title></circle>
<circle cx="1.5880" cy="13.5720" r="0.1000"><title>428 entries @ 2024-01-20 00:40:24 +0800
(commit ac9de03afb26b22b1ec2957561f3ad5bca9b82c0)</title></circle>
<circle cx="1.5555" cy="13.6190" r="0.1000"><title>381 entries @ 2024-01-15 20:59:31 +0800
(commit a08e4fa5b380118ba4081f4eac762e3ad74bc776)</title></circle>
<circle cx="1.4780" cy="13.6500" r="0.1000"><title>350 entries @ 2024-01-05 22:56:34 +0800
(commit a8ffa477b8c986229c0418d4b1b608d6c3188fc1)</title></circle>
<circle cx="1.4693" cy="13.6560" r="0.1000"><title>344 entries @ 2024-01-04 20:24:50 +0800
(commit ae2fc824a028b25f4bfe955e5dbb5b146b84630c)</title></circle>
<circle cx="1.4365" cy="13.7120" r="0.1000"><title>288 entries @ 2023-12-31 15:38:25 +0800
(commit 541045c4ce6dd195e27cd3be054c7e5a200cdbc2)</title></circle>
<circle cx="1.4164" cy="13.7140" r="0.1000"><title>286 entries @ 2023-12-29 01:56:50 +0800
(commit 76ef097eac60004196e52b6285674c71efecc039)</title></circle>
<circle cx="1.3769" cy="13.7570" r="0.1000"><title>243 entries @ 2023-12-24 01:01:58 +0800
(commit 3ee7b51d12292db5acaa5b68738ceda57c46935c)</title></circle>
<circle cx="1.1725" cy="13.8130" r="0.1000"><title>187 entries @ 2023-11-27 21:45:10 +0800
(commit 75e4c57a354cd4707ab76fb428ae7e016152a268)</title></circle>
<circle cx="0.6256" cy="13.8680" r="0.1000"><title>132 entries @ 2023-09-18 23:30:13 +0800
(commit 5b9e32d5e825ff850cddd261e81dc09793022c79)</title></circle>
<circle cx="0.3751" cy="13.8970" r="0.1000"><title>103 entries @ 2023-08-17 22:53:16 +0800
(commit b4d0ebe431398417d6f59bbc2a42712e3c71d4eb)</title></circle>
<circle cx="0.3364" cy="13.9320" r="0.1000"><title>68 entries @ 2023-08-13 00:07:38 +0800
(commit 46b149f3522e5089e43bc1d36b7cd2419a78122b)</title></circle>
<circle cx="0.2973" cy="13.9560" r="0.1000"><title>44 entries @ 2023-08-08 00:19:37 +0800
(commit 41fca9d705174cc4eab65865f94a781abdb92fb4)</title></circle>
<circle cx="0.2820" cy="13.9620" r="0.1000"><title>38 entries @ 2023-08-06 01:18:22 +0800
(commit cf53fb0208186df3a17efb6c11eb37ae6685c3c2)</title></circle>
<circle cx="0.2815" cy="13.9620" r="0.1000"><title>38 entries @ 2023-08-05 23:51:11 +0800
(commit 5f08987dad0777552327764b619bb87babb9d91f)</title></circle>
<circle cx="0.2811" cy="13.9620" r="0.1000"><title>38 entries @ 2023-08-05 22:27:43 +0800
(commit 15521e7e06a6d5b74ef542a779aa5fd6917536c0)</title></circle>
<circle cx="0.2800" cy="13.9620" r="0.1000"><title>38 entries @ 2023-08-05 19:13:38 +0800
(commit 6505a24294a8260c80c6f611da8d7ef163bc2f8a)</title></circle>
<circle cx="0.2796" cy="13.9620" r="0.1000"><title>38 entries @ 2023-08-05 18:01:28 +0800
(commit 4973a4327271bd832b881e7c6293beb26ca5b819)</title></circle>
<circle cx="0.2791" cy="13.9620" r="0.1000"><title>38 entries @ 2023-08-05 16:27:44 +0800
(commit 01b2dc23f7f697ffd3548588d63e4fe01402c3c7)</title></circle>
<circle cx="0.2737" cy="13.9620" r="0.1000"><title>38 entries @ 2023-08-04 23:50:55 +0800
(commit 79e552c376bcc42ee964d76d7d7f1c7746562784)</title></circle>
<circle cx="0.2731" cy="13.9620" r="0.1000"><title>38 entries @ 2023-08-04 21:54:36 +0800
(commit 700b78bc6fc2863ab486a62f5298c9405442a004)</title></circle>
<circle cx="0.2579" cy="13.9620" r="0.1000"><title>38 entries @ 2023-08-02 23:24:12 +0800
(commit cb38c0b19f0b001004a6b79334361d5343b5d648)</title></circle>
<circle cx="0.2508" cy="13.9620" r="0.1000"><title>38 entries @ 2023-08-02 01:36:51 +0800
(commit 02b07f5db4b61d5f97c375396a003a0457bcf105)</title></circle>
<circle cx="0.2318" cy="13.9630" r="0.1000"><title>37 entries @ 2023-07-30 15:12:26 +0800
(commit b17403c9efcc1366751e81d65906a53b6158149a)</title></circle>
<circle cx="0.1953" cy="13.9740" r="0.1000"><title>26 entries @ 2023-07-25 23:17:03 +0800
(commit e63048efed96fa93c50610e62745d93aacfcadd6)</title></circle>
<circle cx="0.1695" cy="13.9780" r="0.1000"><title>22 entries @ 2023-07-22 16:02:46 +0800
(commit f52736ee16e71a753ce252f86efab6f59d1df456)</title></circle>
<circle cx="0.1570" cy="13.9900" r="0.1000"><title>10 entries @ 2023-07-21 01:50:40 +0800
(commit 2862289a9d9cd1905be69907e0ca13961e969449)</title></circle>
<circle cx="0.1557" cy="14.0000" r="0.1000"><title>0 entries @ 2023-07-20 21:39:40 +0800
(commit 263685863f91821c9cefca68e1899910e88be118)</title></circle>
</svg>
