<?xml version="1.0" encoding="UTF-8"?>
<svg viewBox="-6 -4 28 22" width="960px" xmlns="http://www.w3.org/2000/svg">
<style>
circle:hover {fill: #cf1338}
circle {fill: black}
line, polyline {stroke: black; stroke-width: 0.1042%}polyline {stroke: #cf1338}line.target {stroke: blue; stroke-dasharray: 1.0417%}
polyline {fill: none}text {font-family: sans-serif; font-size: 1px; text-anchor: middle}
text.target {fill: blue; font-size: 0.7px}
text.tick {font-size: 0.7px}
text.title {fill: #cf1338; font-size: 1.1px}
</style>
<text class="title" x="8.0000" y="-2.0000">Conway's Cantonese Dictionary: Progress</text><line x1="0.0000" y1="14.0000" x2="20.0000" y2="14.0000"/>
<text x="10.0000" y="14.0000" dy="3em">Time</text>
<line x1="1.4392" y1="14.0000" x2="1.4392" y2="14.2000"/>
<text class="tick" x="1.4392" y="14.2000" dy="1.3em">2024</text>
<line x1="4.3019" y1="14.0000" x2="4.3019" y2="14.2000"/>
<text class="tick" x="4.3019" y="14.2000" dy="1.3em">2025</text>
<line x1="7.1568" y1="14.0000" x2="7.1568" y2="14.2000"/>
<text class="tick" x="7.1568" y="14.2000" dy="1.3em">2026</text>
<line x1="10.0117" y1="14.0000" x2="10.0117" y2="14.2000"/>
<text class="tick" x="10.0117" y="14.2000" dy="1.3em">2027</text>
<line x1="12.8666" y1="14.0000" x2="12.8666" y2="14.2000"/>
<text class="tick" x="12.8666" y="14.2000" dy="1.3em">2028</text>
<line x1="15.7294" y1="14.0000" x2="15.7294" y2="14.2000"/>
<text class="tick" x="15.7294" y="14.2000" dy="1.3em">2029</text>
<line x1="18.5843" y1="14.0000" x2="18.5843" y2="14.2000"/>
<text class="tick" x="18.5843" y="14.2000" dy="1.3em">2030</text>
<line x1="0.0000" y1="14.0000" x2="0.0000" y2="0.0000"/>
<text x="0.0000" y="7.0000" dy="-4em" transform="rotate(-90 0.0000 7.0000)">Entry Count</text>
<line x1="0.0000" y1="12.0000" x2="-0.2000" y2="12.0000"/>
<text class="tick" x="-0.2000" y="12.0000" dx="-2em" dy="0.33em">2000</text>
<line x1="0.0000" y1="10.0000" x2="-0.2000" y2="10.0000"/>
<text class="tick" x="-0.2000" y="10.0000" dx="-2em" dy="0.33em">4000</text>
<line x1="0.0000" y1="8.0000" x2="-0.2000" y2="8.0000"/>
<text class="tick" x="-0.2000" y="8.0000" dx="-2em" dy="0.33em">6000</text>
<line x1="0.0000" y1="6.0000" x2="-0.2000" y2="6.0000"/>
<text class="tick" x="-0.2000" y="6.0000" dx="-2em" dy="0.33em">8000</text>
<line x1="0.0000" y1="4.0000" x2="-0.2000" y2="4.0000"/>
<text class="tick" x="-0.2000" y="4.0000" dx="-2em" dy="0.33em">10000</text>
<line x1="0.0000" y1="2.0000" x2="-0.2000" y2="2.0000"/>
<text class="tick" x="-0.2000" y="2.0000" dx="-2em" dy="0.33em">12000</text>
<line class="target" x1="0.0000" y1="1.0000" x2="20.0000" y2="1.0000"/>
<text class="target" x="10.0000" y="1.0000" dy="-0.5em">Approximate Target: 13000 entries</text>
<polyline points="8.2185,11.6030 8.0482,11.6500 7.8925,11.6610 7.8339,11.6640 7.7357,11.6690 7.6108,11.6790 7.2275,11.6830 7.0235,11.6880 6.8736,11.7080 6.8589,11.7200 6.8108,11.7570 6.7581,11.7850 6.7414,11.7900 6.7186,11.7900 6.6836,11.8000 6.6636,11.8000 6.6398,11.8000 6.5742,11.8610 6.4372,11.9250 6.2536,11.9710 6.1844,12.0300 6.1009,12.0960 5.9814,12.1490 5.8722,12.1790 5.7639,12.1880 5.7000,12.1960 5.0887,12.2030 5.0296,12.2090 4.9435,12.2140 4.8891,12.2180 4.8722,12.2190 4.8471,12.2240 4.7559,12.2230 4.7091,12.2230 4.6544,12.2230 4.6138,12.2260 4.5756,12.2310 4.4901,12.2360 4.4489,12.2380 4.4036,12.2390 4.3183,12.2340 4.2308,12.2330 4.1920,12.2300 4.1751,12.2330 4.1070,12.2360 4.0829,12.2370 4.0671,12.2440 4.0131,12.2780 3.8869,12.3210 3.7004,12.3640 3.6276,12.4100 3.6142,12.4100 3.5788,12.4310 3.5399,12.4930 3.4801,12.5470 3.3005,12.6060 3.0502,12.6570 2.9801,12.7060 2.9490,12.7210 2.8708,12.7680 2.6823,12.8280 2.5577,12.8820 2.5028,12.9420 2.4321,13.0000 2.4098,13.0120 2.3431,13.0750 2.2681,13.1390 2.2207,13.1990 2.1427,13.2550 1.9937,13.3220 1.8300,13.3630 1.7579,13.4180 1.7051,13.4780 1.6267,13.5310 1.6027,13.5600 1.5642,13.6060 1.4785,13.6500 1.4744,13.6500 1.4467,13.6960 1.4241,13.7130 1.4056,13.7320 1.3295,13.7870 0.7738,13.8400 0.4441,13.8930 0.3443,13.9120 0.3280,13.9490 0.2872,13.9610 0.2818,13.9620 0.2814,13.9620 0.2809,13.9620 0.2800,13.9620 0.2796,13.9620 0.2790,13.9620 0.2737,13.9620 0.2731,13.9620 0.2579,13.9620 0.2571,13.9620 0.2341,13.9620 0.2106,13.9740 0.1701,13.9740 0.1608,13.9900 0.1557,14.0000"/>
<circle cx="8.2185" cy="11.6030" r="0.1000"><title>2397 entries @ 2026-05-16 17:43:43 +0800
(commit be21a9a873182fa200888792f9e101c3fadcdb96)</title></circle>
<circle cx="8.0482" cy="11.6500" r="0.1000"><title>2350 entries @ 2026-04-24 23:11:07 +0800
(commit 65b0d0fc0e69618e0ce28af1d8c08b26dbc404e7)</title></circle>
<circle cx="7.8925" cy="11.6610" r="0.1000"><title>2339 entries @ 2026-04-05 01:12:54 +0800
(commit d13080fe1551949527d6107f816993dcdd8cd30c)</title></circle>
<circle cx="7.8339" cy="11.6640" r="0.1000"><title>2336 entries @ 2026-03-28 13:23:21 +0800
(commit 7c9d7671973362b57554f10fb1c48207b1d697ee)</title></circle>
<circle cx="7.7357" cy="11.6690" r="0.1000"><title>2331 entries @ 2026-03-16 00:05:50 +0800
(commit 42fe7e5d2d09a6e455475b5e9676a9ac1992e5ca)</title></circle>
<circle cx="7.6108" cy="11.6790" r="0.1000"><title>2321 entries @ 2026-02-28 00:56:25 +0800
(commit 605f000c54ab042b559db09aaecad402d865ec87)</title></circle>
<circle cx="7.2275" cy="11.6830" r="0.1000"><title>2317 entries @ 2026-01-10 00:52:29 +0800
(commit 5a978812dda6cd2b468b1416d3170b69ddf23d43)</title></circle>
<circle cx="7.0235" cy="11.6880" r="0.1000"><title>2312 entries @ 2025-12-14 23:01:54 +0800
(commit 0f5d983d859dc465314e154ea627e07c8506dc83)</title></circle>
<circle cx="6.8736" cy="11.7080" r="0.1000"><title>2292 entries @ 2025-11-25 18:49:15 +0800
(commit e7d279aa8fea79dc9400b89d503b2b4c1dbc3a13)</title></circle>
<circle cx="6.8589" cy="11.7200" r="0.1000"><title>2280 entries @ 2025-11-23 21:57:04 +0800
(commit feab52f046020982d7da93d6956a6a2e6f72c809)</title></circle>
<circle cx="6.8108" cy="11.7570" r="0.1000"><title>2243 entries @ 2025-11-17 18:18:57 +0800
(commit d778030fc31d53d404e6ca8d8c4191494d0d515b)</title></circle>
<circle cx="6.7581" cy="11.7850" r="0.1000"><title>2215 entries @ 2025-11-11 00:42:16 +0800
(commit 2b6d47471f94ada2adf7989d8e6ca0bd38fd5cad)</title></circle>
<circle cx="6.7414" cy="11.7900" r="0.1000"><title>2210 entries @ 2025-11-08 21:16:03 +0800
(commit b31633108ccc3b1bd6b62c8e02b53b0ad10647bf)</title></circle>
<circle cx="6.7186" cy="11.7900" r="0.1000"><title>2210 entries @ 2025-11-05 23:15:02 +0800
(commit 1a4e78d502835b8c62a894d1d65d67c5a877b80e)</title></circle>
<circle cx="6.6836" cy="11.8000" r="0.1000"><title>2200 entries @ 2025-11-01 11:53:48 +0800
(commit 4b4cf72e7effee33ccbef387b7ff1268c70d9331)</title></circle>
<circle cx="6.6636" cy="11.8000" r="0.1000"><title>2200 entries @ 2025-10-29 22:26:19 +0800
(commit ea45d681686767efe517201d8d5f866294cec920)</title></circle>
<circle cx="6.6398" cy="11.8000" r="0.1000"><title>2200 entries @ 2025-10-26 21:31:24 +0800
(commit 3b72ffa89254bacecc57bb7d7897d74dba7e72a2)</title></circle>
<circle cx="6.5742" cy="11.8610" r="0.1000"><title>2139 entries @ 2025-10-18 12:19:31 +0800
(commit 6c6a5917082f60367b1edeae9760da709fe4875a)</title></circle>
<circle cx="6.4372" cy="11.9250" r="0.1000"><title>2075 entries @ 2025-09-30 23:52:04 +0800
(commit edd921095f0ae0f478982889b34492e1ba554748)</title></circle>
<circle cx="6.2536" cy="11.9710" r="0.1000"><title>2029 entries @ 2025-09-07 12:23:36 +0800
(commit 99791003bcce85565c2c90eb7a1f32246376c32d)</title></circle>
<circle cx="6.1844" cy="12.0300" r="0.1000"><title>1970 entries @ 2025-08-29 16:17:33 +0800
(commit 5d8abd0e37a4d1000072e9df18580b2ff5ae257c)</title></circle>
<circle cx="6.1009" cy="12.0960" r="0.1000"><title>1904 entries @ 2025-08-18 23:50:56 +0800
(commit d53b6829137732ce2e3382a869a38a04a7096861)</title></circle>
<circle cx="5.9814" cy="12.1490" r="0.1000"><title>1851 entries @ 2025-08-03 17:17:32 +0800
(commit 54f427d1eba5dd9dfecdeaf6e9c9839c904cb78f)</title></circle>
<circle cx="5.8722" cy="12.1790" r="0.1000"><title>1821 entries @ 2025-07-20 18:13:21 +0800
(commit 7debcff47b484753197d1e54783ba1c897c6514a)</title></circle>
<circle cx="5.7639" cy="12.1880" r="0.1000"><title>1812 entries @ 2025-07-06 22:04:23 +0800
(commit a6985f6d78f6e4524a69576460f254fbbd81c4d4)</title></circle>
<circle cx="5.7000" cy="12.1960" r="0.1000"><title>1804 entries @ 2025-06-28 17:45:47 +0800
(commit ad352dcc8c97372670eff4efe9f39e22e3927c82)</title></circle>
<circle cx="5.0887" cy="12.2030" r="0.1000"><title>1797 entries @ 2025-04-11 14:13:03 +0800
(commit 24490580ea11bf9eca9bd26e8e6c8d841ab31f28)</title></circle>
<circle cx="5.0296" cy="12.2090" r="0.1000"><title>1791 entries @ 2025-04-04 00:50:25 +0800
(commit df48ab9f916917a6ec487097185ab32d9763c08f)</title></circle>
<circle cx="4.9435" cy="12.2140" r="0.1000"><title>1786 entries @ 2025-03-24 00:45:44 +0800
(commit 39c2dd4104cb5f0fb15cb96041edc44b5c3547c5)</title></circle>
<circle cx="4.8891" cy="12.2180" r="0.1000"><title>1782 entries @ 2025-03-17 01:37:22 +0800
(commit 7e155babd29f846529668ea3258dfd115bf58083)</title></circle>
<circle cx="4.8722" cy="12.2190" r="0.1000"><title>1781 entries @ 2025-03-14 21:56:28 +0800
(commit 91b46f746d7295d557b8a1085bde73bfe585e708)</title></circle>
<circle cx="4.8471" cy="12.2240" r="0.1000"><title>1776 entries @ 2025-03-11 16:48:35 +0800
(commit e602937f5a67d518fed47f4d252e86074d07820b)</title></circle>
<circle cx="4.7559" cy="12.2230" r="0.1000"><title>1777 entries @ 2025-02-28 00:56:12 +0800
(commit 7d02e3e0de9205e80f8033e5644a24c4cd998b66)</title></circle>
<circle cx="4.7091" cy="12.2230" r="0.1000"><title>1777 entries @ 2025-02-22 01:31:26 +0800
(commit 4019f1191b84a32c3650e20845a0cfff1cdf7335)</title></circle>
<circle cx="4.6544" cy="12.2230" r="0.1000"><title>1777 entries @ 2025-02-15 01:31:08 +0800
(commit 37fac8d917993a8b4e4324e24158b4a55cd18f1e)</title></circle>
<circle cx="4.6138" cy="12.2260" r="0.1000"><title>1774 entries @ 2025-02-09 21:01:59 +0800
(commit 2017978252f4cac4ab844b49c95e8a035e4d420a)</title></circle>
<circle cx="4.5756" cy="12.2310" r="0.1000"><title>1769 entries @ 2025-02-04 23:53:03 +0800
(commit b5b5925a1823d49c118665ded3a6c461b00d40ae)</title></circle>
<circle cx="4.4901" cy="12.2360" r="0.1000"><title>1764 entries @ 2025-01-25 01:18:30 +0800
(commit 01a76f1c3d9f60bfe61578e019ffbc0d80d359d7)</title></circle>
<circle cx="4.4489" cy="12.2380" r="0.1000"><title>1762 entries @ 2025-01-19 19:03:58 +0800
(commit 54b5f2ed1f212406c7082717c91cf6a245c04f09)</title></circle>
<circle cx="4.4036" cy="12.2390" r="0.1000"><title>1761 entries @ 2025-01-14 00:08:21 +0800
(commit 6587222219fb4dfab8673a406ddf19866d605c49)</title></circle>
<circle cx="4.3183" cy="12.2340" r="0.1000"><title>1766 entries @ 2025-01-03 02:21:27 +0800
(commit 4a9982e6c714605a7b079588bcd33870f275eac1)</title></circle>
<circle cx="4.2308" cy="12.2330" r="0.1000"><title>1767 entries @ 2024-12-22 21:47:31 +0800
(commit c393a7a5ba581b9004a0984e6ca1d4a6649b74b1)</title></circle>
<circle cx="4.1920" cy="12.2300" r="0.1000"><title>1770 entries @ 2024-12-17 22:37:09 +0800
(commit d03551df8b3032dfb70cc1805b220936d41f9b3b)</title></circle>
<circle cx="4.1751" cy="12.2330" r="0.1000"><title>1767 entries @ 2024-12-15 18:52:02 +0800
(commit a7e9dbfc1045fa940d9a6f09fcb29c59a54e6e2c)</title></circle>
<circle cx="4.1070" cy="12.2360" r="0.1000"><title>1764 entries @ 2024-12-07 01:54:34 +0800
(commit dc7e16c09304004fcc1ce9f0aee9a1087c9bd6ca)</title></circle>
<circle cx="4.0829" cy="12.2370" r="0.1000"><title>1763 entries @ 2024-12-03 23:53:48 +0800
(commit 486d09034ff33c7911b8ec86798c2d4dad24d26b)</title></circle>
<circle cx="4.0671" cy="12.2440" r="0.1000"><title>1756 entries @ 2024-12-01 23:35:33 +0800
(commit 77a24c7241a2f449dbc29d6ac49cfa0d6dfb8369)</title></circle>
<circle cx="4.0131" cy="12.2780" r="0.1000"><title>1722 entries @ 2024-11-25 01:49:04 +0800
(commit 0a35a6215b1fdc8d1cfa6d8164290cf4cde76259)</title></circle>
<circle cx="3.8869" cy="12.3210" r="0.1000"><title>1679 entries @ 2024-11-08 22:37:51 +0800
(commit 8df48f22d7dac70c518cfe65a7353b72a9440364)</title></circle>
<circle cx="3.7004" cy="12.3640" r="0.1000"><title>1636 entries @ 2024-10-16 02:26:04 +0800
(commit 424e8dac4c4811ef138a5508a28c2888b85c4747)</title></circle>
<circle cx="3.6276" cy="12.4100" r="0.1000"><title>1590 entries @ 2024-10-06 19:00:30 +0800
(commit c3c4c44518e2b2f1abb005bd52def6c449ff89ec)</title></circle>
<circle cx="3.6142" cy="12.4100" r="0.1000"><title>1590 entries @ 2024-10-05 01:48:57 +0800
(commit 674d73e075841e7edf778fb295aec59bc36b186b)</title></circle>
<circle cx="3.5788" cy="12.4310" r="0.1000"><title>1569 entries @ 2024-09-30 13:13:17 +0800
(commit 2d781d476f166339bddf0351fa2a934b02f19ad9)</title></circle>
<circle cx="3.5399" cy="12.4930" r="0.1000"><title>1507 entries @ 2024-09-25 13:42:50 +0800
(commit d5974147ce72f2e03e9b5969f3a92f1f306fbc1e)</title></circle>
<circle cx="3.4801" cy="12.5470" r="0.1000"><title>1453 entries @ 2024-09-17 22:11:18 +0800
(commit f3fff74dca0b30a0dedf285d0e8e331c98926e7f)</title></circle>
<circle cx="3.3005" cy="12.6060" r="0.1000"><title>1394 entries @ 2024-08-25 23:10:56 +0800
(commit c144366daa2de596a03c5b20615f5d92aa081046)</title></circle>
<circle cx="3.0502" cy="12.6570" r="0.1000"><title>1343 entries @ 2024-07-24 23:21:27 +0800
(commit 2016d88a4de402aa9652476e8205936ae8da3465)</title></circle>
<circle cx="2.9801" cy="12.7060" r="0.1000"><title>1294 entries @ 2024-07-16 00:16:32 +0800
(commit 7e8aa78bfbcb947a82a21b94491c35d51e506e3e)</title></circle>
<circle cx="2.9490" cy="12.7210" r="0.1000"><title>1279 entries @ 2024-07-12 00:49:48 +0800
(commit 099b5ad309c2a5a6d96ad27d88d509bdb91fef02)</title></circle>
<circle cx="2.8708" cy="12.7680" r="0.1000"><title>1232 entries @ 2024-07-02 00:44:04 +0800
(commit 27b621400a5ae0fc5b8c310349dee888b8823b37)</title></circle>
<circle cx="2.6823" cy="12.8280" r="0.1000"><title>1172 entries @ 2024-06-07 22:28:33 +0800
(commit 2f7eee9ef7dc023884e8575bd8d6f93ba5ad4ff5)</title></circle>
<circle cx="2.5577" cy="12.8820" r="0.1000"><title>1118 entries @ 2024-05-23 00:05:20 +0800
(commit f0433d895ddaf31d8ad68196769b847397024607)</title></circle>
<circle cx="2.5028" cy="12.9420" r="0.1000"><title>1058 entries @ 2024-05-15 23:31:40 +0800
(commit 6a2cd38823821dbb8be391823c0eaba72d7df879)</title></circle>
<circle cx="2.4321" cy="13.0000" r="0.1000"><title>1000 entries @ 2024-05-06 22:39:34 +0800
(commit 03bcdb8df1411bae7a390d3652bbb241c6fda4da)</title></circle>
<circle cx="2.4098" cy="13.0120" r="0.1000"><title>988 entries @ 2024-05-04 02:09:32 +0800
(commit 748ccd4c64c352a7ede30b5d5c4e35b79bcb53e6)</title></circle>
<circle cx="2.3431" cy="13.0750" r="0.1000"><title>925 entries @ 2024-04-25 13:26:01 +0800
(commit 9e8ec7a743b35e1a88937a42948f8ae8544e6ee6)</title></circle>
<circle cx="2.2681" cy="13.1390" r="0.1000"><title>861 entries @ 2024-04-15 23:32:16 +0800
(commit 101bb2a5e397d57c55b15ea31a43475865181960)</title></circle>
<circle cx="2.2207" cy="13.1990" r="0.1000"><title>801 entries @ 2024-04-09 22:06:18 +0800
(commit 7128eae2c2b957833c73e89db76ac8905df10f4d)</title></circle>
<circle cx="2.1427" cy="13.2550" r="0.1000"><title>745 entries @ 2024-03-30 22:31:12 +0800
(commit 384f0d058fbc68224bbbb8cba46c442d0db091fb)</title></circle>
<circle cx="1.9937" cy="13.3220" r="0.1000"><title>678 entries @ 2024-03-11 21:30:36 +0800
(commit 4b15a8bf22bc08ed8ed304a345d03c4803d4856e)</title></circle>
<circle cx="1.8300" cy="13.3630" r="0.1000"><title>637 entries @ 2024-02-19 23:06:14 +0800
(commit 6c3265f53a79a98f3c17fd57a93ea77db108f6bb)</title></circle>
<circle cx="1.7579" cy="13.4180" r="0.1000"><title>582 entries @ 2024-02-10 17:57:59 +0800
(commit 8f278081647c180fd6e8129e8f31ebfc4cc6c0a5)</title></circle>
<circle cx="1.7051" cy="13.4780" r="0.1000"><title>522 entries @ 2024-02-04 00:00:16 +0800
(commit 7f3e88f5dad38f4b0624a6f4c206cd791599b0eb)</title></circle>
<circle cx="1.6267" cy="13.5310" r="0.1000"><title>469 entries @ 2024-01-24 23:17:30 +0800
(commit ab40c462130d9dcabd262b7ed1aba3f64e93b692)</title></circle>
<circle cx="1.6027" cy="13.5600" r="0.1000"><title>440 entries @ 2024-01-21 21:47:21 +0800
(commit 79be6d8cedf51a2e7284ec55d096a9e64e1c423e)</title></circle>
<circle cx="1.5642" cy="13.6060" r="0.1000"><title>394 entries @ 2024-01-16 23:34:14 +0800
(commit 2e514e7c0fed5bee1de9d65952f43f8c37a7b756)</title></circle>
<circle cx="1.4785" cy="13.6500" r="0.1000"><title>350 entries @ 2024-01-06 00:46:45 +0800
(commit 39be2bb9723e7ed6fba0f8bcacbb8a7880629bd7)</title></circle>
<circle cx="1.4744" cy="13.6500" r="0.1000"><title>350 entries @ 2024-01-05 12:06:38 +0800
(commit f1a7f7a9f02097445bd6e1842777f2dfb983f2b2)</title></circle>
<circle cx="1.4467" cy="13.6960" r="0.1000"><title>304 entries @ 2024-01-01 23:02:25 +0800
(commit 3f3e18c0d79ed8c8a07648f08f7395a080e3b9cf)</title></circle>
<circle cx="1.4241" cy="13.7130" r="0.1000"><title>287 entries @ 2023-12-30 01:48:14 +0800
(commit 8a42815ae82d11cfa2923208486045b9275e62d1)</title></circle>
<circle cx="1.4056" cy="13.7320" r="0.1000"><title>268 entries @ 2023-12-27 16:48:30 +0800
(commit 4a1fedeaff28e55fe3a9e7dbc5a4340f8a08580e)</title></circle>
<circle cx="1.3295" cy="13.7870" r="0.1000"><title>213 entries @ 2023-12-17 23:19:26 +0800
(commit 420ee15f58e7748d254a0a7f50b422d7e8e67b23)</title></circle>
<circle cx="0.7738" cy="13.8400" r="0.1000"><title>160 entries @ 2023-10-07 22:11:15 +0800
(commit 7c944b44a3366cf09598852a1153957e439bb85b)</title></circle>
<circle cx="0.4441" cy="13.8930" r="0.1000"><title>107 entries @ 2023-08-26 18:36:30 +0800
(commit edf5cdb1a4987f86f4db6ba2d29f2ee5a4ca51d7)</title></circle>
<circle cx="0.3443" cy="13.9120" r="0.1000"><title>88 entries @ 2023-08-14 00:28:06 +0800
(commit 00627622cd502f0d8ec4de4bd83ef0879a64074c)</title></circle>
<circle cx="0.3280" cy="13.9490" r="0.1000"><title>51 entries @ 2023-08-11 22:29:14 +0800
(commit 5f99d7a6d475fbb1365753dc52667a2f17b16abd)</title></circle>
<circle cx="0.2872" cy="13.9610" r="0.1000"><title>39 entries @ 2023-08-06 17:05:28 +0800
(commit c1b4b29af150434a615ada7ce63da43719b26c3c)</title></circle>
<circle cx="0.2818" cy="13.9620" r="0.1000"><title>38 entries @ 2023-08-06 00:49:29 +0800
(commit 27b93b3bead810999f934bab05606f1ec54faf82)</title></circle>
<circle cx="0.2814" cy="13.9620" r="0.1000"><title>38 entries @ 2023-08-05 23:26:47 +0800
(commit 799c012c43c29babc39217640a41431fa3f8746a)</title></circle>
<circle cx="0.2809" cy="13.9620" r="0.1000"><title>38 entries @ 2023-08-05 21:51:30 +0800
(commit b8847f6b38eb42b8a47b3b21282e1eaa86ce0637)</title></circle>
<circle cx="0.2800" cy="13.9620" r="0.1000"><title>38 entries @ 2023-08-05 19:03:42 +0800
(commit b5d931b5e253c28acd8a0c720ec89eb1f5460f1b)</title></circle>
<circle cx="0.2796" cy="13.9620" r="0.1000"><title>38 entries @ 2023-08-05 17:51:07 +0800
(commit fd4c7e0c2eeafc927f2024721e5008c3a040ce3a)</title></circle>
<circle cx="0.2790" cy="13.9620" r="0.1000"><title>38 entries @ 2023-08-05 16:04:06 +0800
(commit b70ca0bc74ae560035f88c542f4d6be5160d6e50)</title></circle>
<circle cx="0.2737" cy="13.9620" r="0.1000"><title>38 entries @ 2023-08-04 23:43:33 +0800
(commit ce5e8075f3990501cbe5af1649c7be17e5bf714a)</title></circle>
<circle cx="0.2731" cy="13.9620" r="0.1000"><title>38 entries @ 2023-08-04 21:51:39 +0800
(commit ede411500dcb5c3622a1ff9961faaad39019b958)</title></circle>
<circle cx="0.2579" cy="13.9620" r="0.1000"><title>38 entries @ 2023-08-02 23:24:12 +0800
(commit cb38c0b19f0b001004a6b79334361d5343b5d648)</title></circle>
<circle cx="0.2571" cy="13.9620" r="0.1000"><title>38 entries @ 2023-08-02 20:54:00 +0800
(commit c769d7d6124e534dd3444b03e5f5589626e47481)</title></circle>
<circle cx="0.2341" cy="13.9620" r="0.1000"><title>38 entries @ 2023-07-30 22:14:20 +0800
(commit e7a96be9ef406f7721169ffb6e92f90dba1a406d)</title></circle>
<circle cx="0.2106" cy="13.9740" r="0.1000"><title>26 entries @ 2023-07-27 22:07:00 +0800
(commit ca45159327adbf3929a51836c4d776b3a15ba90c)</title></circle>
<circle cx="0.1701" cy="13.9740" r="0.1000"><title>26 entries @ 2023-07-22 17:53:02 +0800
(commit 660ed2f18fac78e56c340cf08626a1729de3aa39)</title></circle>
<circle cx="0.1608" cy="13.9900" r="0.1000"><title>10 entries @ 2023-07-21 13:16:34 +0800
(commit 6df52c8097c67ce79912f1005e598bec34a8428a)</title></circle>
<circle cx="0.1557" cy="14.0000" r="0.1000"><title>0 entries @ 2023-07-20 21:39:40 +0800
(commit 263685863f91821c9cefca68e1899910e88be118)</title></circle>
</svg>
