<?xml version="1.0" encoding="UTF-8"?>
<svg viewBox="-6 -4 28 22" width="960px" xmlns="http://www.w3.org/2000/svg">
<style>
circle:hover {fill: #cf1338}
circle {fill: black}
line, polyline {stroke: black; stroke-width: 0.1042%}polyline {stroke: #cf1338}line.target {stroke: blue; stroke-dasharray: 1.0417%}
polyline {fill: none}text {font-family: sans-serif; font-size: 1px; text-anchor: middle}
text.target {fill: blue; font-size: 0.7px}
text.tick {font-size: 0.7px}
text.title {fill: #cf1338; font-size: 1.1px}
</style>
<text class="title" x="8.0000" y="-2.0000">Conway's Cantonese Dictionary: Progress</text><line x1="0.0000" y1="14.0000" x2="20.0000" y2="14.0000"/>
<text x="10.0000" y="14.0000" dy="3em">Time</text>
<line x1="1.4392" y1="14.0000" x2="1.4392" y2="14.2000"/>
<text class="tick" x="1.4392" y="14.2000" dy="1.3em">2024</text>
<line x1="4.3019" y1="14.0000" x2="4.3019" y2="14.2000"/>
<text class="tick" x="4.3019" y="14.2000" dy="1.3em">2025</text>
<line x1="7.1568" y1="14.0000" x2="7.1568" y2="14.2000"/>
<text class="tick" x="7.1568" y="14.2000" dy="1.3em">2026</text>
<line x1="10.0117" y1="14.0000" x2="10.0117" y2="14.2000"/>
<text class="tick" x="10.0117" y="14.2000" dy="1.3em">2027</text>
<line x1="12.8666" y1="14.0000" x2="12.8666" y2="14.2000"/>
<text class="tick" x="12.8666" y="14.2000" dy="1.3em">2028</text>
<line x1="15.7294" y1="14.0000" x2="15.7294" y2="14.2000"/>
<text class="tick" x="15.7294" y="14.2000" dy="1.3em">2029</text>
<line x1="18.5843" y1="14.0000" x2="18.5843" y2="14.2000"/>
<text class="tick" x="18.5843" y="14.2000" dy="1.3em">2030</text>
<line x1="0.0000" y1="14.0000" x2="0.0000" y2="0.0000"/>
<text x="0.0000" y="7.0000" dy="-4em" transform="rotate(-90 0.0000 7.0000)">Entry Count</text>
<line x1="0.0000" y1="12.0000" x2="-0.2000" y2="12.0000"/>
<text class="tick" x="-0.2000" y="12.0000" dx="-2em" dy="0.33em">2000</text>
<line x1="0.0000" y1="10.0000" x2="-0.2000" y2="10.0000"/>
<text class="tick" x="-0.2000" y="10.0000" dx="-2em" dy="0.33em">4000</text>
<line x1="0.0000" y1="8.0000" x2="-0.2000" y2="8.0000"/>
<text class="tick" x="-0.2000" y="8.0000" dx="-2em" dy="0.33em">6000</text>
<line x1="0.0000" y1="6.0000" x2="-0.2000" y2="6.0000"/>
<text class="tick" x="-0.2000" y="6.0000" dx="-2em" dy="0.33em">8000</text>
<line x1="0.0000" y1="4.0000" x2="-0.2000" y2="4.0000"/>
<text class="tick" x="-0.2000" y="4.0000" dx="-2em" dy="0.33em">10000</text>
<line x1="0.0000" y1="2.0000" x2="-0.2000" y2="2.0000"/>
<text class="tick" x="-0.2000" y="2.0000" dx="-2em" dy="0.33em">12000</text>
<line class="target" x1="0.0000" y1="1.0000" x2="20.0000" y2="1.0000"/>
<text class="target" x="10.0000" y="1.0000" dy="-0.5em">Approximate Target: 13000 entries</text>
<polyline points="8.1348,11.6180 7.9858,11.6530 7.8895,11.6630 7.8130,11.6640 7.6970,11.6710 7.5558,11.6790 7.1609,11.6860 7.0215,11.6880 6.8670,11.7150 6.8557,11.7290 6.7968,11.7590 6.7482,11.7900 6.7391,11.7900 6.7107,11.7900 6.6795,11.8000 6.6488,11.8000 6.6171,11.8170 6.5468,11.8810 6.3629,11.9390 6.2413,11.9900 6.1480,12.0500 6.0895,12.1090 5.9506,12.1580 5.8661,12.1830 5.7545,12.1920 5.6204,12.2030 5.0769,12.2030 5.0065,12.2090 4.9281,12.2150 4.8881,12.2190 4.8577,12.2200 4.8416,12.2240 4.7399,12.2230 4.6856,12.2240 4.6388,12.2230 4.5917,12.2290 4.5442,12.2360 4.4662,12.2370 4.4479,12.2390 4.3566,12.2360 4.2863,12.2340 4.2279,12.2290 4.1840,12.2320 4.1533,12.2330 4.1058,12.2360 4.0750,12.2410 4.0654,12.2530 3.9345,12.2800 3.8789,12.3380 3.6606,12.3780 3.6152,12.4100 3.6136,12.4100 3.5587,12.4500 3.5258,12.5120 3.4494,12.5660 3.1026,12.6220 3.0342,12.6690 2.9719,12.7090 2.9255,12.7370 2.8549,12.7900 2.6121,12.8460 2.5495,12.9040 2.4876,12.9610 2.4221,13.0120 2.3936,13.0290 2.3228,13.0960 2.2596,13.1580 2.2035,13.2200 2.1115,13.2750 1.9317,13.3370 1.8129,13.3770 1.7444,13.4380 1.6889,13.4980 1.6245,13.5360 1.5875,13.5780 1.5482,13.6240 1.4777,13.6500 1.4688,13.6570 1.4365,13.7120 1.4209,13.7140 1.3847,13.7500 1.2979,13.8030 0.7085,13.8620 0.4214,13.8940 0.3415,13.9290 0.3128,13.9560 0.2859,13.9620 0.2817,13.9620 0.2813,13.9620 0.2807,13.9620 0.2798,13.9620 0.2795,13.9620 0.2740,13.9620 0.2735,13.9620 0.2659,13.9620 0.2577,13.9620 0.2348,13.9620 0.2259,13.9740 0.1872,13.9740 0.1647,13.9820 0.1569,13.9900 0.1557,14.0000"/>
<circle cx="8.1348" cy="11.6180" r="0.1000"><title>2382 entries @ 2026-05-06 00:50:41 +0800
(commit 928f5309f2d20e07c36852f2c3abd3355292ece4)</title></circle>
<circle cx="7.9858" cy="11.6530" r="0.1000"><title>2347 entries @ 2026-04-16 23:44:00 +0800
(commit f3849b569d63860b66f31a754dbf699aa32e6206)</title></circle>
<circle cx="7.8895" cy="11.6630" r="0.1000"><title>2337 entries @ 2026-04-04 16:04:23 +0800
(commit c43214ab5e491c21929595412a60588ed81e0301)</title></circle>
<circle cx="7.8130" cy="11.6640" r="0.1000"><title>2336 entries @ 2026-03-25 21:25:29 +0800
(commit fd535c7507eab3074527352b6a9d0b043267ab39)</title></circle>
<circle cx="7.6970" cy="11.6710" r="0.1000"><title>2329 entries @ 2026-03-11 01:24:08 +0800
(commit 9d9f1c8f7e91c64ee7bdea41deb623bb839c9273)</title></circle>
<circle cx="7.5558" cy="11.6790" r="0.1000"><title>2321 entries @ 2026-02-21 00:21:36 +0800
(commit 0458fc80cd451eca78f7945ab73e580e66ca229b)</title></circle>
<circle cx="7.1609" cy="11.6860" r="0.1000"><title>2314 entries @ 2026-01-01 12:31:36 +0800
(commit 0abaedbde4f1b20d6fa00a56d3f4b02d85227405)</title></circle>
<circle cx="7.0215" cy="11.6880" r="0.1000"><title>2312 entries @ 2025-12-14 16:52:10 +0800
(commit dc60d37432f1eef0ac3f387509ea007fa3713705)</title></circle>
<circle cx="6.8670" cy="11.7150" r="0.1000"><title>2285 entries @ 2025-11-24 22:39:56 +0800
(commit eb5a6c86f71e454284fcd4b30e037855c43b46ed)</title></circle>
<circle cx="6.8557" cy="11.7290" r="0.1000"><title>2271 entries @ 2025-11-23 12:09:25 +0800
(commit 536485c1e64d2f2407bb0e86e0063530aa9f41fc)</title></circle>
<circle cx="6.7968" cy="11.7590" r="0.1000"><title>2241 entries @ 2025-11-15 23:22:38 +0800
(commit 302bbcf9ba90e43a248165e6d3518e2166a9a7c7)</title></circle>
<circle cx="6.7482" cy="11.7900" r="0.1000"><title>2210 entries @ 2025-11-09 18:15:21 +0800
(commit 34cb39e0a412c4c3fc7bc1167aa4f137e44c6c87)</title></circle>
<circle cx="6.7391" cy="11.7900" r="0.1000"><title>2210 entries @ 2025-11-08 14:15:32 +0800
(commit 3c4a1ba4a23989a8d6b58515c7fe767b6d123304)</title></circle>
<circle cx="6.7107" cy="11.7900" r="0.1000"><title>2210 entries @ 2025-11-04 23:14:41 +0800
(commit c1e9da16f9d7b280d6eaa93f3ececb27133f7a84)</title></circle>
<circle cx="6.6795" cy="11.8000" r="0.1000"><title>2200 entries @ 2025-10-31 23:30:50 +0800
(commit b7b969fccb622d87a3d2a433526d5e34959f13a1)</title></circle>
<circle cx="6.6488" cy="11.8000" r="0.1000"><title>2200 entries @ 2025-10-28 01:05:26 +0800
(commit 9a1c1ea376e505d863440a1f5fec330df918301a)</title></circle>
<circle cx="6.6171" cy="11.8170" r="0.1000"><title>2183 entries @ 2025-10-23 23:47:21 +0800
(commit 6ca18855e287515c2fadcc7b26f6f36acf9d400b)</title></circle>
<circle cx="6.5468" cy="11.8810" r="0.1000"><title>2119 entries @ 2025-10-15 00:11:26 +0800
(commit 32cebac1b7888f421c7bd8a6fcc55bc946f39262)</title></circle>
<circle cx="6.3629" cy="11.9390" r="0.1000"><title>2061 entries @ 2025-09-21 11:58:19 +0800
(commit 6ee31662ba51368b17f35aa9b0c3fcaca9b5185b)</title></circle>
<circle cx="6.2413" cy="11.9900" r="0.1000"><title>2010 entries @ 2025-09-05 22:50:23 +0800
(commit 956aeefea77cf1e8e29d5173d199a0a1482d88bc)</title></circle>
<circle cx="6.1480" cy="12.0500" r="0.1000"><title>1950 entries @ 2025-08-25 00:37:10 +0800
(commit e88335bea7f6d7215bfae8eec6deec21848399a2)</title></circle>
<circle cx="6.0895" cy="12.1090" r="0.1000"><title>1891 entries @ 2025-08-17 12:54:18 +0800
(commit 07a921665b61dace2569714603681be3b908622c)</title></circle>
<circle cx="5.9506" cy="12.1580" r="0.1000"><title>1842 entries @ 2025-07-30 18:40:11 +0800
(commit 1a3bbd5b0640cc4a43814eaa39a6853ffaf163ca)</title></circle>
<circle cx="5.8661" cy="12.1830" r="0.1000"><title>1817 entries @ 2025-07-19 23:27:11 +0800
(commit e76801414c7e8affbda75ca89b0abb3e54521e50)</title></circle>
<circle cx="5.7545" cy="12.1920" r="0.1000"><title>1808 entries @ 2025-07-05 16:58:02 +0800
(commit bb13e8fc47ceb9d8f97bcb4caf24933b221ab089)</title></circle>
<circle cx="5.6204" cy="12.2030" r="0.1000"><title>1797 entries @ 2025-06-18 13:40:59 +0800
(commit 82406265354f45fd770697836dd333161c7dafc4)</title></circle>
<circle cx="5.0769" cy="12.2030" r="0.1000"><title>1797 entries @ 2025-04-10 01:52:24 +0800
(commit a135c5b4b8240cb2a44660b59ffb49fd26a3ae57)</title></circle>
<circle cx="5.0065" cy="12.2090" r="0.1000"><title>1791 entries @ 2025-04-01 02:00:41 +0800
(commit ca310a50660d88a2bba5d1450ea235b53880e1a3)</title></circle>
<circle cx="4.9281" cy="12.2150" r="0.1000"><title>1785 entries @ 2025-03-22 01:18:30 +0800
(commit c16bcb3e512fb521830a1e0f8567aafdbf18ec01)</title></circle>
<circle cx="4.8881" cy="12.2190" r="0.1000"><title>1781 entries @ 2025-03-16 22:30:41 +0800
(commit 3159623424101ce570532c0fb55fb56de1deb2c4)</title></circle>
<circle cx="4.8577" cy="12.2200" r="0.1000"><title>1780 entries @ 2025-03-13 01:13:49 +0800
(commit 06496d318fecc6b367e4e6818e4a9b3db500699b)</title></circle>
<circle cx="4.8416" cy="12.2240" r="0.1000"><title>1776 entries @ 2025-03-11 00:00:53 +0800
(commit f372ca4b5aa715c8b86504ba6105d59cb960c641)</title></circle>
<circle cx="4.7399" cy="12.2230" r="0.1000"><title>1777 entries @ 2025-02-26 00:03:37 +0800
(commit 7de1c071741ca0042436f10faa97d7d36660e2c9)</title></circle>
<circle cx="4.6856" cy="12.2240" r="0.1000"><title>1776 entries @ 2025-02-19 01:19:42 +0800
(commit 419a2965a31152f3853a1c59cf4e726a9b9ba711)</title></circle>
<circle cx="4.6388" cy="12.2230" r="0.1000"><title>1777 entries @ 2025-02-13 01:43:09 +0800
(commit c7a0efd2b6e2f460e849275a76490285b7a9dde8)</title></circle>
<circle cx="4.5917" cy="12.2290" r="0.1000"><title>1771 entries @ 2025-02-07 01:04:24 +0800
(commit 9ec76988faadcf4d6375b4bb2134b224aa437563)</title></circle>
<circle cx="4.5442" cy="12.2360" r="0.1000"><title>1764 entries @ 2025-01-31 23:20:52 +0800
(commit f39e13a698b19ae84b80cb4c719259db242977a3)</title></circle>
<circle cx="4.4662" cy="12.2370" r="0.1000"><title>1763 entries @ 2025-01-21 23:58:01 +0800
(commit ae6c9d508f7ecdb0a9c2a05f6d9249be2d9e8344)</title></circle>
<circle cx="4.4479" cy="12.2390" r="0.1000"><title>1761 entries @ 2025-01-19 15:47:46 +0800
(commit 2771416179b23cd341d08e18ada720125292f0d1)</title></circle>
<circle cx="4.3566" cy="12.2360" r="0.1000"><title>1764 entries @ 2025-01-07 23:53:37 +0800
(commit a9687394ab2ef8d2d7a3f18b66e88204bb995e28)</title></circle>
<circle cx="4.2863" cy="12.2340" r="0.1000"><title>1766 entries @ 2024-12-29 23:58:54 +0800
(commit 6af0f2a9c369b803e3a1e04f7756c4d57e80fb90)</title></circle>
<circle cx="4.2279" cy="12.2290" r="0.1000"><title>1771 entries @ 2024-12-22 12:47:49 +0800
(commit f650bead15562f7349afb7c0678ec3be1b13052d)</title></circle>
<circle cx="4.1840" cy="12.2320" r="0.1000"><title>1768 entries @ 2024-12-16 22:09:37 +0800
(commit 0ff44931dbddd737ff8f73c84b3d25260f20a2fa)</title></circle>
<circle cx="4.1533" cy="12.2330" r="0.1000"><title>1767 entries @ 2024-12-13 00:05:45 +0800
(commit 24f1cb42e9d602285cfd0fa48206f390b1a10ff5)</title></circle>
<circle cx="4.1058" cy="12.2360" r="0.1000"><title>1764 entries @ 2024-12-06 22:09:26 +0800
(commit acad8ffc3fd47fc670583abd718b4ff45c5c2a89)</title></circle>
<circle cx="4.0750" cy="12.2410" r="0.1000"><title>1759 entries @ 2024-12-02 23:34:38 +0800
(commit 0881439c9a14447107fc61ac581c561259cf81c2)</title></circle>
<circle cx="4.0654" cy="12.2530" r="0.1000"><title>1747 entries @ 2024-12-01 18:17:00 +0800
(commit 781c766e4c3f87994a80cbc9ed4f4f7674fd3f16)</title></circle>
<circle cx="3.9345" cy="12.2800" r="0.1000"><title>1720 entries @ 2024-11-15 00:39:27 +0800
(commit 3f180f9601c12cdf4b3073bca96fc92531928eb5)</title></circle>
<circle cx="3.8789" cy="12.3380" r="0.1000"><title>1662 entries @ 2024-11-07 21:57:12 +0800
(commit 5acd5a08a87da296d9e963476665d6c4f5ca2031)</title></circle>
<circle cx="3.6606" cy="12.3780" r="0.1000"><title>1622 entries @ 2024-10-11 00:09:00 +0800
(commit f0195f524222f594fb899f76877eed3cbcefd327)</title></circle>
<circle cx="3.6152" cy="12.4100" r="0.1000"><title>1590 entries @ 2024-10-05 04:46:43 +0800
(commit 88f7e82f2137075b824cae58f2d79ba8e730a20e)</title></circle>
<circle cx="3.6136" cy="12.4100" r="0.1000"><title>1590 entries @ 2024-10-05 00:00:16 +0800
(commit 5312ce43f47dbb148039342a02f7baa80ce51b6c)</title></circle>
<circle cx="3.5587" cy="12.4500" r="0.1000"><title>1550 entries @ 2024-09-27 23:32:37 +0800
(commit 648e8217b8d11fdc5b6d83c66a08319195b42284)</title></circle>
<circle cx="3.5258" cy="12.5120" r="0.1000"><title>1488 entries @ 2024-09-23 18:26:59 +0800
(commit 659d7e6ebc3d7d39af178b7b1223e1f886c275c0)</title></circle>
<circle cx="3.4494" cy="12.5660" r="0.1000"><title>1434 entries @ 2024-09-14 00:01:10 +0800
(commit 3715e679a3c5a7fcc577363e9f6d8f8f3b207cf2)</title></circle>
<circle cx="3.1026" cy="12.6220" r="0.1000"><title>1378 entries @ 2024-07-31 16:05:31 +0800
(commit c4c2899aa07f7bdaeff7ee7ef42da56f491b5223)</title></circle>
<circle cx="3.0342" cy="12.6690" r="0.1000"><title>1331 entries @ 2024-07-22 22:12:38 +0800
(commit 40a5a37fa3f68569ce524cfe60ecc858a70ff6e5)</title></circle>
<circle cx="2.9719" cy="12.7090" r="0.1000"><title>1291 entries @ 2024-07-14 23:06:20 +0800
(commit 12ed9839e69a437f8a13495a1452dda681998133)</title></circle>
<circle cx="2.9255" cy="12.7370" r="0.1000"><title>1263 entries @ 2024-07-09 00:36:49 +0800
(commit 5b303fc012e30aef0a059e8533a5fbfdbbd21ac2)</title></circle>
<circle cx="2.8549" cy="12.7900" r="0.1000"><title>1210 entries @ 2024-06-29 23:58:46 +0800
(commit 7fa864a1aec4ca39f6e53ce7b0b1536fb11572f3)</title></circle>
<circle cx="2.6121" cy="12.8460" r="0.1000"><title>1154 entries @ 2024-05-29 22:58:07 +0800
(commit 1028f4846bcdf511b7d55fbe6e10df720f30cf9b)</title></circle>
<circle cx="2.5495" cy="12.9040" r="0.1000"><title>1096 entries @ 2024-05-21 23:01:38 +0800
(commit 098ce5119e4876a45b3a8939157057715fdf1f54)</title></circle>
<circle cx="2.4876" cy="12.9610" r="0.1000"><title>1039 entries @ 2024-05-14 00:50:12 +0800
(commit 045c0efd6b478290391b03d5a55129ce3701c506)</title></circle>
<circle cx="2.4221" cy="13.0120" r="0.1000"><title>988 entries @ 2024-05-05 16:06:17 +0800
(commit b312358f18bf3d2c9a7e0f96260b4f9c24ab9990)</title></circle>
<circle cx="2.3936" cy="13.0290" r="0.1000"><title>971 entries @ 2024-05-02 00:39:23 +0800
(commit 2143b93ebe8061deb3397c661905b7a68eca0519)</title></circle>
<circle cx="2.3228" cy="13.0960" r="0.1000"><title>904 entries @ 2024-04-22 23:13:53 +0800
(commit e2435b6f44911436b8a1ceca91c540fbed151bbf)</title></circle>
<circle cx="2.2596" cy="13.1580" r="0.1000"><title>842 entries @ 2024-04-14 21:21:52 +0800
(commit a5a8ffe15d78510407d0102cc494f412bb1d3736)</title></circle>
<circle cx="2.2035" cy="13.2200" r="0.1000"><title>780 entries @ 2024-04-07 17:20:10 +0800
(commit eaa16720404d7874abf5f03fb72f0fc192d0dc28)</title></circle>
<circle cx="2.1115" cy="13.2750" r="0.1000"><title>725 entries @ 2024-03-26 23:02:02 +0800
(commit b7716596b7d794b9e9fd3b704a0f1c124a7ac7ad)</title></circle>
<circle cx="1.9317" cy="13.3370" r="0.1000"><title>663 entries @ 2024-03-03 23:09:20 +0800
(commit 1023c20551247a92764c0fc5f633dc79b3a7a616)</title></circle>
<circle cx="1.8129" cy="13.3770" r="0.1000"><title>623 entries @ 2024-02-17 18:47:51 +0800
(commit 5f3aaf559faaf9ea0db806f33a88b1cdf1855cde)</title></circle>
<circle cx="1.7444" cy="13.4380" r="0.1000"><title>562 entries @ 2024-02-09 00:22:05 +0800
(commit 508b7af26b759a31d927ace6b5d3c1acefaa6ad6)</title></circle>
<circle cx="1.6889" cy="13.4980" r="0.1000"><title>502 entries @ 2024-02-01 22:06:54 +0800
(commit 2efdab9f16a52c5ca7e68b22020c258965d86d6a)</title></circle>
<circle cx="1.6245" cy="13.5360" r="0.1000"><title>464 entries @ 2024-01-24 16:39:06 +0800
(commit 4c28ccc2f5760400a913c34e6936a858305fc882)</title></circle>
<circle cx="1.5875" cy="13.5780" r="0.1000"><title>422 entries @ 2024-01-19 23:01:16 +0800
(commit 9a6f326910ad6987fde22200d20c603fcaf041a2)</title></circle>
<circle cx="1.5482" cy="13.6240" r="0.1000"><title>376 entries @ 2024-01-14 22:31:30 +0800
(commit c005b663a3e3b3753c636dce2f51cedf78683aa3)</title></circle>
<circle cx="1.4777" cy="13.6500" r="0.1000"><title>350 entries @ 2024-01-05 22:13:54 +0800
(commit ee3cae61e5de3b98f9720207345915d652222761)</title></circle>
<circle cx="1.4688" cy="13.6570" r="0.1000"><title>343 entries @ 2024-01-04 18:57:13 +0800
(commit 83a94ed1341c435852886f8829464cd73ca2a9ee)</title></circle>
<circle cx="1.4365" cy="13.7120" r="0.1000"><title>288 entries @ 2023-12-31 15:53:08 +0800
(commit aa91a481f8c09e972c2150e0214235f18e7ef887)</title></circle>
<circle cx="1.4209" cy="13.7140" r="0.1000"><title>286 entries @ 2023-12-29 15:46:28 +0800
(commit a1935a2d0ee058310766503ace9c1c579c34ff45)</title></circle>
<circle cx="1.3847" cy="13.7500" r="0.1000"><title>250 entries @ 2023-12-25 00:49:45 +0800
(commit 11e18c14e824838bc3d37456dd6fa18b7589c651)</title></circle>
<circle cx="1.2979" cy="13.8030" r="0.1000"><title>197 entries @ 2023-12-13 22:20:48 +0800
(commit 464022ba9660d28f1e198967185efc6e9707985d)</title></circle>
<circle cx="0.7085" cy="13.8620" r="0.1000"><title>138 entries @ 2023-09-29 15:58:29 +1000
(commit 953980a959dbf746346d350dfefe2b8b8319a53c)</title></circle>
<circle cx="0.4214" cy="13.8940" r="0.1000"><title>106 entries @ 2023-08-23 21:10:07 +0800
(commit e3bcca8f38a8e988c95d0445ad52870107518ca4)</title></circle>
<circle cx="0.3415" cy="13.9290" r="0.1000"><title>71 entries @ 2023-08-13 15:43:08 +0800
(commit 30429955fe8f902e38d63d1c4853f47692ecced2)</title></circle>
<circle cx="0.3128" cy="13.9560" r="0.1000"><title>44 entries @ 2023-08-09 23:56:26 +0800
(commit 79645f3a08273dd4f6d0ae305e56410020a2f4d2)</title></circle>
<circle cx="0.2859" cy="13.9620" r="0.1000"><title>38 entries @ 2023-08-06 13:13:06 +0800
(commit cf6e5714606aa6a3c88cadc9a09937e5b7e88a9d)</title></circle>
<circle cx="0.2817" cy="13.9620" r="0.1000"><title>38 entries @ 2023-08-06 00:23:53 +0800
(commit 53caf81d963efbf254e2152a5c3e360604f8057b)</title></circle>
<circle cx="0.2813" cy="13.9620" r="0.1000"><title>38 entries @ 2023-08-05 23:06:19 +0800
(commit 9da131a0aed3e1663f743fcded6b6eca52a90dff)</title></circle>
<circle cx="0.2807" cy="13.9620" r="0.1000"><title>38 entries @ 2023-08-05 21:19:37 +0800
(commit c97bd5b7610b3cb3c87c133474f745af76f67e90)</title></circle>
<circle cx="0.2798" cy="13.9620" r="0.1000"><title>38 entries @ 2023-08-05 18:39:12 +0800
(commit d5fdca4e42f9d43687adf0650bcff2a662774082)</title></circle>
<circle cx="0.2795" cy="13.9620" r="0.1000"><title>38 entries @ 2023-08-05 17:28:50 +0800
(commit d21df785126bcd6c38d057e946930d5e0e1c5a62)</title></circle>
<circle cx="0.2740" cy="13.9620" r="0.1000"><title>38 entries @ 2023-08-05 00:45:41 +0800
(commit 0c62cdfc2d003a92dd5f25205dd27665d1fdee4c)</title></circle>
<circle cx="0.2735" cy="13.9620" r="0.1000"><title>38 entries @ 2023-08-04 23:12:42 +0800
(commit 6d7ce4361268a3fa12f1f89b1ac2cf1e183855cf)</title></circle>
<circle cx="0.2659" cy="13.9620" r="0.1000"><title>38 entries @ 2023-08-03 23:49:33 +0800
(commit 8ce277953e600cb399e17c64568f4ef4df9c1c94)</title></circle>
<circle cx="0.2577" cy="13.9620" r="0.1000"><title>38 entries @ 2023-08-02 22:39:33 +0800
(commit ff652646e86abc808f4d3aefb7260fd5b2b94898)</title></circle>
<circle cx="0.2348" cy="13.9620" r="0.1000"><title>38 entries @ 2023-07-31 00:23:24 +0800
(commit 37e556b4e518d0acec90717aad2cbf87ad56faf5)</title></circle>
<circle cx="0.2259" cy="13.9740" r="0.1000"><title>26 entries @ 2023-07-29 21:08:51 +0800
(commit fcf957a2ae5336918e668a26839497713a7869d3)</title></circle>
<circle cx="0.1872" cy="13.9740" r="0.1000"><title>26 entries @ 2023-07-24 22:21:55 +0800
(commit 145bee93db074c21aadd46aa7262d43653b216f9)</title></circle>
<circle cx="0.1647" cy="13.9820" r="0.1000"><title>18 entries @ 2023-07-22 01:24:35 +0800
(commit 10ed9b4111b55a757238562e9395f2c0c23c99e2)</title></circle>
<circle cx="0.1569" cy="13.9900" r="0.1000"><title>10 entries @ 2023-07-21 01:25:17 +0800
(commit 674245258a03b5ed542528aee30902700096dbd0)</title></circle>
<circle cx="0.1557" cy="14.0000" r="0.1000"><title>0 entries @ 2023-07-20 21:39:40 +0800
(commit 263685863f91821c9cefca68e1899910e88be118)</title></circle>
</svg>
