<?xml version="1.0" encoding="UTF-8"?>
<svg viewBox="-6 -4 28 22" width="960px" xmlns="http://www.w3.org/2000/svg">
<style>
circle:hover {fill: #cf1338}
circle {fill: black}
line, polyline {stroke: black; stroke-width: 0.1042%}polyline {stroke: #cf1338}line.target {stroke: blue; stroke-dasharray: 1.0417%}
polyline {fill: none}text {font-family: sans-serif; font-size: 1px; text-anchor: middle}
text.target {fill: blue; font-size: 0.7px}
text.tick {font-size: 0.7px}
text.title {fill: #cf1338; font-size: 1.1px}
</style>
<text class="title" x="8.0000" y="-2.0000">Conway's Cantonese Dictionary: Progress</text><line x1="0.0000" y1="14.0000" x2="20.0000" y2="14.0000"/>
<text x="10.0000" y="14.0000" dy="3em">Time</text>
<line x1="1.4392" y1="14.0000" x2="1.4392" y2="14.2000"/>
<text class="tick" x="1.4392" y="14.2000" dy="1.3em">2024</text>
<line x1="4.3019" y1="14.0000" x2="4.3019" y2="14.2000"/>
<text class="tick" x="4.3019" y="14.2000" dy="1.3em">2025</text>
<line x1="7.1568" y1="14.0000" x2="7.1568" y2="14.2000"/>
<text class="tick" x="7.1568" y="14.2000" dy="1.3em">2026</text>
<line x1="10.0117" y1="14.0000" x2="10.0117" y2="14.2000"/>
<text class="tick" x="10.0117" y="14.2000" dy="1.3em">2027</text>
<line x1="12.8666" y1="14.0000" x2="12.8666" y2="14.2000"/>
<text class="tick" x="12.8666" y="14.2000" dy="1.3em">2028</text>
<line x1="15.7294" y1="14.0000" x2="15.7294" y2="14.2000"/>
<text class="tick" x="15.7294" y="14.2000" dy="1.3em">2029</text>
<line x1="18.5843" y1="14.0000" x2="18.5843" y2="14.2000"/>
<text class="tick" x="18.5843" y="14.2000" dy="1.3em">2030</text>
<line x1="0.0000" y1="14.0000" x2="0.0000" y2="0.0000"/>
<text x="0.0000" y="7.0000" dy="-4em" transform="rotate(-90 0.0000 7.0000)">Entry Count</text>
<line x1="0.0000" y1="12.0000" x2="-0.2000" y2="12.0000"/>
<text class="tick" x="-0.2000" y="12.0000" dx="-2em" dy="0.33em">2000</text>
<line x1="0.0000" y1="10.0000" x2="-0.2000" y2="10.0000"/>
<text class="tick" x="-0.2000" y="10.0000" dx="-2em" dy="0.33em">4000</text>
<line x1="0.0000" y1="8.0000" x2="-0.2000" y2="8.0000"/>
<text class="tick" x="-0.2000" y="8.0000" dx="-2em" dy="0.33em">6000</text>
<line x1="0.0000" y1="6.0000" x2="-0.2000" y2="6.0000"/>
<text class="tick" x="-0.2000" y="6.0000" dx="-2em" dy="0.33em">8000</text>
<line x1="0.0000" y1="4.0000" x2="-0.2000" y2="4.0000"/>
<text class="tick" x="-0.2000" y="4.0000" dx="-2em" dy="0.33em">10000</text>
<line x1="0.0000" y1="2.0000" x2="-0.2000" y2="2.0000"/>
<text class="tick" x="-0.2000" y="2.0000" dx="-2em" dy="0.33em">12000</text>
<line class="target" x1="0.0000" y1="1.0000" x2="20.0000" y2="1.0000"/>
<text class="target" x="10.0000" y="1.0000" dy="-0.5em">Approximate Target: 13000 entries</text>
<polyline points="8.4552,11.5410 8.2204,11.5990 8.0699,11.6490 7.8962,11.6610 7.8352,11.6640 7.7359,11.6670 7.6143,11.6790 7.2353,11.6820 7.0235,11.6880 6.8681,11.7080 6.8589,11.7200 6.8053,11.7580 6.7575,11.7870 6.7403,11.7900 6.7183,11.7900 6.6802,11.8000 6.6566,11.8000 6.6254,11.8070 6.5626,11.8670 6.3630,11.9330 6.2468,11.9810 6.1614,12.0420 6.0926,12.1060 5.9521,12.1580 5.8704,12.1820 5.7561,12.1920 5.6360,12.1990 5.0837,12.2030 5.0066,12.2090 4.9281,12.2150 4.8881,12.2190 4.8577,12.2200 4.8415,12.2240 4.7398,12.2230 4.6856,12.2240 4.6386,12.2230 4.5914,12.2290 4.5436,12.2370 4.4655,12.2370 4.4353,12.2400 4.3492,12.2350 4.2860,12.2340 4.2083,12.2290 4.1770,12.2320 4.1529,12.2330 4.0982,12.2360 4.0744,12.2420 4.0510,12.2660 3.9152,12.2950 3.8711,12.3430 3.6448,12.3910 3.6148,12.4100 3.6104,12.4100 3.5506,12.4690 3.5024,12.5270 3.4255,12.5860 3.0812,12.6410 3.0116,12.6920 2.9705,12.7090 2.9018,12.7570 2.8158,12.8120 2.5736,12.8650 2.5187,12.9320 2.4559,12.9890 2.4218,13.0120 2.3464,13.0580 2.2837,13.1280 2.2217,13.1930 2.1660,13.2470 2.0097,13.3110 1.8660,13.3600 1.7599,13.4090 1.7091,13.4690 1.6344,13.5240 1.6035,13.5570 1.5714,13.6060 1.4859,13.6500 1.4745,13.6500 1.4471,13.6920 1.4243,13.7130 1.4057,13.7300 1.3295,13.7870 0.7728,13.8410 0.4225,13.8930 0.3440,13.9140 0.3276,13.9530 0.2870,13.9610 0.2818,13.9620 0.2814,13.9620 0.2808,13.9620 0.2799,13.9620 0.2795,13.9620 0.2741,13.9620 0.2736,13.9620 0.2659,13.9620 0.2578,13.9620 0.2500,13.9620 0.2269,13.9710 0.1947,13.9740 0.1687,13.9820 0.1570,13.9900 0.1557,14.0000"/>
<circle cx="8.4552" cy="11.5410" r="0.1000"><title>2459 entries @ 2026-06-16 00:01:26 +0800
(commit e67b0dd6ae4838787199bc62aa8c5a315100ea50)</title></circle>
<circle cx="8.2204" cy="11.5990" r="0.1000"><title>2401 entries @ 2026-05-16 23:32:57 +0800
(commit 95ce8011c8a25184c018043bd09eb0a922a76eb1)</title></circle>
<circle cx="8.0699" cy="11.6490" r="0.1000"><title>2351 entries @ 2026-04-27 17:50:00 +0800
(commit 74cdda4516b7a5c2688d4b1a2bf4bcb6958c97a1)</title></circle>
<circle cx="7.8962" cy="11.6610" r="0.1000"><title>2339 entries @ 2026-04-05 12:47:11 +0800
(commit 7dfb5183bd037cf83bdda9266d91aa0be9cdd81b)</title></circle>
<circle cx="7.8352" cy="11.6640" r="0.1000"><title>2336 entries @ 2026-03-28 17:34:21 +0800
(commit dd487bb789e2f357fbbf65271dc6f818e05800dc)</title></circle>
<circle cx="7.7359" cy="11.6670" r="0.1000"><title>2333 entries @ 2026-03-16 00:44:23 +0800
(commit 8693e112a7b48600cddbf45e898f2cbac6015943)</title></circle>
<circle cx="7.6143" cy="11.6790" r="0.1000"><title>2321 entries @ 2026-02-28 11:38:41 +0800
(commit 56362078a2960dfe37826566c4d4322189085fef)</title></circle>
<circle cx="7.2353" cy="11.6820" r="0.1000"><title>2318 entries @ 2026-01-11 00:50:15 +0800
(commit 7e8288ff93caa83c8f9055fc240499ba9740d31e)</title></circle>
<circle cx="7.0235" cy="11.6880" r="0.1000"><title>2312 entries @ 2025-12-14 23:01:54 +0800
(commit 0f5d983d859dc465314e154ea627e07c8506dc83)</title></circle>
<circle cx="6.8681" cy="11.7080" r="0.1000"><title>2292 entries @ 2025-11-25 01:59:38 +0800
(commit acdb2f9370f422585beefd3a53279e3768300622)</title></circle>
<circle cx="6.8589" cy="11.7200" r="0.1000"><title>2280 entries @ 2025-11-23 21:48:25 +0800
(commit 07d460b1141b1d41fbe0186f10629c66c4430ce7)</title></circle>
<circle cx="6.8053" cy="11.7580" r="0.1000"><title>2242 entries @ 2025-11-17 01:24:23 +0800
(commit 68d854d5f32992f9843223eb748253e59b6d6a19)</title></circle>
<circle cx="6.7575" cy="11.7870" r="0.1000"><title>2213 entries @ 2025-11-10 22:46:29 +0800
(commit e5228654efe96f966226e11f3704b9e027b1befd)</title></circle>
<circle cx="6.7403" cy="11.7900" r="0.1000"><title>2210 entries @ 2025-11-08 17:56:11 +0800
(commit 1f80b02bed1b4d703e7f636f457becf36006edf1)</title></circle>
<circle cx="6.7183" cy="11.7900" r="0.1000"><title>2210 entries @ 2025-11-05 22:30:19 +0800
(commit e44afc3b4f5bc8f35f058701573dc350f52fc46c)</title></circle>
<circle cx="6.6802" cy="11.8000" r="0.1000"><title>2200 entries @ 2025-11-01 01:31:08 +0800
(commit 546ede4b610c2b49f2f092f4aedacbf4abbd8557)</title></circle>
<circle cx="6.6566" cy="11.8000" r="0.1000"><title>2200 entries @ 2025-10-29 01:05:16 +0800
(commit d4d52c246e69068cdded96665cd1c6e4f434355d)</title></circle>
<circle cx="6.6254" cy="11.8070" r="0.1000"><title>2193 entries @ 2025-10-25 01:16:06 +0800
(commit a0861d3bd7e8222b9e0acd55b15508ca0f694af4)</title></circle>
<circle cx="6.5626" cy="11.8670" r="0.1000"><title>2133 entries @ 2025-10-17 00:32:56 +0800
(commit db229375754a6c9451a9d77905825ca5863e5627)</title></circle>
<circle cx="6.3630" cy="11.9330" r="0.1000"><title>2067 entries @ 2025-09-21 12:20:18 +0800
(commit 1f9db5da8307ac208e75258f65a8221cf8be78ad)</title></circle>
<circle cx="6.2468" cy="11.9810" r="0.1000"><title>2019 entries @ 2025-09-06 15:42:26 +0800
(commit 03d59a1ced942c85ad0b2d66b91fa992a3886dab)</title></circle>
<circle cx="6.1614" cy="12.0420" r="0.1000"><title>1958 entries @ 2025-08-26 17:47:32 +0800
(commit 50c1a5d9f03c0ebd977b8aebcafbbb83f6bb5ef7)</title></circle>
<circle cx="6.0926" cy="12.1060" r="0.1000"><title>1894 entries @ 2025-08-17 22:40:35 +0800
(commit 9c9596c01aede22376f5911bf2ba81713191753f)</title></circle>
<circle cx="5.9521" cy="12.1580" r="0.1000"><title>1842 entries @ 2025-07-30 23:32:33 +0800
(commit 4974b234419c4aac221608374c6adb6a19bf6eb3)</title></circle>
<circle cx="5.8704" cy="12.1820" r="0.1000"><title>1818 entries @ 2025-07-20 12:51:08 +0800
(commit 05d6a3d1e032d12b281a57109ae4058c6899da16)</title></circle>
<circle cx="5.7561" cy="12.1920" r="0.1000"><title>1808 entries @ 2025-07-05 22:07:49 +0800
(commit 63fbfadd9a1ecd4890af89c9e9af8cbbe883b1fe)</title></circle>
<circle cx="5.6360" cy="12.1990" r="0.1000"><title>1801 entries @ 2025-06-20 13:39:11 +0800
(commit bdc37c2481ae779780bc7fb9d22f750ab037f0b4)</title></circle>
<circle cx="5.0837" cy="12.2030" r="0.1000"><title>1797 entries @ 2025-04-10 22:46:59 +0800
(commit 3c9bcb12bab3f70f10bdcbcf7ca8bff55837a1f7)</title></circle>
<circle cx="5.0066" cy="12.2090" r="0.1000"><title>1791 entries @ 2025-04-01 02:23:58 +0800
(commit bd1d9a007114e441d268380edee8a499ecce15ee)</title></circle>
<circle cx="4.9281" cy="12.2150" r="0.1000"><title>1785 entries @ 2025-03-22 01:31:17 +0800
(commit f233e34e76326da89b2f115ae7e2fe00043616c5)</title></circle>
<circle cx="4.8881" cy="12.2190" r="0.1000"><title>1781 entries @ 2025-03-16 22:45:59 +0800
(commit 654adbede8db22586e64a851f125295def0bbf4c)</title></circle>
<circle cx="4.8577" cy="12.2200" r="0.1000"><title>1780 entries @ 2025-03-13 01:13:49 +0800
(commit 06496d318fecc6b367e4e6818e4a9b3db500699b)</title></circle>
<circle cx="4.8415" cy="12.2240" r="0.1000"><title>1776 entries @ 2025-03-10 23:48:20 +0800
(commit d8a4a2f4441de5671ad73a5f849bdab4a008937e)</title></circle>
<circle cx="4.7398" cy="12.2230" r="0.1000"><title>1777 entries @ 2025-02-25 23:44:46 +0800
(commit 9192c251571f9546cec6aaaaa57c4eaff4b0c350)</title></circle>
<circle cx="4.6856" cy="12.2240" r="0.1000"><title>1776 entries @ 2025-02-19 01:08:49 +0800
(commit e8789cf8837911fd1434ac02c98e4a47bf96ee5f)</title></circle>
<circle cx="4.6386" cy="12.2230" r="0.1000"><title>1777 entries @ 2025-02-13 01:09:19 +0800
(commit 6e730a27c22e0bef4480cd31960efc3a72fce940)</title></circle>
<circle cx="4.5914" cy="12.2290" r="0.1000"><title>1771 entries @ 2025-02-07 00:18:25 +0800
(commit 660bb5a50fa29d1e6e919f7b562268bc6a8ea930)</title></circle>
<circle cx="4.5436" cy="12.2370" r="0.1000"><title>1763 entries @ 2025-01-31 21:26:08 +0800
(commit cb2d367639370bf53c57056af68c30e960558019)</title></circle>
<circle cx="4.4655" cy="12.2370" r="0.1000"><title>1763 entries @ 2025-01-21 22:04:10 +0800
(commit a11ccbafa7fc16bbec490fe6fc54313111b376c7)</title></circle>
<circle cx="4.4353" cy="12.2400" r="0.1000"><title>1760 entries @ 2025-01-18 01:09:17 +0800
(commit c87fcf8fc537cba5c61906ffedf43137e808cc8a)</title></circle>
<circle cx="4.3492" cy="12.2350" r="0.1000"><title>1765 entries @ 2025-01-07 01:02:08 +0800
(commit f5e801f8a3da3c9a6a6b165f7df26ae0e3ab353b)</title></circle>
<circle cx="4.2860" cy="12.2340" r="0.1000"><title>1766 entries @ 2024-12-29 23:07:48 +0800
(commit 4d5f2ce2ae1f64cbb90670bd7e1e0ae3030cf6a2)</title></circle>
<circle cx="4.2083" cy="12.2290" r="0.1000"><title>1771 entries @ 2024-12-20 00:52:17 +0800
(commit 4b5ac09e9829842cbdcaf8870c85008738b6cf28)</title></circle>
<circle cx="4.1770" cy="12.2320" r="0.1000"><title>1768 entries @ 2024-12-16 00:48:50 +0800
(commit 66a345e4c95e6c0bcb65aa0d6c230157fdb986f2)</title></circle>
<circle cx="4.1529" cy="12.2330" r="0.1000"><title>1767 entries @ 2024-12-12 22:39:07 +0800
(commit b731b51ce522e17f5b01c81c550122b9b2af12a3)</title></circle>
<circle cx="4.0982" cy="12.2360" r="0.1000"><title>1764 entries @ 2024-12-05 23:04:01 +0800
(commit 728cf11d3ad602797ab4c21cae4f560af5f6be72)</title></circle>
<circle cx="4.0744" cy="12.2420" r="0.1000"><title>1758 entries @ 2024-12-02 21:44:18 +0800
(commit ad0e1c2d1ad531b6b189cf7e5febb5b5794cbe17)</title></circle>
<circle cx="4.0510" cy="12.2660" r="0.1000"><title>1734 entries @ 2024-11-29 22:09:25 +0800
(commit 1eef013570d4ba21acf4d51ed0d73e94b15851e8)</title></circle>
<circle cx="3.9152" cy="12.2950" r="0.1000"><title>1705 entries @ 2024-11-12 13:27:01 +0800
(commit 24d805ad4e5de1c9aab5f50dcd2dead54691b331)</title></circle>
<circle cx="3.8711" cy="12.3430" r="0.1000"><title>1657 entries @ 2024-11-06 22:06:07 +0800
(commit ae0646cc1f8cfbc659a208dd635a1e56ca2bd8fa)</title></circle>
<circle cx="3.6448" cy="12.3910" r="0.1000"><title>1609 entries @ 2024-10-08 23:44:16 +0800
(commit 5a62e08731dbcf025fc8644ba4ec2fdc875c3adb)</title></circle>
<circle cx="3.6148" cy="12.4100" r="0.1000"><title>1590 entries @ 2024-10-05 03:46:35 +0800
(commit 749c9d7d25cbaa5cb5a4ec544bd601c726a2a33e)</title></circle>
<circle cx="3.6104" cy="12.4100" r="0.1000"><title>1590 entries @ 2024-10-04 14:07:08 +0800
(commit e6c9fcf7c909e94de615dbe150d499ae2c927b4c)</title></circle>
<circle cx="3.5506" cy="12.4690" r="0.1000"><title>1531 entries @ 2024-09-26 22:33:58 +0800
(commit 521f4b4784c95fc6664bf9f2b5b69cdb249ee3ad)</title></circle>
<circle cx="3.5024" cy="12.5270" r="0.1000"><title>1473 entries @ 2024-09-20 18:54:46 +0800
(commit f38bdd113d47dccb111e8274c04e03105939e89f)</title></circle>
<circle cx="3.4255" cy="12.5860" r="0.1000"><title>1414 entries @ 2024-09-10 22:55:07 +0800
(commit fc4ac9d8394c2d14103cb993c1d467afb54dcf07)</title></circle>
<circle cx="3.0812" cy="12.6410" r="0.1000"><title>1359 entries @ 2024-07-28 22:24:00 +0800
(commit 950e09b22bea261961c91c733aff289ca3f51850)</title></circle>
<circle cx="3.0116" cy="12.6920" r="0.1000"><title>1308 entries @ 2024-07-20 00:43:50 +0800
(commit 2a72f1a4bca06b5ebddee7352a91b87129cc1b2d)</title></circle>
<circle cx="2.9705" cy="12.7090" r="0.1000"><title>1291 entries @ 2024-07-14 18:33:11 +0800
(commit 91fa6b117b92da3b417821b7d56e97b5389b3eed)</title></circle>
<circle cx="2.9018" cy="12.7570" r="0.1000"><title>1243 entries @ 2024-07-05 23:44:30 +0800
(commit 79083bf830d17abacee1b59cfe86f9ba29d4be4b)</title></circle>
<circle cx="2.8158" cy="12.8120" r="0.1000"><title>1188 entries @ 2024-06-24 23:50:54 +0800
(commit 58895fb71b03e026391976581eb307cad68954ba)</title></circle>
<circle cx="2.5736" cy="12.8650" r="0.1000"><title>1135 entries @ 2024-05-25 00:55:24 +0800
(commit d16783209d02d2b330f3a92edf5e01b8f6b01837)</title></circle>
<circle cx="2.5187" cy="12.9320" r="0.1000"><title>1068 entries @ 2024-05-18 00:16:56 +0800
(commit d4fc838b6c86ba58fcb8adbc5338fa537c8268a6)</title></circle>
<circle cx="2.4559" cy="12.9890" r="0.1000"><title>1011 entries @ 2024-05-09 23:47:16 +0800
(commit ace682e1c154c2f8949f65ef7024f5d6989212d9)</title></circle>
<circle cx="2.4218" cy="13.0120" r="0.1000"><title>988 entries @ 2024-05-05 15:03:51 +0800
(commit 725dae7f25f173cf6fee48479bf481f1b5a706fe)</title></circle>
<circle cx="2.3464" cy="13.0580" r="0.1000"><title>942 entries @ 2024-04-25 23:32:43 +0800
(commit 88c29152a6d208ad896c2c25bc64ac957d4f3f3e)</title></circle>
<circle cx="2.2837" cy="13.1280" r="0.1000"><title>872 entries @ 2024-04-17 23:22:52 +0800
(commit 4e0aaf32579a1c290bf438e452ffcf313e9c85ad)</title></circle>
<circle cx="2.2217" cy="13.1930" r="0.1000"><title>807 entries @ 2024-04-10 01:00:56 +0800
(commit 3a2d03eb4225f6c62b93a7d819ce62e90666b490)</title></circle>
<circle cx="2.1660" cy="13.2470" r="0.1000"><title>753 entries @ 2024-04-02 22:13:59 +0800
(commit 67624389484e347ad02a9eadfc0e97610a175f05)</title></circle>
<circle cx="2.0097" cy="13.3110" r="0.1000"><title>689 entries @ 2024-03-13 22:28:09 +0800
(commit 401cae91df6616b437854074716af015e2d329b9)</title></circle>
<circle cx="1.8660" cy="13.3600" r="0.1000"><title>640 entries @ 2024-02-24 13:33:04 +0800
(commit ab51053e5ce2da837498924a9abe7f5dd329bbc3)</title></circle>
<circle cx="1.7599" cy="13.4090" r="0.1000"><title>591 entries @ 2024-02-11 00:02:22 +0800
(commit f2ea087af616b95d84e43d56d308270c83b73a7b)</title></circle>
<circle cx="1.7091" cy="13.4690" r="0.1000"><title>531 entries @ 2024-02-04 12:06:21 +0800
(commit db514d0497eadbdbcea74235ab27302f95ae6421)</title></circle>
<circle cx="1.6344" cy="13.5240" r="0.1000"><title>476 entries @ 2024-01-25 23:03:57 +0800
(commit 8f9f52d79784c59e67fd40f22f8e1584b0e1a3f8)</title></circle>
<circle cx="1.6035" cy="13.5570" r="0.1000"><title>443 entries @ 2024-01-22 00:09:50 +0800
(commit 6d5d3ae1825ea77408602dfb907149177e176a67)</title></circle>
<circle cx="1.5714" cy="13.6060" r="0.1000"><title>394 entries @ 2024-01-17 21:34:01 +0800
(commit 8855395e9b3598e7f7d4dc15fbb9b584ccda05a0)</title></circle>
<circle cx="1.4859" cy="13.6500" r="0.1000"><title>350 entries @ 2024-01-06 23:11:16 +0800
(commit a91004742c5050a14c7af5bf44365a278e68ee22)</title></circle>
<circle cx="1.4745" cy="13.6500" r="0.1000"><title>350 entries @ 2024-01-05 12:16:47 +0800
(commit f2189bc23f9dc4080f6c83780e9281be70731ddc)</title></circle>
<circle cx="1.4471" cy="13.6920" r="0.1000"><title>308 entries @ 2024-01-02 00:17:31 +0800
(commit 69a8f0e4e95bfd68c1dce9b723c8a179e2f58f35)</title></circle>
<circle cx="1.4243" cy="13.7130" r="0.1000"><title>287 entries @ 2023-12-30 02:13:20 +0800
(commit 1beb90293a4d708eca98c02c9aa3bcd5ad0482c2)</title></circle>
<circle cx="1.4057" cy="13.7300" r="0.1000"><title>270 entries @ 2023-12-27 17:08:47 +0800
(commit 61f193d9af1ab5449c550651b6e0e55aae36b172)</title></circle>
<circle cx="1.3295" cy="13.7870" r="0.1000"><title>213 entries @ 2023-12-17 23:19:26 +0800
(commit 420ee15f58e7748d254a0a7f50b422d7e8e67b23)</title></circle>
<circle cx="0.7728" cy="13.8410" r="0.1000"><title>159 entries @ 2023-10-07 19:08:43 +0800
(commit 786eda36bc676ec15c372852449a0dec5732d0b1)</title></circle>
<circle cx="0.4225" cy="13.8930" r="0.1000"><title>107 entries @ 2023-08-24 00:19:05 +0800
(commit aaa88481d717e9a46bfed88bb50001c6aa98cb81)</title></circle>
<circle cx="0.3440" cy="13.9140" r="0.1000"><title>86 entries @ 2023-08-13 23:30:52 +0800
(commit 891ee4206094bf477d58519e38b21f6b52b176f7)</title></circle>
<circle cx="0.3276" cy="13.9530" r="0.1000"><title>47 entries @ 2023-08-11 21:17:41 +0800
(commit e3203ab1601128ce050a2e6ce1ddabf4c09c2ce5)</title></circle>
<circle cx="0.2870" cy="13.9610" r="0.1000"><title>39 entries @ 2023-08-06 16:35:25 +0800
(commit 5a19c46942612ec7ef2e026b8a302065d239625b)</title></circle>
<circle cx="0.2818" cy="13.9620" r="0.1000"><title>38 entries @ 2023-08-06 00:42:58 +0800
(commit cef6a7bba0d1ae4d3a304b926aa3aaaaaf79dc01)</title></circle>
<circle cx="0.2814" cy="13.9620" r="0.1000"><title>38 entries @ 2023-08-05 23:21:27 +0800
(commit 3013bb8719b0395df080d799dd5816ddabc10cdc)</title></circle>
<circle cx="0.2808" cy="13.9620" r="0.1000"><title>38 entries @ 2023-08-05 21:40:39 +0800
(commit 4cfedab0f74aa4787e5edc3c90e414bb26bf7109)</title></circle>
<circle cx="0.2799" cy="13.9620" r="0.1000"><title>38 entries @ 2023-08-05 18:56:54 +0800
(commit 3082f003c1a7fae2704577e85aaafd167a51f164)</title></circle>
<circle cx="0.2795" cy="13.9620" r="0.1000"><title>38 entries @ 2023-08-05 17:40:18 +0800
(commit 7ef068e7997c9a1214dcf27e449b2f9783ebe35a)</title></circle>
<circle cx="0.2741" cy="13.9620" r="0.1000"><title>38 entries @ 2023-08-05 00:57:28 +0800
(commit a57003a44c72a9c6b4dce9aac963efedfbb82a3e)</title></circle>
<circle cx="0.2736" cy="13.9620" r="0.1000"><title>38 entries @ 2023-08-04 23:29:58 +0800
(commit c695a1039a50bcc14a36dcdae54eebb1d7fae95a)</title></circle>
<circle cx="0.2659" cy="13.9620" r="0.1000"><title>38 entries @ 2023-08-04 00:00:43 +0800
(commit d5110e749ba487b49924f116ac206a883fb9c4a7)</title></circle>
<circle cx="0.2578" cy="13.9620" r="0.1000"><title>38 entries @ 2023-08-02 22:56:30 +0800
(commit 776615b3ab89a326b4cc5f95c5a9ea2436296b5f)</title></circle>
<circle cx="0.2500" cy="13.9620" r="0.1000"><title>38 entries @ 2023-08-01 23:06:34 +0800
(commit 60b749a8e1f291ac0bbfce1235a2411f0207b456)</title></circle>
<circle cx="0.2269" cy="13.9710" r="0.1000"><title>29 entries @ 2023-07-30 00:21:35 +0800
(commit e755452bdc46d5f8349cb2a91d0d3c0cc4b2d016)</title></circle>
<circle cx="0.1947" cy="13.9740" r="0.1000"><title>26 entries @ 2023-07-25 21:31:31 +0800
(commit 9b1ab2262e4490c36d45776c6c5570f56c4ae107)</title></circle>
<circle cx="0.1687" cy="13.9820" r="0.1000"><title>18 entries @ 2023-07-22 13:44:55 +0800
(commit 9e59e0472bdefa6d9eba0b81235f5905c101a300)</title></circle>
<circle cx="0.1570" cy="13.9900" r="0.1000"><title>10 entries @ 2023-07-21 01:39:55 +0800
(commit 4c783b21db1567e6d7c6e13d1cc39af4da256268)</title></circle>
<circle cx="0.1557" cy="14.0000" r="0.1000"><title>0 entries @ 2023-07-20 21:39:40 +0800
(commit 263685863f91821c9cefca68e1899910e88be118)</title></circle>
</svg>
