<?xml version="1.0" encoding="UTF-8"?>
<svg viewBox="-6 -4 28 22" width="960px" xmlns="http://www.w3.org/2000/svg">
<style>
circle:hover {fill: #cf1338}
circle {fill: black}
line, polyline {stroke: black; stroke-width: 0.1042%}polyline {stroke: #cf1338}line.projected {stroke: blue; stroke-dasharray: 1.0417%}
polyline {fill: none}text {font-family: sans-serif; font-size: 1px; text-anchor: middle}
text.projected {fill: blue; font-size: 0.7px}
text.tick {font-size: 0.7px}
text.title {fill: #cf1338; font-size: 1.1px}
</style>
<text class="title" x="8.0000" y="-2.0000">Conway's Cantonese Dictionary: Progress</text><line x1="0.0000" y1="14.0000" x2="20.0000" y2="14.0000"/>
<text x="10.0000" y="14.0000" dy="3em">Time</text>
<line x1="1.4392" y1="14.0000" x2="1.4392" y2="14.2000"/>
<text class="tick" x="1.4392" y="14.2000" dy="1.3em">2024</text>
<line x1="4.3019" y1="14.0000" x2="4.3019" y2="14.2000"/>
<text class="tick" x="4.3019" y="14.2000" dy="1.3em">2025</text>
<line x1="7.1568" y1="14.0000" x2="7.1568" y2="14.2000"/>
<text class="tick" x="7.1568" y="14.2000" dy="1.3em">2026</text>
<line x1="10.0117" y1="14.0000" x2="10.0117" y2="14.2000"/>
<text class="tick" x="10.0117" y="14.2000" dy="1.3em">2027</text>
<line x1="12.8666" y1="14.0000" x2="12.8666" y2="14.2000"/>
<text class="tick" x="12.8666" y="14.2000" dy="1.3em">2028</text>
<line x1="15.7294" y1="14.0000" x2="15.7294" y2="14.2000"/>
<text class="tick" x="15.7294" y="14.2000" dy="1.3em">2029</text>
<line x1="18.5843" y1="14.0000" x2="18.5843" y2="14.2000"/>
<text class="tick" x="18.5843" y="14.2000" dy="1.3em">2030</text>
<line x1="0.0000" y1="14.0000" x2="0.0000" y2="0.0000"/>
<text x="0.0000" y="7.0000" dy="-4em" transform="rotate(-90 0.0000 7.0000)">Entry Count</text>
<line x1="0.0000" y1="12.0000" x2="-0.2000" y2="12.0000"/>
<text class="tick" x="-0.2000" y="12.0000" dx="-2em" dy="0.33em">2000</text>
<line x1="0.0000" y1="10.0000" x2="-0.2000" y2="10.0000"/>
<text class="tick" x="-0.2000" y="10.0000" dx="-2em" dy="0.33em">4000</text>
<line x1="0.0000" y1="8.0000" x2="-0.2000" y2="8.0000"/>
<text class="tick" x="-0.2000" y="8.0000" dx="-2em" dy="0.33em">6000</text>
<line x1="0.0000" y1="6.0000" x2="-0.2000" y2="6.0000"/>
<text class="tick" x="-0.2000" y="6.0000" dx="-2em" dy="0.33em">8000</text>
<line x1="0.0000" y1="4.0000" x2="-0.2000" y2="4.0000"/>
<text class="tick" x="-0.2000" y="4.0000" dx="-2em" dy="0.33em">10000</text>
<line x1="0.0000" y1="2.0000" x2="-0.2000" y2="2.0000"/>
<text class="tick" x="-0.2000" y="2.0000" dx="-2em" dy="0.33em">12000</text>
<line class="projected" x1="0.0000" y1="1.2645" x2="20.0000" y2="1.2645"/>
<text class="projected" x="10.0000" y="1.2645" dy="-0.5em">Projected Total: 12735.5 entries</text>
<polyline points="8.7049,11.4370 8.6589,11.4630 8.5568,11.4970 8.4779,11.5340 8.2264,11.5920 8.0871,11.6460 7.8993,11.6600 7.8354,11.6640 7.7359,11.6670 7.6143,11.6790 7.2192,11.6830 7.0224,11.6880 6.8679,11.7100 6.8577,11.7240 6.8012,11.7590 6.7484,11.7900 6.7393,11.7900 6.7107,11.7900 6.6793,11.8000 6.6484,11.8000 6.6092,11.8270 6.5384,11.8900 6.2727,11.9520 6.2104,12.0010 6.1282,12.0750 6.0767,12.1300 5.8742,12.1750 5.7782,12.1870 5.7310,12.1940 5.1232,12.2020 5.0454,12.2080 4.9592,12.2110 4.8961,12.2180 4.8724,12.2190 4.8470,12.2240 4.7555,12.2230 4.7089,12.2230 4.6540,12.2230 4.5993,12.2270 4.5447,12.2320 4.4705,12.2370 4.4480,12.2390 4.3566,12.2360 4.2862,12.2340 4.2084,12.2290 4.1771,12.2320 4.1528,12.2330 4.0978,12.2370 4.0743,12.2420 4.0277,12.2700 3.9106,12.3030 3.7477,12.3500 3.6297,12.4010 3.6146,12.4100 3.5962,12.4210 3.5428,12.4850 3.4806,12.5430 3.3006,12.6040 3.0502,12.6570 2.9796,12.7070 2.9483,12.7270 2.8627,12.7760 2.6409,12.8370 2.5500,12.8950 2.4945,12.9560 2.4222,13.0120 2.3935,13.0290 2.3154,13.1000 2.2533,13.1630 2.2032,13.2280 2.0956,13.2880 1.8926,13.3490 1.7656,13.3920 1.7208,13.4520 1.6488,13.5120 1.6107,13.5520 1.5719,13.5990 1.4915,13.6500 1.4757,13.6500 1.4592,13.6870 1.4244,13.7130 1.4058,13.7280 1.3295,13.7860 0.7727,13.8420 0.4224,13.8930 0.3435,13.9180 0.3207,13.9550 0.2866,13.9620 0.2818,13.9620 0.2813,13.9620 0.2807,13.9620 0.2798,13.9620 0.2794,13.9620 0.2739,13.9620 0.2734,13.9620 0.2651,13.9620 0.2575,13.9620 0.2346,13.9620 0.2192,13.9740 0.1721,13.9740 0.1623,13.9860 0.1557,14.0000"/>
<circle cx="8.7049" cy="11.4370" r="0.1000"><title>2563 entries @ 2026-07-17 22:08:02 +0800
(commit bd9df7b2b8b8bf8929b7822b1d64760f8f74bf1d)</title></circle>
<circle cx="8.6589" cy="11.4630" r="0.1000"><title>2537 entries @ 2026-07-12 00:59:24 +0800
(commit 2707d2a6ff0056ce2628baa6b78e56ebc6e77d23)</title></circle>
<circle cx="8.5568" cy="11.4970" r="0.1000"><title>2503 entries @ 2026-06-28 23:44:13 +0800
(commit 565fba9aa3cf8a2c8fb1eb367df0d88a11c51e53)</title></circle>
<circle cx="8.4779" cy="11.5340" r="0.1000"><title>2466 entries @ 2026-06-18 21:37:53 +0800
(commit 1c8559360fee279f72a24b0e6c04f3203bedecb1)</title></circle>
<circle cx="8.2264" cy="11.5920" r="0.1000"><title>2408 entries @ 2026-05-17 17:48:14 +0800
(commit 1f770ae78566dcc1f7ea9f63a69e4d148d9bcf7d)</title></circle>
<circle cx="8.0871" cy="11.6460" r="0.1000"><title>2354 entries @ 2026-04-29 22:28:24 +0800
(commit 2ea0d345bfdb631f5b3d54807bb889ced11a3134)</title></circle>
<circle cx="7.8993" cy="11.6600" r="0.1000"><title>2340 entries @ 2026-04-05 22:20:38 +0800
(commit 3b333a8a59d76f02555da372cd7c9c2db9f1a778)</title></circle>
<circle cx="7.8354" cy="11.6640" r="0.1000"><title>2336 entries @ 2026-03-28 18:08:46 +0800
(commit 9bb0715e955b8ce78f5d3bf5c18e3b1f69ecefaf)</title></circle>
<circle cx="7.7359" cy="11.6670" r="0.1000"><title>2333 entries @ 2026-03-16 00:48:49 +0800
(commit 881ca6d54d5a65a628c67db94db0a7a850c6d058)</title></circle>
<circle cx="7.6143" cy="11.6790" r="0.1000"><title>2321 entries @ 2026-02-28 11:37:58 +0800
(commit 51815067db1e13839cd85420e818aa687d2e1902)</title></circle>
<circle cx="7.2192" cy="11.6830" r="0.1000"><title>2317 entries @ 2026-01-08 23:19:55 +0800
(commit 93bf98b00b98f9ca33efcebc20be3c3d0277df55)</title></circle>
<circle cx="7.0224" cy="11.6880" r="0.1000"><title>2312 entries @ 2025-12-14 19:26:26 +0800
(commit 523f9eb75cc93587a39c471f108013665e502b02)</title></circle>
<circle cx="6.8679" cy="11.7100" r="0.1000"><title>2290 entries @ 2025-11-25 01:36:22 +0800
(commit 2f1eb78320c0eafc088e8e341fc686a78c7bc58e)</title></circle>
<circle cx="6.8577" cy="11.7240" r="0.1000"><title>2276 entries @ 2025-11-23 18:05:51 +0800
(commit 3d0ce67f8580447a508fb56fa54d851dc2232e60)</title></circle>
<circle cx="6.8012" cy="11.7590" r="0.1000"><title>2241 entries @ 2025-11-16 12:40:57 +0800
(commit 3ba78f01be53a6c487e4185f684bb1e8a5ebf5b6)</title></circle>
<circle cx="6.7484" cy="11.7900" r="0.1000"><title>2210 entries @ 2025-11-09 18:42:10 +0800
(commit 40a7b09440a80563dc0401baf2818e0639070424)</title></circle>
<circle cx="6.7393" cy="11.7900" r="0.1000"><title>2210 entries @ 2025-11-08 14:49:42 +0800
(commit 6249ba1195b9509db47b5eb721aa8e932a7913e2)</title></circle>
<circle cx="6.7107" cy="11.7900" r="0.1000"><title>2210 entries @ 2025-11-04 23:14:41 +0800
(commit c1e9da16f9d7b280d6eaa93f3ececb27133f7a84)</title></circle>
<circle cx="6.6793" cy="11.8000" r="0.1000"><title>2200 entries @ 2025-10-31 22:40:30 +0800
(commit 09b84182583de13fcb4489dc6f0f021bea4b913c)</title></circle>
<circle cx="6.6484" cy="11.8000" r="0.1000"><title>2200 entries @ 2025-10-28 00:00:42 +0800
(commit a763fe61fbfed9902d57b446ab2770e173ae7fe8)</title></circle>
<circle cx="6.6092" cy="11.8270" r="0.1000"><title>2173 entries @ 2025-10-22 23:44:05 +0800
(commit ab86f4dfaa8572dd495f7f5467b1a88052373308)</title></circle>
<circle cx="6.5384" cy="11.8900" r="0.1000"><title>2110 entries @ 2025-10-13 22:25:49 +0800
(commit 9b56a74e37ff26fc5e09dd025c4d608953b10e5a)</title></circle>
<circle cx="6.2727" cy="11.9520" r="0.1000"><title>2048 entries @ 2025-09-09 23:02:16 +0800
(commit 179dc982131d78c3c06b3cd4d46f9425e9dc1283)</title></circle>
<circle cx="6.2104" cy="12.0010" r="0.1000"><title>1999 entries @ 2025-09-02 00:05:26 +0800
(commit d3dbfa3b5fd303afa2fc69197f4f3fdd831646fc)</title></circle>
<circle cx="6.1282" cy="12.0750" r="0.1000"><title>1925 entries @ 2025-08-22 11:41:34 +0800
(commit 80c5f5225d2dceee5c61b896a70b22e12ae4624c)</title></circle>
<circle cx="6.0767" cy="12.1300" r="0.1000"><title>1870 entries @ 2025-08-15 21:38:39 +0800
(commit e2071b2f57e42a5d05452439eb4160fa05a5b978)</title></circle>
<circle cx="5.8742" cy="12.1750" r="0.1000"><title>1825 entries @ 2025-07-21 00:18:50 +0800
(commit 1f5e44e6295558bdf8816613800c0b0a164d3040)</title></circle>
<circle cx="5.7782" cy="12.1870" r="0.1000"><title>1813 entries @ 2025-07-08 17:50:15 +0800
(commit 2a894e801a5070c5dbf4645ffd2e426082a440ac)</title></circle>
<circle cx="5.7310" cy="12.1940" r="0.1000"><title>1806 entries @ 2025-07-02 16:51:18 +0800
(commit 4f078b5a39f89e7e083cb67e09f1cbec8034c338)</title></circle>
<circle cx="5.1232" cy="12.2020" r="0.1000"><title>1798 entries @ 2025-04-16 00:06:26 +0800
(commit e383996a74ff6b26f0a2d1afdd03f5305ba9089e)</title></circle>
<circle cx="5.0454" cy="12.2080" r="0.1000"><title>1792 entries @ 2025-04-06 01:09:48 +0800
(commit a9e6e10875d34a59599a42ffc6fa408ae255cb7f)</title></circle>
<circle cx="4.9592" cy="12.2110" r="0.1000"><title>1789 entries @ 2025-03-26 00:43:20 +0800
(commit edd2b1fcd7c26bd4add0a4a25b2a538dd150f617)</title></circle>
<circle cx="4.8961" cy="12.2180" r="0.1000"><title>1782 entries @ 2025-03-17 23:09:34 +0800
(commit 2bd03b010f593f62dae3848a2d21fa5ff5da3e7a)</title></circle>
<circle cx="4.8724" cy="12.2190" r="0.1000"><title>1781 entries @ 2025-03-14 22:21:49 +0800
(commit 73a729d2e34c22a2378a499e37952f26f61e8975)</title></circle>
<circle cx="4.8470" cy="12.2240" r="0.1000"><title>1776 entries @ 2025-03-11 16:28:31 +0800
(commit 6767e64fe68076eb7d3996e1e78437cf59843d81)</title></circle>
<circle cx="4.7555" cy="12.2230" r="0.1000"><title>1777 entries @ 2025-02-27 23:54:00 +0800
(commit 0fcae1f89965f46a3ff9be24367055fab3c7fdfa)</title></circle>
<circle cx="4.7089" cy="12.2230" r="0.1000"><title>1777 entries @ 2025-02-22 00:46:46 +0800
(commit b9fd77ccc1b7dce2829c176a600aac93fad14b41)</title></circle>
<circle cx="4.6540" cy="12.2230" r="0.1000"><title>1777 entries @ 2025-02-15 00:20:17 +0800
(commit 794a35265d0e38b689c488db041e57b5d447e732)</title></circle>
<circle cx="4.5993" cy="12.2270" r="0.1000"><title>1773 entries @ 2025-02-08 00:33:24 +0800
(commit a9295294238be8341e46c7696a6213a46471adf3)</title></circle>
<circle cx="4.5447" cy="12.2320" r="0.1000"><title>1768 entries @ 2025-02-01 01:04:30 +0800
(commit 4fc3a39c0a651b79aa5d4a53354fcba809f4b2c2)</title></circle>
<circle cx="4.4705" cy="12.2370" r="0.1000"><title>1763 entries @ 2025-01-22 13:16:48 +0800
(commit 116315ecc94cd408fa50220fff1321c00ff1d1df)</title></circle>
<circle cx="4.4480" cy="12.2390" r="0.1000"><title>1761 entries @ 2025-01-19 16:08:33 +0800
(commit 3f40ea8899da8d130810537842f7f61bda66fb1d)</title></circle>
<circle cx="4.3566" cy="12.2360" r="0.1000"><title>1764 entries @ 2025-01-07 23:47:58 +0800
(commit c995c4c1d9e7ab71069d3a6209d2fa98c568b9c5)</title></circle>
<circle cx="4.2862" cy="12.2340" r="0.1000"><title>1766 entries @ 2024-12-29 23:37:38 +0800
(commit 7259a6e752379ac0c93101edec874d13f4c97a6c)</title></circle>
<circle cx="4.2084" cy="12.2290" r="0.1000"><title>1771 entries @ 2024-12-20 01:03:38 +0800
(commit 0943528e959f75eddba056dfceef4cb2fd4b6ed2)</title></circle>
<circle cx="4.1771" cy="12.2320" r="0.1000"><title>1768 entries @ 2024-12-16 00:51:49 +0800
(commit 860b8d3e4f34fafe1ee87b49fb60070bca91256f)</title></circle>
<circle cx="4.1528" cy="12.2330" r="0.1000"><title>1767 entries @ 2024-12-12 22:36:13 +0800
(commit 45def42e830fc92c0a12da86b0c537f437da18f2)</title></circle>
<circle cx="4.0978" cy="12.2370" r="0.1000"><title>1763 entries @ 2024-12-05 21:36:54 +0800
(commit c1794f5773d9d7a0b5fba3f4eb5930c072258fbe)</title></circle>
<circle cx="4.0743" cy="12.2420" r="0.1000"><title>1758 entries @ 2024-12-02 21:30:03 +0800
(commit 49962bc6b754dc561d19339ae2d33f8b2bb742eb)</title></circle>
<circle cx="4.0277" cy="12.2700" r="0.1000"><title>1730 entries @ 2024-11-26 22:36:14 +0800
(commit f7d1f07653ece29c1ad15c52d6d60febb38a6b43)</title></circle>
<circle cx="3.9106" cy="12.3030" r="0.1000"><title>1697 entries @ 2024-11-11 23:22:57 +0800
(commit d470bb01797788192af836980ac5ebc28336e740)</title></circle>
<circle cx="3.7477" cy="12.3500" r="0.1000"><title>1650 entries @ 2024-10-22 03:19:11 +0800
(commit 6128e5147e9be4de5da48cfeac948803d8cbf03a)</title></circle>
<circle cx="3.6297" cy="12.4010" r="0.1000"><title>1599 entries @ 2024-10-07 01:23:07 +0800
(commit fae3daed80372a0301abb12417add2f6d44497fd)</title></circle>
<circle cx="3.6146" cy="12.4100" r="0.1000"><title>1590 entries @ 2024-10-05 02:57:55 +0800
(commit b96e4ad7e6fc06c2f087702e480afd5d94e796ff)</title></circle>
<circle cx="3.5962" cy="12.4210" r="0.1000"><title>1579 entries @ 2024-10-02 18:34:22 +0800
(commit 8bee5e91baf0333162208a67a97bcfdcbb9ab78c)</title></circle>
<circle cx="3.5428" cy="12.4850" r="0.1000"><title>1515 entries @ 2024-09-25 22:48:05 +0800
(commit 1c946b50a659af14c43df1f882631646e8bde6e0)</title></circle>
<circle cx="3.4806" cy="12.5430" r="0.1000"><title>1457 entries @ 2024-09-17 23:50:37 +0800
(commit 8eb934e61750bcd91bd43f499e37febd14667c93)</title></circle>
<circle cx="3.3006" cy="12.6040" r="0.1000"><title>1396 entries @ 2024-08-25 23:40:58 +0800
(commit 05e35029fbed0b551b67cf665a7ba584b6159062)</title></circle>
<circle cx="3.0502" cy="12.6570" r="0.1000"><title>1343 entries @ 2024-07-24 23:21:27 +0800
(commit 2016d88a4de402aa9652476e8205936ae8da3465)</title></circle>
<circle cx="2.9796" cy="12.7070" r="0.1000"><title>1293 entries @ 2024-07-15 22:45:00 +0800
(commit 65d1cf69462cce5a535e5ec6c8e750d55a17176f)</title></circle>
<circle cx="2.9483" cy="12.7270" r="0.1000"><title>1273 entries @ 2024-07-11 22:35:47 +0800
(commit dc01203b59ddfa6776b99cbca052ad03674f635f)</title></circle>
<circle cx="2.8627" cy="12.7760" r="0.1000"><title>1224 entries @ 2024-06-30 23:57:51 +0800
(commit ffc65ab6d241f7c6e0ee6810b8a08f76ad18252a)</title></circle>
<circle cx="2.6409" cy="12.8370" r="0.1000"><title>1163 entries @ 2024-06-02 15:23:01 +0800
(commit c99d5bac649ac713deaf042affde29c9728f65e6)</title></circle>
<circle cx="2.5500" cy="12.8950" r="0.1000"><title>1105 entries @ 2024-05-22 00:33:38 +0800
(commit 9b3736efdacc72e57cd215a049ddf575045b40b6)</title></circle>
<circle cx="2.4945" cy="12.9560" r="0.1000"><title>1044 entries @ 2024-05-14 22:05:30 +0800
(commit 18045a5700f9170d560bca08f9efc12166d06ee6)</title></circle>
<circle cx="2.4222" cy="13.0120" r="0.1000"><title>988 entries @ 2024-05-05 16:11:57 +0800
(commit 57db84bf61086c1f7f8a572550083623b5ea6c51)</title></circle>
<circle cx="2.3935" cy="13.0290" r="0.1000"><title>971 entries @ 2024-05-02 00:07:02 +0800
(commit 462c01d026b9812fade84fcf19592924e0a74f27)</title></circle>
<circle cx="2.3154" cy="13.1000" r="0.1000"><title>900 entries @ 2024-04-22 00:25:43 +0800
(commit 32f68a65f4332c46246579420bc8b535caafc857)</title></circle>
<circle cx="2.2533" cy="13.1630" r="0.1000"><title>837 entries @ 2024-04-14 01:57:59 +0800
(commit a60a97e013eb743692b93da3d75b64478f243b9c)</title></circle>
<circle cx="2.2032" cy="13.2280" r="0.1000"><title>772 entries @ 2024-04-07 16:10:14 +0800
(commit 55364842a04a8bbd8903525b2d2f7c6c12315e86)</title></circle>
<circle cx="2.0956" cy="13.2880" r="0.1000"><title>712 entries @ 2024-03-24 22:11:01 +0800
(commit 4062f03f608690cf8289f403646ba49c7098a916)</title></circle>
<circle cx="1.8926" cy="13.3490" r="0.1000"><title>651 entries @ 2024-02-27 23:07:07 +0800
(commit ce294e2504fe57dee3ec21cdde4f26ea1ca227f8)</title></circle>
<circle cx="1.7656" cy="13.3920" r="0.1000"><title>608 entries @ 2024-02-11 17:27:01 +0800
(commit c6a25d4600563b2655c199c0f2200540b1f353d5)</title></circle>
<circle cx="1.7208" cy="13.4520" r="0.1000"><title>548 entries @ 2024-02-06 00:07:15 +0800
(commit c5b3ed03c099eddb45b8f661cc8232751ad3d70b)</title></circle>
<circle cx="1.6488" cy="13.5120" r="0.1000"><title>488 entries @ 2024-01-27 19:07:07 +0800
(commit 9f9253dfaee8f98ee604cc4f7c63a37286561d3a)</title></circle>
<circle cx="1.6107" cy="13.5520" r="0.1000"><title>448 entries @ 2024-01-22 22:14:25 +0800
(commit 33003f8b324dfd1adb625c072be21b58e0e2ab53)</title></circle>
<circle cx="1.5719" cy="13.5990" r="0.1000"><title>401 entries @ 2024-01-17 23:18:09 +0800
(commit 9510616e04355d422cbc7b0652e8bb58368198ae)</title></circle>
<circle cx="1.4915" cy="13.6500" r="0.1000"><title>350 entries @ 2024-01-07 16:27:12 +0800
(commit da099ef8c54991e5986b54bb3e7d5f2fdec08d95)</title></circle>
<circle cx="1.4757" cy="13.6500" r="0.1000"><title>350 entries @ 2024-01-05 16:08:12 +0800
(commit 0ce09eb12ecbae5e9d1b60cc075b5a62122c147b)</title></circle>
<circle cx="1.4592" cy="13.6870" r="0.1000"><title>313 entries @ 2024-01-03 13:28:08 +0800
(commit 0c360841f72828212ac8ff97af38960ed7530ad7)</title></circle>
<circle cx="1.4244" cy="13.7130" r="0.1000"><title>287 entries @ 2023-12-30 02:39:40 +0800
(commit 3d998d123fa675d599662dccf954d831d725b5f6)</title></circle>
<circle cx="1.4058" cy="13.7280" r="0.1000"><title>272 entries @ 2023-12-27 17:25:48 +0800
(commit 1ba09242b09bac0d3d321db3f6cd20c17662dfd4)</title></circle>
<circle cx="1.3295" cy="13.7860" r="0.1000"><title>214 entries @ 2023-12-17 23:31:01 +0800
(commit ef252caab9ec847afe8d6831e5f9209fe6805a6a)</title></circle>
<circle cx="0.7727" cy="13.8420" r="0.1000"><title>158 entries @ 2023-10-07 19:04:45 +0800
(commit 08460c22791470413ef99a9bea8b586261d31964)</title></circle>
<circle cx="0.4224" cy="13.8930" r="0.1000"><title>107 entries @ 2023-08-24 00:02:17 +0800
(commit b3ca6b77612773b3f7e75d0c49a243fb1ade3c42)</title></circle>
<circle cx="0.3435" cy="13.9180" r="0.1000"><title>82 entries @ 2023-08-13 22:01:02 +0800
(commit a94bda4da5e09d2d32acab8c268acc3062555c8a)</title></circle>
<circle cx="0.3207" cy="13.9550" r="0.1000"><title>45 entries @ 2023-08-11 00:04:22 +0800
(commit 01a821d37a3f32cd84a9fe7857da125c14c26eeb)</title></circle>
<circle cx="0.2866" cy="13.9620" r="0.1000"><title>38 entries @ 2023-08-06 15:21:33 +0800
(commit 4141a3333ad04be3b96f871900b972611c8633b3)</title></circle>
<circle cx="0.2818" cy="13.9620" r="0.1000"><title>38 entries @ 2023-08-06 00:31:43 +0800
(commit 013704089a11be71a50fd0838600c612fd9b0edc)</title></circle>
<circle cx="0.2813" cy="13.9620" r="0.1000"><title>38 entries @ 2023-08-05 23:09:05 +0800
(commit ab210371d9896f7f3dc8ca595ddab10eb9a63e55)</title></circle>
<circle cx="0.2807" cy="13.9620" r="0.1000"><title>38 entries @ 2023-08-05 21:19:37 +0800
(commit c97bd5b7610b3cb3c87c133474f745af76f67e90)</title></circle>
<circle cx="0.2798" cy="13.9620" r="0.1000"><title>38 entries @ 2023-08-05 18:36:40 +0800
(commit 24d2985f1e5d7620a9e57c0720c2411c589a2ed7)</title></circle>
<circle cx="0.2794" cy="13.9620" r="0.1000"><title>38 entries @ 2023-08-05 17:24:07 +0800
(commit d5c435ed606fb059dfbdb73361d0609bd653df31)</title></circle>
<circle cx="0.2739" cy="13.9620" r="0.1000"><title>38 entries @ 2023-08-05 00:34:17 +0800
(commit a9da8a1bb808320254aee964a1375ec09072a8e8)</title></circle>
<circle cx="0.2734" cy="13.9620" r="0.1000"><title>38 entries @ 2023-08-04 22:53:52 +0800
(commit dfb7c20772e01413a869e438baa8d5344da82d7e)</title></circle>
<circle cx="0.2651" cy="13.9620" r="0.1000"><title>38 entries @ 2023-08-03 21:21:32 +0800
(commit 8e137187722d35d5902bf637905478431f57081e)</title></circle>
<circle cx="0.2575" cy="13.9620" r="0.1000"><title>38 entries @ 2023-08-02 22:07:55 +0800
(commit 08745031bfd0ca08f83e95e011c7fe33c9e908ee)</title></circle>
<circle cx="0.2346" cy="13.9620" r="0.1000"><title>38 entries @ 2023-07-30 23:50:46 +0800
(commit 3bf28a1af5fc40d6312b76ed15f106fd57d3484f)</title></circle>
<circle cx="0.2192" cy="13.9740" r="0.1000"><title>26 entries @ 2023-07-29 00:28:34 +0800
(commit 171a396c54864e9e5a895520cf2952b52ee53af3)</title></circle>
<circle cx="0.1721" cy="13.9740" r="0.1000"><title>26 entries @ 2023-07-23 00:09:31 +0800
(commit 4ffde54f3071489c786b4dcdbaee09a6b22485ec)</title></circle>
<circle cx="0.1623" cy="13.9860" r="0.1000"><title>14 entries @ 2023-07-21 17:55:20 +0800
(commit 4930a59098854388eede1b5951cadd8a6a874517)</title></circle>
<circle cx="0.1557" cy="14.0000" r="0.1000"><title>0 entries @ 2023-07-20 21:39:40 +0800
(commit 263685863f91821c9cefca68e1899910e88be118)</title></circle>
</svg>
