<?xml version="1.0" encoding="UTF-8"?>
<svg viewBox="-6 -4 28 22" width="960px" xmlns="http://www.w3.org/2000/svg">
<style>
circle:hover {fill: #cf1338}
circle {fill: black}
line, polyline {stroke: black; stroke-width: 0.1042%}polyline {stroke: #cf1338}line.target {stroke: blue; stroke-dasharray: 1.0417%}
polyline {fill: none}text {font-family: sans-serif; font-size: 1px; text-anchor: middle}
text.target {fill: blue; font-size: 0.7px}
text.tick {font-size: 0.7px}
text.title {fill: #cf1338; font-size: 1.1px}
</style>
<text class="title" x="8.0000" y="-2.0000">Conway's Cantonese Dictionary: Progress</text><line x1="0.0000" y1="14.0000" x2="20.0000" y2="14.0000"/>
<text x="10.0000" y="14.0000" dy="3em">Time</text>
<line x1="1.4392" y1="14.0000" x2="1.4392" y2="14.2000"/>
<text class="tick" x="1.4392" y="14.2000" dy="1.3em">2024</text>
<line x1="4.3019" y1="14.0000" x2="4.3019" y2="14.2000"/>
<text class="tick" x="4.3019" y="14.2000" dy="1.3em">2025</text>
<line x1="7.1568" y1="14.0000" x2="7.1568" y2="14.2000"/>
<text class="tick" x="7.1568" y="14.2000" dy="1.3em">2026</text>
<line x1="10.0117" y1="14.0000" x2="10.0117" y2="14.2000"/>
<text class="tick" x="10.0117" y="14.2000" dy="1.3em">2027</text>
<line x1="12.8666" y1="14.0000" x2="12.8666" y2="14.2000"/>
<text class="tick" x="12.8666" y="14.2000" dy="1.3em">2028</text>
<line x1="15.7294" y1="14.0000" x2="15.7294" y2="14.2000"/>
<text class="tick" x="15.7294" y="14.2000" dy="1.3em">2029</text>
<line x1="18.5843" y1="14.0000" x2="18.5843" y2="14.2000"/>
<text class="tick" x="18.5843" y="14.2000" dy="1.3em">2030</text>
<line x1="0.0000" y1="14.0000" x2="0.0000" y2="0.0000"/>
<text x="0.0000" y="7.0000" dy="-4em" transform="rotate(-90 0.0000 7.0000)">Entry Count</text>
<line x1="0.0000" y1="12.0000" x2="-0.2000" y2="12.0000"/>
<text class="tick" x="-0.2000" y="12.0000" dx="-2em" dy="0.33em">2000</text>
<line x1="0.0000" y1="10.0000" x2="-0.2000" y2="10.0000"/>
<text class="tick" x="-0.2000" y="10.0000" dx="-2em" dy="0.33em">4000</text>
<line x1="0.0000" y1="8.0000" x2="-0.2000" y2="8.0000"/>
<text class="tick" x="-0.2000" y="8.0000" dx="-2em" dy="0.33em">6000</text>
<line x1="0.0000" y1="6.0000" x2="-0.2000" y2="6.0000"/>
<text class="tick" x="-0.2000" y="6.0000" dx="-2em" dy="0.33em">8000</text>
<line x1="0.0000" y1="4.0000" x2="-0.2000" y2="4.0000"/>
<text class="tick" x="-0.2000" y="4.0000" dx="-2em" dy="0.33em">10000</text>
<line x1="0.0000" y1="2.0000" x2="-0.2000" y2="2.0000"/>
<text class="tick" x="-0.2000" y="2.0000" dx="-2em" dy="0.33em">12000</text>
<line class="target" x1="0.0000" y1="1.0000" x2="20.0000" y2="1.0000"/>
<text class="target" x="10.0000" y="1.0000" dy="-0.5em">Approximate Target: 13000 entries</text>
<polyline points="7.7359,11.6670 7.6183,11.6790 7.2584,11.6820 7.0320,11.6870 6.9459,11.6950 6.8595,11.7200 6.8358,11.7460 6.7738,11.7700 6.7464,11.7900 6.7344,11.7900 6.7027,11.7900 6.6784,11.8000 6.6481,11.8000 6.6094,11.8250 6.5391,11.8840 6.3628,11.9400 6.2414,11.9900 6.1553,12.0450 6.0926,12.1060 5.9740,12.1560 5.8714,12.1820 5.7610,12.1890 5.6996,12.1960 5.0887,12.2030 5.0443,12.2090 4.9587,12.2110 4.8966,12.2180 4.8730,12.2200 4.8490,12.2220 4.7785,12.2230 4.7242,12.2230 4.6695,12.2240 4.6218,12.2260 4.5837,12.2290 4.5176,12.2370 4.4585,12.2370 4.4351,12.2400 4.3492,12.2360 4.2862,12.2340 4.2278,12.2290 4.1840,12.2320 4.1535,12.2330 4.1063,12.2360 4.0824,12.2400 4.0668,12.2450 4.0124,12.2780 3.8841,12.3250 3.7004,12.3630 3.6279,12.4090 3.6144,12.4100 3.5946,12.4230 3.5429,12.4850 3.4875,12.5370 3.4183,12.5920 3.0798,12.6410 3.0115,12.6920 2.9716,12.7090 2.9156,12.7500 2.8314,12.8050 2.5888,12.8530 2.5342,12.9150 2.4788,12.9710 2.4221,13.0120 2.3933,13.0310 2.3228,13.0960 2.2602,13.1560 2.2055,13.2160 2.1273,13.2670 1.9711,13.3310 1.8222,13.3690 1.7523,13.4230 1.7051,13.4800 1.6268,13.5300 1.6031,13.5580 1.5714,13.6060 1.4863,13.6500 1.4757,13.6500 1.4619,13.6820 1.4254,13.7130 1.4075,13.7140 1.3688,13.7690 1.0869,13.8210 0.6251,13.8710 0.3751,13.8970 0.3367,13.9310 0.3123,13.9560 0.2826,13.9620 0.2817,13.9620 0.2813,13.9620 0.2807,13.9620 0.2799,13.9620 0.2795,13.9620 0.2741,13.9620 0.2736,13.9620 0.2730,13.9620 0.2579,13.9620 0.2571,13.9620 0.2342,13.9620 0.2111,13.9740 0.1706,13.9740 0.1618,13.9880 0.1557,14.0000"/>
<circle cx="7.7359" cy="11.6670" r="0.1000"><title>2333 entries @ 2026-03-16 00:48:49 +0800
(commit 881ca6d54d5a65a628c67db94db0a7a850c6d058)</title></circle>
<circle cx="7.6183" cy="11.6790" r="0.1000"><title>2321 entries @ 2026-02-28 23:55:11 +0800
(commit 13c47205a17caa7f2cbd7c2f3225f816a82a1579)</title></circle>
<circle cx="7.2584" cy="11.6820" r="0.1000"><title>2318 entries @ 2026-01-13 23:41:12 +0800
(commit a779f2badf4aa10ce420c941a5fc2c54d102bd68)</title></circle>
<circle cx="7.0320" cy="11.6870" r="0.1000"><title>2313 entries @ 2025-12-16 01:01:32 +0800
(commit 23780fa3d01bfc1ea163e54ba028744382444f23)</title></circle>
<circle cx="6.9459" cy="11.6950" r="0.1000"><title>2305 entries @ 2025-12-05 00:44:17 +0800
(commit 5e225301eb082991b5684d05f16be12b3d1c99be)</title></circle>
<circle cx="6.8595" cy="11.7200" r="0.1000"><title>2280 entries @ 2025-11-23 23:45:30 +0800
(commit aaa1729a770c59127d8c457285a0ee24af1c577a)</title></circle>
<circle cx="6.8358" cy="11.7460" r="0.1000"><title>2254 entries @ 2025-11-20 22:49:14 +0800
(commit dc79973d604afa1253346b65bfa2d1d222ee7288)</title></circle>
<circle cx="6.7738" cy="11.7700" r="0.1000"><title>2230 entries @ 2025-11-13 00:52:18 +0800
(commit 2b3c0544077dcb11fb56b4dfb2653596356c55d9)</title></circle>
<circle cx="6.7464" cy="11.7900" r="0.1000"><title>2210 entries @ 2025-11-09 12:44:10 +0800
(commit fe4492fe4498a854746a52ef685c37bb9866b694)</title></circle>
<circle cx="6.7344" cy="11.7900" r="0.1000"><title>2210 entries @ 2025-11-07 23:54:59 +0800
(commit c9e73720dee28cbbc9455508d2a48de60e59d6ed)</title></circle>
<circle cx="6.7027" cy="11.7900" r="0.1000"><title>2210 entries @ 2025-11-03 22:26:27 +0800
(commit 6556809e869a90cef04e8fd69db09597ac0fa024)</title></circle>
<circle cx="6.6784" cy="11.8000" r="0.1000"><title>2200 entries @ 2025-10-31 20:00:36 +0800
(commit b944926143bd51703e7cc9509bf292bc827901c1)</title></circle>
<circle cx="6.6481" cy="11.8000" r="0.1000"><title>2200 entries @ 2025-10-27 23:10:32 +0800
(commit 4c1e8c5c0fbf59a62d99ee6bbd175ca07335e50c)</title></circle>
<circle cx="6.6094" cy="11.8250" r="0.1000"><title>2175 entries @ 2025-10-23 00:08:55 +0800
(commit e5f67ebea47e9f3e8e7ba701eff6662af217e5c4)</title></circle>
<circle cx="6.5391" cy="11.8840" r="0.1000"><title>2116 entries @ 2025-10-14 00:36:23 +0800
(commit 8319dac31ea6aecb1e8449abd85542db734a9fb0)</title></circle>
<circle cx="6.3628" cy="11.9400" r="0.1000"><title>2060 entries @ 2025-09-21 11:28:06 +0800
(commit 2308e90d5a9eedc5e53fe91e320bb5e7e803729d)</title></circle>
<circle cx="6.2414" cy="11.9900" r="0.1000"><title>2010 entries @ 2025-09-05 22:58:16 +0800
(commit 04db99faa482e8edca2be8104712edeada77f532)</title></circle>
<circle cx="6.1553" cy="12.0450" r="0.1000"><title>1955 entries @ 2025-08-25 22:48:34 +0800
(commit 72ae421b0a02b8f3aae8dee4fb0e00a80c0517ab)</title></circle>
<circle cx="6.0926" cy="12.1060" r="0.1000"><title>1894 entries @ 2025-08-17 22:39:00 +0800
(commit e675005c76bca578a709133c3837afd9ef81b452)</title></circle>
<circle cx="5.9740" cy="12.1560" r="0.1000"><title>1844 entries @ 2025-08-02 18:46:00 +0800
(commit 95410be057ceff6a9fed17ede1512f81734a6de0)</title></circle>
<circle cx="5.8714" cy="12.1820" r="0.1000"><title>1818 entries @ 2025-07-20 15:44:52 +0800
(commit b2bed0ac1a185277685d1f429528139e584a6ca8)</title></circle>
<circle cx="5.7610" cy="12.1890" r="0.1000"><title>1811 entries @ 2025-07-06 13:09:56 +0800
(commit 8511d50422a99ba741d0f950fdf1eb59d00509c4)</title></circle>
<circle cx="5.6996" cy="12.1960" r="0.1000"><title>1804 entries @ 2025-06-28 16:30:38 +0800
(commit b9479288143383ddeb318f5831dbb1bccb73f77d)</title></circle>
<circle cx="5.0887" cy="12.2030" r="0.1000"><title>1797 entries @ 2025-04-11 14:13:03 +0800
(commit 24490580ea11bf9eca9bd26e8e6c8d841ab31f28)</title></circle>
<circle cx="5.0443" cy="12.2090" r="0.1000"><title>1791 entries @ 2025-04-05 21:54:20 +0800
(commit 9c83e79d40f37f992a997f3ad5cf47629b68312d)</title></circle>
<circle cx="4.9587" cy="12.2110" r="0.1000"><title>1789 entries @ 2025-03-25 23:24:43 +0800
(commit 227e88a7ef15cf889e8e2b22248deed7251942d4)</title></circle>
<circle cx="4.8966" cy="12.2180" r="0.1000"><title>1782 entries @ 2025-03-18 00:41:26 +0800
(commit 1b914ef9b3787e0f2b6c0dd4eaf3b46e8d5b8d00)</title></circle>
<circle cx="4.8730" cy="12.2200" r="0.1000"><title>1780 entries @ 2025-03-15 00:21:43 +0800
(commit 24b5ae7c98cb4e0110e65518bacdef14bb56fb50)</title></circle>
<circle cx="4.8490" cy="12.2220" r="0.1000"><title>1778 entries @ 2025-03-11 22:41:05 +0800
(commit 259a374683cb04b1a60fff10c30b74e12142c290)</title></circle>
<circle cx="4.7785" cy="12.2230" r="0.1000"><title>1777 entries @ 2025-03-02 22:12:36 +0800
(commit eecee3b373562fbeb381c7d0c07d0a741dd72d91)</title></circle>
<circle cx="4.7242" cy="12.2230" r="0.1000"><title>1777 entries @ 2025-02-23 23:36:50 +0800
(commit 0facc58757dbee021ec9ec839ffdcb5faa0d2b1f)</title></circle>
<circle cx="4.6695" cy="12.2240" r="0.1000"><title>1776 entries @ 2025-02-16 23:56:24 +0800
(commit 94e6ce086f5cae7c985e121a97f87609237b34ba)</title></circle>
<circle cx="4.6218" cy="12.2260" r="0.1000"><title>1774 entries @ 2025-02-10 21:24:42 +0800
(commit e94f646329ec686088147dc2e2c47b433db4e815)</title></circle>
<circle cx="4.5837" cy="12.2290" r="0.1000"><title>1771 entries @ 2025-02-06 00:42:03 +0800
(commit c69c0741e73d1c8b1c7a1f783fd76bd72622e36f)</title></circle>
<circle cx="4.5176" cy="12.2370" r="0.1000"><title>1763 entries @ 2025-01-28 13:43:30 +0800
(commit cc1548f427cbb15bfaa607cba3772804b2c90e2a)</title></circle>
<circle cx="4.4585" cy="12.2370" r="0.1000"><title>1763 entries @ 2025-01-21 00:28:25 +0800
(commit b93b8339666c47b176e09fced96a551897f2811d)</title></circle>
<circle cx="4.4351" cy="12.2400" r="0.1000"><title>1760 entries @ 2025-01-18 00:40:04 +0800
(commit 3aef864e06147892a8c229a015aa7fedecfab2ab)</title></circle>
<circle cx="4.3492" cy="12.2360" r="0.1000"><title>1764 entries @ 2025-01-07 01:08:11 +0800
(commit 804ad312d5f1ae0b4776e90d26d01fcf21844e08)</title></circle>
<circle cx="4.2862" cy="12.2340" r="0.1000"><title>1766 entries @ 2024-12-29 23:37:38 +0800
(commit 7259a6e752379ac0c93101edec874d13f4c97a6c)</title></circle>
<circle cx="4.2278" cy="12.2290" r="0.1000"><title>1771 entries @ 2024-12-22 12:42:39 +0800
(commit 6a7de8cdc0fe6ba8da4b0c1ae8b6814c7cf012c1)</title></circle>
<circle cx="4.1840" cy="12.2320" r="0.1000"><title>1768 entries @ 2024-12-16 22:12:12 +0800
(commit efcf5949ea36d59e9ef72d5b9ae72f2b6a61c2dc)</title></circle>
<circle cx="4.1535" cy="12.2330" r="0.1000"><title>1767 entries @ 2024-12-13 00:27:42 +0800
(commit 81529fb1b9031f2dc9079a952ea1037b3bb3696c)</title></circle>
<circle cx="4.1063" cy="12.2360" r="0.1000"><title>1764 entries @ 2024-12-06 23:39:49 +0800
(commit 89717e53a3bc144b709d85325f946b6f3b4a989e)</title></circle>
<circle cx="4.0824" cy="12.2400" r="0.1000"><title>1760 entries @ 2024-12-03 22:29:46 +0800
(commit 9613003c35b1ac91a4dcf7f4e70192a318fc61bb)</title></circle>
<circle cx="4.0668" cy="12.2450" r="0.1000"><title>1755 entries @ 2024-12-01 22:30:16 +0800
(commit 4e4564af9114a0b91f54337dcc7bd1d5822fba91)</title></circle>
<circle cx="4.0124" cy="12.2780" r="0.1000"><title>1722 entries @ 2024-11-24 23:33:13 +0800
(commit ad61d80c1f5cf9264f4780c15a36f6c6ffbd20c6)</title></circle>
<circle cx="3.8841" cy="12.3250" r="0.1000"><title>1675 entries @ 2024-11-08 14:00:41 +0800
(commit b25dca8ce774879b0915c4e2c9350e91aac55fb7)</title></circle>
<circle cx="3.7004" cy="12.3630" r="0.1000"><title>1637 entries @ 2024-10-16 02:19:25 +0800
(commit a93f506d195291fca4cff0244bc33e231e18fe8f)</title></circle>
<circle cx="3.6279" cy="12.4090" r="0.1000"><title>1591 entries @ 2024-10-06 19:43:45 +0800
(commit 6d377f8463df4822b127c0f907fab2d24c7dfe2a)</title></circle>
<circle cx="3.6144" cy="12.4100" r="0.1000"><title>1590 entries @ 2024-10-05 02:18:18 +0800
(commit c036e43c1e7a9e17349becad6e65bb7dc562df59)</title></circle>
<circle cx="3.5946" cy="12.4230" r="0.1000"><title>1577 entries @ 2024-10-02 13:45:16 +0800
(commit eb5cf2fb291bc28875b3e526c88434d3ab8677fe)</title></circle>
<circle cx="3.5429" cy="12.4850" r="0.1000"><title>1515 entries @ 2024-09-25 23:03:34 +0800
(commit b0f5745fa06d6e63a9d9a1c301ef19fd1a00f40f)</title></circle>
<circle cx="3.4875" cy="12.5370" r="0.1000"><title>1463 entries @ 2024-09-18 21:11:27 +0800
(commit d468030010343ebcbc13693286f828c8e0bf1336)</title></circle>
<circle cx="3.4183" cy="12.5920" r="0.1000"><title>1408 entries @ 2024-09-10 00:36:57 +0800
(commit e3b9b4b351699f4e7ef2e43af4d83a561d9931b0)</title></circle>
<circle cx="3.0798" cy="12.6410" r="0.1000"><title>1359 entries @ 2024-07-28 18:01:02 +0800
(commit 3e679491c50285d74dae425d47c612927d6046ab)</title></circle>
<circle cx="3.0115" cy="12.6920" r="0.1000"><title>1308 entries @ 2024-07-20 00:27:41 +0800
(commit 14dbceb6aba6746f45badd3a8234c86d1b0a5a56)</title></circle>
<circle cx="2.9716" cy="12.7090" r="0.1000"><title>1291 entries @ 2024-07-14 21:55:20 +0800
(commit 3cdd338fe941dfa77199794d615cfde649bc5f8c)</title></circle>
<circle cx="2.9156" cy="12.7500" r="0.1000"><title>1250 entries @ 2024-07-07 18:10:04 +0800
(commit a797f0daa2cc155ef222fa959ec0a985c9bcd84e)</title></circle>
<circle cx="2.8314" cy="12.8050" r="0.1000"><title>1195 entries @ 2024-06-26 23:46:12 +0800
(commit eaa8223148ca2d1e17d7ec3640989faa31d2b1bb)</title></circle>
<circle cx="2.5888" cy="12.8530" r="0.1000"><title>1147 entries @ 2024-05-26 23:31:33 +0800
(commit 7a33c77e531f2f2d826ba7548552e80035fbaefd)</title></circle>
<circle cx="2.5342" cy="12.9150" r="0.1000"><title>1085 entries @ 2024-05-19 23:53:03 +0800
(commit 303883e250cbdc15807ffd6063b3ba4038f872f2)</title></circle>
<circle cx="2.4788" cy="12.9710" r="0.1000"><title>1029 entries @ 2024-05-12 21:58:20 +0800
(commit 8fb5068aa2337d4aee6e8ecb3801e18579e8ccb4)</title></circle>
<circle cx="2.4221" cy="13.0120" r="0.1000"><title>988 entries @ 2024-05-05 15:56:03 +0800
(commit 10f225686a4ae28535367576df4b157ad63dc7fb)</title></circle>
<circle cx="2.3933" cy="13.0310" r="0.1000"><title>969 entries @ 2024-05-01 23:31:41 +0800
(commit 7e73c7c98d303b4470a00115799795fc9e56a99d)</title></circle>
<circle cx="2.3228" cy="13.0960" r="0.1000"><title>904 entries @ 2024-04-22 23:13:53 +0800
(commit e2435b6f44911436b8a1ceca91c540fbed151bbf)</title></circle>
<circle cx="2.2602" cy="13.1560" r="0.1000"><title>844 entries @ 2024-04-14 23:04:38 +0800
(commit 9923825de604e957b2a108a7098c66a422028846)</title></circle>
<circle cx="2.2055" cy="13.2160" r="0.1000"><title>784 entries @ 2024-04-07 23:14:27 +0800
(commit 653087f3b984be3601019494dfb7b82e3268b9b5)</title></circle>
<circle cx="2.1273" cy="13.2670" r="0.1000"><title>733 entries @ 2024-03-28 23:27:05 +0800
(commit 6fb3e468531addd4bc2e7e060d6dc26c2bd1924a)</title></circle>
<circle cx="1.9711" cy="13.3310" r="0.1000"><title>669 entries @ 2024-03-09 00:11:55 +0800
(commit 4a43e1bd9bdb355e524a5522421de366c28d5d13)</title></circle>
<circle cx="1.8222" cy="13.3690" r="0.1000"><title>631 entries @ 2024-02-18 23:13:10 +0800
(commit fb0fe96f5e6628da4a843ee3a89e96813b041dce)</title></circle>
<circle cx="1.7523" cy="13.4230" r="0.1000"><title>577 entries @ 2024-02-10 00:37:02 +0800
(commit e98ff9271ceefdab0465edca6189d0acc8600e9b)</title></circle>
<circle cx="1.7051" cy="13.4800" r="0.1000"><title>520 entries @ 2024-02-03 23:48:44 +0800
(commit 11633be5a49a8c2827b887d03f8927fb54f35ccd)</title></circle>
<circle cx="1.6268" cy="13.5300" r="0.1000"><title>470 entries @ 2024-01-24 23:36:03 +0800
(commit 37af531259f3947c9383a98268fbb932970180ae)</title></circle>
<circle cx="1.6031" cy="13.5580" r="0.1000"><title>442 entries @ 2024-01-21 22:52:13 +0800
(commit 3c209373ef8cebc111b00fb4171cd2cbe7fecc14)</title></circle>
<circle cx="1.5714" cy="13.6060" r="0.1000"><title>394 entries @ 2024-01-17 21:35:21 +0800
(commit 75ee53f411b8b01b189b4b91e7bed5d8798d0fdf)</title></circle>
<circle cx="1.4863" cy="13.6500" r="0.1000"><title>350 entries @ 2024-01-07 00:26:15 +0800
(commit 3d607200672efcbc1672c7f0c68d0e082b581841)</title></circle>
<circle cx="1.4757" cy="13.6500" r="0.1000"><title>350 entries @ 2024-01-05 16:08:12 +0800
(commit 0ce09eb12ecbae5e9d1b60cc075b5a62122c147b)</title></circle>
<circle cx="1.4619" cy="13.6820" r="0.1000"><title>318 entries @ 2024-01-03 21:46:05 +0800
(commit c1da0d6b9df07c7cc70ba8713c338b559b4401ff)</title></circle>
<circle cx="1.4254" cy="13.7130" r="0.1000"><title>287 entries @ 2023-12-30 05:48:53 +0800
(commit f302db14230b5efc1baf092beb1ff1c22b31ffb0)</title></circle>
<circle cx="1.4075" cy="13.7140" r="0.1000"><title>286 entries @ 2023-12-27 22:51:32 +0800
(commit c33545aa7608f7971ddc8accc815471f316ef305)</title></circle>
<circle cx="1.3688" cy="13.7690" r="0.1000"><title>231 entries @ 2023-12-22 23:57:49 +0800
(commit 44d8fd951965c205ca1c8ff9ea4680bb8268be11)</title></circle>
<circle cx="1.0869" cy="13.8210" r="0.1000"><title>179 entries @ 2023-11-16 23:00:03 +0800
(commit 03facb0b2fe09429c5f3e3b1ee12de4e79dedc97)</title></circle>
<circle cx="0.6251" cy="13.8710" r="0.1000"><title>129 entries @ 2023-09-18 22:05:41 +0800
(commit bfb121a9137f5a726d701e5169789586e894eb91)</title></circle>
<circle cx="0.3751" cy="13.8970" r="0.1000"><title>103 entries @ 2023-08-17 22:56:03 +0800
(commit 32354b936c2df43f7e6b1a1f550e810215e47491)</title></circle>
<circle cx="0.3367" cy="13.9310" r="0.1000"><title>69 entries @ 2023-08-13 01:13:29 +0800
(commit a60e8a73133c803bbe891e0787d1f78388fe020e)</title></circle>
<circle cx="0.3123" cy="13.9560" r="0.1000"><title>44 entries @ 2023-08-09 22:23:08 +0800
(commit c90de19280cd8cd2ae5f7a0977367dcb4aa360ef)</title></circle>
<circle cx="0.2826" cy="13.9620" r="0.1000"><title>38 entries @ 2023-08-06 03:05:33 +0800
(commit 73399a5b3a5eb17f2d291a8fe09a8cbe29531c8f)</title></circle>
<circle cx="0.2817" cy="13.9620" r="0.1000"><title>38 entries @ 2023-08-06 00:20:59 +0800
(commit 3d82ed34641c99c671dfa79dc6e6eb0e3bccb661)</title></circle>
<circle cx="0.2813" cy="13.9620" r="0.1000"><title>38 entries @ 2023-08-05 23:05:30 +0800
(commit 3590407ccf4df803f3e57fe76c8ebd84114465f5)</title></circle>
<circle cx="0.2807" cy="13.9620" r="0.1000"><title>38 entries @ 2023-08-05 21:20:47 +0800
(commit a9a2fa4b1b7c0155b31e03227f10b53db8854884)</title></circle>
<circle cx="0.2799" cy="13.9620" r="0.1000"><title>38 entries @ 2023-08-05 18:43:54 +0800
(commit 8aae64cdc2c63c6a2a4b37819fb9c5bea187caf1)</title></circle>
<circle cx="0.2795" cy="13.9620" r="0.1000"><title>38 entries @ 2023-08-05 17:36:34 +0800
(commit 888dda2107c15975b6f62100399416aa8ba413f6)</title></circle>
<circle cx="0.2741" cy="13.9620" r="0.1000"><title>38 entries @ 2023-08-05 00:56:35 +0800
(commit 1dd22be1a14786089e5280598453be00cc09ebe6)</title></circle>
<circle cx="0.2736" cy="13.9620" r="0.1000"><title>38 entries @ 2023-08-04 23:34:47 +0800
(commit aa494a68c563d59672025f27fd17a187abb64a0a)</title></circle>
<circle cx="0.2730" cy="13.9620" r="0.1000"><title>38 entries @ 2023-08-04 21:44:51 +0800
(commit 2285308b2d84d604b0010b9cd9695786d91cf4a0)</title></circle>
<circle cx="0.2579" cy="13.9620" r="0.1000"><title>38 entries @ 2023-08-02 23:19:41 +0800
(commit ed57ab7704c5137c3c41c14c83382438255053c5)</title></circle>
<circle cx="0.2571" cy="13.9620" r="0.1000"><title>38 entries @ 2023-08-02 20:54:00 +0800
(commit c769d7d6124e534dd3444b03e5f5589626e47481)</title></circle>
<circle cx="0.2342" cy="13.9620" r="0.1000"><title>38 entries @ 2023-07-30 22:29:00 +0800
(commit 8b1527bdef3bb8d30986f344d7b7eefbcfc4292c)</title></circle>
<circle cx="0.2111" cy="13.9740" r="0.1000"><title>26 entries @ 2023-07-27 23:52:21 +0800
(commit aa959ee8c631cf998d2a4426d5925937fa574dd9)</title></circle>
<circle cx="0.1706" cy="13.9740" r="0.1000"><title>26 entries @ 2023-07-22 19:28:56 +0800
(commit 97e64e17716a94a455bd13deb8ce0f009b852444)</title></circle>
<circle cx="0.1618" cy="13.9880" r="0.1000"><title>12 entries @ 2023-07-21 16:27:38 +0800
(commit bffc1e0c8a7ac9773e12e0814ea1742eb8bf32e1)</title></circle>
<circle cx="0.1557" cy="14.0000" r="0.1000"><title>0 entries @ 2023-07-20 21:39:40 +0800
(commit 263685863f91821c9cefca68e1899910e88be118)</title></circle>
</svg>
