<?xml version="1.0" encoding="UTF-8"?>
<svg viewBox="-6 -4 28 22" width="960px" xmlns="http://www.w3.org/2000/svg">
<style>
circle:hover {fill: #cf1338}
circle {fill: black}
line, polyline {stroke: black; stroke-width: 0.1042%}polyline {stroke: #cf1338}line.target {stroke: blue; stroke-dasharray: 1.0417%}
polyline {fill: none}text {font-family: sans-serif; font-size: 1px; text-anchor: middle}
text.target {fill: blue; font-size: 0.7px}
text.tick {font-size: 0.7px}
text.title {fill: #cf1338; font-size: 1.1px}
</style>
<text class="title" x="8.0000" y="-2.0000">Conway's Cantonese Dictionary: Progress</text><line x1="0.0000" y1="14.0000" x2="20.0000" y2="14.0000"/>
<text x="10.0000" y="14.0000" dy="3em">Time</text>
<line x1="1.4392" y1="14.0000" x2="1.4392" y2="14.2000"/>
<text class="tick" x="1.4392" y="14.2000" dy="1.3em">2024</text>
<line x1="4.3019" y1="14.0000" x2="4.3019" y2="14.2000"/>
<text class="tick" x="4.3019" y="14.2000" dy="1.3em">2025</text>
<line x1="7.1568" y1="14.0000" x2="7.1568" y2="14.2000"/>
<text class="tick" x="7.1568" y="14.2000" dy="1.3em">2026</text>
<line x1="10.0117" y1="14.0000" x2="10.0117" y2="14.2000"/>
<text class="tick" x="10.0117" y="14.2000" dy="1.3em">2027</text>
<line x1="12.8666" y1="14.0000" x2="12.8666" y2="14.2000"/>
<text class="tick" x="12.8666" y="14.2000" dy="1.3em">2028</text>
<line x1="15.7294" y1="14.0000" x2="15.7294" y2="14.2000"/>
<text class="tick" x="15.7294" y="14.2000" dy="1.3em">2029</text>
<line x1="18.5843" y1="14.0000" x2="18.5843" y2="14.2000"/>
<text class="tick" x="18.5843" y="14.2000" dy="1.3em">2030</text>
<line x1="0.0000" y1="14.0000" x2="0.0000" y2="0.0000"/>
<text x="0.0000" y="7.0000" dy="-4em" transform="rotate(-90 0.0000 7.0000)">Entry Count</text>
<line x1="0.0000" y1="12.0000" x2="-0.2000" y2="12.0000"/>
<text class="tick" x="-0.2000" y="12.0000" dx="-2em" dy="0.33em">2000</text>
<line x1="0.0000" y1="10.0000" x2="-0.2000" y2="10.0000"/>
<text class="tick" x="-0.2000" y="10.0000" dx="-2em" dy="0.33em">4000</text>
<line x1="0.0000" y1="8.0000" x2="-0.2000" y2="8.0000"/>
<text class="tick" x="-0.2000" y="8.0000" dx="-2em" dy="0.33em">6000</text>
<line x1="0.0000" y1="6.0000" x2="-0.2000" y2="6.0000"/>
<text class="tick" x="-0.2000" y="6.0000" dx="-2em" dy="0.33em">8000</text>
<line x1="0.0000" y1="4.0000" x2="-0.2000" y2="4.0000"/>
<text class="tick" x="-0.2000" y="4.0000" dx="-2em" dy="0.33em">10000</text>
<line x1="0.0000" y1="2.0000" x2="-0.2000" y2="2.0000"/>
<text class="tick" x="-0.2000" y="2.0000" dx="-2em" dy="0.33em">12000</text>
<line class="target" x1="0.0000" y1="1.0000" x2="20.0000" y2="1.0000"/>
<text class="target" x="10.0000" y="1.0000" dy="-0.5em">Approximate Target: 13000 entries</text>
<polyline points="8.3925,11.5560 8.2048,11.6140 8.0011,11.6520 7.8897,11.6630 7.8127,11.6640 7.7115,11.6710 7.5706,11.6790 7.1609,11.6860 7.0215,11.6880 6.8668,11.7150 6.8512,11.7300 6.7965,11.7620 6.7481,11.7900 6.7384,11.7900 6.7102,11.7900 6.6789,11.8000 6.6483,11.8000 6.6092,11.8270 6.5387,11.8870 6.2801,11.9490 6.2333,11.9970 6.1391,12.0630 6.0844,12.1210 5.9052,12.1660 5.8314,12.1860 5.7483,12.1930 5.5109,12.2020 5.0684,12.2050 4.9977,12.2100 4.9122,12.2170 4.8862,12.2200 4.8498,12.2220 4.7791,12.2230 4.7243,12.2230 4.6695,12.2240 4.6151,12.2250 4.5815,12.2300 4.5134,12.2360 4.4507,12.2370 4.4112,12.2390 4.3377,12.2330 4.2841,12.2330 4.2075,12.2290 4.1762,12.2330 4.1298,12.2350 4.0831,12.2370 4.0675,12.2430 4.0199,12.2780 3.9026,12.3130 3.7035,12.3560 3.6287,12.4050 3.6144,12.4100 3.5814,12.4250 3.5425,12.4880 3.4806,12.5440 3.3006,12.6040 3.0504,12.6550 2.9803,12.7060 2.9490,12.7210 2.8706,12.7690 2.6748,12.8300 2.5576,12.8850 2.5023,12.9460 2.4247,13.0030 2.4092,13.0120 2.3312,13.0820 2.2607,13.1460 2.2128,13.2080 2.1277,13.2630 1.9711,13.3310 1.8219,13.3720 1.7518,13.4280 1.6970,13.4920 1.6251,13.5350 1.5878,13.5740 1.5555,13.6190 1.4780,13.6500 1.4697,13.6540 1.4366,13.7120 1.4212,13.7140 1.3849,13.7490 1.2979,13.8030 0.7084,13.8630 0.4064,13.8940 0.3404,13.9300 0.3127,13.9560 0.2826,13.9620 0.2817,13.9620 0.2813,13.9620 0.2807,13.9620 0.2798,13.9620 0.2794,13.9620 0.2739,13.9620 0.2734,13.9620 0.2653,13.9620 0.2575,13.9620 0.2347,13.9620 0.2232,13.9740 0.1778,13.9740 0.1638,13.9860 0.1563,14.0000 0.1557,14.0000"/>
<circle cx="8.3925" cy="11.5560" r="0.1000"><title>2444 entries @ 2026-06-07 23:27:30 +0800
(commit 062db52ae6c39385ba2ad2b79ff6e53db22f2d5c)</title></circle>
<circle cx="8.2048" cy="11.6140" r="0.1000"><title>2386 entries @ 2026-05-14 23:29:57 +0800
(commit 78666d5727084c20432e41168788a8cc303a7c1c)</title></circle>
<circle cx="8.0011" cy="11.6520" r="0.1000"><title>2348 entries @ 2026-04-18 22:33:20 +0800
(commit fe4c5633698aa68f4e60e9d00628a87ef130e9aa)</title></circle>
<circle cx="7.8897" cy="11.6630" r="0.1000"><title>2337 entries @ 2026-04-04 16:41:22 +0800
(commit 6b37e9ec8f53097afa63529ebe4c75d842bc8cd3)</title></circle>
<circle cx="7.8127" cy="11.6640" r="0.1000"><title>2336 entries @ 2026-03-25 20:35:55 +0800
(commit 180d99ca1ff71732ad05decf2bde1c7db38b9b8e)</title></circle>
<circle cx="7.7115" cy="11.6710" r="0.1000"><title>2329 entries @ 2026-03-12 21:58:35 +0800
(commit 3a616977bdfaa66232f0fbbe7abdb12c09b9b549)</title></circle>
<circle cx="7.5706" cy="11.6790" r="0.1000"><title>2321 entries @ 2026-02-22 21:32:48 +0800
(commit 8340bf611382788ee7bd899e2a9375b66a174f39)</title></circle>
<circle cx="7.1609" cy="11.6860" r="0.1000"><title>2314 entries @ 2026-01-01 12:31:57 +0800
(commit a981f44ec74064a2e1775420a8dbeb39593db5be)</title></circle>
<circle cx="7.0215" cy="11.6880" r="0.1000"><title>2312 entries @ 2025-12-14 16:52:10 +0800
(commit dc60d37432f1eef0ac3f387509ea007fa3713705)</title></circle>
<circle cx="6.8668" cy="11.7150" r="0.1000"><title>2285 entries @ 2025-11-24 22:10:06 +0800
(commit 728d9a5e68419e4d1eccfdf2131d33d26f3d7f71)</title></circle>
<circle cx="6.8512" cy="11.7300" r="0.1000"><title>2270 entries @ 2025-11-22 22:05:19 +0800
(commit c3a52a58b1444ffafb83657d462073f33ca5adab)</title></circle>
<circle cx="6.7965" cy="11.7620" r="0.1000"><title>2238 entries @ 2025-11-15 22:14:16 +0800
(commit de6875a90eb4c1ca2792815d235f07628672cbc3)</title></circle>
<circle cx="6.7481" cy="11.7900" r="0.1000"><title>2210 entries @ 2025-11-09 17:54:38 +0800
(commit 37bc5f76b0adfc8ed5a0bf65bf114c2c009466b2)</title></circle>
<circle cx="6.7384" cy="11.7900" r="0.1000"><title>2210 entries @ 2025-11-08 12:11:55 +0800
(commit b8748164917b28e13c2ebe23154ed3af78cb7f63)</title></circle>
<circle cx="6.7102" cy="11.7900" r="0.1000"><title>2210 entries @ 2025-11-04 21:41:42 +0800
(commit 1c8567cca8fe800225ab3197bd7380e9d1cd2e38)</title></circle>
<circle cx="6.6789" cy="11.8000" r="0.1000"><title>2200 entries @ 2025-10-31 21:31:00 +0800
(commit a299facfc462e83ca50a115a0594fc9e5ac268eb)</title></circle>
<circle cx="6.6483" cy="11.8000" r="0.1000"><title>2200 entries @ 2025-10-27 23:46:41 +0800
(commit 30f4c4216e5e144584170f577e823a90effef7a2)</title></circle>
<circle cx="6.6092" cy="11.8270" r="0.1000"><title>2173 entries @ 2025-10-22 23:44:05 +0800
(commit ab86f4dfaa8572dd495f7f5467b1a88052373308)</title></circle>
<circle cx="6.5387" cy="11.8870" r="0.1000"><title>2113 entries @ 2025-10-13 23:19:17 +0800
(commit ca35acc3b076b81beb66a17dfb218edf14ed5a48)</title></circle>
<circle cx="6.2801" cy="11.9490" r="0.1000"><title>2051 entries @ 2025-09-10 21:59:41 +0800
(commit f542bd2eb94ff374d8cc25fc4289b8de25594b45)</title></circle>
<circle cx="6.2333" cy="11.9970" r="0.1000"><title>2003 entries @ 2025-09-04 22:18:57 +0800
(commit 05edcfbf42b7f46de12c4a4a9dc0f6383ac83249)</title></circle>
<circle cx="6.1391" cy="12.0630" r="0.1000"><title>1937 entries @ 2025-08-23 21:19:21 +0800
(commit 83b9a2f22889f12327dd9f3badf112865aac6841)</title></circle>
<circle cx="6.0844" cy="12.1210" r="0.1000"><title>1879 entries @ 2025-08-16 21:28:57 +0800
(commit 97d9a9986796b1d07c75716d7b9c12c6244bb56b)</title></circle>
<circle cx="5.9052" cy="12.1660" r="0.1000"><title>1834 entries @ 2025-07-24 23:37:43 +0800
(commit 4a7f44781d7b0e2f40d02f73859176577cca4f5e)</title></circle>
<circle cx="5.8314" cy="12.1860" r="0.1000"><title>1814 entries @ 2025-07-15 13:03:12 +0800
(commit 7c567e8dcbc787fd6be7b0af370ef3a145b6cb88)</title></circle>
<circle cx="5.7483" cy="12.1930" r="0.1000"><title>1807 entries @ 2025-07-04 22:10:52 +0800
(commit 366ff08e02e6580aa2f96ee9b3f04971ee018691)</title></circle>
<circle cx="5.5109" cy="12.2020" r="0.1000"><title>1798 entries @ 2025-06-04 13:36:51 +0800
(commit 3487cd2f089ab88b910264551ee501a4a1e611c9)</title></circle>
<circle cx="5.0684" cy="12.2050" r="0.1000"><title>1795 entries @ 2025-04-08 23:59:54 +0800
(commit 38ecdcb0a1d21349b6a96ce57cef06cb108b3a49)</title></circle>
<circle cx="4.9977" cy="12.2100" r="0.1000"><title>1790 entries @ 2025-03-30 22:54:25 +0800
(commit 855069ea57022da1a259c6b11be4f814d1504e6f)</title></circle>
<circle cx="4.9122" cy="12.2170" r="0.1000"><title>1783 entries @ 2025-03-20 00:28:16 +0800
(commit 6d4e043d35b67555023d1deeb2dc1ffd126b5335)</title></circle>
<circle cx="4.8862" cy="12.2200" r="0.1000"><title>1780 entries @ 2025-03-16 16:39:51 +0800
(commit 9f892d7e350893e87c8b9eeade8ecb584868eb33)</title></circle>
<circle cx="4.8498" cy="12.2220" r="0.1000"><title>1778 entries @ 2025-03-12 01:09:17 +0800
(commit c441a36fabfaf7033227596c48e853b5b2ab537a)</title></circle>
<circle cx="4.7791" cy="12.2230" r="0.1000"><title>1777 entries @ 2025-03-03 00:07:30 +0800
(commit e702945bc9c265c36f626854d9c632ee308229d2)</title></circle>
<circle cx="4.7243" cy="12.2230" r="0.1000"><title>1777 entries @ 2025-02-24 00:04:21 +0800
(commit f528034e365ead0f4e38e55ba69b418b44083a5b)</title></circle>
<circle cx="4.6695" cy="12.2240" r="0.1000"><title>1776 entries @ 2025-02-16 23:56:24 +0800
(commit 94e6ce086f5cae7c985e121a97f87609237b34ba)</title></circle>
<circle cx="4.6151" cy="12.2250" r="0.1000"><title>1775 entries @ 2025-02-10 01:04:11 +0800
(commit 28580cc827ee58908aa6a6c834c5f3ee4a66022d)</title></circle>
<circle cx="4.5815" cy="12.2300" r="0.1000"><title>1770 entries @ 2025-02-05 17:54:13 +0800
(commit b643ef4012b6f9b498cacc2b0033b2ca92f9edb0)</title></circle>
<circle cx="4.5134" cy="12.2360" r="0.1000"><title>1764 entries @ 2025-01-28 00:59:28 +0800
(commit 405c6f3539d2cff2ce2611e3f0d2425de3513981)</title></circle>
<circle cx="4.4507" cy="12.2370" r="0.1000"><title>1763 entries @ 2025-01-20 00:35:12 +0800
(commit 4730c352958455d601f1ecc88754cc126fbebada)</title></circle>
<circle cx="4.4112" cy="12.2390" r="0.1000"><title>1761 entries @ 2025-01-14 23:19:13 +0800
(commit d944cb16648f718b602f84208eb70752cbd78ae9)</title></circle>
<circle cx="4.3377" cy="12.2330" r="0.1000"><title>1767 entries @ 2025-01-05 13:41:13 +0800
(commit 88016d2f818a07462a0037b9b1bdaa1380743834)</title></circle>
<circle cx="4.2841" cy="12.2330" r="0.1000"><title>1767 entries @ 2024-12-29 17:13:09 +0800
(commit 12bd79596b6b23ea38f38ca0cc378a42620611ff)</title></circle>
<circle cx="4.2075" cy="12.2290" r="0.1000"><title>1771 entries @ 2024-12-19 22:16:58 +0800
(commit 7c738c0e14bba3a8f3cf7f95a44f9b98a0039c97)</title></circle>
<circle cx="4.1762" cy="12.2330" r="0.1000"><title>1767 entries @ 2024-12-15 22:23:09 +0800
(commit 6a42921fe86809a429d2242c8521d80856fa26fe)</title></circle>
<circle cx="4.1298" cy="12.2350" r="0.1000"><title>1765 entries @ 2024-12-09 23:46:46 +0800
(commit 0557d1f9bb5da4aa2c820a056b34240d0d7fdbd9)</title></circle>
<circle cx="4.0831" cy="12.2370" r="0.1000"><title>1763 entries @ 2024-12-04 00:39:59 +0800
(commit 3addcc41b75c76bf8b42f19523b5b808702673d3)</title></circle>
<circle cx="4.0675" cy="12.2430" r="0.1000"><title>1757 entries @ 2024-12-02 00:38:46 +0800
(commit ac8d6185a1e3d716d29ce3a70dbd2fb9a46c2c2e)</title></circle>
<circle cx="4.0199" cy="12.2780" r="0.1000"><title>1722 entries @ 2024-11-25 22:35:03 +0800
(commit ecebfc7ae7ea5b2c728260b46e686e1179933da1)</title></circle>
<circle cx="3.9026" cy="12.3130" r="0.1000"><title>1687 entries @ 2024-11-10 22:52:23 +0800
(commit 9330c6f843179f16782efa352d9e8776769feff0)</title></circle>
<circle cx="3.7035" cy="12.3560" r="0.1000"><title>1644 entries @ 2024-10-16 11:54:54 +0800
(commit 239905b0f6c80092776d76163d37c4bfb519a0b1)</title></circle>
<circle cx="3.6287" cy="12.4050" r="0.1000"><title>1595 entries @ 2024-10-06 22:25:09 +0800
(commit c58eed01a2c10f331a9975191157f233599795fa)</title></circle>
<circle cx="3.6144" cy="12.4100" r="0.1000"><title>1590 entries @ 2024-10-05 02:28:18 +0800
(commit 8c22c998e97d2d1dd9b9457f2d9b5a3f71bf10bb)</title></circle>
<circle cx="3.5814" cy="12.4250" r="0.1000"><title>1575 entries @ 2024-09-30 21:17:50 +0800
(commit 4391aa3aefa633a9c0e46d5f87dc783708aeef4a)</title></circle>
<circle cx="3.5425" cy="12.4880" r="0.1000"><title>1512 entries @ 2024-09-25 21:55:05 +0800
(commit 00e724f0b17985d615aab718a94ab7a2c9a82711)</title></circle>
<circle cx="3.4806" cy="12.5440" r="0.1000"><title>1456 entries @ 2024-09-17 23:48:20 +0800
(commit 6f167fc78bc568ba75a7530d96fd3ac8e7bd1df4)</title></circle>
<circle cx="3.3006" cy="12.6040" r="0.1000"><title>1396 entries @ 2024-08-25 23:40:58 +0800
(commit 05e35029fbed0b551b67cf665a7ba584b6159062)</title></circle>
<circle cx="3.0504" cy="12.6550" r="0.1000"><title>1345 entries @ 2024-07-24 23:41:39 +0800
(commit 7047d8398a19efd9941af2b340bf466a7745d0be)</title></circle>
<circle cx="2.9803" cy="12.7060" r="0.1000"><title>1294 entries @ 2024-07-16 00:44:15 +0800
(commit 826f2189ed3f308ef148ba14843bfb48cccd6327)</title></circle>
<circle cx="2.9490" cy="12.7210" r="0.1000"><title>1279 entries @ 2024-07-12 00:49:48 +0800
(commit 099b5ad309c2a5a6d96ad27d88d509bdb91fef02)</title></circle>
<circle cx="2.8706" cy="12.7690" r="0.1000"><title>1231 entries @ 2024-07-02 00:15:07 +0800
(commit fa64a0d81fe33ebd8dcef4093c37f428d19687eb)</title></circle>
<circle cx="2.6748" cy="12.8300" r="0.1000"><title>1170 entries @ 2024-06-06 23:26:37 +0800
(commit 295685e570dde80181611e873efcd09055e33994)</title></circle>
<circle cx="2.5576" cy="12.8850" r="0.1000"><title>1115 entries @ 2024-05-22 23:49:59 +0800
(commit 03aaba5ec755905d8344b04087c503953dda2c86)</title></circle>
<circle cx="2.5023" cy="12.9460" r="0.1000"><title>1054 entries @ 2024-05-15 22:02:30 +0800
(commit c768f9f6f1cd159e2a47b466139d8300a0d2cf73)</title></circle>
<circle cx="2.4247" cy="13.0030" r="0.1000"><title>997 entries @ 2024-05-05 23:57:05 +0800
(commit 8229ea1a410b959f83e4b6c76a3266b24c25b9c1)</title></circle>
<circle cx="2.4092" cy="13.0120" r="0.1000"><title>988 entries @ 2024-05-04 00:27:13 +0800
(commit f48fcd67a8900ef84af99244ae43533fff17762c)</title></circle>
<circle cx="2.3312" cy="13.0820" r="0.1000"><title>918 entries @ 2024-04-24 00:57:45 +0800
(commit a6144cc3f6d89a3daafd207fb2fee4ef990e01b5)</title></circle>
<circle cx="2.2607" cy="13.1460" r="0.1000"><title>854 entries @ 2024-04-15 00:38:47 +0800
(commit bcc84ef27e3e12931810b0e2d3afda1f7d3ef437)</title></circle>
<circle cx="2.2128" cy="13.2080" r="0.1000"><title>792 entries @ 2024-04-08 21:36:57 +0800
(commit 2a130647248ffdc2786e9b5a24f1c37ee62085fe)</title></circle>
<circle cx="2.1277" cy="13.2630" r="0.1000"><title>737 entries @ 2024-03-29 00:42:54 +0800
(commit 0e989d509b84a79586180a2105981f624613e523)</title></circle>
<circle cx="1.9711" cy="13.3310" r="0.1000"><title>669 entries @ 2024-03-09 00:11:55 +0800
(commit 4a43e1bd9bdb355e524a5522421de366c28d5d13)</title></circle>
<circle cx="1.8219" cy="13.3720" r="0.1000"><title>628 entries @ 2024-02-18 22:20:26 +0800
(commit de732b98cee7e9f15ba880fb3c7e1573afd9310e)</title></circle>
<circle cx="1.7518" cy="13.4280" r="0.1000"><title>572 entries @ 2024-02-09 23:04:55 +0800
(commit a4e0613f2a3ac01dd1728c30c94cc48a7062f01e)</title></circle>
<circle cx="1.6970" cy="13.4920" r="0.1000"><title>508 entries @ 2024-02-02 23:11:28 +0800
(commit ce224c04b01bf7780a35738d39fb9f6b531a1092)</title></circle>
<circle cx="1.6251" cy="13.5350" r="0.1000"><title>465 entries @ 2024-01-24 18:23:49 +0800
(commit 685d06bdb19075d49f5a17ab4ab50786ac647f0c)</title></circle>
<circle cx="1.5878" cy="13.5740" r="0.1000"><title>426 entries @ 2024-01-20 00:09:05 +0800
(commit 6e2a46340643e406257beae477051a0ff51ed995)</title></circle>
<circle cx="1.5555" cy="13.6190" r="0.1000"><title>381 entries @ 2024-01-15 20:54:59 +0800
(commit bcbcaed1508eed90fcae72df262b2a09022327fe)</title></circle>
<circle cx="1.4780" cy="13.6500" r="0.1000"><title>350 entries @ 2024-01-05 23:03:20 +0800
(commit 38f7827d9b50296cd397f2eb71c9bad87432a772)</title></circle>
<circle cx="1.4697" cy="13.6540" r="0.1000"><title>346 entries @ 2024-01-04 21:31:53 +0800
(commit 0bf697d46fa3e508cde9ead3c9fe00660ae990af)</title></circle>
<circle cx="1.4366" cy="13.7120" r="0.1000"><title>288 entries @ 2023-12-31 15:57:48 +0800
(commit 08e6cb496ac03283efdea0229f9f8abd8a7e34c9)</title></circle>
<circle cx="1.4212" cy="13.7140" r="0.1000"><title>286 entries @ 2023-12-29 16:40:34 +0800
(commit cef2b1eb59c062bb21461b62897f462a0703ad8f)</title></circle>
<circle cx="1.3849" cy="13.7490" r="0.1000"><title>251 entries @ 2023-12-25 01:28:29 +0800
(commit 782f687b9b64ea25ab9ff6407d0546a2553e4b6e)</title></circle>
<circle cx="1.2979" cy="13.8030" r="0.1000"><title>197 entries @ 2023-12-13 22:20:48 +0800
(commit 464022ba9660d28f1e198967185efc6e9707985d)</title></circle>
<circle cx="0.7084" cy="13.8630" r="0.1000"><title>137 entries @ 2023-09-29 15:43:22 +1000
(commit a3310ba392016c5c2cc0a13c76e43b42cf223433)</title></circle>
<circle cx="0.4064" cy="13.8940" r="0.1000"><title>106 entries @ 2023-08-21 23:04:25 +0800
(commit 6a3fa88332f325474397301363659c0963af8472)</title></circle>
<circle cx="0.3404" cy="13.9300" r="0.1000"><title>70 entries @ 2023-08-13 12:35:57 +0800
(commit d9e3c4c27f0fc4b29a17ebd645a1ee9f96af5f43)</title></circle>
<circle cx="0.3127" cy="13.9560" r="0.1000"><title>44 entries @ 2023-08-09 23:33:22 +0800
(commit 69d366d1fe81ae0c504c2fff2460808c9e1781e7)</title></circle>
<circle cx="0.2826" cy="13.9620" r="0.1000"><title>38 entries @ 2023-08-06 03:09:28 +0800
(commit 0fc675915468f6d02a223b025ca524e38a618a6d)</title></circle>
<circle cx="0.2817" cy="13.9620" r="0.1000"><title>38 entries @ 2023-08-06 00:19:42 +0800
(commit 9d257e11f9e9787472f3a84a3aa02600504935d6)</title></circle>
<circle cx="0.2813" cy="13.9620" r="0.1000"><title>38 entries @ 2023-08-05 22:59:56 +0800
(commit fcca7a901edc97b39a848947b7fe3d9d23817653)</title></circle>
<circle cx="0.2807" cy="13.9620" r="0.1000"><title>38 entries @ 2023-08-05 21:11:01 +0800
(commit bc76adb29e73d55ffe2d317e06345aff3fd4cb9b)</title></circle>
<circle cx="0.2798" cy="13.9620" r="0.1000"><title>38 entries @ 2023-08-05 18:31:38 +0800
(commit 409d51974eaaa83405e17e2fcfa2f091764de15e)</title></circle>
<circle cx="0.2794" cy="13.9620" r="0.1000"><title>38 entries @ 2023-08-05 17:20:02 +0800
(commit ecdc84c7ff173f8023793b18c7fbe2cb0e0b8268)</title></circle>
<circle cx="0.2739" cy="13.9620" r="0.1000"><title>38 entries @ 2023-08-05 00:32:22 +0800
(commit faf7fb0f79f3efdab7e113dbbb0fe32f92dc3e11)</title></circle>
<circle cx="0.2734" cy="13.9620" r="0.1000"><title>38 entries @ 2023-08-04 22:53:52 +0800
(commit dfb7c20772e01413a869e438baa8d5344da82d7e)</title></circle>
<circle cx="0.2653" cy="13.9620" r="0.1000"><title>38 entries @ 2023-08-03 22:05:06 +0800
(commit c545c5c5e486ac093a0053516dfb2444da133829)</title></circle>
<circle cx="0.2575" cy="13.9620" r="0.1000"><title>38 entries @ 2023-08-02 22:13:26 +0800
(commit fba49335ab3f955b05d148ca8959810f3c8d3612)</title></circle>
<circle cx="0.2347" cy="13.9620" r="0.1000"><title>38 entries @ 2023-07-31 00:01:06 +0800
(commit aae63dca89d03f8a7a6dbea1382cf7a9850914c4)</title></circle>
<circle cx="0.2232" cy="13.9740" r="0.1000"><title>26 entries @ 2023-07-29 13:01:02 +0800
(commit 778777a79fe4499a9ab9e068863329ae6a07f613)</title></circle>
<circle cx="0.1778" cy="13.9740" r="0.1000"><title>26 entries @ 2023-07-23 17:39:23 +0800
(commit 032e75ba30bdaed84480b682e80e8b6448c01e67)</title></circle>
<circle cx="0.1638" cy="13.9860" r="0.1000"><title>14 entries @ 2023-07-21 22:43:52 +0800
(commit 9ac15e0f771d69b375d20ad014fd8f52f78e76ab)</title></circle>
<circle cx="0.1563" cy="14.0000" r="0.1000"><title>0 entries @ 2023-07-20 23:29:01 +0800
(commit acb1fe0b7898c1715382c16675889189a992c4ac)</title></circle>
<circle cx="0.1557" cy="14.0000" r="0.1000"><title>0 entries @ 2023-07-20 21:39:40 +0800
(commit 263685863f91821c9cefca68e1899910e88be118)</title></circle>
</svg>
