<?xml version="1.0" encoding="UTF-8"?>
<svg viewBox="-4 -2 26 20" width="1024px" xmlns="http://www.w3.org/2000/svg">
<style>
circle {fill: red}
line, polyline {stroke: black; stroke-width: 0.0977%}polyline {fill: none}text {font-family: sans-serif; font-size: 1px; text-anchor: middle}
</style>
<line x1="0.0000" y1="14.0000" x2="20.0000" y2="14.0000"/>
<text x="10.0000" y="14.0000" dy="3em">Date</text>
<line x1="0.0000" y1="14.0000" x2="0.0000" y2="0.0000"/>
<text x="0.0000" y="7.0000" dy="-2.5em" transform="rotate(-90 0.0000 7.0000)">Entry Count</text>
<circle cx="7.6104" cy="11.5005" r="0.1000"><title>commit 9ac6d8ed57872d2400a5a650f6ab5ee5223adb2d
2026-02-27 23:39:25 +0800
2321 entries</title></circle>
<circle cx="7.0234" cy="11.5102" r="0.1000"><title>commit 35e8c5b964d9c754658d0190a254af0dcb1bf92a
2025-12-14 22:44:06 +0800
2312 entries</title></circle>
<circle cx="6.8593" cy="11.5446" r="0.1000"><title>commit 760c9db895727eb4ea3e3eaf0e889d38298b5ef6
2025-11-23 22:55:45 +0800
2280 entries</title></circle>
<circle cx="6.7726" cy="11.6060" r="0.1000"><title>commit 61575df6475196febea2072283fe98d158129b95
2025-11-12 21:07:25 +0800
2223 entries</title></circle>
<circle cx="6.7268" cy="11.6200" r="0.1000"><title>commit 948f464220129ad06627b1c2b810ddd13e4c0312
2025-11-07 00:29:25 +0800
2210 entries</title></circle>
<circle cx="6.6713" cy="11.6308" r="0.1000"><title>commit b2ab573ea9363c07ec5e71a3b2369288b38df055
2025-10-30 22:22:07 +0800
2200 entries</title></circle>
<circle cx="6.6013" cy="11.6685" r="0.1000"><title>commit 2381d51433ae619647664662ba742df48ce108b2
2025-10-21 23:28:08 +0800
2165 entries</title></circle>
<circle cx="6.2802" cy="11.7902" r="0.1000"><title>commit f0058ffec14a150d229b2580cd89ea93efd09ee3
2025-09-10 22:11:49 +0800
2052 entries</title></circle>
<circle cx="6.1476" cy="11.9011" r="0.1000"><title>commit 8ab3a8b68ef151027ce874a034e25e89ecd82343
2025-08-24 23:23:46 +0800
1949 entries</title></circle>
<circle cx="5.9519" cy="12.0163" r="0.1000"><title>commit d4d3e399d32588317a7c10f84ddc44b02dc841bc
2025-07-30 22:52:58 +0800
1842 entries</title></circle>
<circle cx="5.7608" cy="12.0529" r="0.1000"><title>commit 37bde2d37aadb9d6948ba635e233e3f8f9846127
2025-07-06 12:32:23 +0800
1808 entries</title></circle>
<circle cx="5.0845" cy="12.0648" r="0.1000"><title>commit 205ee76da034245149932f1e1b2671821cfda00a
2025-04-11 01:11:05 +0800
1797 entries</title></circle>
<circle cx="4.9585" cy="12.0745" r="0.1000"><title>commit d70f14a844d3acef4df193463c2376ba3b78e214
2025-03-25 22:40:29 +0800
1788 entries</title></circle>
<circle cx="4.8728" cy="12.0831" r="0.1000"><title>commit ca7e0d2efbfa711bc72e95338fadf52f44cfb1c3
2025-03-14 23:47:40 +0800
1780 entries</title></circle>
<circle cx="4.7783" cy="12.0863" r="0.1000"><title>commit 1eee370e649aeb841092b113ac98835ec43c551d
2025-03-02 21:36:12 +0800
1777 entries</title></circle>
<circle cx="4.6694" cy="12.0874" r="0.1000"><title>commit d0f9cfddf8bf8d642cdd06c60f402a7c30cd74c2
2025-02-16 23:28:40 +0800
1776 entries</title></circle>
<circle cx="4.5837" cy="12.0928" r="0.1000"><title>commit c69c0741e73d1c8b1c7a1f783fd76bd72622e36f
2025-02-06 00:42:03 +0800
1771 entries</title></circle>
<circle cx="4.4585" cy="12.1014" r="0.1000"><title>commit 7cacb3c66318cfdd8d11c9f01c347711a699b8c0
2025-01-21 00:32:03 +0800
1763 entries</title></circle>
<circle cx="4.3563" cy="12.1003" r="0.1000"><title>commit 4d79ebecac5b1c96492597516d749b72cf0291e0
2025-01-07 22:53:33 +0800
1764 entries</title></circle>
<circle cx="4.2279" cy="12.0928" r="0.1000"><title>commit 803ee8c01a76041047fa412fed08838489168d6a
2024-12-22 12:51:22 +0800
1771 entries</title></circle>
<circle cx="4.1536" cy="12.0971" r="0.1000"><title>commit 6074d28b4cb97e50aed6bd8c412f947c0b0f551a
2024-12-13 00:47:56 +0800
1767 entries</title></circle>
<circle cx="4.0827" cy="12.1025" r="0.1000"><title>commit e0fba57ca2318246f7b9153b35b8e1e85f84f060
2024-12-03 23:15:49 +0800
1762 entries</title></circle>
<circle cx="4.0125" cy="12.1455" r="0.1000"><title>commit 148fafa52e7420d0d4d332422d0fd3bd315ee04e
2024-11-25 00:04:58 +0800
1722 entries</title></circle>
<circle cx="3.7015" cy="12.2328" r="0.1000"><title>commit 2bb9b63bbaeda715a21d13e859a9cb7bbea03419
2024-10-16 05:46:06 +0800
1641 entries</title></circle>
<circle cx="3.6145" cy="12.2877" r="0.1000"><title>commit 40587e1d1e048ddd9be46de60a42fea9ed018f33
2024-10-05 02:47:06 +0800
1590 entries</title></circle>
<circle cx="3.5433" cy="12.3598" r="0.1000"><title>commit 583589d1e730aa42dfcb89f7c99663144f07720a
2024-09-26 00:24:34 +0800
1523 entries</title></circle>
<circle cx="3.4256" cy="12.4762" r="0.1000"><title>commit 16f89fca681fd054d3e2b8834c2be9b1cef30774
2024-09-10 23:02:26 +0800
1415 entries</title></circle>
<circle cx="3.0257" cy="12.5838" r="0.1000"><title>commit 31775e10b8a8d5559990dc73eb6342fe4d7635bf
2024-07-21 19:54:17 +0800
1315 entries</title></circle>
<circle cx="2.9176" cy="12.6452" r="0.1000"><title>commit bd4496de857d3719af3ee28fe7aa154d0560fb4c
2024-07-08 00:17:07 +0800
1258 entries</title></circle>
<circle cx="2.6118" cy="12.7583" r="0.1000"><title>commit 39e6e2bda612cbb822df809fd76718b529a92f6c
2024-05-29 22:03:27 +0800
1153 entries</title></circle>
<circle cx="2.4945" cy="12.8757" r="0.1000"><title>commit 18045a5700f9170d560bca08f9efc12166d06ee6
2024-05-14 22:05:30 +0800
1044 entries</title></circle>
<circle cx="2.4089" cy="12.9414" r="0.1000"><title>commit 1f573623ea6d96af5523b2c2a7e36cc320567f3b
2024-05-03 23:22:37 +0800
983 entries</title></circle>
<circle cx="2.2680" cy="13.0760" r="0.1000"><title>commit 9197b5ad6929bae902fd7972b3eb036e12e8175f
2024-04-15 22:59:34 +0800
858 entries</title></circle>
<circle cx="2.1427" cy="13.1955" r="0.1000"><title>commit 778cba0500e921eb601e9f6efac7db03a2f756ae
2024-03-30 22:42:36 +0800
747 entries</title></circle>
<circle cx="1.8657" cy="13.3118" r="0.1000"><title>commit 563bd376ab592ccb74d6eda0bbe1c3da7702eb43
2024-02-24 12:38:34 +0800
639 entries</title></circle>
<circle cx="1.7113" cy="13.4195" r="0.1000"><title>commit 9357846ab7b14cd3ed84df947cefe2359df74919
2024-02-04 18:49:09 +0800
539 entries</title></circle>
<circle cx="1.6108" cy="13.5165" r="0.1000"><title>commit b896d30f0461e4fc053e2394d5fb922d36e21bb0
2024-01-22 22:33:10 +0800
449 entries</title></circle>
<circle cx="1.5323" cy="13.6145" r="0.1000"><title>commit 40921a2b962b1a9760ae97f8b708f5aec60d03db
2024-01-12 21:47:48 +0800
358 entries</title></circle>
<circle cx="1.4677" cy="13.6403" r="0.1000"><title>commit 16bf9b2ed51afe5e2ec05710284b397f8e88e390
2024-01-04 15:23:08 +0800
334 entries</title></circle>
<circle cx="1.4164" cy="13.6920" r="0.1000"><title>commit 76ef097eac60004196e52b6285674c71efecc039
2023-12-29 01:56:50 +0800
286 entries</title></circle>
<circle cx="1.2980" cy="13.7868" r="0.1000"><title>commit 3acf6f9f2988bd93713f90e87918778175d1cc64
2023-12-13 22:44:27 +0800
198 entries</title></circle>
<circle cx="0.4221" cy="13.8848" r="0.1000"><title>commit a5fea284674faec616c84ba7cb817fa6a60ac251
2023-08-23 23:06:07 +0800
107 entries</title></circle>
<circle cx="0.3208" cy="13.9515" r="0.1000"><title>commit fe9bc79a325d39ac04172c98e31f7c5f2c74d1d9
2023-08-11 00:20:19 +0800
45 entries</title></circle>
<circle cx="0.2818" cy="13.9591" r="0.1000"><title>commit 27b93b3bead810999f934bab05606f1ec54faf82
2023-08-06 00:49:29 +0800
38 entries</title></circle>
<circle cx="0.2810" cy="13.9591" r="0.1000"><title>commit 533ddd4e8c0ed73864b804abecd8dbedb148f493
2023-08-05 22:06:49 +0800
38 entries</title></circle>
<circle cx="0.2796" cy="13.9591" r="0.1000"><title>commit f406c83ff3ddc866d76de786492c18f3eda98d7b
2023-08-05 18:04:01 +0800
38 entries</title></circle>
<circle cx="0.2738" cy="13.9591" r="0.1000"><title>commit 51fa9d18997030691a5fec5ca2a93760f0306f3f
2023-08-05 00:06:42 +0800
38 entries</title></circle>
<circle cx="0.2582" cy="13.9591" r="0.1000"><title>commit e717b5b2f656e763fe82691963ce12e869f25daa
2023-08-03 00:16:25 +0800
38 entries</title></circle>
<circle cx="0.2347" cy="13.9591" r="0.1000"><title>commit aae63dca89d03f8a7a6dbea1382cf7a9850914c4
2023-07-31 00:01:06 +0800
38 entries</title></circle>
<circle cx="0.1795" cy="13.9720" r="0.1000"><title>commit d1c61665d17521e159e941369ab060267d87874d
2023-07-23 22:55:05 +0800
26 entries</title></circle>
<circle cx="0.1569" cy="13.9892" r="0.1000"><title>commit dad984081df2711ef1a693c7e3cbbc7a6f073aa6
2023-07-21 01:22:17 +0800
10 entries</title></circle>
<circle cx="0.1557" cy="14.0000" r="0.1000"><title>commit 263685863f91821c9cefca68e1899910e88be118
2023-07-20 21:39:40 +0800
0 entries</title></circle>
<polyline points="7.6104,11.5005 7.0234,11.5102 6.8593,11.5446 6.7726,11.6060 6.7268,11.6200 6.6713,11.6308 6.6013,11.6685 6.2802,11.7902 6.1476,11.9011 5.9519,12.0163 5.7608,12.0529 5.0845,12.0648 4.9585,12.0745 4.8728,12.0831 4.7783,12.0863 4.6694,12.0874 4.5837,12.0928 4.4585,12.1014 4.3563,12.1003 4.2279,12.0928 4.1536,12.0971 4.0827,12.1025 4.0125,12.1455 3.7015,12.2328 3.6145,12.2877 3.5433,12.3598 3.4256,12.4762 3.0257,12.5838 2.9176,12.6452 2.6118,12.7583 2.4945,12.8757 2.4089,12.9414 2.2680,13.0760 2.1427,13.1955 1.8657,13.3118 1.7113,13.4195 1.6108,13.5165 1.5323,13.6145 1.4677,13.6403 1.4164,13.6920 1.2980,13.7868 0.4221,13.8848 0.3208,13.9515 0.2818,13.9591 0.2810,13.9591 0.2796,13.9591 0.2738,13.9591 0.2582,13.9591 0.2347,13.9591 0.1795,13.9720 0.1569,13.9892 0.1557,14.0000"/>
</svg>
