<?xml version="1.0" encoding="UTF-8"?>
<svg viewBox="-6 -4 28 22" width="960px" xmlns="http://www.w3.org/2000/svg">
<style>
circle:hover {fill: #cf1338}
circle {fill: black}
line, polyline {stroke: black; stroke-width: 0.1042%}polyline {stroke: #cf1338}line.projected {stroke: blue; stroke-dasharray: 1.0417%}
polyline {fill: none}text {font-family: sans-serif; font-size: 1px; text-anchor: middle}
text.projected {fill: blue; font-size: 0.7px}
text.tick {font-size: 0.7px}
text.title {fill: #cf1338; font-size: 1.1px}
</style>
<text class="title" x="8.0000" y="-2.0000">Conway's Cantonese Dictionary: Progress</text><line x1="0.0000" y1="14.0000" x2="20.0000" y2="14.0000"/>
<text x="10.0000" y="14.0000" dy="3em">Time</text>
<line x1="1.4392" y1="14.0000" x2="1.4392" y2="14.2000"/>
<text class="tick" x="1.4392" y="14.2000" dy="1.3em">2024</text>
<line x1="4.3019" y1="14.0000" x2="4.3019" y2="14.2000"/>
<text class="tick" x="4.3019" y="14.2000" dy="1.3em">2025</text>
<line x1="7.1568" y1="14.0000" x2="7.1568" y2="14.2000"/>
<text class="tick" x="7.1568" y="14.2000" dy="1.3em">2026</text>
<line x1="10.0117" y1="14.0000" x2="10.0117" y2="14.2000"/>
<text class="tick" x="10.0117" y="14.2000" dy="1.3em">2027</text>
<line x1="12.8666" y1="14.0000" x2="12.8666" y2="14.2000"/>
<text class="tick" x="12.8666" y="14.2000" dy="1.3em">2028</text>
<line x1="15.7294" y1="14.0000" x2="15.7294" y2="14.2000"/>
<text class="tick" x="15.7294" y="14.2000" dy="1.3em">2029</text>
<line x1="18.5843" y1="14.0000" x2="18.5843" y2="14.2000"/>
<text class="tick" x="18.5843" y="14.2000" dy="1.3em">2030</text>
<line x1="0.0000" y1="14.0000" x2="0.0000" y2="0.0000"/>
<text x="0.0000" y="7.0000" dy="-4em" transform="rotate(-90 0.0000 7.0000)">Entry Count</text>
<line x1="0.0000" y1="12.0000" x2="-0.2000" y2="12.0000"/>
<text class="tick" x="-0.2000" y="12.0000" dx="-2em" dy="0.33em">2000</text>
<line x1="0.0000" y1="10.0000" x2="-0.2000" y2="10.0000"/>
<text class="tick" x="-0.2000" y="10.0000" dx="-2em" dy="0.33em">4000</text>
<line x1="0.0000" y1="8.0000" x2="-0.2000" y2="8.0000"/>
<text class="tick" x="-0.2000" y="8.0000" dx="-2em" dy="0.33em">6000</text>
<line x1="0.0000" y1="6.0000" x2="-0.2000" y2="6.0000"/>
<text class="tick" x="-0.2000" y="6.0000" dx="-2em" dy="0.33em">8000</text>
<line x1="0.0000" y1="4.0000" x2="-0.2000" y2="4.0000"/>
<text class="tick" x="-0.2000" y="4.0000" dx="-2em" dy="0.33em">10000</text>
<line x1="0.0000" y1="2.0000" x2="-0.2000" y2="2.0000"/>
<text class="tick" x="-0.2000" y="2.0000" dx="-2em" dy="0.33em">12000</text>
<line class="projected" x1="0.0000" y1="1.2355" x2="20.0000" y2="1.2355"/>
<text class="projected" x="10.0000" y="1.2355" dy="-0.5em">Projected Total: 12764.5 entries</text>
<polyline points="8.6429,11.4710 8.5462,11.5100 8.4229,11.5560 8.2049,11.6120 8.0012,11.6510 7.8897,11.6630 7.8127,11.6640 7.7041,11.6710 7.5554,11.6790 7.1607,11.6860 7.0161,11.6880 6.8664,11.7180 6.8497,11.7310 6.7953,11.7650 6.7476,11.7900 6.7345,11.7900 6.7023,11.7900 6.6720,11.8000 6.6410,11.8000 6.5840,11.8400 6.5235,11.8990 6.2642,11.9600 6.1983,12.0120 6.1202,12.0830 6.0541,12.1340 5.8737,12.1780 5.7719,12.1880 5.7296,12.1950 5.1229,12.2020 5.0449,12.2080 4.9587,12.2120 4.8960,12.2180 4.8723,12.2190 4.8470,12.2240 4.7557,12.2230 4.7089,12.2230 4.6541,12.2230 4.5995,12.2270 4.5449,12.2310 4.4739,12.2360 4.4481,12.2380 4.3796,12.2360 4.2941,12.2340 4.2279,12.2290 4.1840,12.2320 4.1533,12.2330 4.1055,12.2360 4.0747,12.2410 4.0517,12.2590 3.9182,12.2880 3.8714,12.3380 3.6452,12.3880 3.6149,12.4100 3.6126,12.4100 3.5506,12.4670 3.5025,12.5260 3.4255,12.5860 3.0812,12.6410 3.0115,12.6930 2.9702,12.7120 2.9015,12.7580 2.8156,12.8150 2.5730,12.8720 2.5179,12.9360 2.4405,12.9950 2.4216,13.0120 2.3447,13.0680 2.2683,13.1350 2.2212,13.1970 2.1427,13.2550 1.9935,13.3240 1.8296,13.3670 1.7522,13.4230 1.6972,13.4860 1.6254,13.5320 1.5881,13.5710 1.5557,13.6170 1.4780,13.6500 1.4698,13.6540 1.4366,13.7120 1.4209,13.7140 1.3846,13.7510 1.2593,13.8070 0.7078,13.8650 0.3870,13.8940 0.3369,13.9310 0.3122,13.9560 0.2823,13.9620 0.2816,13.9620 0.2812,13.9620 0.2801,13.9620 0.2797,13.9620 0.2793,13.9620 0.2738,13.9620 0.2733,13.9620 0.2582,13.9620 0.2574,13.9620 0.2344,13.9620 0.2183,13.9740 0.1715,13.9740 0.1618,13.9890 0.1557,14.0000"/>
<circle cx="8.6429" cy="11.4710" r="0.1000"><title>2529 entries @ 2026-07-09 23:58:36 +0800
(commit b1e043ebe59b61b13337772a526a2e6a3b276682)</title></circle>
<circle cx="8.5462" cy="11.5100" r="0.1000"><title>2490 entries @ 2026-06-27 15:02:23 +0800
(commit 6b8fb16ca3fde6d728848e8bb61afe1d4e909e74)</title></circle>
<circle cx="8.4229" cy="11.5560" r="0.1000"><title>2444 entries @ 2026-06-11 20:49:38 +0800
(commit a95007c422b848e2e0e14a46203274cd9bca5e7f)</title></circle>
<circle cx="8.2049" cy="11.6120" r="0.1000"><title>2388 entries @ 2026-05-15 00:00:47 +0800
(commit c5a2fc522b4e06df5b449be96f75280b31bcb678)</title></circle>
<circle cx="8.0012" cy="11.6510" r="0.1000"><title>2349 entries @ 2026-04-18 22:45:28 +0800
(commit ac3994c20820c2ef90b80f42cbf8611884b26fbd)</title></circle>
<circle cx="7.8897" cy="11.6630" r="0.1000"><title>2337 entries @ 2026-04-04 16:41:22 +0800
(commit 6b37e9ec8f53097afa63529ebe4c75d842bc8cd3)</title></circle>
<circle cx="7.8127" cy="11.6640" r="0.1000"><title>2336 entries @ 2026-03-25 20:25:54 +0800
(commit 743bcbf61be909316eb76927891cb5a540bd94ce)</title></circle>
<circle cx="7.7041" cy="11.6710" r="0.1000"><title>2329 entries @ 2026-03-11 23:24:37 +0800
(commit 963e779420a9d8a9a3237bbb3b223290ed6c63e7)</title></circle>
<circle cx="7.5554" cy="11.6790" r="0.1000"><title>2321 entries @ 2026-02-20 22:55:57 +0800
(commit 0b7069119759c024962befd605cea789184896bc)</title></circle>
<circle cx="7.1607" cy="11.6860" r="0.1000"><title>2314 entries @ 2026-01-01 11:59:10 +0800
(commit af94272378ad0eb62f672960376d0440a0d32f57)</title></circle>
<circle cx="7.0161" cy="11.6880" r="0.1000"><title>2312 entries @ 2025-12-14 00:07:34 +0800
(commit 16015ed848f1d8e7dfaf542b384a98e565b585ff)</title></circle>
<circle cx="6.8664" cy="11.7180" r="0.1000"><title>2282 entries @ 2025-11-24 20:51:04 +0800
(commit 557f1bf088cd8b26b701791155759020092ab2bf)</title></circle>
<circle cx="6.8497" cy="11.7310" r="0.1000"><title>2269 entries @ 2025-11-22 17:42:55 +0800
(commit 46164b31ab44816199e58dbe485804dfb9a36557)</title></circle>
<circle cx="6.7953" cy="11.7650" r="0.1000"><title>2235 entries @ 2025-11-15 18:37:19 +0800
(commit e0cab916a50b5bab875c4f8bb9114f7dcfc946dc)</title></circle>
<circle cx="6.7476" cy="11.7900" r="0.1000"><title>2210 entries @ 2025-11-09 16:12:46 +0800
(commit d99da87ab194be07d3c1916b313728461812384a)</title></circle>
<circle cx="6.7345" cy="11.7900" r="0.1000"><title>2210 entries @ 2025-11-08 00:10:42 +0800
(commit e910aacd4bebaf424577aa388d4e4c5d860e4f09)</title></circle>
<circle cx="6.7023" cy="11.7900" r="0.1000"><title>2210 entries @ 2025-11-03 21:18:50 +0800
(commit 91d9a5b9bdaff736d3a2b91e310cdbcf141b1dac)</title></circle>
<circle cx="6.6720" cy="11.8000" r="0.1000"><title>2200 entries @ 2025-10-31 00:20:03 +0800
(commit cdb0783d8f1ac623791acd85f9b058612da94a8d)</title></circle>
<circle cx="6.6410" cy="11.8000" r="0.1000"><title>2200 entries @ 2025-10-27 01:16:08 +0800
(commit 5b5972c8a990bd8a73f5b2908317e0608deab4ff)</title></circle>
<circle cx="6.5840" cy="11.8400" r="0.1000"><title>2160 entries @ 2025-10-19 18:26:53 +0800
(commit 8a07adae09af282c3e8add3ab9450920f768bf7a)</title></circle>
<circle cx="6.5235" cy="11.8990" r="0.1000"><title>2101 entries @ 2025-10-12 00:48:24 +0800
(commit 6251843c930677e8fbfaf2694e7eaca0875c7d1c)</title></circle>
<circle cx="6.2642" cy="11.9600" r="0.1000"><title>2040 entries @ 2025-09-08 20:56:19 +0800
(commit e7bbd9f2c9a09a83b15ff43413c06c9f31d775d8)</title></circle>
<circle cx="6.1983" cy="12.0120" r="0.1000"><title>1988 entries @ 2025-08-31 10:58:13 +0800
(commit 99c8fbc5e6e495694ede9437394ddfe440e86c9a)</title></circle>
<circle cx="6.1202" cy="12.0830" r="0.1000"><title>1917 entries @ 2025-08-21 11:22:07 +0800
(commit e8d43c042329dbd08a626a1825c86a1ec29c6339)</title></circle>
<circle cx="6.0541" cy="12.1340" r="0.1000"><title>1866 entries @ 2025-08-13 00:26:50 +0800
(commit 811bedfddf9ea587d60348b64ea1e756232805af)</title></circle>
<circle cx="5.8737" cy="12.1780" r="0.1000"><title>1822 entries @ 2025-07-20 22:52:35 +0800
(commit 6c852ea2d787d4894990983cbbdac7ac1f915d6c)</title></circle>
<circle cx="5.7719" cy="12.1880" r="0.1000"><title>1812 entries @ 2025-07-07 22:37:11 +0800
(commit bc66107b3d99ec77050da7925d6074e9a90ce7a9)</title></circle>
<circle cx="5.7296" cy="12.1950" r="0.1000"><title>1805 entries @ 2025-07-02 12:47:20 +0800
(commit d714398f468d553a75383a2235ffaf3e48622377)</title></circle>
<circle cx="5.1229" cy="12.2020" r="0.1000"><title>1798 entries @ 2025-04-15 23:08:12 +0800
(commit e7d3cbab2c030702b65bd30aa49672578a712138)</title></circle>
<circle cx="5.0449" cy="12.2080" r="0.1000"><title>1792 entries @ 2025-04-05 23:53:13 +0800
(commit 8b672d1ce8f158b3a377ac813651511cb12b3dcf)</title></circle>
<circle cx="4.9587" cy="12.2120" r="0.1000"><title>1788 entries @ 2025-03-25 23:20:30 +0800
(commit e0d2fe1733044d915c43867739d961b4868d98c7)</title></circle>
<circle cx="4.8960" cy="12.2180" r="0.1000"><title>1782 entries @ 2025-03-17 22:50:07 +0800
(commit 9762f73ac81153fa22bf41a54b548bde3b57a849)</title></circle>
<circle cx="4.8723" cy="12.2190" r="0.1000"><title>1781 entries @ 2025-03-14 22:08:33 +0800
(commit 4151b66553b65eeffd203b9aabaa1b82a9468192)</title></circle>
<circle cx="4.8470" cy="12.2240" r="0.1000"><title>1776 entries @ 2025-03-11 16:28:31 +0800
(commit 6767e64fe68076eb7d3996e1e78437cf59843d81)</title></circle>
<circle cx="4.7557" cy="12.2230" r="0.1000"><title>1777 entries @ 2025-02-28 00:15:18 +0800
(commit cb78bc6b70dff7207d7073416048aca1632d3ce1)</title></circle>
<circle cx="4.7089" cy="12.2230" r="0.1000"><title>1777 entries @ 2025-02-22 00:56:24 +0800
(commit 6f6d0cdd9084c65680b699d09c27afbf447d7d1f)</title></circle>
<circle cx="4.6541" cy="12.2230" r="0.1000"><title>1777 entries @ 2025-02-15 00:46:10 +0800
(commit 464c2417db9598e3481d62125009f2bf1e4e30da)</title></circle>
<circle cx="4.5995" cy="12.2270" r="0.1000"><title>1773 entries @ 2025-02-08 01:01:14 +0800
(commit 6f5c60fc662849529d6a0790cd40219104b0d145)</title></circle>
<circle cx="4.5449" cy="12.2310" r="0.1000"><title>1769 entries @ 2025-02-01 01:30:39 +0800
(commit b066e63f4e16bacdd00a399e6a22b1500fead739)</title></circle>
<circle cx="4.4739" cy="12.2360" r="0.1000"><title>1764 entries @ 2025-01-22 23:39:38 +0800
(commit 79a309a771c3eb9c10b3e239b136230c00060ebf)</title></circle>
<circle cx="4.4481" cy="12.2380" r="0.1000"><title>1762 entries @ 2025-01-19 16:36:23 +0800
(commit 21dfb90b36e775ef0fe7de69cc1fd75167d67e02)</title></circle>
<circle cx="4.3796" cy="12.2360" r="0.1000"><title>1764 entries @ 2025-01-10 22:29:39 +0800
(commit 648078f8d19e94e72ca7a516ad150417c9ace6e2)</title></circle>
<circle cx="4.2941" cy="12.2340" r="0.1000"><title>1766 entries @ 2024-12-31 00:03:53 +0800
(commit bbdd0a9be51e4de1e76a1e7ba0b58a4e21af7329)</title></circle>
<circle cx="4.2279" cy="12.2290" r="0.1000"><title>1771 entries @ 2024-12-22 12:55:58 +0800
(commit 006bfa2e8541f41ac25f6481d428501bbac68689)</title></circle>
<circle cx="4.1840" cy="12.2320" r="0.1000"><title>1768 entries @ 2024-12-16 22:09:37 +0800
(commit 0ff44931dbddd737ff8f73c84b3d25260f20a2fa)</title></circle>
<circle cx="4.1533" cy="12.2330" r="0.1000"><title>1767 entries @ 2024-12-12 23:57:35 +0800
(commit a6b7ab3d0707dd615e95047ee0a7170bcf8eb0df)</title></circle>
<circle cx="4.1055" cy="12.2360" r="0.1000"><title>1764 entries @ 2024-12-06 21:25:34 +0800
(commit de3eeb88a6a0e3eb97d4a2ecab772f3f3a3711e2)</title></circle>
<circle cx="4.0747" cy="12.2410" r="0.1000"><title>1759 entries @ 2024-12-02 22:41:25 +0800
(commit 12c89fbe362a5e3cfdcb2ccdc9d35b3fe09dd512)</title></circle>
<circle cx="4.0517" cy="12.2590" r="0.1000"><title>1741 entries @ 2024-11-30 00:15:17 +0800
(commit 8b6ecd9b4b7d30e2629f8288771f5660175340d6)</title></circle>
<circle cx="3.9182" cy="12.2880" r="0.1000"><title>1712 entries @ 2024-11-12 22:35:53 +0800
(commit fcc77fb4c41342fee45d0b403551502290f0ad30)</title></circle>
<circle cx="3.8714" cy="12.3380" r="0.1000"><title>1662 entries @ 2024-11-06 22:59:11 +0800
(commit 7a6abad6f8fd5203a0383b0a72289ad00273e75d)</title></circle>
<circle cx="3.6452" cy="12.3880" r="0.1000"><title>1612 entries @ 2024-10-09 00:59:24 +0800
(commit 7c9b3e06f6a072f23dba31140fa40bd10a883202)</title></circle>
<circle cx="3.6149" cy="12.4100" r="0.1000"><title>1590 entries @ 2024-10-05 03:56:03 +0800
(commit 4b4ea03356e63f2b0f6779f7471ad071736874dd)</title></circle>
<circle cx="3.6126" cy="12.4100" r="0.1000"><title>1590 entries @ 2024-10-04 20:45:24 +0800
(commit 58f77e34357c629726ac46c40acbd7527cc10da6)</title></circle>
<circle cx="3.5506" cy="12.4670" r="0.1000"><title>1533 entries @ 2024-09-26 22:44:29 +0800
(commit 6f6fbdc9c22b7d4e4bed52c58cf1e2abac9a83d8)</title></circle>
<circle cx="3.5025" cy="12.5260" r="0.1000"><title>1474 entries @ 2024-09-20 19:01:05 +0800
(commit 6ae3017a2f037a8bc8a450563d187b39dcf9f2f5)</title></circle>
<circle cx="3.4255" cy="12.5860" r="0.1000"><title>1414 entries @ 2024-09-10 22:55:07 +0800
(commit fc4ac9d8394c2d14103cb993c1d467afb54dcf07)</title></circle>
<circle cx="3.0812" cy="12.6410" r="0.1000"><title>1359 entries @ 2024-07-28 22:16:50 +0800
(commit 1339ce6879034245fb8c3c8a1babbbe58f051d76)</title></circle>
<circle cx="3.0115" cy="12.6930" r="0.1000"><title>1307 entries @ 2024-07-20 00:21:25 +0800
(commit 6f87b0660d3f50b65c519d8ecb14a1a1de2cdda8)</title></circle>
<circle cx="2.9702" cy="12.7120" r="0.1000"><title>1288 entries @ 2024-07-14 17:53:13 +0800
(commit 556108ab77745144f10549bb01df6a482f31463a)</title></circle>
<circle cx="2.9015" cy="12.7580" r="0.1000"><title>1242 entries @ 2024-07-05 23:04:50 +0800
(commit 3bc17d81f1e27b8953d823586a693dd02d68a871)</title></circle>
<circle cx="2.8156" cy="12.8150" r="0.1000"><title>1185 entries @ 2024-06-24 23:19:41 +0800
(commit fe4da10c74017438b2760c4601e090cd3c3c1cf5)</title></circle>
<circle cx="2.5730" cy="12.8720" r="0.1000"><title>1128 entries @ 2024-05-24 23:01:22 +0800
(commit b50372296a28688777a5acea6991479e51f1e5c0)</title></circle>
<circle cx="2.5179" cy="12.9360" r="0.1000"><title>1064 entries @ 2024-05-17 22:03:53 +0800
(commit 3fa028659033bac782534d6e2b171d5cf0211cbb)</title></circle>
<circle cx="2.4405" cy="12.9950" r="0.1000"><title>1005 entries @ 2024-05-08 00:20:28 +0800
(commit 5aad943065f495a44b48928907f3ce80bfa7c569)</title></circle>
<circle cx="2.4216" cy="13.0120" r="0.1000"><title>988 entries @ 2024-05-05 14:32:18 +0800
(commit f7f9d488d53fe5d2ebeb197d41fd84242b8f0531)</title></circle>
<circle cx="2.3447" cy="13.0680" r="0.1000"><title>932 entries @ 2024-04-25 18:24:35 +0800
(commit c694862df209547b5b126d2f49f999d5f82f7aca)</title></circle>
<circle cx="2.2683" cy="13.1350" r="0.1000"><title>865 entries @ 2024-04-16 00:08:56 +0800
(commit af684442802f8f423d9e182fe8dcb3f5d7736cfd)</title></circle>
<circle cx="2.2212" cy="13.1970" r="0.1000"><title>803 entries @ 2024-04-09 23:38:00 +0800
(commit 7837992313ddcbd538b55765b034b82bc2f401af)</title></circle>
<circle cx="2.1427" cy="13.2550" r="0.1000"><title>745 entries @ 2024-03-30 22:31:12 +0800
(commit 384f0d058fbc68224bbbb8cba46c442d0db091fb)</title></circle>
<circle cx="1.9935" cy="13.3240" r="0.1000"><title>676 entries @ 2024-03-11 20:54:58 +0800
(commit c9fae9236fd1c5d3e16ba0415281f9c8cdc2c6e8)</title></circle>
<circle cx="1.8296" cy="13.3670" r="0.1000"><title>633 entries @ 2024-02-19 21:55:06 +0800
(commit b3df4d3cdff3152404d8d3d4c1ce9bda5cde564c)</title></circle>
<circle cx="1.7522" cy="13.4230" r="0.1000"><title>577 entries @ 2024-02-10 00:20:03 +0800
(commit 63b2de77fad79d74a6ae3a506ea5b40e6d853799)</title></circle>
<circle cx="1.6972" cy="13.4860" r="0.1000"><title>514 entries @ 2024-02-02 23:47:48 +0800
(commit a3e1e69bad02ad5964690a9a46d44062a8d42ae9)</title></circle>
<circle cx="1.6254" cy="13.5320" r="0.1000"><title>468 entries @ 2024-01-24 19:13:54 +0800
(commit 7806932b99f560f6d45de2bf573d29bc84cb6fca)</title></circle>
<circle cx="1.5881" cy="13.5710" r="0.1000"><title>429 entries @ 2024-01-20 00:46:50 +0800
(commit 6f401af2993255dc4b10afcc6986ec0db9b43d76)</title></circle>
<circle cx="1.5557" cy="13.6170" r="0.1000"><title>383 entries @ 2024-01-15 21:31:58 +0800
(commit e4b32c671f7e498386b909ce61b92401d7200fcd)</title></circle>
<circle cx="1.4780" cy="13.6500" r="0.1000"><title>350 entries @ 2024-01-05 23:14:47 +0800
(commit cefd11bca00ef0046fc6466052fc1d848df2a6c9)</title></circle>
<circle cx="1.4698" cy="13.6540" r="0.1000"><title>346 entries @ 2024-01-04 21:47:17 +0800
(commit a371e5dd7124d9d91cc88c95a61a19a6e8a536ae)</title></circle>
<circle cx="1.4366" cy="13.7120" r="0.1000"><title>288 entries @ 2023-12-31 15:57:48 +0800
(commit 08e6cb496ac03283efdea0229f9f8abd8a7e34c9)</title></circle>
<circle cx="1.4209" cy="13.7140" r="0.1000"><title>286 entries @ 2023-12-29 15:48:47 +0800
(commit 1bb2f7c7c94be2e000bdd9546cafa21b5505d2a1)</title></circle>
<circle cx="1.3846" cy="13.7510" r="0.1000"><title>249 entries @ 2023-12-25 00:35:48 +0800
(commit a9801125a33405d3b7d0649f8ad26275802586f0)</title></circle>
<circle cx="1.2593" cy="13.8070" r="0.1000"><title>193 entries @ 2023-12-09 00:00:37 +0800
(commit 37de29e9af0069b0d3efe2fe8bb3e0361cca7655)</title></circle>
<circle cx="0.7078" cy="13.8650" r="0.1000"><title>135 entries @ 2023-09-29 13:55:25 +1000
(commit 289bd3d7136bb4cb14caabde69ff6d34d2acda2c)</title></circle>
<circle cx="0.3870" cy="13.8940" r="0.1000"><title>106 entries @ 2023-08-19 11:22:10 +0800
(commit 6402af99d246ee2007e33e4f4cfa4fbdac03ba53)</title></circle>
<circle cx="0.3369" cy="13.9310" r="0.1000"><title>69 entries @ 2023-08-13 01:42:11 +0800
(commit ad62b81fb8b0f4b1c1cfe0947e33878bca34994f)</title></circle>
<circle cx="0.3122" cy="13.9560" r="0.1000"><title>44 entries @ 2023-08-09 22:03:11 +0800
(commit 0a103235d6b329e2c57f6d1bcce1156e56ce8f9a)</title></circle>
<circle cx="0.2823" cy="13.9620" r="0.1000"><title>38 entries @ 2023-08-06 02:20:14 +0800
(commit 5eaf9d1c86690b3ca0025c1516a153ac58c0eb16)</title></circle>
<circle cx="0.2816" cy="13.9620" r="0.1000"><title>38 entries @ 2023-08-06 00:11:56 +0800
(commit 518ed61058650d92b1c893ad17e414ac7c9d7675)</title></circle>
<circle cx="0.2812" cy="13.9620" r="0.1000"><title>38 entries @ 2023-08-05 22:51:41 +0800
(commit f954043e4083c7445f75fd26e2f4285cd736e2cf)</title></circle>
<circle cx="0.2801" cy="13.9620" r="0.1000"><title>38 entries @ 2023-08-05 19:28:38 +0800
(commit 63e1063458e44c76720f5bc20e8b83e755ac8fca)</title></circle>
<circle cx="0.2797" cy="13.9620" r="0.1000"><title>38 entries @ 2023-08-05 18:17:22 +0800
(commit 4c1896221d934d1f52b836d021d8d74c5c0dc7e6)</title></circle>
<circle cx="0.2793" cy="13.9620" r="0.1000"><title>38 entries @ 2023-08-05 16:56:03 +0800
(commit 21cf5d5862c584572b19cc9fd9ac8d537d4d534b)</title></circle>
<circle cx="0.2738" cy="13.9620" r="0.1000"><title>38 entries @ 2023-08-05 00:11:36 +0800
(commit d83cdd5a42eb8693b43333ac35d5df2b15cec82d)</title></circle>
<circle cx="0.2733" cy="13.9620" r="0.1000"><title>38 entries @ 2023-08-04 22:31:04 +0800
(commit 57605b15f9499c5590232fae1f7c91ded7e91dc2)</title></circle>
<circle cx="0.2582" cy="13.9620" r="0.1000"><title>38 entries @ 2023-08-03 00:07:16 +0800
(commit b1cbcdaee07a9150165e4e081bda93ea06c5fcb6)</title></circle>
<circle cx="0.2574" cy="13.9620" r="0.1000"><title>38 entries @ 2023-08-02 21:46:23 +0800
(commit ec693a4fd0e538a8c24cfca53848ff47169fd5f2)</title></circle>
<circle cx="0.2344" cy="13.9620" r="0.1000"><title>38 entries @ 2023-07-30 23:21:12 +0800
(commit 209bf498e73c032a2a4008fd9ae6f47c26fd7275)</title></circle>
<circle cx="0.2183" cy="13.9740" r="0.1000"><title>26 entries @ 2023-07-28 21:58:10 +0800
(commit 116fe76d14bef967268f9ca8f8fe4db872f79931)</title></circle>
<circle cx="0.1715" cy="13.9740" r="0.1000"><title>26 entries @ 2023-07-22 22:21:47 +0800
(commit e912feed460b24363ab0c84678d847c60261b838)</title></circle>
<circle cx="0.1618" cy="13.9890" r="0.1000"><title>11 entries @ 2023-07-21 16:25:47 +0800
(commit d511ce779e913411aa4de0101dd3c36b49a3b9e1)</title></circle>
<circle cx="0.1557" cy="14.0000" r="0.1000"><title>0 entries @ 2023-07-20 21:39:40 +0800
(commit 263685863f91821c9cefca68e1899910e88be118)</title></circle>
</svg>
