<?xml version="1.0" encoding="UTF-8"?>
<svg viewBox="-6 -4 28 22" width="960px" xmlns="http://www.w3.org/2000/svg">
<style>
circle:hover {fill: #cf1338}
circle {fill: black}
line, polyline {stroke: black; stroke-width: 0.1042%}polyline {stroke: #cf1338}line.projected {stroke: blue; stroke-dasharray: 1.0417%}
polyline {fill: none}text {font-family: sans-serif; font-size: 1px; text-anchor: middle}
text.projected {fill: blue; font-size: 0.7px}
text.tick {font-size: 0.7px}
text.title {fill: #cf1338; font-size: 1.1px}
</style>
<text class="title" x="8.0000" y="-2.0000">Conway's Cantonese Dictionary: Progress</text><line x1="0.0000" y1="14.0000" x2="20.0000" y2="14.0000"/>
<text x="10.0000" y="14.0000" dy="3em">Time</text>
<line x1="1.4392" y1="14.0000" x2="1.4392" y2="14.2000"/>
<text class="tick" x="1.4392" y="14.2000" dy="1.3em">2024</text>
<line x1="4.3019" y1="14.0000" x2="4.3019" y2="14.2000"/>
<text class="tick" x="4.3019" y="14.2000" dy="1.3em">2025</text>
<line x1="7.1568" y1="14.0000" x2="7.1568" y2="14.2000"/>
<text class="tick" x="7.1568" y="14.2000" dy="1.3em">2026</text>
<line x1="10.0117" y1="14.0000" x2="10.0117" y2="14.2000"/>
<text class="tick" x="10.0117" y="14.2000" dy="1.3em">2027</text>
<line x1="12.8666" y1="14.0000" x2="12.8666" y2="14.2000"/>
<text class="tick" x="12.8666" y="14.2000" dy="1.3em">2028</text>
<line x1="15.7294" y1="14.0000" x2="15.7294" y2="14.2000"/>
<text class="tick" x="15.7294" y="14.2000" dy="1.3em">2029</text>
<line x1="18.5843" y1="14.0000" x2="18.5843" y2="14.2000"/>
<text class="tick" x="18.5843" y="14.2000" dy="1.3em">2030</text>
<line x1="0.0000" y1="14.0000" x2="0.0000" y2="0.0000"/>
<text x="0.0000" y="7.0000" dy="-4em" transform="rotate(-90 0.0000 7.0000)">Entry Count</text>
<line x1="0.0000" y1="12.0000" x2="-0.2000" y2="12.0000"/>
<text class="tick" x="-0.2000" y="12.0000" dx="-2em" dy="0.33em">2000</text>
<line x1="0.0000" y1="10.0000" x2="-0.2000" y2="10.0000"/>
<text class="tick" x="-0.2000" y="10.0000" dx="-2em" dy="0.33em">4000</text>
<line x1="0.0000" y1="8.0000" x2="-0.2000" y2="8.0000"/>
<text class="tick" x="-0.2000" y="8.0000" dx="-2em" dy="0.33em">6000</text>
<line x1="0.0000" y1="6.0000" x2="-0.2000" y2="6.0000"/>
<text class="tick" x="-0.2000" y="6.0000" dx="-2em" dy="0.33em">8000</text>
<line x1="0.0000" y1="4.0000" x2="-0.2000" y2="4.0000"/>
<text class="tick" x="-0.2000" y="4.0000" dx="-2em" dy="0.33em">10000</text>
<line x1="0.0000" y1="2.0000" x2="-0.2000" y2="2.0000"/>
<text class="tick" x="-0.2000" y="2.0000" dx="-2em" dy="0.33em">12000</text>
<line class="projected" x1="0.0000" y1="1.1646" x2="20.0000" y2="1.1646"/>
<text class="projected" x="10.0000" y="1.1646" dy="-0.5em">Projected Total: 12835.4 entries</text>
<polyline points="8.5568,11.4970 8.4779,11.5340 8.2265,11.5910 8.0876,11.6440 7.9002,11.6600 7.8376,11.6640 7.7666,11.6670 7.6183,11.6790 7.2393,11.6820 7.0240,11.6880 6.8736,11.7070 6.8589,11.7200 6.8053,11.7580 6.7575,11.7870 6.7402,11.7900 6.7182,11.7900 6.6800,11.8000 6.6563,11.8000 6.6247,11.8120 6.5545,11.8720 6.3630,11.9370 6.2414,11.9900 6.1480,12.0500 6.0893,12.1110 5.9364,12.1600 5.8642,12.1840 5.7490,12.1930 5.5579,12.2020 5.0727,12.2050 4.9982,12.2100 4.9196,12.2170 4.8864,12.2200 4.8499,12.2220 4.7791,12.2230 4.7244,12.2230 4.6695,12.2240 4.6151,12.2250 4.5814,12.2300 4.5121,12.2360 4.4506,12.2370 4.4111,12.2390 4.3235,12.2330 4.2316,12.2330 4.1924,12.2300 4.1756,12.2330 4.1215,12.2360 4.0829,12.2370 4.0671,12.2440 4.0125,12.2780 3.8841,12.3250 3.6869,12.3680 3.6269,12.4100 3.6140,12.4100 3.5591,12.4410 3.5348,12.5030 3.4635,12.5620 3.1033,12.6180 3.0349,12.6660 2.9719,12.7090 2.9254,12.7380 2.8476,12.7920 2.6051,12.8490 2.5421,12.9110 2.4788,12.9710 2.4220,13.0120 2.3548,13.0390 2.3146,13.1090 2.2521,13.1740 2.1943,13.2360 2.0641,13.2960 1.8768,13.3550 1.7642,13.3960 1.7128,13.4560 1.6485,13.5140 1.6104,13.5550 1.5719,13.6010 1.4914,13.6500 1.4757,13.6500 1.4593,13.6860 1.4245,13.7130 1.4060,13.7250 1.3296,13.7840 0.7739,13.8400 0.5536,13.8920 0.3442,13.9120 0.3278,13.9510 0.2870,13.9610 0.2818,13.9620 0.2814,13.9620 0.2808,13.9620 0.2799,13.9620 0.2795,13.9620 0.2740,13.9620 0.2735,13.9620 0.2659,13.9620 0.2577,13.9620 0.2348,13.9620 0.2249,13.9740 0.1797,13.9740 0.1642,13.9850 0.1567,13.9900 0.1557,14.0000"/>
<circle cx="8.5568" cy="11.4970" r="0.1000"><title>2503 entries @ 2026-06-28 23:37:32 +0800
(commit 1019417285fd9d3ef969b50de8617c6addec1026)</title></circle>
<circle cx="8.4779" cy="11.5340" r="0.1000"><title>2466 entries @ 2026-06-18 21:37:53 +0800
(commit 1c8559360fee279f72a24b0e6c04f3203bedecb1)</title></circle>
<circle cx="8.2265" cy="11.5910" r="0.1000"><title>2409 entries @ 2026-05-17 18:15:26 +0800
(commit 803a7a6fc5c618b52824661e305041b68fed3cce)</title></circle>
<circle cx="8.0876" cy="11.6440" r="0.1000"><title>2356 entries @ 2026-04-29 23:55:26 +0800
(commit 9f607db18dad660d20e2ad7858df436eebff1b26)</title></circle>
<circle cx="7.9002" cy="11.6600" r="0.1000"><title>2340 entries @ 2026-04-06 00:50:53 +0800
(commit d1240cf6281f2eccd34555ad1e29aea44f4deba0)</title></circle>
<circle cx="7.8376" cy="11.6640" r="0.1000"><title>2336 entries @ 2026-03-29 00:50:50 +0800
(commit 8b067cd25aa1f3a9d931a177d6f6166783f4f186)</title></circle>
<circle cx="7.7666" cy="11.6670" r="0.1000"><title>2333 entries @ 2026-03-19 23:10:43 +0800
(commit 98fcf9956a62aa18edc024b959b6a107b80a44e1)</title></circle>
<circle cx="7.6183" cy="11.6790" r="0.1000"><title>2321 entries @ 2026-02-28 23:55:11 +0800
(commit 13c47205a17caa7f2cbd7c2f3225f816a82a1579)</title></circle>
<circle cx="7.2393" cy="11.6820" r="0.1000"><title>2318 entries @ 2026-01-11 12:56:17 +0800
(commit 7ab49384985e82f01b662213a9c9662e33c8e0eb)</title></circle>
<circle cx="7.0240" cy="11.6880" r="0.1000"><title>2312 entries @ 2025-12-15 00:21:09 +0800
(commit 132024f06fb691b91b5667e0ae34a49697699c14)</title></circle>
<circle cx="6.8736" cy="11.7070" r="0.1000"><title>2293 entries @ 2025-11-25 18:58:04 +0800
(commit f6a4f771a6feef2c80b09e3f54d3100a5fcc54c1)</title></circle>
<circle cx="6.8589" cy="11.7200" r="0.1000"><title>2280 entries @ 2025-11-23 21:54:22 +0800
(commit e2dff40be2fe358bbddbca9cf72d605646fba951)</title></circle>
<circle cx="6.8053" cy="11.7580" r="0.1000"><title>2242 entries @ 2025-11-17 01:24:23 +0800
(commit 68d854d5f32992f9843223eb748253e59b6d6a19)</title></circle>
<circle cx="6.7575" cy="11.7870" r="0.1000"><title>2213 entries @ 2025-11-10 22:40:46 +0800
(commit 09074dd01aeac10f7d16d62f3c0f920465182b72)</title></circle>
<circle cx="6.7402" cy="11.7900" r="0.1000"><title>2210 entries @ 2025-11-08 17:41:56 +0800
(commit 2f8f06b1482f7d61a0031b929fbdf52819c68b54)</title></circle>
<circle cx="6.7182" cy="11.7900" r="0.1000"><title>2210 entries @ 2025-11-05 22:06:21 +0800
(commit 355cbaafb5f4cbe8c4d292bac388734d399ff41a)</title></circle>
<circle cx="6.6800" cy="11.8000" r="0.1000"><title>2200 entries @ 2025-11-01 00:58:34 +0800
(commit 9bd97331bc20079b89f72bcd051b8a7d993d25b8)</title></circle>
<circle cx="6.6563" cy="11.8000" r="0.1000"><title>2200 entries @ 2025-10-29 00:07:51 +0800
(commit ccd9a37e5ec60a9a607fc65c39edda4848144cb4)</title></circle>
<circle cx="6.6247" cy="11.8120" r="0.1000"><title>2188 entries @ 2025-10-24 23:11:49 +0800
(commit 943b86a4509aeac2c97dccd077a12b9cac03eaa4)</title></circle>
<circle cx="6.5545" cy="11.8720" r="0.1000"><title>2128 entries @ 2025-10-15 23:58:01 +0800
(commit abadcfcb82d4601534ab7b26cbc2ceaacb40774e)</title></circle>
<circle cx="6.3630" cy="11.9370" r="0.1000"><title>2063 entries @ 2025-09-21 12:07:26 +0800
(commit 02e24b0b2ffcff508b8c91ab961c79f8a375be05)</title></circle>
<circle cx="6.2414" cy="11.9900" r="0.1000"><title>2010 entries @ 2025-09-05 22:58:16 +0800
(commit 04db99faa482e8edca2be8104712edeada77f532)</title></circle>
<circle cx="6.1480" cy="12.0500" r="0.1000"><title>1950 entries @ 2025-08-25 00:37:10 +0800
(commit e88335bea7f6d7215bfae8eec6deec21848399a2)</title></circle>
<circle cx="6.0893" cy="12.1110" r="0.1000"><title>1889 entries @ 2025-08-17 12:30:10 +0800
(commit b500922ce3f04aff84871e2809162b9c0e43712e)</title></circle>
<circle cx="5.9364" cy="12.1600" r="0.1000"><title>1840 entries @ 2025-07-28 23:12:27 +0800
(commit 8efa7f0d6af6a47ef1842f915f179366381b14ee)</title></circle>
<circle cx="5.8642" cy="12.1840" r="0.1000"><title>1816 entries @ 2025-07-19 17:40:00 +0800
(commit 13ff759a67c35c398b13b3fbadf5511263127392)</title></circle>
<circle cx="5.7490" cy="12.1930" r="0.1000"><title>1807 entries @ 2025-07-05 00:22:36 +0800
(commit 37db05d8e3dc4ea911d56ad019344751c2dba451)</title></circle>
<circle cx="5.5579" cy="12.2020" r="0.1000"><title>1798 entries @ 2025-06-10 13:42:37 +0800
(commit 86e39ec76416d93bd2c42d9253599fd9f66045ec)</title></circle>
<circle cx="5.0727" cy="12.2050" r="0.1000"><title>1795 entries @ 2025-04-09 13:08:03 +0800
(commit e8067481d72cb1286b6b94e6ae73a9f0ab545aee)</title></circle>
<circle cx="4.9982" cy="12.2100" r="0.1000"><title>1790 entries @ 2025-03-31 00:32:00 +0800
(commit 96ee69aa287f8161498bd5e0fc7f60e4da60b8fb)</title></circle>
<circle cx="4.9196" cy="12.2170" r="0.1000"><title>1783 entries @ 2025-03-20 23:14:49 +0800
(commit 0fc3a5355c152e567f6884b65ae0471c69a327b2)</title></circle>
<circle cx="4.8864" cy="12.2200" r="0.1000"><title>1780 entries @ 2025-03-16 17:25:42 +0800
(commit e78555c95784d0afa9f43104b5f670c286cc99d3)</title></circle>
<circle cx="4.8499" cy="12.2220" r="0.1000"><title>1778 entries @ 2025-03-12 01:25:02 +0800
(commit 087e2dae11af58e9f7bd0d14836aa5b775df7d12)</title></circle>
<circle cx="4.7791" cy="12.2230" r="0.1000"><title>1777 entries @ 2025-03-03 00:12:45 +0800
(commit 0712f09b1771c714c164aed7938516cacb429639)</title></circle>
<circle cx="4.7244" cy="12.2230" r="0.1000"><title>1777 entries @ 2025-02-24 00:12:55 +0800
(commit 7e4b685e7cebf90671a08a135d152d32c79d3cd0)</title></circle>
<circle cx="4.6695" cy="12.2240" r="0.1000"><title>1776 entries @ 2025-02-16 23:56:24 +0800
(commit 94e6ce086f5cae7c985e121a97f87609237b34ba)</title></circle>
<circle cx="4.6151" cy="12.2250" r="0.1000"><title>1775 entries @ 2025-02-10 00:58:56 +0800
(commit e9efff3e084aeab285d031341372ce7cc4e4205c)</title></circle>
<circle cx="4.5814" cy="12.2300" r="0.1000"><title>1770 entries @ 2025-02-05 17:37:58 +0800
(commit 0557a21e894f2e45c063282000b4f65ffba416a4)</title></circle>
<circle cx="4.5121" cy="12.2360" r="0.1000"><title>1764 entries @ 2025-01-27 20:59:17 +0800
(commit b22d07c826ef01f158f45c9d1b98a553a9f4aead)</title></circle>
<circle cx="4.4506" cy="12.2370" r="0.1000"><title>1763 entries @ 2025-01-20 00:16:34 +0800
(commit 203eb674951b43c8a261eba7e1b93cfc16d39022)</title></circle>
<circle cx="4.4111" cy="12.2390" r="0.1000"><title>1761 entries @ 2025-01-14 23:00:03 +0800
(commit 0a6da418a2be183d51411d42c851f42af14debd3)</title></circle>
<circle cx="4.3235" cy="12.2330" r="0.1000"><title>1767 entries @ 2025-01-03 18:17:30 +0800
(commit 3b320a3029d4d1f5b5456c1ebf72cdaeef6842b4)</title></circle>
<circle cx="4.2316" cy="12.2330" r="0.1000"><title>1767 entries @ 2024-12-23 00:09:52 +0800
(commit c5c8cb71e0af96463a64f41019a7e4be657f82c4)</title></circle>
<circle cx="4.1924" cy="12.2300" r="0.1000"><title>1770 entries @ 2024-12-18 00:03:49 +0800
(commit b3cd7b59d8094ef12decf04ba3268c20aee80c72)</title></circle>
<circle cx="4.1756" cy="12.2330" r="0.1000"><title>1767 entries @ 2024-12-15 20:30:42 +0800
(commit d236cf7afd43fee4d3ace8790e72f840773468e4)</title></circle>
<circle cx="4.1215" cy="12.2360" r="0.1000"><title>1764 entries @ 2024-12-08 22:31:02 +0800
(commit 1436795ec26314ac15e3f99c310a4a5c367ab360)</title></circle>
<circle cx="4.0829" cy="12.2370" r="0.1000"><title>1763 entries @ 2024-12-04 00:01:49 +0800
(commit 782a3b96810577d138c40f56d3d17b8b4844534b)</title></circle>
<circle cx="4.0671" cy="12.2440" r="0.1000"><title>1756 entries @ 2024-12-01 23:35:33 +0800
(commit 77a24c7241a2f449dbc29d6ac49cfa0d6dfb8369)</title></circle>
<circle cx="4.0125" cy="12.2780" r="0.1000"><title>1722 entries @ 2024-11-25 00:00:37 +0800
(commit 75a28a289d02c52320792e1c18673823ca3374cb)</title></circle>
<circle cx="3.8841" cy="12.3250" r="0.1000"><title>1675 entries @ 2024-11-08 14:00:41 +0800
(commit b25dca8ce774879b0915c4e2c9350e91aac55fb7)</title></circle>
<circle cx="3.6869" cy="12.3680" r="0.1000"><title>1632 entries @ 2024-10-14 08:47:34 +0800
(commit 610675dfb0306954269f1d4d4ecc62bed49fd47f)</title></circle>
<circle cx="3.6269" cy="12.4100" r="0.1000"><title>1590 entries @ 2024-10-06 16:40:28 +0800
(commit c0fadc4c1549ffb692e7fb0df68ca83f18dd241b)</title></circle>
<circle cx="3.6140" cy="12.4100" r="0.1000"><title>1590 entries @ 2024-10-05 01:12:09 +0800
(commit 5cfc80e6f16999055a1297a1a972a9753729908f)</title></circle>
<circle cx="3.5591" cy="12.4410" r="0.1000"><title>1559 entries @ 2024-09-28 00:45:57 +0800
(commit 23ee738092c354dd5a91a3ba1cd11af96e18ed84)</title></circle>
<circle cx="3.5348" cy="12.5030" r="0.1000"><title>1497 entries @ 2024-09-24 22:18:52 +0800
(commit 87ed26c20e3648d437de2d7b44ee68bdba074b37)</title></circle>
<circle cx="3.4635" cy="12.5620" r="0.1000"><title>1438 entries @ 2024-09-15 19:18:35 +0800
(commit 9a0b0015161c3375ec98863db3251af7331b587a)</title></circle>
<circle cx="3.1033" cy="12.6180" r="0.1000"><title>1382 entries @ 2024-07-31 18:12:42 +0800
(commit bf47104bb8df2b52aea8088a8bb2c9020588b097)</title></circle>
<circle cx="3.0349" cy="12.6660" r="0.1000"><title>1334 entries @ 2024-07-23 00:24:13 +0800
(commit a4061668bd2c29a9e5be84fc6ea3c16dbd39c601)</title></circle>
<circle cx="2.9719" cy="12.7090" r="0.1000"><title>1291 entries @ 2024-07-14 23:07:41 +0800
(commit 2767105f01d14563cd709237b90042e2c3a54b9e)</title></circle>
<circle cx="2.9254" cy="12.7380" r="0.1000"><title>1262 entries @ 2024-07-09 00:13:32 +0800
(commit 893cc84022ea62f2144fe4e4c76fd661ffcc4547)</title></circle>
<circle cx="2.8476" cy="12.7920" r="0.1000"><title>1208 entries @ 2024-06-29 01:27:53 +0800
(commit 85981c17fdb16a794cda9bafa17ca2330f15e513)</title></circle>
<circle cx="2.6051" cy="12.8490" r="0.1000"><title>1151 entries @ 2024-05-29 01:23:35 +0800
(commit d6eeb03c35599b323667a38a4d77c0cb9f02ae71)</title></circle>
<circle cx="2.5421" cy="12.9110" r="0.1000"><title>1089 entries @ 2024-05-21 00:17:56 +0800
(commit 3318cb6928937bbbeb521e849ec478c630d3c62a)</title></circle>
<circle cx="2.4788" cy="12.9710" r="0.1000"><title>1029 entries @ 2024-05-12 21:58:20 +0800
(commit 8fb5068aa2337d4aee6e8ecb3801e18579e8ccb4)</title></circle>
<circle cx="2.4220" cy="13.0120" r="0.1000"><title>988 entries @ 2024-05-05 15:47:52 +0800
(commit e6ddf9e8d88ac74c51a402e2f52f5702b0f6c4ac)</title></circle>
<circle cx="2.3548" cy="13.0390" r="0.1000"><title>961 entries @ 2024-04-27 01:23:34 +0800
(commit 8c156b45cbdfb71050312e0185be0a1a5aa0d889)</title></circle>
<circle cx="2.3146" cy="13.1090" r="0.1000"><title>891 entries @ 2024-04-21 22:11:24 +0800
(commit 3184f178512d1d6ff21ee6ddebc3dec6b7cc737d)</title></circle>
<circle cx="2.2521" cy="13.1740" r="0.1000"><title>826 entries @ 2024-04-13 22:12:51 +0800
(commit fd9adec4d411c8a3bc3da1d976e836ad4a1096b0)</title></circle>
<circle cx="2.1943" cy="13.2360" r="0.1000"><title>764 entries @ 2024-04-06 13:02:09 +0800
(commit dbe6e84340ec50bf7f50d9361480ea391a14c5d8)</title></circle>
<circle cx="2.0641" cy="13.2960" r="0.1000"><title>704 entries @ 2024-03-20 21:36:11 +0800
(commit e9e95f90adc51d3440b309249317d2d265ce22c1)</title></circle>
<circle cx="1.8768" cy="13.3550" r="0.1000"><title>645 entries @ 2024-02-25 22:44:06 +0800
(commit e2854f56cc4b13bcf20d7d27d8c5f9a6d6078876)</title></circle>
<circle cx="1.7642" cy="13.3960" r="0.1000"><title>604 entries @ 2024-02-11 13:13:15 +0800
(commit e43ee478a112b6289d249500b35bbdf97f2778b9)</title></circle>
<circle cx="1.7128" cy="13.4560" r="0.1000"><title>544 entries @ 2024-02-04 23:38:59 +0800
(commit abff5313798926d329d39c80ba4c97ce542e5404)</title></circle>
<circle cx="1.6485" cy="13.5140" r="0.1000"><title>486 entries @ 2024-01-27 18:21:29 +0800
(commit 96493676f90bfee17451be181a7d5f007dc51543)</title></circle>
<circle cx="1.6104" cy="13.5550" r="0.1000"><title>445 entries @ 2024-01-22 21:19:53 +0800
(commit 0b73476418ed93dbdf19dcb2ea108385145e15bb)</title></circle>
<circle cx="1.5719" cy="13.6010" r="0.1000"><title>399 entries @ 2024-01-17 23:08:53 +0800
(commit 59cfb7caa7e8982fc029ab39347e59c9a48dfcba)</title></circle>
<circle cx="1.4914" cy="13.6500" r="0.1000"><title>350 entries @ 2024-01-07 16:18:57 +0800
(commit a650ab5dc82318cdab3feb655e902072af96b562)</title></circle>
<circle cx="1.4757" cy="13.6500" r="0.1000"><title>350 entries @ 2024-01-05 16:08:12 +0800
(commit 0ce09eb12ecbae5e9d1b60cc075b5a62122c147b)</title></circle>
<circle cx="1.4593" cy="13.6860" r="0.1000"><title>314 entries @ 2024-01-03 13:42:31 +0800
(commit 49f82ccadbf9b03eb9d1e013ccdd4601aba38ebf)</title></circle>
<circle cx="1.4245" cy="13.7130" r="0.1000"><title>287 entries @ 2023-12-30 02:57:58 +0800
(commit 44a5d0b4b20d7cc8e3ab173d3930557efb7f24d0)</title></circle>
<circle cx="1.4060" cy="13.7250" r="0.1000"><title>275 entries @ 2023-12-27 18:10:25 +0800
(commit a607433d5c80c9f531d1ef33c82cd462bce84e7a)</title></circle>
<circle cx="1.3296" cy="13.7840" r="0.1000"><title>216 entries @ 2023-12-17 23:52:42 +0800
(commit 791b3b7c4e45137dd8c09a674d5837e983b6aed8)</title></circle>
<circle cx="0.7739" cy="13.8400" r="0.1000"><title>160 entries @ 2023-10-07 22:42:10 +0800
(commit e1504937056e0a619114ee522963213791ae061f)</title></circle>
<circle cx="0.5536" cy="13.8920" r="0.1000"><title>108 entries @ 2023-09-09 18:38:46 +0800
(commit a513e4d83bb6e54e2f903c85de64ef143087ea21)</title></circle>
<circle cx="0.3442" cy="13.9120" r="0.1000"><title>88 entries @ 2023-08-14 00:00:00 +0800
(commit 2c72fd864e159c6859c44db5b32a94240a565199)</title></circle>
<circle cx="0.3278" cy="13.9510" r="0.1000"><title>49 entries @ 2023-08-11 21:46:09 +0800
(commit ae0768087ea4c4cf1e0243e3e82881a877fe0a76)</title></circle>
<circle cx="0.2870" cy="13.9610" r="0.1000"><title>39 entries @ 2023-08-06 16:35:25 +0800
(commit 5a19c46942612ec7ef2e026b8a302065d239625b)</title></circle>
<circle cx="0.2818" cy="13.9620" r="0.1000"><title>38 entries @ 2023-08-06 00:41:22 +0800
(commit c8cc80ae0dd01e22109831995760974c1f9d297d)</title></circle>
<circle cx="0.2814" cy="13.9620" r="0.1000"><title>38 entries @ 2023-08-05 23:19:51 +0800
(commit 4afaa6ead0a39a1f2ff7df2e1a137724b1a4e736)</title></circle>
<circle cx="0.2808" cy="13.9620" r="0.1000"><title>38 entries @ 2023-08-05 21:35:34 +0800
(commit 3d93e68c6c9c5aaba905e1dcd41d7a79d7700385)</title></circle>
<circle cx="0.2799" cy="13.9620" r="0.1000"><title>38 entries @ 2023-08-05 18:49:18 +0800
(commit fdecd3e504deb6692a771c609ab832fdcef0e0ee)</title></circle>
<circle cx="0.2795" cy="13.9620" r="0.1000"><title>38 entries @ 2023-08-05 17:36:34 +0800
(commit 888dda2107c15975b6f62100399416aa8ba413f6)</title></circle>
<circle cx="0.2740" cy="13.9620" r="0.1000"><title>38 entries @ 2023-08-05 00:51:36 +0800
(commit 63edecf505ce4e4248116a692954429b7bfcfa81)</title></circle>
<circle cx="0.2735" cy="13.9620" r="0.1000"><title>38 entries @ 2023-08-04 23:21:00 +0800
(commit 8bfdc5941b050b57de030f5fd799afce00217396)</title></circle>
<circle cx="0.2659" cy="13.9620" r="0.1000"><title>38 entries @ 2023-08-03 23:53:22 +0800
(commit 4e12cc3038ff29c65f5642ba7161f2a4afccb45e)</title></circle>
<circle cx="0.2577" cy="13.9620" r="0.1000"><title>38 entries @ 2023-08-02 22:39:33 +0800
(commit ff652646e86abc808f4d3aefb7260fd5b2b94898)</title></circle>
<circle cx="0.2348" cy="13.9620" r="0.1000"><title>38 entries @ 2023-07-31 00:20:49 +0800
(commit 25145404490bd229c6d468aabf2d3669242da508)</title></circle>
<circle cx="0.2249" cy="13.9740" r="0.1000"><title>26 entries @ 2023-07-29 18:08:09 +0800
(commit b86213ad4f9cd1631c58cc48940ef25957db51bf)</title></circle>
<circle cx="0.1797" cy="13.9740" r="0.1000"><title>26 entries @ 2023-07-23 23:25:36 +0800
(commit 54d061ff1d57606d1cdb25e6e9a3b6c738431183)</title></circle>
<circle cx="0.1642" cy="13.9850" r="0.1000"><title>15 entries @ 2023-07-21 23:46:38 +0800
(commit 84b7dafbedda4ea3ce7b4a56b76977bb6ffc3e2c)</title></circle>
<circle cx="0.1567" cy="13.9900" r="0.1000"><title>10 entries @ 2023-07-21 00:55:19 +0800
(commit 1e0abef2cc6b3563ba8851c278760f7aeeccc07e)</title></circle>
<circle cx="0.1557" cy="14.0000" r="0.1000"><title>0 entries @ 2023-07-20 21:39:40 +0800
(commit 263685863f91821c9cefca68e1899910e88be118)</title></circle>
</svg>
