<?xml version="1.0" encoding="UTF-8"?>
<svg viewBox="-6 -4 28 22" width="960px" xmlns="http://www.w3.org/2000/svg">
<style>
circle:hover {fill: #cf1338}
circle {fill: black}
line, polyline {stroke: black; stroke-width: 0.1042%}polyline {stroke: #cf1338}line.projected {stroke: blue; stroke-dasharray: 1.0417%}
polyline {fill: none}text {font-family: sans-serif; font-size: 1px; text-anchor: middle}
text.projected {fill: blue; font-size: 0.7px}
text.tick {font-size: 0.7px}
text.title {fill: #cf1338; font-size: 1.1px}
</style>
<text class="title" x="8.0000" y="-2.0000">Conway's Cantonese Dictionary: Progress</text><line x1="0.0000" y1="14.0000" x2="20.0000" y2="14.0000"/>
<text x="10.0000" y="14.0000" dy="3em">Time</text>
<line x1="1.4392" y1="14.0000" x2="1.4392" y2="14.2000"/>
<text class="tick" x="1.4392" y="14.2000" dy="1.3em">2024</text>
<line x1="4.3019" y1="14.0000" x2="4.3019" y2="14.2000"/>
<text class="tick" x="4.3019" y="14.2000" dy="1.3em">2025</text>
<line x1="7.1568" y1="14.0000" x2="7.1568" y2="14.2000"/>
<text class="tick" x="7.1568" y="14.2000" dy="1.3em">2026</text>
<line x1="10.0117" y1="14.0000" x2="10.0117" y2="14.2000"/>
<text class="tick" x="10.0117" y="14.2000" dy="1.3em">2027</text>
<line x1="12.8666" y1="14.0000" x2="12.8666" y2="14.2000"/>
<text class="tick" x="12.8666" y="14.2000" dy="1.3em">2028</text>
<line x1="15.7294" y1="14.0000" x2="15.7294" y2="14.2000"/>
<text class="tick" x="15.7294" y="14.2000" dy="1.3em">2029</text>
<line x1="18.5843" y1="14.0000" x2="18.5843" y2="14.2000"/>
<text class="tick" x="18.5843" y="14.2000" dy="1.3em">2030</text>
<line x1="0.0000" y1="14.0000" x2="0.0000" y2="0.0000"/>
<text x="0.0000" y="7.0000" dy="-4em" transform="rotate(-90 0.0000 7.0000)">Entry Count</text>
<line x1="0.0000" y1="12.0000" x2="-0.2000" y2="12.0000"/>
<text class="tick" x="-0.2000" y="12.0000" dx="-2em" dy="0.33em">2000</text>
<line x1="0.0000" y1="10.0000" x2="-0.2000" y2="10.0000"/>
<text class="tick" x="-0.2000" y="10.0000" dx="-2em" dy="0.33em">4000</text>
<line x1="0.0000" y1="8.0000" x2="-0.2000" y2="8.0000"/>
<text class="tick" x="-0.2000" y="8.0000" dx="-2em" dy="0.33em">6000</text>
<line x1="0.0000" y1="6.0000" x2="-0.2000" y2="6.0000"/>
<text class="tick" x="-0.2000" y="6.0000" dx="-2em" dy="0.33em">8000</text>
<line x1="0.0000" y1="4.0000" x2="-0.2000" y2="4.0000"/>
<text class="tick" x="-0.2000" y="4.0000" dx="-2em" dy="0.33em">10000</text>
<line x1="0.0000" y1="2.0000" x2="-0.2000" y2="2.0000"/>
<text class="tick" x="-0.2000" y="2.0000" dx="-2em" dy="0.33em">12000</text>
<line class="projected" x1="0.0000" y1="1.2108" x2="20.0000" y2="1.2108"/>
<text class="projected" x="10.0000" y="1.2108" dy="-0.5em">Projected Total: 12789.2 entries</text>
<polyline points="8.5490,11.5060 8.4470,11.5430 8.2186,11.6030 8.0405,11.6510 7.8922,11.6610 7.8336,11.6640 7.7258,11.6700 7.6104,11.6790 7.1798,11.6830 7.0221,11.6880 6.8674,11.7120 6.8573,11.7280 6.7972,11.7590 6.7483,11.7900 6.7391,11.7900 6.7106,11.7900 6.6791,11.8000 6.6484,11.8000 6.6093,11.8260 6.5387,11.8870 6.2798,11.9500 6.2105,11.9980 6.1364,12.0670 6.0827,12.1250 5.8899,12.1690 5.7801,12.1860 5.7327,12.1930 5.3388,12.2020 5.0530,12.2060 4.9819,12.2100 4.9042,12.2170 4.8731,12.2200 4.8489,12.2220 4.7774,12.2230 4.7096,12.2230 4.6671,12.2230 4.6145,12.2260 4.5759,12.2290 4.4901,12.2360 4.4489,12.2380 4.4036,12.2390 4.3181,12.2340 4.2306,12.2330 4.1846,12.2320 4.1536,12.2330 4.1065,12.2360 4.0824,12.2400 4.0665,12.2470 4.0101,12.2780 3.8790,12.3370 3.6606,12.3780 3.6151,12.4100 3.6135,12.4100 3.5582,12.4520 3.5252,12.5160 3.4412,12.5750 3.0896,12.6310 3.0264,12.6810 2.9717,12.7090 2.9168,12.7460 2.8313,12.8060 2.5883,12.8590 2.5325,12.9240 2.4637,12.9840 2.4219,13.0120 2.3466,13.0530 2.2840,13.1240 2.2367,13.1900 2.1666,13.2450 2.0097,13.3100 1.8660,13.3600 1.7598,13.4100 1.7055,13.4710 1.6341,13.5260 1.6030,13.5580 1.5642,13.6060 1.4784,13.6500 1.4743,13.6500 1.4463,13.7030 1.4238,13.7130 1.3996,13.7400 1.3142,13.7940 0.7500,13.8550 0.4220,13.8940 0.3419,13.9240 0.3199,13.9550 0.2859,13.9620 0.2817,13.9620 0.2813,13.9620 0.2807,13.9620 0.2798,13.9620 0.2794,13.9620 0.2739,13.9620 0.2734,13.9620 0.2651,13.9620 0.2575,13.9620 0.2346,13.9620 0.2195,13.9740 0.1775,13.9740 0.1627,13.9860 0.1561,14.0000 0.1557,14.0000"/>
<circle cx="8.5490" cy="11.5060" r="0.1000"><title>2494 entries @ 2026-06-27 23:50:40 +0800
(commit c7daa5d695be8ffacdddfc561d82c3137bbf4562)</title></circle>
<circle cx="8.4470" cy="11.5430" r="0.1000"><title>2457 entries @ 2026-06-14 22:46:10 +0800
(commit 1148d3a411e0eb85f5752c298df9a1c45801c0ef)</title></circle>
<circle cx="8.2186" cy="11.6030" r="0.1000"><title>2397 entries @ 2026-05-16 17:48:07 +0800
(commit 014cf68186dd5543d4cf6ff52dc7ec0ab908c9f0)</title></circle>
<circle cx="8.0405" cy="11.6510" r="0.1000"><title>2349 entries @ 2026-04-23 23:29:36 +0800
(commit cd3f22f221864558387d021cf7012568777706a7)</title></circle>
<circle cx="7.8922" cy="11.6610" r="0.1000"><title>2339 entries @ 2026-04-05 00:26:23 +0800
(commit 26e93745acb1f080178781ce16e9b4c76c9b24a8)</title></circle>
<circle cx="7.8336" cy="11.6640" r="0.1000"><title>2336 entries @ 2026-03-28 12:39:12 +0800
(commit b28c8260631caf645fd69a4d530d3940abae2780)</title></circle>
<circle cx="7.7258" cy="11.6700" r="0.1000"><title>2330 entries @ 2026-03-14 17:55:45 +0800
(commit 5a02b1a235c60530586502b1667f0e34f8f48534)</title></circle>
<circle cx="7.6104" cy="11.6790" r="0.1000"><title>2321 entries @ 2026-02-27 23:39:25 +0800
(commit 9ac6d8ed57872d2400a5a650f6ab5ee5223adb2d)</title></circle>
<circle cx="7.1798" cy="11.6830" r="0.1000"><title>2317 entries @ 2026-01-03 22:27:24 +0800
(commit 2c93f3446f84b6f1ef11f99a821b2521ad8fd655)</title></circle>
<circle cx="7.0221" cy="11.6880" r="0.1000"><title>2312 entries @ 2025-12-14 18:41:48 +0800
(commit 6879dcbe0ce49fa19ef005f9aa70de0f28f22421)</title></circle>
<circle cx="6.8674" cy="11.7120" r="0.1000"><title>2288 entries @ 2025-11-24 23:49:59 +0800
(commit a3897bc82da3957f4775f928de26d35e69eae43e)</title></circle>
<circle cx="6.8573" cy="11.7280" r="0.1000"><title>2272 entries @ 2025-11-23 17:01:53 +0800
(commit f33fb806e72b9561bdd69519ba4965d6bd8b96a6)</title></circle>
<circle cx="6.7972" cy="11.7590" r="0.1000"><title>2241 entries @ 2025-11-16 00:28:40 +0800
(commit cf5175dfff3b3d15e0a4b443ef1ef51c8ee16cf4)</title></circle>
<circle cx="6.7483" cy="11.7900" r="0.1000"><title>2210 entries @ 2025-11-09 18:26:12 +0800
(commit be99518844e9a1e864f69ea8339ceb88df3ac68c)</title></circle>
<circle cx="6.7391" cy="11.7900" r="0.1000"><title>2210 entries @ 2025-11-08 14:15:32 +0800
(commit 3c4a1ba4a23989a8d6b58515c7fe767b6d123304)</title></circle>
<circle cx="6.7106" cy="11.7900" r="0.1000"><title>2210 entries @ 2025-11-04 22:41:07 +0800
(commit 312bb7f0054599776c21b0854294f103ca812f94)</title></circle>
<circle cx="6.6791" cy="11.8000" r="0.1000"><title>2200 entries @ 2025-10-31 22:12:36 +0800
(commit 2719d9093d3ab3774665c4461bfc89b6ca956f51)</title></circle>
<circle cx="6.6484" cy="11.8000" r="0.1000"><title>2200 entries @ 2025-10-28 00:00:42 +0800
(commit a763fe61fbfed9902d57b446ab2770e173ae7fe8)</title></circle>
<circle cx="6.6093" cy="11.8260" r="0.1000"><title>2174 entries @ 2025-10-23 00:02:54 +0800
(commit 8134bf5f37914bdd70349b44343912eb595a1176)</title></circle>
<circle cx="6.5387" cy="11.8870" r="0.1000"><title>2113 entries @ 2025-10-13 23:19:17 +0800
(commit ca35acc3b076b81beb66a17dfb218edf14ed5a48)</title></circle>
<circle cx="6.2798" cy="11.9500" r="0.1000"><title>2050 entries @ 2025-09-10 20:59:13 +0800
(commit 58e00c518bd002a1d457e01a0d27d96f1448560b)</title></circle>
<circle cx="6.2105" cy="11.9980" r="0.1000"><title>2002 entries @ 2025-09-02 00:18:31 +0800
(commit 15b65229ad8b854fff20f03c39c1496bddbd3779)</title></circle>
<circle cx="6.1364" cy="12.0670" r="0.1000"><title>1933 entries @ 2025-08-23 13:00:33 +0800
(commit 2cce6e646358df7a518bafa69cd276783ca4de7b)</title></circle>
<circle cx="6.0827" cy="12.1250" r="0.1000"><title>1875 entries @ 2025-08-16 16:18:32 +0800
(commit 6a4b0eafd7ae4597b2ff6a026872973bb06c2cdd)</title></circle>
<circle cx="5.8899" cy="12.1690" r="0.1000"><title>1831 entries @ 2025-07-23 00:28:37 +0800
(commit c8d5320bc2861a5724693ad445ac0fd7434c0437)</title></circle>
<circle cx="5.7801" cy="12.1860" r="0.1000"><title>1814 entries @ 2025-07-08 23:32:38 +0800
(commit 0410641c299e96312eea662879d318775a14ce0e)</title></circle>
<circle cx="5.7327" cy="12.1930" r="0.1000"><title>1807 entries @ 2025-07-02 22:13:33 +0800
(commit 250dab5140cba5c0cf7e45cba0ac25b522615426)</title></circle>
<circle cx="5.3388" cy="12.2020" r="0.1000"><title>1798 entries @ 2025-05-13 13:37:59 +0800
(commit 61ac88ba2791a6651c18bf37206b07a307c91b8c)</title></circle>
<circle cx="5.0530" cy="12.2060" r="0.1000"><title>1794 entries @ 2025-04-07 00:41:21 +0800
(commit aa42052eaa0e33b17e702425312d567598e0490d)</title></circle>
<circle cx="4.9819" cy="12.2100" r="0.1000"><title>1790 entries @ 2025-03-28 22:19:34 +0800
(commit 3a72bf7ab29dbf96049c01cad91eb2c55d153ab3)</title></circle>
<circle cx="4.9042" cy="12.2170" r="0.1000"><title>1783 entries @ 2025-03-19 00:01:27 +0800
(commit 1f873189c89373a5ee61daf870ae72fb1b2aff31)</title></circle>
<circle cx="4.8731" cy="12.2200" r="0.1000"><title>1780 entries @ 2025-03-15 00:45:27 +0800
(commit 683a2087b3a3189f1c7fcef9caf9238d00f3a1c6)</title></circle>
<circle cx="4.8489" cy="12.2220" r="0.1000"><title>1778 entries @ 2025-03-11 22:27:59 +0800
(commit 293b17d3d30da5a37c4a0fc43e18c351f1b9b8f6)</title></circle>
<circle cx="4.7774" cy="12.2230" r="0.1000"><title>1777 entries @ 2025-03-02 19:07:38 +0800
(commit baa00c2d1dd81d49a15c66fa5aa8935e5655c7c1)</title></circle>
<circle cx="4.7096" cy="12.2230" r="0.1000"><title>1777 entries @ 2025-02-22 02:50:51 +0800
(commit ec36675995053caa257266d9187590fa6a2a8e78)</title></circle>
<circle cx="4.6671" cy="12.2230" r="0.1000"><title>1777 entries @ 2025-02-16 16:31:04 +0800
(commit 7066c615489f48083fa315b602dac67ee90eca4f)</title></circle>
<circle cx="4.6145" cy="12.2260" r="0.1000"><title>1774 entries @ 2025-02-09 23:08:20 +0800
(commit 570befddee43a9908781c6e56e6b0db6c2232921)</title></circle>
<circle cx="4.5759" cy="12.2290" r="0.1000"><title>1771 entries @ 2025-02-05 00:32:33 +0800
(commit 44197ec17e10756172e8021d0e00ee090de5fafc)</title></circle>
<circle cx="4.4901" cy="12.2360" r="0.1000"><title>1764 entries @ 2025-01-25 01:27:22 +0800
(commit b77bb971f8451411d22bfa7163eb15a336f429db)</title></circle>
<circle cx="4.4489" cy="12.2380" r="0.1000"><title>1762 entries @ 2025-01-19 19:03:58 +0800
(commit 54b5f2ed1f212406c7082717c91cf6a245c04f09)</title></circle>
<circle cx="4.4036" cy="12.2390" r="0.1000"><title>1761 entries @ 2025-01-13 23:51:44 +0800
(commit 378e57a14a628101ffefe1e4d46ba61842554582)</title></circle>
<circle cx="4.3181" cy="12.2340" r="0.1000"><title>1766 entries @ 2025-01-03 01:37:54 +0800
(commit ee0ebf629c59f7e9cd5a38c6cd456237f198e895)</title></circle>
<circle cx="4.2306" cy="12.2330" r="0.1000"><title>1767 entries @ 2024-12-22 21:14:13 +0800
(commit fb9df40016b8427b65ef207befbe2c5481ff3809)</title></circle>
<circle cx="4.1846" cy="12.2320" r="0.1000"><title>1768 entries @ 2024-12-17 00:05:20 +0800
(commit 3dac34f602cd5c4687d98edfd3f0348a8e05b9b8)</title></circle>
<circle cx="4.1536" cy="12.2330" r="0.1000"><title>1767 entries @ 2024-12-13 01:00:19 +0800
(commit 34a95c63e9d47a34d0189e1d2c19ff60e55b96f9)</title></circle>
<circle cx="4.1065" cy="12.2360" r="0.1000"><title>1764 entries @ 2024-12-07 00:23:56 +0800
(commit d634a3d70db875ad8728fac6646ac15138f2af74)</title></circle>
<circle cx="4.0824" cy="12.2400" r="0.1000"><title>1760 entries @ 2024-12-03 22:27:47 +0800
(commit 0f0441a82949d516ad306f923936f5b26dff60ab)</title></circle>
<circle cx="4.0665" cy="12.2470" r="0.1000"><title>1753 entries @ 2024-12-01 21:34:46 +0800
(commit cd7c7812d155fde2d974ddccd41cca50a9969355)</title></circle>
<circle cx="4.0101" cy="12.2780" r="0.1000"><title>1722 entries @ 2024-11-24 16:30:00 +0800
(commit d191d7002652c6e554102076246e451a7e0cd69d)</title></circle>
<circle cx="3.8790" cy="12.3370" r="0.1000"><title>1663 entries @ 2024-11-07 22:23:25 +0800
(commit 57b794502900b0c26b4553c088038c87a56f7b40)</title></circle>
<circle cx="3.6606" cy="12.3780" r="0.1000"><title>1622 entries @ 2024-10-11 00:09:32 +0800
(commit 46f9e0d011a91e7d156c9219b137e0cbf9f38de1)</title></circle>
<circle cx="3.6151" cy="12.4100" r="0.1000"><title>1590 entries @ 2024-10-05 04:42:57 +0800
(commit c06c61f8957582e485b250b6b5fbd58f75f52e4d)</title></circle>
<circle cx="3.6135" cy="12.4100" r="0.1000"><title>1590 entries @ 2024-10-04 23:39:06 +0800
(commit d69082fd3e23ed4778c49a569ce37a83c4791b16)</title></circle>
<circle cx="3.5582" cy="12.4520" r="0.1000"><title>1548 entries @ 2024-09-27 22:03:38 +0800
(commit a711aa59d6c22394f86d0ebfcac87cbd701ca962)</title></circle>
<circle cx="3.5252" cy="12.5160" r="0.1000"><title>1484 entries @ 2024-09-23 16:41:55 +0800
(commit 1b5d85ae5e368f13e355fa421dd4563fbdf33664)</title></circle>
<circle cx="3.4412" cy="12.5750" r="0.1000"><title>1425 entries @ 2024-09-12 23:00:05 +0800
(commit c09ceacc8d9fadd7d0bad3b9ed7ace3d3e6492a4)</title></circle>
<circle cx="3.0896" cy="12.6310" r="0.1000"><title>1369 entries @ 2024-07-30 00:00:22 +0800
(commit 30cb447c3a02b02a66c764f73e492a2479b64bf4)</title></circle>
<circle cx="3.0264" cy="12.6810" r="0.1000"><title>1319 entries @ 2024-07-21 22:19:32 +0800
(commit c69c8f09d8170090de0f0a303f6fb913ee1505cc)</title></circle>
<circle cx="2.9717" cy="12.7090" r="0.1000"><title>1291 entries @ 2024-07-14 22:26:48 +0800
(commit 835e6b453b02ff79497cef13513ac86bc92379be)</title></circle>
<circle cx="2.9168" cy="12.7460" r="0.1000"><title>1254 entries @ 2024-07-07 21:53:11 +0800
(commit 63011420f27bb2ee4b41fdf71375783db8beb8d2)</title></circle>
<circle cx="2.8313" cy="12.8060" r="0.1000"><title>1194 entries @ 2024-06-26 23:38:08 +0800
(commit fa9474751197c1598e358288556b7010cb5c9ac8)</title></circle>
<circle cx="2.5883" cy="12.8590" r="0.1000"><title>1141 entries @ 2024-05-26 21:54:17 +0800
(commit 0db2062f1d0f059c3fc7284bda28dcff2ca19b01)</title></circle>
<circle cx="2.5325" cy="12.9240" r="0.1000"><title>1076 entries @ 2024-05-19 18:49:23 +0800
(commit 9c645ef062919d1bec771b543ccea26cfb41adf8)</title></circle>
<circle cx="2.4637" cy="12.9840" r="0.1000"><title>1016 entries @ 2024-05-10 23:35:09 +0800
(commit c830c7abbfc9029b9dc9e85213a58a980a543dee)</title></circle>
<circle cx="2.4219" cy="13.0120" r="0.1000"><title>988 entries @ 2024-05-05 15:12:38 +0800
(commit 1cbd7547a4d2957a93ad887ca59773831a0729cd)</title></circle>
<circle cx="2.3466" cy="13.0530" r="0.1000"><title>947 entries @ 2024-04-26 00:24:24 +0800
(commit 141b803064b9ccf17acc0f72ca97647817fad311)</title></circle>
<circle cx="2.2840" cy="13.1240" r="0.1000"><title>876 entries @ 2024-04-18 00:18:31 +0800
(commit 9f03651b9105580f68fa023a5611d8f89afca56a)</title></circle>
<circle cx="2.2367" cy="13.1900" r="0.1000"><title>810 entries @ 2024-04-11 23:01:17 +0800
(commit 903c738f0ced4ad76e99027eb422bd8db057e229)</title></circle>
<circle cx="2.1666" cy="13.2450" r="0.1000"><title>755 entries @ 2024-04-03 00:07:59 +0800
(commit b13c7ee6cd59f40c6ee439f5fe7c0eda4a809767)</title></circle>
<circle cx="2.0097" cy="13.3100" r="0.1000"><title>690 entries @ 2024-03-13 22:36:19 +0800
(commit 164b2d61d82bd97b7eaf10ac7a4701f3db344915)</title></circle>
<circle cx="1.8660" cy="13.3600" r="0.1000"><title>640 entries @ 2024-02-24 13:33:04 +0800
(commit ab51053e5ce2da837498924a9abe7f5dd329bbc3)</title></circle>
<circle cx="1.7598" cy="13.4100" r="0.1000"><title>590 entries @ 2024-02-10 23:53:13 +0800
(commit 7f33e314de2d7664f812d9ce64dcf7c32d17b88b)</title></circle>
<circle cx="1.7055" cy="13.4710" r="0.1000"><title>529 entries @ 2024-02-04 01:15:59 +0800
(commit 67b99cd25f6012c4353e2f03f81d57d1e6525539)</title></circle>
<circle cx="1.6341" cy="13.5260" r="0.1000"><title>474 entries @ 2024-01-25 22:05:28 +0800
(commit dde04befb74b32ab545c655e0ea96b6642864f1a)</title></circle>
<circle cx="1.6030" cy="13.5580" r="0.1000"><title>442 entries @ 2024-01-21 22:31:26 +0800
(commit 9e387bdbd83647405d01eda49f3f54b0c1358216)</title></circle>
<circle cx="1.5642" cy="13.6060" r="0.1000"><title>394 entries @ 2024-01-16 23:35:16 +0800
(commit 732496949d58da0b3ba849e924e29a5aff7a8d1f)</title></circle>
<circle cx="1.4784" cy="13.6500" r="0.1000"><title>350 entries @ 2024-01-06 00:18:45 +0800
(commit d055dd90ff57bca5f3bb91ff64b16ccb78bf5fe1)</title></circle>
<circle cx="1.4743" cy="13.6500" r="0.1000"><title>350 entries @ 2024-01-05 11:51:46 +0800
(commit cab7f82dfdcac37e62d0a33ac51b3b0392618764)</title></circle>
<circle cx="1.4463" cy="13.7030" r="0.1000"><title>297 entries @ 2024-01-01 21:47:12 +0800
(commit 736213a8a92e6734336798ac7aa2802422670020)</title></circle>
<circle cx="1.4238" cy="13.7130" r="0.1000"><title>287 entries @ 2023-12-30 00:51:35 +0800
(commit 8860b8ad2d484f5d7b6b175c1aa5444e09ccbf1b)</title></circle>
<circle cx="1.3996" cy="13.7400" r="0.1000"><title>260 entries @ 2023-12-26 22:23:42 +0800
(commit 9639c7bbc1db35fb4a7554821434b36a890c132b)</title></circle>
<circle cx="1.3142" cy="13.7940" r="0.1000"><title>206 entries @ 2023-12-16 00:27:08 +0800
(commit cd36ca6bcccef4eb5b50ef46bcfa1dd275c7e4e3)</title></circle>
<circle cx="0.7500" cy="13.8550" r="0.1000"><title>145 entries @ 2023-10-04 21:19:38 +0800
(commit a75573b60c2aba9212e896b7979f9cb2109c4e8a)</title></circle>
<circle cx="0.4220" cy="13.8940" r="0.1000"><title>106 entries @ 2023-08-23 22:51:39 +0800
(commit b5f6478eb4ebf2ceee6904c3f36cf0872d9045e7)</title></circle>
<circle cx="0.3419" cy="13.9240" r="0.1000"><title>76 entries @ 2023-08-13 16:59:55 +0800
(commit ad42ea24bafc44cb44dff44e77324830e28d8473)</title></circle>
<circle cx="0.3199" cy="13.9550" r="0.1000"><title>45 entries @ 2023-08-10 21:28:46 +0800
(commit cab80762477018cd8e650d8821e446df1d557f7f)</title></circle>
<circle cx="0.2859" cy="13.9620" r="0.1000"><title>38 entries @ 2023-08-06 13:16:14 +0800
(commit ac75e5352a25147cc4df62ea2919c6d16e3541c5)</title></circle>
<circle cx="0.2817" cy="13.9620" r="0.1000"><title>38 entries @ 2023-08-06 00:23:53 +0800
(commit 53caf81d963efbf254e2152a5c3e360604f8057b)</title></circle>
<circle cx="0.2813" cy="13.9620" r="0.1000"><title>38 entries @ 2023-08-05 23:04:41 +0800
(commit dafdd0d1f515d4bd6ee8c0abaad3c58c003c779d)</title></circle>
<circle cx="0.2807" cy="13.9620" r="0.1000"><title>38 entries @ 2023-08-05 21:14:45 +0800
(commit c6a54780a66eaecb11d3beff1e2d9c601c0cfff6)</title></circle>
<circle cx="0.2798" cy="13.9620" r="0.1000"><title>38 entries @ 2023-08-05 18:33:51 +0800
(commit 2983eda32507acb37690fcacaf628d0fea49de7c)</title></circle>
<circle cx="0.2794" cy="13.9620" r="0.1000"><title>38 entries @ 2023-08-05 17:22:26 +0800
(commit 39966bfb0aa8ba82f10c14155a007e736d749ec0)</title></circle>
<circle cx="0.2739" cy="13.9620" r="0.1000"><title>38 entries @ 2023-08-05 00:33:25 +0800
(commit c44d937002cefd307e7ab19d43309e18a6483991)</title></circle>
<circle cx="0.2734" cy="13.9620" r="0.1000"><title>38 entries @ 2023-08-04 22:53:52 +0800
(commit dfb7c20772e01413a869e438baa8d5344da82d7e)</title></circle>
<circle cx="0.2651" cy="13.9620" r="0.1000"><title>38 entries @ 2023-08-03 21:26:00 +0800
(commit b4d6235099c6b7cea6363a385f426c1ed9fbeb41)</title></circle>
<circle cx="0.2575" cy="13.9620" r="0.1000"><title>38 entries @ 2023-08-02 22:11:46 +0800
(commit 80e8b82d8c41cf8e51a0b84b0225fe9b11042e38)</title></circle>
<circle cx="0.2346" cy="13.9620" r="0.1000"><title>38 entries @ 2023-07-30 23:55:16 +0800
(commit 419da97bc0ac470088b4aa29ab0c28a5b93572a3)</title></circle>
<circle cx="0.2195" cy="13.9740" r="0.1000"><title>26 entries @ 2023-07-29 01:24:47 +0800
(commit 27cd40f9e2d647d6d1b68bffd420ea6c8cc87c42)</title></circle>
<circle cx="0.1775" cy="13.9740" r="0.1000"><title>26 entries @ 2023-07-23 16:42:37 +0800
(commit fc278e054901c1184ac84a6ea187a239322db09b)</title></circle>
<circle cx="0.1627" cy="13.9860" r="0.1000"><title>14 entries @ 2023-07-21 19:09:08 +0800
(commit 3c5dbe4561c561008ae3a4fd1f413d3b272ef161)</title></circle>
<circle cx="0.1561" cy="14.0000" r="0.1000"><title>0 entries @ 2023-07-20 22:56:58 +0800
(commit 8617bc94ad64168c3e741f0d324deb7a6d73d804)</title></circle>
<circle cx="0.1557" cy="14.0000" r="0.1000"><title>0 entries @ 2023-07-20 21:39:40 +0800
(commit 263685863f91821c9cefca68e1899910e88be118)</title></circle>
</svg>
