<?xml version="1.0" encoding="UTF-8"?>
<svg viewBox="-4 -2 26 20" width="1024px" xmlns="http://www.w3.org/2000/svg">
<style>
circle:hover {fill: red}
circle {fill: black}
line, polyline {stroke: black; stroke-width: 0.0977%}line.target {stroke: blue; stroke-dasharray: 0.9766%}
polyline {fill: none}text {font-family: sans-serif; font-size: 1px; text-anchor: middle}
text.target {fill: blue; font-size: 0.7px}
</style>
<line x1="0.0000" y1="14.0000" x2="20.0000" y2="14.0000"/>
<text x="10.0000" y="14.0000" dy="3em">Date</text>
<line x1="0.0000" y1="14.0000" x2="0.0000" y2="0.0000"/>
<text x="0.0000" y="7.0000" dy="-2.5em" transform="rotate(-90 0.0000 7.0000)">Entry Count</text>
<line class="target" x1="0.0000" y1="1.0000" x2="20.0000" y2="1.0000"/>
<text class="target" x="13.4000" y="1.0000" dy="-0.5em">Approximate Target: 13000 entries</text>
<circle cx="7.6105" cy="11.6790" r="0.1000"><title>2321 entries @ 2026-02-27 23:55:56 +0800
commit 5488d1ecf9d2e1c04c2aad11a44c3a5c4fef60f8</title></circle>
<circle cx="7.0235" cy="11.6880" r="0.1000"><title>2312 entries @ 2025-12-14 23:01:54 +0800
commit 0f5d983d859dc465314e154ea627e07c8506dc83</title></circle>
<circle cx="6.8593" cy="11.7200" r="0.1000"><title>2280 entries @ 2025-11-23 23:05:24 +0800
commit e4925039165f84ece2047503c274a031dec6aa54</title></circle>
<circle cx="6.7729" cy="11.7750" r="0.1000"><title>2225 entries @ 2025-11-12 22:04:54 +0800
commit 56970451f477a69bcbbc3a05e5d5642908850fe5</title></circle>
<circle cx="6.7271" cy="11.7900" r="0.1000"><title>2210 entries @ 2025-11-07 01:29:39 +0800
commit 668d2ec7810aef6f800a39ebbc84a385db491c0f</title></circle>
<circle cx="6.6716" cy="11.8000" r="0.1000"><title>2200 entries @ 2025-10-30 23:00:14 +0800
commit 2a15a8b60f5c09b83bbfd828493c218344a224d7</title></circle>
<circle cx="6.6085" cy="11.8320" r="0.1000"><title>2168 entries @ 2025-10-22 21:29:35 +0800
commit a2a2e568c7e08ba30ce2c13d9499cced181efc2b</title></circle>
<circle cx="6.2805" cy="11.9460" r="0.1000"><title>2054 entries @ 2025-09-10 23:06:26 +0800
commit f532d5a0e57972304fbeb7383a8958300355767b</title></circle>
<circle cx="6.1480" cy="12.0500" r="0.1000"><title>1950 entries @ 2025-08-25 00:33:49 +0800
commit b9c6ec1a0dfe7aefedcad118828b0f53214388a7</title></circle>
<circle cx="5.9521" cy="12.1580" r="0.1000"><title>1842 entries @ 2025-07-30 23:17:24 +0800
commit 683bc7ead197985f2098454adbba5e05784f2dfc</title></circle>
<circle cx="5.7609" cy="12.1920" r="0.1000"><title>1808 entries @ 2025-07-06 12:40:05 +0800
commit 638a9762fd4369c69adfa5fdd3aa7ee53ba0da3e</title></circle>
<circle cx="5.0845" cy="12.2030" r="0.1000"><title>1797 entries @ 2025-04-11 01:23:07 +0800
commit 12e729c26306237afca354c3e34b340f5ce16e22</title></circle>
<circle cx="4.9587" cy="12.2120" r="0.1000"><title>1788 entries @ 2025-03-25 23:08:17 +0800
commit e9252096ebd00cdd797b2ccd744b82160cdb9fa2</title></circle>
<circle cx="4.8730" cy="12.2200" r="0.1000"><title>1780 entries @ 2025-03-15 00:18:25 +0800
commit 9447a05cf902aeed9414f2f7089b27694cf96445</title></circle>
<circle cx="4.7785" cy="12.2230" r="0.1000"><title>1777 entries @ 2025-03-02 22:12:36 +0800
commit eecee3b373562fbeb381c7d0c07d0a741dd72d91</title></circle>
<circle cx="4.6697" cy="12.2240" r="0.1000"><title>1776 entries @ 2025-02-17 00:25:06 +0800
commit b3fe3260f66115a46a740ce37695b296c7f13d4b</title></circle>
<circle cx="4.5839" cy="12.2290" r="0.1000"><title>1771 entries @ 2025-02-06 01:05:27 +0800
commit 3da61384067c0fe295e2033c08faa4f4cf98a559</title></circle>
<circle cx="4.4586" cy="12.2370" r="0.1000"><title>1763 entries @ 2025-01-21 00:53:08 +0800
commit 5c0e7c56714658885aa129c73addc164eb6f1705</title></circle>
<circle cx="4.3565" cy="12.2360" r="0.1000"><title>1764 entries @ 2025-01-07 23:32:08 +0800
commit 4470a654b269222da1d36b1d0d900af32eee01ea</title></circle>
<circle cx="4.2280" cy="12.2290" r="0.1000"><title>1771 entries @ 2024-12-22 13:02:38 +0800
commit b569f1b1b839e11849f7a56d7cb2b8627c2ce774</title></circle>
<circle cx="4.1536" cy="12.2330" r="0.1000"><title>1767 entries @ 2024-12-13 00:51:44 +0800
commit ff216c91250beeeadbb7594346c41ff488f1e4ef</title></circle>
<circle cx="4.0828" cy="12.2370" r="0.1000"><title>1763 entries @ 2024-12-03 23:30:51 +0800
commit 0af37d81b5c0b1b336236187530f6b5ded571168</title></circle>
<circle cx="4.0131" cy="12.2780" r="0.1000"><title>1722 entries @ 2024-11-25 01:55:12 +0800
commit f8a3b75f5288adf3da2297b9093994e87cb64a02</title></circle>
<circle cx="3.7018" cy="12.3570" r="0.1000"><title>1643 entries @ 2024-10-16 06:39:31 +0800
commit 0cb8044a71a54e7b2e122aa5957e3fe038ddeff2</title></circle>
<circle cx="3.6146" cy="12.4100" r="0.1000"><title>1590 entries @ 2024-10-05 02:57:55 +0800
commit b96e4ad7e6fc06c2f087702e480afd5d94e796ff</title></circle>
<circle cx="3.5476" cy="12.4750" r="0.1000"><title>1525 entries @ 2024-09-26 13:31:38 +0800
commit 75e8e7c54a1986ffcd6aa0668038effcbc9f1712</title></circle>
<circle cx="3.4257" cy="12.5830" r="0.1000"><title>1417 entries @ 2024-09-10 23:17:00 +0800
commit 2c9a21575f38ccbd7ca94070db96eb84d0cd26e6</title></circle>
<circle cx="3.0264" cy="12.6830" r="0.1000"><title>1317 entries @ 2024-07-21 22:04:10 +0800
commit 3dd4b0aed4f6ba0ec0d41a2181b3ca03991c89e5</title></circle>
<circle cx="2.9250" cy="12.7400" r="0.1000"><title>1260 entries @ 2024-07-08 23:13:16 +0800
commit 518c541bae598b15391cd81c86374a30c466d3a6</title></circle>
<circle cx="2.6121" cy="12.8460" r="0.1000"><title>1154 entries @ 2024-05-29 22:58:07 +0800
commit 1028f4846bcdf511b7d55fbe6e10df720f30cf9b</title></circle>
<circle cx="2.4945" cy="12.9540" r="0.1000"><title>1046 entries @ 2024-05-14 22:14:14 +0800
commit c2691f3b5247785bb3c10df847b118f0b8d07e14</title></circle>
<circle cx="2.4090" cy="13.0150" r="0.1000"><title>985 entries @ 2024-05-03 23:46:12 +0800
commit 58f444c211a8e1e5db16ff0afb7b0bc53f920e0e</title></circle>
<circle cx="2.2680" cy="13.1410" r="0.1000"><title>859 entries @ 2024-04-15 23:11:17 +0800
commit 9c915f449da9bd189e59258b86479c0104de9203</title></circle>
<circle cx="2.1429" cy="13.2520" r="0.1000"><title>748 entries @ 2024-03-30 23:08:37 +0800
commit 5e1bceae72b0317c9d6e6ce9b85cf6eb50b7634b</title></circle>
<circle cx="1.8735" cy="13.3590" r="0.1000"><title>641 entries @ 2024-02-25 12:40:01 +0800
commit 6d2fddd2fa165884ac7737cb96df04fd92953a8a</title></circle>
<circle cx="1.7113" cy="13.4590" r="0.1000"><title>541 entries @ 2024-02-04 19:06:03 +0800
commit fa9cdc0940565e762a788a0bd391ec13633935b8</title></circle>
<circle cx="1.6108" cy="13.5500" r="0.1000"><title>450 entries @ 2024-01-22 22:42:27 +0800
commit 9c71dc74be028bc985b8a8c23b907ef2f06d165a</title></circle>
<circle cx="1.5325" cy="13.6400" r="0.1000"><title>360 entries @ 2024-01-12 22:24:37 +0800
commit c78bd69fa309e4eaa0b6d1aaadac8371e9b143d9</title></circle>
<circle cx="1.4681" cy="13.6660" r="0.1000"><title>334 entries @ 2024-01-04 16:51:30 +0800
commit bd1545e170b22fbdc7d0524f353dac727edd8b80</title></circle>
<circle cx="1.4166" cy="13.7140" r="0.1000"><title>286 entries @ 2023-12-29 02:49:58 +0800
commit 1c3e4bc65aa33f4d07a1f60901d4657f50a3e0b1</title></circle>
<circle cx="1.2981" cy="13.8020" r="0.1000"><title>198 entries @ 2023-12-13 23:03:27 +0800
commit 34783930d0651754c156c464db6fb5679d2dab13</title></circle>
<circle cx="0.4221" cy="13.8930" r="0.1000"><title>107 entries @ 2023-08-23 23:13:42 +0800
commit 5cd1e6ebe7885084df1fc5240725eb23000fbfa1</title></circle>
<circle cx="0.3275" cy="13.9550" r="0.1000"><title>45 entries @ 2023-08-11 20:48:39 +0800
commit 70ad7b446c4f6f1c98f21008ad101335654ec5a5</title></circle>
<circle cx="0.2819" cy="13.9620" r="0.1000"><title>38 entries @ 2023-08-06 00:51:36 +0800
commit c774699592baa5f693a5714ef4a20e4bbfe91642</title></circle>
<circle cx="0.2810" cy="13.9620" r="0.1000"><title>38 entries @ 2023-08-05 22:10:34 +0800
commit 805613b6f9096dae31e4d9ba1e9eb0ab74d3c3df</title></circle>
<circle cx="0.2797" cy="13.9620" r="0.1000"><title>38 entries @ 2023-08-05 18:05:37 +0800
commit eaae44b30c467da19f7eba58df99561441f820cb</title></circle>
<circle cx="0.2738" cy="13.9620" r="0.1000"><title>38 entries @ 2023-08-05 00:08:36 +0800
commit 0f5f91aa7ee8d3ffb5dabf7a20fb15329d7d6e00</title></circle>
<circle cx="0.2582" cy="13.9620" r="0.1000"><title>38 entries @ 2023-08-03 00:20:28 +0800
commit fd6ca7ee148e400c470b201562d0184a0ba41ecd</title></circle>
<circle cx="0.2347" cy="13.9620" r="0.1000"><title>38 entries @ 2023-07-31 00:04:06 +0800
commit fdbc26b4695eb7be5eab28c5ed00ee16c2bc56b9</title></circle>
<circle cx="0.1797" cy="13.9740" r="0.1000"><title>26 entries @ 2023-07-23 23:25:36 +0800
commit 54d061ff1d57606d1cdb25e6e9a3b6c738431183</title></circle>
<circle cx="0.1569" cy="13.9900" r="0.1000"><title>10 entries @ 2023-07-21 01:29:02 +0800
commit 8b69cd2631100151cfe3ac9089344044bbfe545f</title></circle>
<circle cx="0.1557" cy="14.0000" r="0.1000"><title>0 entries @ 2023-07-20 21:39:40 +0800
commit 263685863f91821c9cefca68e1899910e88be118</title></circle>
<polyline points="7.6105,11.6790 7.0235,11.6880 6.8593,11.7200 6.7729,11.7750 6.7271,11.7900 6.6716,11.8000 6.6085,11.8320 6.2805,11.9460 6.1480,12.0500 5.9521,12.1580 5.7609,12.1920 5.0845,12.2030 4.9587,12.2120 4.8730,12.2200 4.7785,12.2230 4.6697,12.2240 4.5839,12.2290 4.4586,12.2370 4.3565,12.2360 4.2280,12.2290 4.1536,12.2330 4.0828,12.2370 4.0131,12.2780 3.7018,12.3570 3.6146,12.4100 3.5476,12.4750 3.4257,12.5830 3.0264,12.6830 2.9250,12.7400 2.6121,12.8460 2.4945,12.9540 2.4090,13.0150 2.2680,13.1410 2.1429,13.2520 1.8735,13.3590 1.7113,13.4590 1.6108,13.5500 1.5325,13.6400 1.4681,13.6660 1.4166,13.7140 1.2981,13.8020 0.4221,13.8930 0.3275,13.9550 0.2819,13.9620 0.2810,13.9620 0.2797,13.9620 0.2738,13.9620 0.2582,13.9620 0.2347,13.9620 0.1797,13.9740 0.1569,13.9900 0.1557,14.0000"/>
</svg>
