<?xml version="1.0" encoding="UTF-8"?>
<svg viewBox="-6 -4 28 22" width="960px" xmlns="http://www.w3.org/2000/svg">
<style>
circle:hover {fill: #cf1338}
circle {fill: black}
line, polyline {stroke: black; stroke-width: 0.1042%}polyline {stroke: #cf1338}line.target {stroke: blue; stroke-dasharray: 1.0417%}
polyline {fill: none}text {font-family: sans-serif; font-size: 1px; text-anchor: middle}
text.target {fill: blue; font-size: 0.7px}
text.tick {font-size: 0.7px}
text.title {fill: #cf1338; font-size: 1.1px}
</style>
<text class="title" x="8.0000" y="-2.0000">Conway's Cantonese Dictionary: Progress</text><line x1="0.0000" y1="14.0000" x2="20.0000" y2="14.0000"/>
<text x="10.0000" y="14.0000" dy="3em">Time</text>
<line x1="1.4392" y1="14.0000" x2="1.4392" y2="14.2000"/>
<text class="tick" x="1.4392" y="14.2000" dy="1.3em">2024</text>
<line x1="4.3019" y1="14.0000" x2="4.3019" y2="14.2000"/>
<text class="tick" x="4.3019" y="14.2000" dy="1.3em">2025</text>
<line x1="7.1568" y1="14.0000" x2="7.1568" y2="14.2000"/>
<text class="tick" x="7.1568" y="14.2000" dy="1.3em">2026</text>
<line x1="10.0117" y1="14.0000" x2="10.0117" y2="14.2000"/>
<text class="tick" x="10.0117" y="14.2000" dy="1.3em">2027</text>
<line x1="12.8666" y1="14.0000" x2="12.8666" y2="14.2000"/>
<text class="tick" x="12.8666" y="14.2000" dy="1.3em">2028</text>
<line x1="15.7294" y1="14.0000" x2="15.7294" y2="14.2000"/>
<text class="tick" x="15.7294" y="14.2000" dy="1.3em">2029</text>
<line x1="18.5843" y1="14.0000" x2="18.5843" y2="14.2000"/>
<text class="tick" x="18.5843" y="14.2000" dy="1.3em">2030</text>
<line x1="0.0000" y1="14.0000" x2="0.0000" y2="0.0000"/>
<text x="0.0000" y="7.0000" dy="-4em" transform="rotate(-90 0.0000 7.0000)">Entry Count</text>
<line x1="0.0000" y1="12.0000" x2="-0.2000" y2="12.0000"/>
<text class="tick" x="-0.2000" y="12.0000" dx="-2em" dy="0.33em">2000</text>
<line x1="0.0000" y1="10.0000" x2="-0.2000" y2="10.0000"/>
<text class="tick" x="-0.2000" y="10.0000" dx="-2em" dy="0.33em">4000</text>
<line x1="0.0000" y1="8.0000" x2="-0.2000" y2="8.0000"/>
<text class="tick" x="-0.2000" y="8.0000" dx="-2em" dy="0.33em">6000</text>
<line x1="0.0000" y1="6.0000" x2="-0.2000" y2="6.0000"/>
<text class="tick" x="-0.2000" y="6.0000" dx="-2em" dy="0.33em">8000</text>
<line x1="0.0000" y1="4.0000" x2="-0.2000" y2="4.0000"/>
<text class="tick" x="-0.2000" y="4.0000" dx="-2em" dy="0.33em">10000</text>
<line x1="0.0000" y1="2.0000" x2="-0.2000" y2="2.0000"/>
<text class="tick" x="-0.2000" y="2.0000" dx="-2em" dy="0.33em">12000</text>
<line class="target" x1="0.0000" y1="1.0000" x2="20.0000" y2="1.0000"/>
<text class="target" x="10.0000" y="1.0000" dy="-0.5em">Approximate Target: 13000 entries</text>
<polyline points="8.4863,11.5190 8.2795,11.5730 8.1179,11.6260 7.9298,11.6540 7.8834,11.6640 7.8058,11.6640 7.6645,11.6760 7.5237,11.6800 7.1331,11.6870 6.9769,11.6890 6.8597,11.7190 6.8433,11.7410 6.7740,11.7700 6.7464,11.7900 6.7339,11.7900 6.6957,11.7900 6.6711,11.8000 6.6408,11.8000 6.5783,11.8430 6.4842,11.9050 6.2573,11.9600 6.1981,12.0130 6.1202,12.0840 6.0541,12.1340 5.8737,12.1780 5.7722,12.1880 5.7308,12.1940 5.1232,12.2020 5.0518,12.2080 4.9746,12.2110 4.8967,12.2170 4.8728,12.2200 4.8486,12.2240 4.7771,12.2230 4.7094,12.2230 4.6669,12.2230 4.6142,12.2260 4.5758,12.2300 4.4901,12.2360 4.4489,12.2380 4.4036,12.2390 4.3183,12.2340 4.2307,12.2330 4.1851,12.2300 4.1538,12.2330 4.1068,12.2360 4.0828,12.2370 4.0669,12.2450 4.0123,12.2780 3.8796,12.3270 3.6805,12.3710 3.6257,12.4100 3.6140,12.4100 3.5591,12.4420 3.5348,12.5030 3.4637,12.5610 3.1034,12.6160 3.0351,12.6650 2.9720,12.7090 2.9330,12.7330 2.8622,12.7870 2.6122,12.8440 2.5496,12.9030 2.4876,12.9610 2.4221,13.0120 2.3934,13.0300 2.3154,13.0990 2.2579,13.1610 2.2034,13.2230 2.1035,13.2810 1.9082,13.3440 1.8061,13.3850 1.7283,13.4450 1.6735,13.5040 1.6184,13.5410 1.5794,13.5860 1.5330,13.6360 1.4775,13.6500 1.4669,13.6680 1.4315,13.7120 1.4084,13.7140 1.3760,13.7650 1.0952,13.8190 0.6251,13.8710 0.3748,13.8970 0.3364,13.9320 0.2973,13.9560 0.2820,13.9620 0.2815,13.9620 0.2812,13.9620 0.2801,13.9620 0.2797,13.9620 0.2792,13.9620 0.2738,13.9620 0.2733,13.9620 0.2581,13.9620 0.2574,13.9620 0.2344,13.9620 0.2183,13.9740 0.1716,13.9740 0.1619,13.9870 0.1557,14.0000"/>
<circle cx="8.4863" cy="11.5190" r="0.1000"><title>2481 entries @ 2026-06-19 23:24:31 +0800
(commit c9be30c0c35ff395ed0fba646dc0f6cbdf0c31e0)</title></circle>
<circle cx="8.2795" cy="11.5730" r="0.1000"><title>2427 entries @ 2026-05-24 12:56:14 +0800
(commit 140d35a5a504586af3a2b6402d711b07b92c38cf)</title></circle>
<circle cx="8.1179" cy="11.6260" r="0.1000"><title>2374 entries @ 2026-05-03 20:57:18 +0800
(commit 84a9453c22e95e258a4cd894bc3fa36524733b5c)</title></circle>
<circle cx="7.9298" cy="11.6540" r="0.1000"><title>2346 entries @ 2026-04-09 19:45:39 +0800
(commit 3ee49e7c1532e9bc647d78a121fb37bc6716c57f)</title></circle>
<circle cx="7.8834" cy="11.6640" r="0.1000"><title>2336 entries @ 2026-04-03 21:33:14 +0800
(commit f21d2e303669fce64b2ffafaadf67cdf0605e26e)</title></circle>
<circle cx="7.8058" cy="11.6640" r="0.1000"><title>2336 entries @ 2026-03-24 23:20:05 +0800
(commit 596d05196992f6bf88cecbc65810b3b5f6dc0814)</title></circle>
<circle cx="7.6645" cy="11.6760" r="0.1000"><title>2324 entries @ 2026-03-06 21:38:46 +0800
(commit 819cf60ddd0c07fc59335fa4e93ca85c11890dd1)</title></circle>
<circle cx="7.5237" cy="11.6800" r="0.1000"><title>2320 entries @ 2026-02-16 21:41:42 +0800
(commit 60572bcc8cfed500196978d7746607ac4d7bbabb)</title></circle>
<circle cx="7.1331" cy="11.6870" r="0.1000"><title>2313 entries @ 2025-12-28 23:12:38 +0800
(commit 6578cb2f028ee2095fd4a00cc8a2015c7f36fe06)</title></circle>
<circle cx="6.9769" cy="11.6890" r="0.1000"><title>2311 entries @ 2025-12-08 23:51:27 +0800
(commit f8bf24b1e02c9ea15186fb55be67d1fba9225065)</title></circle>
<circle cx="6.8597" cy="11.7190" r="0.1000"><title>2281 entries @ 2025-11-24 00:22:04 +0800
(commit 12a33064a18bf8c0ed56167afea216657f2c198f)</title></circle>
<circle cx="6.8433" cy="11.7410" r="0.1000"><title>2259 entries @ 2025-11-21 22:02:57 +0800
(commit b7a2c563d7320eed7c9800e57dcfd524067812ef)</title></circle>
<circle cx="6.7740" cy="11.7700" r="0.1000"><title>2230 entries @ 2025-11-13 01:25:43 +0800
(commit cce24a159281099e8cd61ef2df7d9c84db23ec63)</title></circle>
<circle cx="6.7464" cy="11.7900" r="0.1000"><title>2210 entries @ 2025-11-09 12:40:42 +0800
(commit be031e355880810a7075d9799e965880851036e3)</title></circle>
<circle cx="6.7339" cy="11.7900" r="0.1000"><title>2210 entries @ 2025-11-07 22:18:36 +0800
(commit eba425aa5dac60b87cdd52c07e7ebfffcb3124f6)</title></circle>
<circle cx="6.6957" cy="11.7900" r="0.1000"><title>2210 entries @ 2025-11-03 01:13:29 +0800
(commit 480b62056c4fae2acf6262ea7edf53148fe2e2d3)</title></circle>
<circle cx="6.6711" cy="11.8000" r="0.1000"><title>2200 entries @ 2025-10-30 21:42:15 +0800
(commit a9dc75762a5ecb850689912699428a01f1e6ee37)</title></circle>
<circle cx="6.6408" cy="11.8000" r="0.1000"><title>2200 entries @ 2025-10-27 00:42:32 +0800
(commit cbf79033a7d1659816980e31c6f43936d9bd1c96)</title></circle>
<circle cx="6.5783" cy="11.8430" r="0.1000"><title>2157 entries @ 2025-10-19 00:58:48 +0800
(commit 39437d52270518038fcf2e5e4c543564a585994f)</title></circle>
<circle cx="6.4842" cy="11.9050" r="0.1000"><title>2095 entries @ 2025-10-07 00:05:21 +0800
(commit e2c50370cb14a2193cce09fd0077a65adbdbb23c)</title></circle>
<circle cx="6.2573" cy="11.9600" r="0.1000"><title>2040 entries @ 2025-09-07 23:53:15 +0800
(commit dba87c51d89fd54d154ca674827a89e690ad71be)</title></circle>
<circle cx="6.1981" cy="12.0130" r="0.1000"><title>1987 entries @ 2025-08-31 10:21:02 +0800
(commit 026b0445f6a684742d837e146671b620c0cbb918)</title></circle>
<circle cx="6.1202" cy="12.0840" r="0.1000"><title>1916 entries @ 2025-08-21 11:04:47 +0800
(commit 54726557b8f1727778d8a0c8c704a81aa2bee016)</title></circle>
<circle cx="6.0541" cy="12.1340" r="0.1000"><title>1866 entries @ 2025-08-13 00:26:50 +0800
(commit 811bedfddf9ea587d60348b64ea1e756232805af)</title></circle>
<circle cx="5.8737" cy="12.1780" r="0.1000"><title>1822 entries @ 2025-07-20 23:00:42 +0800
(commit 7796174eee46674007916bfbe81c3635bb05faef)</title></circle>
<circle cx="5.7722" cy="12.1880" r="0.1000"><title>1812 entries @ 2025-07-07 23:26:31 +0800
(commit 82bc469f3d814ef225ced8c9e62f829ca6cfd693)</title></circle>
<circle cx="5.7308" cy="12.1940" r="0.1000"><title>1806 entries @ 2025-07-02 16:17:55 +0800
(commit 94508cb8f3c564e73a5fd7b0a5c9cc49afa7e66a)</title></circle>
<circle cx="5.1232" cy="12.2020" r="0.1000"><title>1798 entries @ 2025-04-16 00:01:20 +0800
(commit e9e65b318b60a6ec9c11c7fb3b0abe7412e9d541)</title></circle>
<circle cx="5.0518" cy="12.2080" r="0.1000"><title>1792 entries @ 2025-04-06 20:50:22 +0800
(commit 30622ee7ba894f8545fd032832635d3ff0867248)</title></circle>
<circle cx="4.9746" cy="12.2110" r="0.1000"><title>1789 entries @ 2025-03-27 23:55:29 +0800
(commit 019e3f5356f5921023dbc9fc7e749ff85ea1853c)</title></circle>
<circle cx="4.8967" cy="12.2170" r="0.1000"><title>1783 entries @ 2025-03-18 00:54:39 +0800
(commit 8ef6ed0f2f80142ce0123333ed11c37737dc146f)</title></circle>
<circle cx="4.8728" cy="12.2200" r="0.1000"><title>1780 entries @ 2025-03-14 23:47:40 +0800
(commit ca7e0d2efbfa711bc72e95338fadf52f44cfb1c3)</title></circle>
<circle cx="4.8486" cy="12.2240" r="0.1000"><title>1776 entries @ 2025-03-11 21:27:50 +0800
(commit dc6228cf251af5ee191ee5d2c59ceb104bda09a0)</title></circle>
<circle cx="4.7771" cy="12.2230" r="0.1000"><title>1777 entries @ 2025-03-02 17:58:47 +0800
(commit 2c997eaf836f7c6d5be87c252d627c001e3fd2bd)</title></circle>
<circle cx="4.7094" cy="12.2230" r="0.1000"><title>1777 entries @ 2025-02-22 02:10:49 +0800
(commit 6ed97d3f5d1585bda6bcb1d9e07a5de45dcff2d0)</title></circle>
<circle cx="4.6669" cy="12.2230" r="0.1000"><title>1777 entries @ 2025-02-16 16:02:05 +0800
(commit bfd527781c77eecf832255aaadc6185a11dfb020)</title></circle>
<circle cx="4.6142" cy="12.2260" r="0.1000"><title>1774 entries @ 2025-02-09 22:19:22 +0800
(commit 249e5f51e49f5aafb16abe44043b4e4e785a56a0)</title></circle>
<circle cx="4.5758" cy="12.2300" r="0.1000"><title>1770 entries @ 2025-02-05 00:19:16 +0800
(commit d4283ca0468865087d87df801521da3b18ac9af2)</title></circle>
<circle cx="4.4901" cy="12.2360" r="0.1000"><title>1764 entries @ 2025-01-25 01:27:22 +0800
(commit b77bb971f8451411d22bfa7163eb15a336f429db)</title></circle>
<circle cx="4.4489" cy="12.2380" r="0.1000"><title>1762 entries @ 2025-01-19 19:06:36 +0800
(commit b9ad55cbb11a98fcb468ca2e32ca748e752e1c0c)</title></circle>
<circle cx="4.4036" cy="12.2390" r="0.1000"><title>1761 entries @ 2025-01-14 00:08:21 +0800
(commit 6587222219fb4dfab8673a406ddf19866d605c49)</title></circle>
<circle cx="4.3183" cy="12.2340" r="0.1000"><title>1766 entries @ 2025-01-03 02:11:44 +0800
(commit 0a7d538fe70b174e428bfd78bc132f5192edaf7a)</title></circle>
<circle cx="4.2307" cy="12.2330" r="0.1000"><title>1767 entries @ 2024-12-22 21:23:00 +0800
(commit 0219b9ffaa82f1667adea15f2e0c1afa7980e09d)</title></circle>
<circle cx="4.1851" cy="12.2300" r="0.1000"><title>1770 entries @ 2024-12-17 01:40:36 +0800
(commit 8b69143214c602b340c7985a3310384c80541666)</title></circle>
<circle cx="4.1538" cy="12.2330" r="0.1000"><title>1767 entries @ 2024-12-13 01:23:16 +0800
(commit 5b3f32f48f371f7a373bf30c03077b09a77d330e)</title></circle>
<circle cx="4.1068" cy="12.2360" r="0.1000"><title>1764 entries @ 2024-12-07 01:22:41 +0800
(commit 04250619b4424c0e65f1283ac561864dda469c17)</title></circle>
<circle cx="4.0828" cy="12.2370" r="0.1000"><title>1763 entries @ 2024-12-03 23:30:51 +0800
(commit 0af37d81b5c0b1b336236187530f6b5ded571168)</title></circle>
<circle cx="4.0669" cy="12.2450" r="0.1000"><title>1755 entries @ 2024-12-01 22:48:44 +0800
(commit 4323ee3dfdeb7feda443ede77d33240a5645cce7)</title></circle>
<circle cx="4.0123" cy="12.2780" r="0.1000"><title>1722 entries @ 2024-11-24 23:16:08 +0800
(commit 30203f65ee28484c81be15b7d4cd29382f1d4c4d)</title></circle>
<circle cx="3.8796" cy="12.3270" r="0.1000"><title>1673 entries @ 2024-11-08 00:11:47 +0800
(commit 4be59db48a38bed2215e45ec68260001b48c035d)</title></circle>
<circle cx="3.6805" cy="12.3710" r="0.1000"><title>1629 entries @ 2024-10-13 13:07:51 +0800
(commit d60817533c86b734401b0388f6b5db5782d41cf4)</title></circle>
<circle cx="3.6257" cy="12.4100" r="0.1000"><title>1590 entries @ 2024-10-06 12:58:58 +0800
(commit 75e5bea6680bde1e28928c5c7f023bd60cbe7fd4)</title></circle>
<circle cx="3.6140" cy="12.4100" r="0.1000"><title>1590 entries @ 2024-10-05 01:05:17 +0800
(commit dd06d2802b1bbb64ef2582b133e87b36b38f2bc8)</title></circle>
<circle cx="3.5591" cy="12.4420" r="0.1000"><title>1558 entries @ 2024-09-28 00:38:08 +0800
(commit f60984c60f2f8a6991d9181ca5c93cd5176f56f2)</title></circle>
<circle cx="3.5348" cy="12.5030" r="0.1000"><title>1497 entries @ 2024-09-24 22:18:52 +0800
(commit 87ed26c20e3648d437de2d7b44ee68bdba074b37)</title></circle>
<circle cx="3.4637" cy="12.5610" r="0.1000"><title>1439 entries @ 2024-09-15 20:05:48 +0800
(commit 4e5213c7cbe559d6b6944110593d65ccbc9b83b3)</title></circle>
<circle cx="3.1034" cy="12.6160" r="0.1000"><title>1384 entries @ 2024-07-31 18:35:07 +0800
(commit 20a6fa155e901f2cd360e69da9708447e9de95d7)</title></circle>
<circle cx="3.0351" cy="12.6650" r="0.1000"><title>1335 entries @ 2024-07-23 01:02:58 +0800
(commit b32a46cdc8f380a455e1990435c8df4d4b2bf5b9)</title></circle>
<circle cx="2.9720" cy="12.7090" r="0.1000"><title>1291 entries @ 2024-07-14 23:14:38 +0800
(commit 9d4921c0bbca8668f1eb0c2558f2b16e5834a364)</title></circle>
<circle cx="2.9330" cy="12.7330" r="0.1000"><title>1267 entries @ 2024-07-09 23:45:40 +0800
(commit 5b58fa0bb0ef6a6a789e095bfeff6114cede14f2)</title></circle>
<circle cx="2.8622" cy="12.7870" r="0.1000"><title>1213 entries @ 2024-06-30 22:18:44 +0800
(commit 64cb000f59acd4577b739676268b39ecc362cb9e)</title></circle>
<circle cx="2.6122" cy="12.8440" r="0.1000"><title>1156 entries @ 2024-05-29 23:14:17 +0800
(commit 354cf563dc633e6ab1d3690338d6b898b1ea6b3f)</title></circle>
<circle cx="2.5496" cy="12.9030" r="0.1000"><title>1097 entries @ 2024-05-21 23:07:30 +0800
(commit 76a4e24f7dcd759e68d799e036a360fc874ad7d3)</title></circle>
<circle cx="2.4876" cy="12.9610" r="0.1000"><title>1039 entries @ 2024-05-14 00:50:12 +0800
(commit 045c0efd6b478290391b03d5a55129ce3701c506)</title></circle>
<circle cx="2.4221" cy="13.0120" r="0.1000"><title>988 entries @ 2024-05-05 16:04:32 +0800
(commit 91cf97af8938f80d37f6ecaabf25c1c897242601)</title></circle>
<circle cx="2.3934" cy="13.0300" r="0.1000"><title>970 entries @ 2024-05-01 23:49:17 +0800
(commit 7f2a70566789c985c1c2c4cedc7af76a2fdfb596)</title></circle>
<circle cx="2.3154" cy="13.0990" r="0.1000"><title>901 entries @ 2024-04-22 00:33:18 +0800
(commit 36f07b2dadaf9ce0b23e8d0dfb038b5aa65a463d)</title></circle>
<circle cx="2.2579" cy="13.1610" r="0.1000"><title>839 entries @ 2024-04-14 15:59:25 +0800
(commit cc615b1c406d3836f32c2be30f375fccdbe65081)</title></circle>
<circle cx="2.2034" cy="13.2230" r="0.1000"><title>777 entries @ 2024-04-07 16:52:21 +0800
(commit 7e15bfaef63e44c582514eb3b77d7f632eefb5ea)</title></circle>
<circle cx="2.1035" cy="13.2810" r="0.1000"><title>719 entries @ 2024-03-25 22:28:55 +0800
(commit fb3e8652fcdf590a19cbf3a20a5af683fdebe3bc)</title></circle>
<circle cx="1.9082" cy="13.3440" r="0.1000"><title>656 entries @ 2024-02-29 23:14:16 +0800
(commit 4a25f28d83ea04334a5b4e77e4de3f2bbf5152f5)</title></circle>
<circle cx="1.8061" cy="13.3850" r="0.1000"><title>615 entries @ 2024-02-16 21:58:37 +0800
(commit 3bc5fc60e390af10cdd93871f119bcf3c1875742)</title></circle>
<circle cx="1.7283" cy="13.4450" r="0.1000"><title>555 entries @ 2024-02-06 23:13:33 +0800
(commit 3dd773cf0630f26d434b753c8b041d789e4b76c2)</title></circle>
<circle cx="1.6735" cy="13.5040" r="0.1000"><title>496 entries @ 2024-01-30 23:06:50 +0800
(commit e2f65c31e079c0023962b0aed7f2f3f20fbc9cd6)</title></circle>
<circle cx="1.6184" cy="13.5410" r="0.1000"><title>459 entries @ 2024-01-23 22:01:18 +0800
(commit b6a75f804b4debe365fba00d74da231f6792d5e0)</title></circle>
<circle cx="1.5794" cy="13.5860" r="0.1000"><title>414 entries @ 2024-01-18 22:20:13 +0800
(commit 6afe89ebed36c80fcb306b7104e910f94e16c149)</title></circle>
<circle cx="1.5330" cy="13.6360" r="0.1000"><title>364 entries @ 2024-01-12 23:44:39 +0800
(commit 9c56b47c139768740fd468555fd38b3d04fd408a)</title></circle>
<circle cx="1.4775" cy="13.6500" r="0.1000"><title>350 entries @ 2024-01-05 21:35:59 +0800
(commit ac7e1864c4673bd55a70ff4a05de1577e480a687)</title></circle>
<circle cx="1.4669" cy="13.6680" r="0.1000"><title>332 entries @ 2024-01-04 13:01:18 +0800
(commit 7e16f9d60ef2a1865bd5671a160fe6efa12c7882)</title></circle>
<circle cx="1.4315" cy="13.7120" r="0.1000"><title>288 entries @ 2023-12-31 00:29:41 +0800
(commit fa4c7b80a41b7f4a9d8e65a78fd9f7e76743c1b6)</title></circle>
<circle cx="1.4084" cy="13.7140" r="0.1000"><title>286 entries @ 2023-12-28 01:30:05 +0800
(commit b24b925f1cda9d78557b34d2dd29b13a78a1ae97)</title></circle>
<circle cx="1.3760" cy="13.7650" r="0.1000"><title>235 entries @ 2023-12-23 22:12:41 +0800
(commit fdbc81bdbf66061936d3ba493eb9793075b65373)</title></circle>
<circle cx="1.0952" cy="13.8190" r="0.1000"><title>181 entries @ 2023-11-18 00:34:24 +0800
(commit c1a3fb180a60b0a076ce0513805e30bdfd0a0309)</title></circle>
<circle cx="0.6251" cy="13.8710" r="0.1000"><title>129 entries @ 2023-09-18 22:04:35 +0800
(commit 2971e49aa84da490578b12de0ca6e3a9b34976df)</title></circle>
<circle cx="0.3748" cy="13.8970" r="0.1000"><title>103 entries @ 2023-08-17 22:04:54 +0800
(commit 9a1bc339264e2ce0b4e4c8c8ed9fc3427c4803b7)</title></circle>
<circle cx="0.3364" cy="13.9320" r="0.1000"><title>68 entries @ 2023-08-13 00:05:18 +0800
(commit 233ce49128ad81f18f5e126d19d8e7e1e2fbc536)</title></circle>
<circle cx="0.2973" cy="13.9560" r="0.1000"><title>44 entries @ 2023-08-08 00:19:37 +0800
(commit 41fca9d705174cc4eab65865f94a781abdb92fb4)</title></circle>
<circle cx="0.2820" cy="13.9620" r="0.1000"><title>38 entries @ 2023-08-06 01:24:14 +0800
(commit e678903e250923d7fa6fa3cabf949e2e1a506c7a)</title></circle>
<circle cx="0.2815" cy="13.9620" r="0.1000"><title>38 entries @ 2023-08-05 23:54:20 +0800
(commit d814584a335d68a4ed7fbf186cf9a4642e4eca11)</title></circle>
<circle cx="0.2812" cy="13.9620" r="0.1000"><title>38 entries @ 2023-08-05 22:41:45 +0800
(commit 28beb4a0bb84a31b402dee3cbf81145831c8148d)</title></circle>
<circle cx="0.2801" cy="13.9620" r="0.1000"><title>38 entries @ 2023-08-05 19:21:50 +0800
(commit 8c363a02543cbbbeb13af3c83306c7ca26a17d67)</title></circle>
<circle cx="0.2797" cy="13.9620" r="0.1000"><title>38 entries @ 2023-08-05 18:12:20 +0800
(commit f569a6e7ccf41ed1dfe5aee775538dd429cd4877)</title></circle>
<circle cx="0.2792" cy="13.9620" r="0.1000"><title>38 entries @ 2023-08-05 16:47:08 +0800
(commit efb3597af134649438f292bb85aa53503263ef6c)</title></circle>
<circle cx="0.2738" cy="13.9620" r="0.1000"><title>38 entries @ 2023-08-05 00:05:44 +0800
(commit 4874c9a51e37d9e7bdd0519f712bbc454cc54daf)</title></circle>
<circle cx="0.2733" cy="13.9620" r="0.1000"><title>38 entries @ 2023-08-04 22:27:17 +0800
(commit e42a3cec8c34fb0ec26e5c922c0b7d35a04bbad0)</title></circle>
<circle cx="0.2581" cy="13.9620" r="0.1000"><title>38 entries @ 2023-08-03 00:02:21 +0800
(commit 3479d7dbaf062fd363341679c63b5582f9b89a71)</title></circle>
<circle cx="0.2574" cy="13.9620" r="0.1000"><title>38 entries @ 2023-08-02 21:44:43 +0800
(commit 7b33d070c212332ffc4e2d4faad6d48667a9f881)</title></circle>
<circle cx="0.2344" cy="13.9620" r="0.1000"><title>38 entries @ 2023-07-30 23:05:07 +0800
(commit 7f3d095b4d2d62e766d7dcf1b07cc984f02fea93)</title></circle>
<circle cx="0.2183" cy="13.9740" r="0.1000"><title>26 entries @ 2023-07-28 21:58:10 +0800
(commit 116fe76d14bef967268f9ca8f8fe4db872f79931)</title></circle>
<circle cx="0.1716" cy="13.9740" r="0.1000"><title>26 entries @ 2023-07-22 22:25:20 +0800
(commit f9249b7988ac97730c2c5ddbd89af49b89fb3a6f)</title></circle>
<circle cx="0.1619" cy="13.9870" r="0.1000"><title>13 entries @ 2023-07-21 16:41:57 +0800
(commit 422e407a2d6a53a275e763832024e749b600d918)</title></circle>
<circle cx="0.1557" cy="14.0000" r="0.1000"><title>0 entries @ 2023-07-20 21:39:40 +0800
(commit 263685863f91821c9cefca68e1899910e88be118)</title></circle>
</svg>
