<?xml version="1.0" encoding="UTF-8"?>
<svg viewBox="-6 -4 28 22" width="960px" xmlns="http://www.w3.org/2000/svg">
<style>
circle:hover {fill: #cf1338}
circle {fill: black}
line, polyline {stroke: black; stroke-width: 0.1042%}polyline {stroke: #cf1338}line.target {stroke: blue; stroke-dasharray: 1.0417%}
polyline {fill: none}text {font-family: sans-serif; font-size: 1px; text-anchor: middle}
text.target {fill: blue; font-size: 0.7px}
text.tick {font-size: 0.7px}
text.title {fill: #cf1338; font-size: 1.1px}
</style>
<text class="title" x="8.0000" y="-2.0000">Conway's Cantonese Dictionary: Progress</text><line x1="0.0000" y1="14.0000" x2="20.0000" y2="14.0000"/>
<text x="10.0000" y="14.0000" dy="3em">Time</text>
<line x1="1.4392" y1="14.0000" x2="1.4392" y2="14.2000"/>
<text class="tick" x="1.4392" y="14.2000" dy="1.3em">2024</text>
<line x1="4.3019" y1="14.0000" x2="4.3019" y2="14.2000"/>
<text class="tick" x="4.3019" y="14.2000" dy="1.3em">2025</text>
<line x1="7.1568" y1="14.0000" x2="7.1568" y2="14.2000"/>
<text class="tick" x="7.1568" y="14.2000" dy="1.3em">2026</text>
<line x1="10.0117" y1="14.0000" x2="10.0117" y2="14.2000"/>
<text class="tick" x="10.0117" y="14.2000" dy="1.3em">2027</text>
<line x1="12.8666" y1="14.0000" x2="12.8666" y2="14.2000"/>
<text class="tick" x="12.8666" y="14.2000" dy="1.3em">2028</text>
<line x1="15.7294" y1="14.0000" x2="15.7294" y2="14.2000"/>
<text class="tick" x="15.7294" y="14.2000" dy="1.3em">2029</text>
<line x1="18.5843" y1="14.0000" x2="18.5843" y2="14.2000"/>
<text class="tick" x="18.5843" y="14.2000" dy="1.3em">2030</text>
<line x1="0.0000" y1="14.0000" x2="0.0000" y2="0.0000"/>
<text x="0.0000" y="7.0000" dy="-4em" transform="rotate(-90 0.0000 7.0000)">Entry Count</text>
<line x1="0.0000" y1="12.0000" x2="-0.2000" y2="12.0000"/>
<text class="tick" x="-0.2000" y="12.0000" dx="-2em" dy="0.33em">2000</text>
<line x1="0.0000" y1="10.0000" x2="-0.2000" y2="10.0000"/>
<text class="tick" x="-0.2000" y="10.0000" dx="-2em" dy="0.33em">4000</text>
<line x1="0.0000" y1="8.0000" x2="-0.2000" y2="8.0000"/>
<text class="tick" x="-0.2000" y="8.0000" dx="-2em" dy="0.33em">6000</text>
<line x1="0.0000" y1="6.0000" x2="-0.2000" y2="6.0000"/>
<text class="tick" x="-0.2000" y="6.0000" dx="-2em" dy="0.33em">8000</text>
<line x1="0.0000" y1="4.0000" x2="-0.2000" y2="4.0000"/>
<text class="tick" x="-0.2000" y="4.0000" dx="-2em" dy="0.33em">10000</text>
<line x1="0.0000" y1="2.0000" x2="-0.2000" y2="2.0000"/>
<text class="tick" x="-0.2000" y="2.0000" dx="-2em" dy="0.33em">12000</text>
<line class="target" x1="0.0000" y1="1.0000" x2="20.0000" y2="1.0000"/>
<text class="target" x="10.0000" y="1.0000" dy="-0.5em">Approximate Target: 13000 entries</text>
<polyline points="7.6234,11.6790 7.2743,11.6820 7.0391,11.6870 6.9689,11.6960 6.8596,11.7200 6.8433,11.7410 6.7895,11.7670 6.7476,11.7900 6.7349,11.7900 6.7103,11.7900 6.6794,11.8000 6.6557,11.8000 6.6246,11.8130 6.5622,11.8690 6.3817,11.9310 6.2495,11.9730 6.1844,12.0300 6.1011,12.0950 5.9841,12.1420 5.8736,12.1780 5.7727,12.1870 5.7322,12.1940 5.3388,12.2020 5.0680,12.2060 4.9980,12.2100 4.9197,12.2170 4.8869,12.2200 4.8575,12.2200 4.8414,12.2240 4.7472,12.2230 4.6896,12.2240 4.6538,12.2230 4.5995,12.2270 4.5740,12.2310 4.4900,12.2360 4.4498,12.2370 4.4069,12.2400 4.3235,12.2330 4.2319,12.2330 4.2076,12.2290 4.1765,12.2330 4.1378,12.2340 4.0876,12.2370 4.0744,12.2420 4.0516,12.2610 3.9185,12.2850 3.8719,12.3380 3.6606,12.3780 3.6174,12.4100 3.6139,12.4100 3.5592,12.4400 3.5354,12.4950 3.4799,12.5480 3.3006,12.6050 3.0660,12.6510 2.9878,12.7010 2.9698,12.7170 2.9015,12.7580 2.8158,12.8110 2.5870,12.8610 2.5327,12.9210 2.4642,12.9760 2.4220,13.0120 2.3927,13.0360 2.3154,13.1000 2.2596,13.1580 2.2047,13.2180 2.1272,13.2680 1.9711,13.3310 1.8222,13.3680 1.7525,13.4210 1.7052,13.4770 1.6341,13.5260 1.6036,13.5570 1.5718,13.6030 1.5090,13.6490 1.4765,13.6500 1.4630,13.6720 1.4296,13.7120 1.4084,13.7140 1.3765,13.7590 1.1730,13.8110 0.7078,13.8650 0.4065,13.8940 0.3417,13.9270 0.3202,13.9550 0.2867,13.9620 0.2818,13.9620 0.2814,13.9620 0.2809,13.9620 0.2800,13.9620 0.2796,13.9620 0.2791,13.9620 0.2738,13.9620 0.2733,13.9620 0.2582,13.9620 0.2575,13.9620 0.2346,13.9620 0.2234,13.9740 0.1794,13.9740 0.1643,13.9840 0.1569,13.9900 0.1557,14.0000"/>
<circle cx="7.6234" cy="11.6790" r="0.1000"><title>2321 entries @ 2026-03-01 15:31:22 +0800
(commit 9aa6abf4ac38bad8380f7958dad36ea1d16c53e7)</title></circle>
<circle cx="7.2743" cy="11.6820" r="0.1000"><title>2318 entries @ 2026-01-16 00:31:41 +0800
(commit 8dd88929e244ae0145acad9af1654ed05e043349)</title></circle>
<circle cx="7.0391" cy="11.6870" r="0.1000"><title>2313 entries @ 2025-12-16 22:53:47 +0800
(commit 8dd0a4472783e1e662ffd417422102c668c8f008)</title></circle>
<circle cx="6.9689" cy="11.6960" r="0.1000"><title>2304 entries @ 2025-12-07 23:18:35 +0800
(commit 2a790b1d84c9ba3eea97ba6d7154e3988106f126)</title></circle>
<circle cx="6.8596" cy="11.7200" r="0.1000"><title>2280 entries @ 2025-11-23 23:59:31 +0800
(commit 322b689a02c0ba7f2fbf65b3cae0e9066502243e)</title></circle>
<circle cx="6.8433" cy="11.7410" r="0.1000"><title>2259 entries @ 2025-11-21 22:02:57 +0800
(commit b7a2c563d7320eed7c9800e57dcfd524067812ef)</title></circle>
<circle cx="6.7895" cy="11.7670" r="0.1000"><title>2233 entries @ 2025-11-15 00:47:00 +0800
(commit acfa6fb0e15e84d50310291cd54a045dcef32b6c)</title></circle>
<circle cx="6.7476" cy="11.7900" r="0.1000"><title>2210 entries @ 2025-11-09 16:12:46 +0800
(commit d99da87ab194be07d3c1916b313728461812384a)</title></circle>
<circle cx="6.7349" cy="11.7900" r="0.1000"><title>2210 entries @ 2025-11-08 01:24:52 +0800
(commit 6862f5f6c498ab34b59e9f9ca6a593c518d8663f)</title></circle>
<circle cx="6.7103" cy="11.7900" r="0.1000"><title>2210 entries @ 2025-11-04 21:57:20 +0800
(commit f1843834c73e89a09c56983bbc875523a3edb8ad)</title></circle>
<circle cx="6.6794" cy="11.8000" r="0.1000"><title>2200 entries @ 2025-10-31 23:12:49 +0800
(commit 05558e52eaa9407c28a6411a22d7cda80436842e)</title></circle>
<circle cx="6.6557" cy="11.8000" r="0.1000"><title>2200 entries @ 2025-10-28 22:22:20 +0800
(commit 2b336fd39224b058c52d191f374b0da878a17d9e)</title></circle>
<circle cx="6.6246" cy="11.8130" r="0.1000"><title>2187 entries @ 2025-10-24 23:01:58 +0800
(commit fd7441c6200dbdeddc3bf1ed32ecb0fd4118c549)</title></circle>
<circle cx="6.5622" cy="11.8690" r="0.1000"><title>2131 entries @ 2025-10-16 23:33:34 +0800
(commit 981ce4bce4a4a43ba8d7bc5ba2902849386e314a)</title></circle>
<circle cx="6.3817" cy="11.9310" r="0.1000"><title>2069 entries @ 2025-09-23 21:31:32 +0800
(commit 80c22e51ac7f855daa6c519daada27d80b35c9c5)</title></circle>
<circle cx="6.2495" cy="11.9730" r="0.1000"><title>2027 entries @ 2025-09-07 00:01:27 +0800
(commit a7a043f146a5ef9576b4fef8d7b1dc54ce6ad632)</title></circle>
<circle cx="6.1844" cy="12.0300" r="0.1000"><title>1970 entries @ 2025-08-29 16:17:33 +0800
(commit 5d8abd0e37a4d1000072e9df18580b2ff5ae257c)</title></circle>
<circle cx="6.1011" cy="12.0950" r="0.1000"><title>1905 entries @ 2025-08-19 00:40:07 +0800
(commit 723402c5431848ba742ed9ab6675979612080d88)</title></circle>
<circle cx="5.9841" cy="12.1420" r="0.1000"><title>1858 entries @ 2025-08-04 01:29:23 +0800
(commit b2c8502254f8490246ba0e870a5f45124cdd4c91)</title></circle>
<circle cx="5.8736" cy="12.1780" r="0.1000"><title>1822 entries @ 2025-07-20 22:36:37 +0800
(commit 8e600694657472090c21fb6a082cf612c8e4c467)</title></circle>
<circle cx="5.7727" cy="12.1870" r="0.1000"><title>1813 entries @ 2025-07-08 00:56:28 +0800
(commit 9c16e3411e2f25971ad7d5c7ffa32b9f11f0c96b)</title></circle>
<circle cx="5.7322" cy="12.1940" r="0.1000"><title>1806 entries @ 2025-07-02 20:47:37 +0800
(commit 7189984af670adfd2dde2005a60699d67cfb708e)</title></circle>
<circle cx="5.3388" cy="12.2020" r="0.1000"><title>1798 entries @ 2025-05-13 13:37:59 +0800
(commit 61ac88ba2791a6651c18bf37206b07a307c91b8c)</title></circle>
<circle cx="5.0680" cy="12.2060" r="0.1000"><title>1794 entries @ 2025-04-08 22:43:41 +0800
(commit 319fd3e87006cb68d61020d8be16e2a4f18b5e74)</title></circle>
<circle cx="4.9980" cy="12.2100" r="0.1000"><title>1790 entries @ 2025-03-30 23:52:58 +0800
(commit 5430f58602623402cb382dd3dc3e10d1caf30a58)</title></circle>
<circle cx="4.9197" cy="12.2170" r="0.1000"><title>1783 entries @ 2025-03-20 23:42:00 +0800
(commit cadcdc8d5a2356a2f60d95c2ad564e2a25262a0e)</title></circle>
<circle cx="4.8869" cy="12.2200" r="0.1000"><title>1780 entries @ 2025-03-16 18:53:14 +0800
(commit 7c7f6623538e651029241dc3c41cf4df78f9fc51)</title></circle>
<circle cx="4.8575" cy="12.2200" r="0.1000"><title>1780 entries @ 2025-03-13 00:46:42 +0800
(commit c712295503d3f20e074e1624c30629488586f6d9)</title></circle>
<circle cx="4.8414" cy="12.2240" r="0.1000"><title>1776 entries @ 2025-03-10 23:26:15 +0800
(commit cf26584b5ccf127476732a0894830d398e67829a)</title></circle>
<circle cx="4.7472" cy="12.2230" r="0.1000"><title>1777 entries @ 2025-02-26 22:09:44 +0800
(commit 928690cc7d0db770b92d6ed4e50a13542384b932)</title></circle>
<circle cx="4.6896" cy="12.2240" r="0.1000"><title>1776 entries @ 2025-02-19 13:41:23 +0800
(commit 99e59c0556bf6e08ede5a71d080cf391d23bb228)</title></circle>
<circle cx="4.6538" cy="12.2230" r="0.1000"><title>1777 entries @ 2025-02-14 23:49:31 +0800
(commit 536a09863dea705ce1f3bbb030c0827ebc73ee78)</title></circle>
<circle cx="4.5995" cy="12.2270" r="0.1000"><title>1773 entries @ 2025-02-08 01:01:14 +0800
(commit 6f5c60fc662849529d6a0790cd40219104b0d145)</title></circle>
<circle cx="4.5740" cy="12.2310" r="0.1000"><title>1769 entries @ 2025-02-04 18:59:42 +0800
(commit bbc727d663459d124d835b15b66c57e1c59e188f)</title></circle>
<circle cx="4.4900" cy="12.2360" r="0.1000"><title>1764 entries @ 2025-01-25 01:12:57 +0800
(commit 7793e78aab71c17482338315c313e32b7185f480)</title></circle>
<circle cx="4.4498" cy="12.2370" r="0.1000"><title>1763 entries @ 2025-01-19 21:44:53 +0800
(commit 1a33136eb4da8aec9203660b5f7a545df32efb94)</title></circle>
<circle cx="4.4069" cy="12.2400" r="0.1000"><title>1760 entries @ 2025-01-14 10:14:58 +0800
(commit c459fd8769ad82252694653aa1408757cb0fe655)</title></circle>
<circle cx="4.3235" cy="12.2330" r="0.1000"><title>1767 entries @ 2025-01-03 18:06:19 +0800
(commit c8683fefd7a1bccad550461a22c7e61ecef66ed4)</title></circle>
<circle cx="4.2319" cy="12.2330" r="0.1000"><title>1767 entries @ 2024-12-23 01:03:09 +0800
(commit 656c19198d16c09a4a49a9b0b2e4823c61b11d5e)</title></circle>
<circle cx="4.2076" cy="12.2290" r="0.1000"><title>1771 entries @ 2024-12-19 22:27:11 +0800
(commit a7c195ab555919b6e997bc0ad2726b381e5afcd8)</title></circle>
<circle cx="4.1765" cy="12.2330" r="0.1000"><title>1767 entries @ 2024-12-15 23:02:08 +0800
(commit f6eee6e85f20df180f3d71a0a4100b8f17b487bf)</title></circle>
<circle cx="4.1378" cy="12.2340" r="0.1000"><title>1766 entries @ 2024-12-11 00:18:17 +0800
(commit 439987d786303dc36e3ae472cbc3b46b59184237)</title></circle>
<circle cx="4.0876" cy="12.2370" r="0.1000"><title>1763 entries @ 2024-12-04 14:24:41 +0800
(commit 4859eb4a8fc7440f6160770532b5db24c08a0ad5)</title></circle>
<circle cx="4.0744" cy="12.2420" r="0.1000"><title>1758 entries @ 2024-12-02 21:44:18 +0800
(commit ad0e1c2d1ad531b6b189cf7e5febb5b5794cbe17)</title></circle>
<circle cx="4.0516" cy="12.2610" r="0.1000"><title>1739 entries @ 2024-11-29 23:57:50 +0800
(commit ef393f3a28b983d2ba60ed08d84b2a5d90c8139b)</title></circle>
<circle cx="3.9185" cy="12.2850" r="0.1000"><title>1715 entries @ 2024-11-12 23:28:11 +0800
(commit 2601a86593992472e8de3302f02c076628c78b2a)</title></circle>
<circle cx="3.8719" cy="12.3380" r="0.1000"><title>1662 entries @ 2024-11-07 00:26:46 +0800
(commit 470aa8d5ca0d93d6c2491402097c132bc28fba4c)</title></circle>
<circle cx="3.6606" cy="12.3780" r="0.1000"><title>1622 entries @ 2024-10-11 00:09:32 +0800
(commit 46f9e0d011a91e7d156c9219b137e0cbf9f38de1)</title></circle>
<circle cx="3.6174" cy="12.4100" r="0.1000"><title>1590 entries @ 2024-10-05 11:36:32 +0800
(commit 1b35460e1a05e699fb4b68e8f090d3384b597cb1)</title></circle>
<circle cx="3.6139" cy="12.4100" r="0.1000"><title>1590 entries @ 2024-10-05 00:48:51 +0800
(commit 43188ebb38a17c39b645255c5c7a33583ec146ca)</title></circle>
<circle cx="3.5592" cy="12.4400" r="0.1000"><title>1560 entries @ 2024-09-28 00:57:42 +0800
(commit 991f41409e90ffa0e9e2ff4736915e48d8fe288f)</title></circle>
<circle cx="3.5354" cy="12.4950" r="0.1000"><title>1505 entries @ 2024-09-24 23:52:36 +0800
(commit 0f3005027bdeeaeed986d5f261a169187d0893f6)</title></circle>
<circle cx="3.4799" cy="12.5480" r="0.1000"><title>1452 entries @ 2024-09-17 21:35:30 +0800
(commit f0031b8101e1c8f7b1d1e4fb05a0d9d5c16f9b53)</title></circle>
<circle cx="3.3006" cy="12.6050" r="0.1000"><title>1395 entries @ 2024-08-25 23:32:08 +0800
(commit 54fc7675b665736cc837ef9ac9b02f0accda4ecc)</title></circle>
<circle cx="3.0660" cy="12.6510" r="0.1000"><title>1349 entries @ 2024-07-26 23:46:06 +0800
(commit 6a43157df8210e3fa686ab90e8f76d2a77abfa6f)</title></circle>
<circle cx="2.9878" cy="12.7010" r="0.1000"><title>1299 entries @ 2024-07-16 23:51:35 +0800
(commit 5ce353a1b4c2832eef00ab45ea0327710ee65fd5)</title></circle>
<circle cx="2.9698" cy="12.7170" r="0.1000"><title>1283 entries @ 2024-07-14 16:38:04 +0800
(commit a4b0436229dd5559222da33aad35f991fd21aa8d)</title></circle>
<circle cx="2.9015" cy="12.7580" r="0.1000"><title>1242 entries @ 2024-07-05 23:04:50 +0800
(commit 3bc17d81f1e27b8953d823586a693dd02d68a871)</title></circle>
<circle cx="2.8158" cy="12.8110" r="0.1000"><title>1189 entries @ 2024-06-25 00:04:11 +0800
(commit ff424a2411e33ac6bd4aef636ed55d12cfbfea7c)</title></circle>
<circle cx="2.5870" cy="12.8610" r="0.1000"><title>1139 entries @ 2024-05-26 17:48:25 +0800
(commit c4a46c7b7c2391ccac79ad65c2012e7ea9521883)</title></circle>
<circle cx="2.5327" cy="12.9210" r="0.1000"><title>1079 entries @ 2024-05-19 19:13:15 +0800
(commit ac2f13fd5c3c9fafa5697d4f7d205dc4f8a8cfe2)</title></circle>
<circle cx="2.4642" cy="12.9760" r="0.1000"><title>1024 entries @ 2024-05-11 01:02:01 +0800
(commit 380b64241a48a40da1e91f4f3a791a33c99c300d)</title></circle>
<circle cx="2.4220" cy="13.0120" r="0.1000"><title>988 entries @ 2024-05-05 15:46:53 +0800
(commit d4a27c6ada56bf5c478455c8fb35fb81fc1952fc)</title></circle>
<circle cx="2.3927" cy="13.0360" r="0.1000"><title>964 entries @ 2024-05-01 21:43:38 +0800
(commit d37ef253f6e7929326b307d2d8567ca1ae2ee660)</title></circle>
<circle cx="2.3154" cy="13.1000" r="0.1000"><title>900 entries @ 2024-04-22 00:25:43 +0800
(commit 32f68a65f4332c46246579420bc8b535caafc857)</title></circle>
<circle cx="2.2596" cy="13.1580" r="0.1000"><title>842 entries @ 2024-04-14 21:21:52 +0800
(commit a5a8ffe15d78510407d0102cc494f412bb1d3736)</title></circle>
<circle cx="2.2047" cy="13.2180" r="0.1000"><title>782 entries @ 2024-04-07 21:02:31 +0800
(commit 20a0be81b452ca8742f3ce35842684ec96b63af0)</title></circle>
<circle cx="2.1272" cy="13.2680" r="0.1000"><title>732 entries @ 2024-03-28 23:08:34 +0800
(commit 74c7b3157c9c2bd7ec90c85a4c1e30fefca1a533)</title></circle>
<circle cx="1.9711" cy="13.3310" r="0.1000"><title>669 entries @ 2024-03-09 00:11:55 +0800
(commit 4a43e1bd9bdb355e524a5522421de366c28d5d13)</title></circle>
<circle cx="1.8222" cy="13.3680" r="0.1000"><title>632 entries @ 2024-02-18 23:19:10 +0800
(commit 84d91befdc8749dab3b9bbbd9572e3c707793e8e)</title></circle>
<circle cx="1.7525" cy="13.4210" r="0.1000"><title>579 entries @ 2024-02-10 01:22:50 +0800
(commit b67bbe857ea320253f767ffbfd8cd361b4e21deb)</title></circle>
<circle cx="1.7052" cy="13.4770" r="0.1000"><title>523 entries @ 2024-02-04 00:16:05 +0800
(commit f2b12ce98dd2e6f76f65448c7b70b5b59a942074)</title></circle>
<circle cx="1.6341" cy="13.5260" r="0.1000"><title>474 entries @ 2024-01-25 22:05:28 +0800
(commit dde04befb74b32ab545c655e0ea96b6642864f1a)</title></circle>
<circle cx="1.6036" cy="13.5570" r="0.1000"><title>443 entries @ 2024-01-22 00:21:35 +0800
(commit 6aa631bde975927aea876af306344c6379b52236)</title></circle>
<circle cx="1.5718" cy="13.6030" r="0.1000"><title>397 entries @ 2024-01-17 22:47:04 +0800
(commit 40f329b2312e601c9974d48cea40a3d04a840c26)</title></circle>
<circle cx="1.5090" cy="13.6490" r="0.1000"><title>351 entries @ 2024-01-09 22:06:46 +0800
(commit 7699a0319b80fd17d963db247e8fe1e5a88abd0e)</title></circle>
<circle cx="1.4765" cy="13.6500" r="0.1000"><title>350 entries @ 2024-01-05 18:26:48 +0800
(commit 9bd7889cfcdc7cc295a56fdeb6ec20ff2a02df57)</title></circle>
<circle cx="1.4630" cy="13.6720" r="0.1000"><title>328 entries @ 2024-01-04 00:55:58 +0800
(commit d0c45c69689e211ed811c856799d0d83e59ad0d6)</title></circle>
<circle cx="1.4296" cy="13.7120" r="0.1000"><title>288 entries @ 2023-12-30 18:28:42 +0800
(commit 7b8b9c2a8f1f38020a1e3f0396c0e70e01eb28bf)</title></circle>
<circle cx="1.4084" cy="13.7140" r="0.1000"><title>286 entries @ 2023-12-28 01:30:05 +0800
(commit b24b925f1cda9d78557b34d2dd29b13a78a1ae97)</title></circle>
<circle cx="1.3765" cy="13.7590" r="0.1000"><title>241 entries @ 2023-12-23 23:43:40 +0800
(commit 3e016ec29b170d22120954af37abec32c2cb1d78)</title></circle>
<circle cx="1.1730" cy="13.8110" r="0.1000"><title>189 entries @ 2023-11-27 23:15:43 +0800
(commit 98536f0df324136e633f056c0661f577bc3ba3b2)</title></circle>
<circle cx="0.7078" cy="13.8650" r="0.1000"><title>135 entries @ 2023-09-29 13:55:25 +1000
(commit 289bd3d7136bb4cb14caabde69ff6d34d2acda2c)</title></circle>
<circle cx="0.4065" cy="13.8940" r="0.1000"><title>106 entries @ 2023-08-21 23:15:04 +0800
(commit 9e187ec236608e2e7f3bf72d2499e1ba682f9372)</title></circle>
<circle cx="0.3417" cy="13.9270" r="0.1000"><title>73 entries @ 2023-08-13 16:33:01 +0800
(commit 4e65160195aae0be32961f534298c4a8b02cc65b)</title></circle>
<circle cx="0.3202" cy="13.9550" r="0.1000"><title>45 entries @ 2023-08-10 22:36:03 +0800
(commit 71a4e1d7a092c954f4d267bc6c7b1c819b65ee91)</title></circle>
<circle cx="0.2867" cy="13.9620" r="0.1000"><title>38 entries @ 2023-08-06 15:36:21 +0800
(commit 9fba6365142ffb1c1cb872ddc6689583ea9f803b)</title></circle>
<circle cx="0.2818" cy="13.9620" r="0.1000"><title>38 entries @ 2023-08-06 00:40:39 +0800
(commit 6aba13d3960872aad32d9baf1c810f0cbaef9d04)</title></circle>
<circle cx="0.2814" cy="13.9620" r="0.1000"><title>38 entries @ 2023-08-05 23:23:40 +0800
(commit ac9f0b16467254101cdab7d8e32f15eab4959580)</title></circle>
<circle cx="0.2809" cy="13.9620" r="0.1000"><title>38 entries @ 2023-08-05 21:51:30 +0800
(commit b8847f6b38eb42b8a47b3b21282e1eaa86ce0637)</title></circle>
<circle cx="0.2800" cy="13.9620" r="0.1000"><title>38 entries @ 2023-08-05 19:06:35 +0800
(commit 05889a6397500b2c4e1b1d87a50ebefa57028866)</title></circle>
<circle cx="0.2796" cy="13.9620" r="0.1000"><title>38 entries @ 2023-08-05 17:58:04 +0800
(commit 969095e49b61832b36fcf32fdcbfb06e510c38b7)</title></circle>
<circle cx="0.2791" cy="13.9620" r="0.1000"><title>38 entries @ 2023-08-05 16:31:54 +0800
(commit eb29a92a7fe0012f2af4f52db95914d7f85ef333)</title></circle>
<circle cx="0.2738" cy="13.9620" r="0.1000"><title>38 entries @ 2023-08-05 00:01:42 +0800
(commit 43bd2ade8a8717220f836dfe0c67c39bf776b961)</title></circle>
<circle cx="0.2733" cy="13.9620" r="0.1000"><title>38 entries @ 2023-08-04 22:28:14 +0800
(commit 88d0293887b685b76bd496e71e0765eb4df6e625)</title></circle>
<circle cx="0.2582" cy="13.9620" r="0.1000"><title>38 entries @ 2023-08-03 00:11:17 +0800
(commit e19b8139eb63703db99e3ba01ded8648eeea5f3c)</title></circle>
<circle cx="0.2575" cy="13.9620" r="0.1000"><title>38 entries @ 2023-08-02 22:02:25 +0800
(commit d3532f0fb218c0e975e01d07303fb2f60f60a280)</title></circle>
<circle cx="0.2346" cy="13.9620" r="0.1000"><title>38 entries @ 2023-07-30 23:55:16 +0800
(commit 419da97bc0ac470088b4aa29ab0c28a5b93572a3)</title></circle>
<circle cx="0.2234" cy="13.9740" r="0.1000"><title>26 entries @ 2023-07-29 13:27:42 +0800
(commit 9b524c93bb2693996e69586032ea2d06a968568e)</title></circle>
<circle cx="0.1794" cy="13.9740" r="0.1000"><title>26 entries @ 2023-07-23 22:34:13 +0800
(commit d44b81f791495112ed16c881dd8bb1745e599e09)</title></circle>
<circle cx="0.1643" cy="13.9840" r="0.1000"><title>16 entries @ 2023-07-22 00:09:16 +0800
(commit 6dc5e890b41df1652ace67a1ebd944966c9aa1fa)</title></circle>
<circle cx="0.1569" cy="13.9900" r="0.1000"><title>10 entries @ 2023-07-21 01:18:34 +0800
(commit 1d573b63c668417d22bf99d91a0ea21b2c4d71c3)</title></circle>
<circle cx="0.1557" cy="14.0000" r="0.1000"><title>0 entries @ 2023-07-20 21:39:40 +0800
(commit 263685863f91821c9cefca68e1899910e88be118)</title></circle>
</svg>
