<?xml version="1.0" encoding="UTF-8"?>
<svg xmlns="http://www.w3.org/2000/svg"
 width="72pt" height="72pt" viewBox="0 0 72 72"
 preserveAspectRatio="xMidYMid meet">
<g transform="translate(0,72) scale(0.1,-0.1)"
fill="#000000" stroke="none">
<path d="M371 646 c-8 -9 -10 -27 -5 -50 l6 -36 -70 0 c-39 0 -82 4 -96 10
-39 15 -47 -11 -36 -111 10 -80 11 -152 7 -318 -2 -74 9 -99 28 -62 6 10 18
33 29 51 12 22 20 64 25 124 5 78 9 91 25 94 25 5 42 -13 29 -30 -12 -14 -2
-155 11 -177 4 -6 3 -11 -2 -11 -14 0 -62 -44 -62 -58 0 -17 21 -15 85 9 38
14 59 28 65 44 11 30 31 36 50 14 18 -21 165 -70 186 -62 20 7 18 39 -3 48
-10 5 -54 14 -98 21 -68 10 -72 12 -29 11 27 0 55 3 62 7 19 12 16 145 -5 168
-18 20 -17 20 52 22 32 1 40 5 40 20 0 29 -29 43 -59 27 -32 -18 -79 -7 -74
17 2 13 15 18 53 20 71 4 78 7 65 32 -9 17 -19 20 -63 18 -30 -2 -52 1 -52 7
0 6 23 10 50 10 28 0 56 4 63 8 21 14 14 55 -13 73 -24 16 -27 16 -48 -3 -15
-14 -37 -21 -74 -22 l-52 -1 -3 47 c-3 47 -4 48 -39 51 -22 2 -40 -2 -48 -12z
m-56 -146 c3 -5 -1 -10 -10 -10 -9 0 -13 5 -10 10 3 6 8 10 10 10 2 0 7 -4 10
-10z m135 -5 c0 -16 -45 -21 -54 -6 -8 12 4 21 31 21 14 0 23 -6 23 -15z
m-120 -74 c0 -11 -9 -21 -22 -25 -38 -10 -48 -7 -48 13 0 21 13 29 48 30 15 1
22 -5 22 -18z m205 -81 c-3 -5 -17 -10 -31 -10 -13 0 -24 5 -24 10 0 6 14 10
31 10 17 0 28 -4 24 -10z m-117 -62 c-3 -7 -13 -13 -23 -13 -10 0 -20 6 -22
13 -3 7 5 12 22 12 17 0 25 -5 23 -12z m101 3 c11 -7 9 -10 -8 -16 -22 -7 -41
0 -41 16 0 11 30 12 49 0z m-99 -76 c0 -8 -6 -15 -14 -15 -17 0 -28 14 -19 24
12 12 33 6 33 -9z m105 5 c-3 -5 -15 -10 -26 -10 -10 0 -19 5 -19 10 0 6 12
10 26 10 14 0 23 -4 19 -10z"/>
<path d="M36 604 c-9 -8 -16 -22 -16 -29 0 -46 58 -101 82 -77 9 9 7 16 -5 30
-19 20 -23 52 -7 52 6 0 10 9 10 20 0 25 -41 28 -64 4z"/>
</g>
</svg>
